<?xml version='1.0' encoding='UTF-8' standalone='no'?>
<!-- Created with Fritzing (https://fritzing.org/) -->
<svg xmlns="http://www.w3.org/2000/svg" viewBox="0 0 246.278 267.691"  baseProfile="tiny" version="1.2" xmlns:svg="http://www.w3.org/2000/svg" width="3.42053in" y="0in" x="0in" height="3.71794in">
 <g partID="334800">
  <g  id="board">
   <ellipse fill="none"  stroke="black" cy="133.846" ry="133.558" id="boardoutline" fill-opacity="0.5" cx="123.139" rx="122.851" stroke-width="0.5"/>
  </g>
 </g>
 <g partID="255062">
  <g transform="translate(88.7171,256.865)">
   <g transform="matrix(0,-1,1,0,0,0)">
    <g gorn="0.3.1"  id="copper1">
     <g gorn="0.3.1.0"  id="copper0">
      <path gorn="0.3.1.0.0" fill="none"  stroke="black" id="connector15pad" style="stroke-linecap:butt;stroke-linejoin:miter;stroke-miterlimit:4;stroke-dasharray:none;" d="m29.4053,74.5175c1.08514,0,1.96483,0.879686,1.96483,1.96482,0,1.08514,-0.879683,1.96482,-1.96483,1.96482,-1.08514,0,-1.96483,-0.879679,-1.96483,-1.96482,0,-1.08514,0.879684,-1.96482,1.96483,-1.96482z" stroke-opacity="1" stroke-width="1.40602"/>
      <path gorn="0.3.1.0.1" fill="none"  stroke="black" id="connector16pad" style="stroke-linecap:butt;stroke-linejoin:miter;stroke-miterlimit:4;stroke-dasharray:none;" d="m36.6156,74.5175c1.08514,0,1.96483,0.879686,1.96483,1.96482,0,1.08514,-0.879683,1.96482,-1.96483,1.96482,-1.08514,0,-1.96483,-0.879679,-1.96483,-1.96482,0,-1.08514,0.879684,-1.96482,1.96483,-1.96482z" stroke-opacity="1" stroke-width="1.40602"/>
      <path gorn="0.3.1.0.2" fill="none"  stroke="black" id="connector17pad" style="stroke-linecap:butt;stroke-linejoin:miter;stroke-miterlimit:4;stroke-dasharray:none;" d="m43.826,74.5175c1.08514,0,1.96483,0.879686,1.96483,1.96482,0,1.08514,-0.879682,1.96482,-1.96483,1.96482,-1.08514,0,-1.96483,-0.879679,-1.96483,-1.96482,0,-1.08514,0.879683,-1.96482,1.96483,-1.96482z" stroke-opacity="1" stroke-width="1.40602"/>
      <path gorn="0.3.1.0.3" fill="none"  stroke="black" id="connector18pad" style="stroke-linecap:butt;stroke-linejoin:miter;stroke-miterlimit:4;stroke-dasharray:none;" d="m51.0363,74.5175c1.08514,0,1.96483,0.879686,1.96483,1.96482,0,1.08514,-0.879683,1.96482,-1.96483,1.96482,-1.08514,0,-1.96483,-0.879679,-1.96483,-1.96482,0,-1.08514,0.879683,-1.96482,1.96483,-1.96482z" stroke-opacity="1" stroke-width="1.40602"/>
      <path gorn="0.3.1.0.4" fill="none"  stroke="black" id="connector19pad" style="stroke-linecap:butt;stroke-linejoin:miter;stroke-miterlimit:4;stroke-dasharray:none;" d="m58.2467,74.5175c1.08514,0,1.96483,0.879686,1.96483,1.96482,0,1.08514,-0.879683,1.96482,-1.96483,1.96482,-1.08514,0,-1.96483,-0.879679,-1.96483,-1.96482,0,-1.08514,0.879684,-1.96482,1.96483,-1.96482z" stroke-opacity="1" stroke-width="1.40602"/>
      <path gorn="0.3.1.0.5" fill="none"  stroke="black" id="connector33pin" style="stroke-linecap:butt;stroke-linejoin:miter;stroke-miterlimit:4;stroke-dasharray:none;" d="m65.4571,74.5175c1.08514,0,1.96483,0.879686,1.96483,1.96482,0,1.08514,-0.879683,1.96482,-1.96483,1.96482,-1.08514,0,-1.96483,-0.879679,-1.96483,-1.96482,0,-1.08514,0.879684,-1.96482,1.96483,-1.96482z" stroke-opacity="1" stroke-width="1.40602"/>
      <path gorn="0.3.1.0.6" fill="none"  stroke="black" id="connector34pin" style="stroke-linecap:butt;stroke-linejoin:miter;stroke-miterlimit:4;stroke-dasharray:none;" d="m72.6674,74.5175c1.08514,0,1.96483,0.879686,1.96483,1.96482,0,1.08514,-0.879683,1.96482,-1.96483,1.96482,-1.08514,0,-1.96483,-0.879679,-1.96483,-1.96482,0,-1.08514,0.879684,-1.96482,1.96483,-1.96482z" stroke-opacity="1" stroke-width="1.40602"/>
      <path gorn="0.3.1.0.7" fill="none"  stroke="black" id="connector35pin" style="stroke-linecap:butt;stroke-linejoin:miter;stroke-miterlimit:4;stroke-dasharray:none;" d="m79.8778,74.5175c1.08514,0,1.96483,0.879686,1.96483,1.96482,0,1.08514,-0.879688,1.96482,-1.96483,1.96482,-1.08514,0,-1.96483,-0.879679,-1.96483,-1.96482,0,-1.08514,0.879686,-1.96482,1.96483,-1.96482z" stroke-opacity="1" stroke-width="1.40602"/>
      <path gorn="0.3.1.0.8" fill="none"  stroke="black" id="connector36pin" style="stroke-linecap:butt;stroke-linejoin:miter;stroke-miterlimit:4;stroke-dasharray:none;" d="m87.0882,74.5175c1.08514,0,1.96482,0.879686,1.96482,1.96482,0,1.08514,-0.87968,1.96482,-1.96482,1.96482,-1.08514,0,-1.96483,-0.879679,-1.96483,-1.96482,0,-1.08514,0.879688,-1.96482,1.96483,-1.96482z" stroke-opacity="1" stroke-width="1.40602"/>
      <path gorn="0.3.1.0.9" fill="none"  stroke="black" id="connector37pin" style="stroke-linecap:butt;stroke-linejoin:miter;stroke-miterlimit:4;stroke-dasharray:none;" d="m94.2985,74.5175c1.08515,0,1.96482,0.879686,1.96482,1.96482,0,1.08514,-0.879672,1.96482,-1.96482,1.96482,-1.08514,0,-1.96482,-0.879679,-1.96482,-1.96482,0,-1.08514,0.87968,-1.96482,1.96482,-1.96482z" stroke-opacity="1" stroke-width="1.40602"/>
      <path gorn="0.3.1.0.10" fill="none"  stroke="black" id="connector38pin" style="stroke-linecap:butt;stroke-linejoin:miter;stroke-miterlimit:4;stroke-dasharray:none;" d="m101.509,74.5175c1.08514,0,1.96482,0.879686,1.96482,1.96482,0,1.08514,-0.87968,1.96482,-1.96482,1.96482,-1.08514,0,-1.96483,-0.879679,-1.96483,-1.96482,0,-1.08514,0.879688,-1.96482,1.96483,-1.96482z" stroke-opacity="1" stroke-width="1.40602"/>
      <path gorn="0.3.1.0.11" fill="none"  stroke="black" id="connector39pin" style="stroke-linecap:butt;stroke-linejoin:miter;stroke-miterlimit:4;stroke-dasharray:none;" d="m108.719,74.5175c1.08514,0,1.96482,0.879686,1.96482,1.96482,0,1.08514,-0.87968,1.96482,-1.96482,1.96482,-1.08514,0,-1.96483,-0.879679,-1.96483,-1.96482,0,-1.08514,0.879688,-1.96482,1.96483,-1.96482z" stroke-opacity="1" stroke-width="1.40602"/>
      <path gorn="0.3.1.0.12" fill="none"  stroke="black" id="connector40pin" style="stroke-linecap:butt;stroke-linejoin:miter;stroke-miterlimit:4;stroke-dasharray:none;" d="m115.93,74.5175c1.08514,0,1.96482,0.879686,1.96482,1.96482,0,1.08514,-0.87968,1.96482,-1.96482,1.96482,-1.08514,0,-1.96483,-0.879679,-1.96483,-1.96482,0,-1.08514,0.879688,-1.96482,1.96483,-1.96482z" stroke-opacity="1" stroke-width="1.40602"/>
      <path gorn="0.3.1.0.13" fill="none"  stroke="black" id="connector41pin" style="stroke-linecap:butt;stroke-linejoin:miter;stroke-miterlimit:4;stroke-dasharray:none;" d="m123.14,74.5175c1.08514,0,1.96482,0.879686,1.96482,1.96482,0,1.08514,-0.87968,1.96482,-1.96482,1.96482,-1.08514,0,-1.96483,-0.879679,-1.96483,-1.96482,0,-1.08514,0.879688,-1.96482,1.96483,-1.96482z" stroke-opacity="1" stroke-width="1.40602"/>
      <path gorn="0.3.1.0.14" fill="none"  stroke="black" id="connector42pin" style="stroke-linecap:butt;stroke-linejoin:miter;stroke-miterlimit:4;stroke-dasharray:none;" d="m130.35,74.5175c1.08514,0,1.96482,0.879686,1.96482,1.96482,0,1.08514,-0.87968,1.96482,-1.96482,1.96482,-1.08514,0,-1.96483,-0.879679,-1.96483,-1.96482,0,-1.08514,0.879688,-1.96482,1.96483,-1.96482z" stroke-opacity="1" stroke-width="1.40602"/>
      <path gorn="0.3.1.0.15" fill="none"  stroke="black" id="connector14pad" style="stroke-linecap:butt;stroke-linejoin:miter;stroke-miterlimit:4;stroke-dasharray:none;" d="m29.4053,2.41392c1.08514,0,1.96483,0.879687,1.96483,1.96482,0,1.08514,-0.879683,1.96482,-1.96483,1.96482,-1.08514,0,-1.96483,-0.879679,-1.96483,-1.96482,0,-1.08514,0.879684,-1.96482,1.96483,-1.96482z" stroke-opacity="1" stroke-width="1.40602"/>
      <path gorn="0.3.1.0.16" fill="none"  stroke="black" id="connector13pad" style="stroke-linecap:butt;stroke-linejoin:miter;stroke-miterlimit:4;stroke-dasharray:none;" d="m36.6156,2.41392c1.08514,0,1.96483,0.879687,1.96483,1.96482,0,1.08514,-0.879683,1.96482,-1.96483,1.96482,-1.08514,0,-1.96483,-0.879679,-1.96483,-1.96482,0,-1.08514,0.879684,-1.96482,1.96483,-1.96482z" stroke-opacity="1" stroke-width="1.40602"/>
      <path gorn="0.3.1.0.17" fill="none"  stroke="black" id="connector12pad" style="stroke-linecap:butt;stroke-linejoin:miter;stroke-miterlimit:4;stroke-dasharray:none;" d="m43.826,2.41392c1.08514,0,1.96483,0.879687,1.96483,1.96482,0,1.08514,-0.879682,1.96482,-1.96483,1.96482,-1.08514,0,-1.96483,-0.879679,-1.96483,-1.96482,0,-1.08514,0.879683,-1.96482,1.96483,-1.96482z" stroke-opacity="1" stroke-width="1.40602"/>
      <path gorn="0.3.1.0.18" fill="none"  stroke="black" id="connector11pad" style="stroke-linecap:butt;stroke-linejoin:miter;stroke-miterlimit:4;stroke-dasharray:none;" d="m51.0363,2.41392c1.08514,0,1.96483,0.879687,1.96483,1.96482,0,1.08514,-0.879683,1.96482,-1.96483,1.96482,-1.08514,0,-1.96483,-0.879679,-1.96483,-1.96482,0,-1.08514,0.879683,-1.96482,1.96483,-1.96482z" stroke-opacity="1" stroke-width="1.40602"/>
      <path gorn="0.3.1.0.19" fill="none"  stroke="black" id="connector10pad" style="stroke-linecap:butt;stroke-linejoin:miter;stroke-miterlimit:4;stroke-dasharray:none;" d="m58.2467,2.41392c1.08514,0,1.96483,0.879687,1.96483,1.96482,0,1.08514,-0.879683,1.96482,-1.96483,1.96482,-1.08514,0,-1.96483,-0.879679,-1.96483,-1.96482,0,-1.08514,0.879684,-1.96482,1.96483,-1.96482z" stroke-opacity="1" stroke-width="1.40602"/>
      <path gorn="0.3.1.0.20" fill="none"  stroke="black" id="connector9pad" style="stroke-linecap:butt;stroke-linejoin:miter;stroke-miterlimit:4;stroke-dasharray:none;" d="m65.4571,2.41392c1.08514,0,1.96483,0.879687,1.96483,1.96482,0,1.08514,-0.879683,1.96482,-1.96483,1.96482,-1.08514,0,-1.96483,-0.879679,-1.96483,-1.96482,0,-1.08514,0.879684,-1.96482,1.96483,-1.96482z" stroke-opacity="1" stroke-width="1.40602"/>
      <path gorn="0.3.1.0.21" fill="none"  stroke="black" id="connector8pad" style="stroke-linecap:butt;stroke-linejoin:miter;stroke-miterlimit:4;stroke-dasharray:none;" d="m72.6674,2.41392c1.08514,0,1.96483,0.879687,1.96483,1.96482,0,1.08514,-0.879683,1.96482,-1.96483,1.96482,-1.08514,0,-1.96483,-0.879679,-1.96483,-1.96482,0,-1.08514,0.879684,-1.96482,1.96483,-1.96482z" stroke-opacity="1" stroke-width="1.40602"/>
      <path gorn="0.3.1.0.22" fill="none"  stroke="black" id="connector7pad" style="stroke-linecap:butt;stroke-linejoin:miter;stroke-miterlimit:4;stroke-dasharray:none;" d="m79.8778,2.41392c1.08514,0,1.96483,0.879687,1.96483,1.96482,0,1.08514,-0.879688,1.96482,-1.96483,1.96482,-1.08514,0,-1.96483,-0.879679,-1.96483,-1.96482,0,-1.08514,0.879686,-1.96482,1.96483,-1.96482z" stroke-opacity="1" stroke-width="1.40602"/>
      <path gorn="0.3.1.0.23" fill="none"  stroke="black" id="connector6pad" style="stroke-linecap:butt;stroke-linejoin:miter;stroke-miterlimit:4;stroke-dasharray:none;" d="m87.0882,2.41392c1.08514,0,1.96482,0.879687,1.96482,1.96482,0,1.08514,-0.87968,1.96482,-1.96482,1.96482,-1.08514,0,-1.96483,-0.879679,-1.96483,-1.96482,0,-1.08514,0.879688,-1.96482,1.96483,-1.96482z" stroke-opacity="1" stroke-width="1.40602"/>
      <path gorn="0.3.1.0.24" fill="none"  stroke="black" id="connector5pad" style="stroke-linecap:butt;stroke-linejoin:miter;stroke-miterlimit:4;stroke-dasharray:none;" d="m94.2985,2.41392c1.08515,0,1.96482,0.879687,1.96482,1.96482,0,1.08514,-0.879672,1.96482,-1.96482,1.96482,-1.08514,0,-1.96482,-0.879679,-1.96482,-1.96482,0,-1.08514,0.87968,-1.96482,1.96482,-1.96482z" stroke-opacity="1" stroke-width="1.40602"/>
      <path gorn="0.3.1.0.25" fill="none"  stroke="black" id="connector4pad" style="stroke-linecap:butt;stroke-linejoin:miter;stroke-miterlimit:4;stroke-dasharray:none;" d="m101.509,2.41392c1.08514,0,1.96482,0.879687,1.96482,1.96482,0,1.08514,-0.87968,1.96482,-1.96482,1.96482,-1.08514,0,-1.96483,-0.879679,-1.96483,-1.96482,0,-1.08514,0.879688,-1.96482,1.96483,-1.96482z" stroke-opacity="1" stroke-width="1.40602"/>
      <path gorn="0.3.1.0.26" fill="none"  stroke="black" id="connector3pad" style="stroke-linecap:butt;stroke-linejoin:miter;stroke-miterlimit:4;stroke-dasharray:none;" d="m108.719,2.41392c1.08514,0,1.96482,0.879687,1.96482,1.96482,0,1.08514,-0.87968,1.96482,-1.96482,1.96482,-1.08514,0,-1.96483,-0.879679,-1.96483,-1.96482,0,-1.08514,0.879688,-1.96482,1.96483,-1.96482z" stroke-opacity="1" stroke-width="1.40602"/>
      <path gorn="0.3.1.0.27" fill="none"  stroke="black" id="connector2pad" style="stroke-linecap:butt;stroke-linejoin:miter;stroke-miterlimit:4;stroke-dasharray:none;" d="m115.93,2.41392c1.08514,0,1.96482,0.879687,1.96482,1.96482,0,1.08514,-0.87968,1.96482,-1.96482,1.96482,-1.08514,0,-1.96483,-0.879679,-1.96483,-1.96482,0,-1.08514,0.879688,-1.96482,1.96483,-1.96482z" stroke-opacity="1" stroke-width="1.40602"/>
      <path gorn="0.3.1.0.28" fill="none"  stroke="black" id="connector1pad" style="stroke-linecap:butt;stroke-linejoin:miter;stroke-miterlimit:4;stroke-dasharray:none;" d="m123.14,2.41392c1.08514,0,1.96482,0.879687,1.96482,1.96482,0,1.08514,-0.87968,1.96482,-1.96482,1.96482,-1.08514,0,-1.96483,-0.879679,-1.96483,-1.96482,0,-1.08514,0.879688,-1.96482,1.96483,-1.96482z" stroke-opacity="1" stroke-width="1.40602"/>
      <path gorn="0.3.1.0.29" fill="none"  stroke="black" id="connector0pad" style="stroke-linecap:butt;stroke-linejoin:miter;stroke-miterlimit:4;stroke-dasharray:none;" d="m130.35,2.41392c1.08514,0,1.96482,0.879687,1.96482,1.96482,0,1.08514,-0.87968,1.96482,-1.96482,1.96482,-1.08514,0,-1.96483,-0.879679,-1.96483,-1.96482,0,-1.08514,0.879688,-1.96482,1.96483,-1.96482z" stroke-opacity="1" stroke-width="1.40602"/>
     </g>
    </g>
   </g>
  </g>
 </g>
 <g partID="255102">
  <g transform="translate(164.187,103.869)">
   <g transform="matrix(-1,0,0,-1,0,0)">
    <g  id="copper1">
     <g  id="copper0">
      <rect fill="none" gorn="0.4.0.0"  stroke="black" id="square" width="4.175" y="3.94302" x="25.696" height="4.172" stroke-width="1.44"/>
      <circle fill="none" gorn="0.4.0.4"  stroke="black" cy="6.03007" id="connector0pin" r="2.088" cx="27.783" stroke-width="1.44"/>
      <circle fill="none" gorn="0.4.0.3"  stroke="black" cy="6.03007" id="connector1pin" r="2.088" cx="34.986" stroke-width="1.44"/>
      <circle fill="none" gorn="0.4.0.2"  stroke="black" cy="6.03007" id="connector2pin" r="2.088" cx="42.188" stroke-width="1.44"/>
      <circle fill="none" gorn="0.4.0.1"  stroke="black" cy="6.02901" id="connector3pin" r="2.088" cx="49.388" stroke-width="1.44"/>
     </g>
    </g>
   </g>
  </g>
 </g>
 <g partID="257842">
  <g transform="translate(171.359,128.799)">
   <g  id="copper1">
    <g  id="copper0">
     <circle fill="none"  cy="5.04" stroke="black" id="connector0pin" r="2.088" cx="5.04" stroke-width="1.44"/>
     <circle fill="none"  cy="12.24" stroke="black" id="connector1pin" r="2.088" cx="5.04" stroke-width="1.44"/>
     <circle fill="none"  cy="19.44" stroke="black" id="connector2pin" r="2.088" cx="5.04" stroke-width="1.44"/>
     <circle fill="none"  cy="26.64" stroke="black" id="connector3pin" r="2.088" cx="5.04" stroke-width="1.44"/>
     <circle fill="none"  cy="33.84" stroke="black" id="connector4pin" r="2.088" cx="5.04" stroke-width="1.44"/>
     <circle fill="none"  cy="41.04" stroke="black" id="connector5pin" r="2.088" cx="5.04" stroke-width="1.44"/>
    </g>
   </g>
  </g>
 </g>
 <g partID="354332">
  <g transform="translate(112.039,79.6954)">
   <g transform="matrix(0,-1,1,0,0,0)">
    <g id="copper1" flipped="1">
     <g transform="matrix(-1, 0, 0, 1, 18.432, 0)">
      <g>
       <g>
        <g>
         <rect fill="none" stroke="black" id="square" width="4.55811" y="4.48158" height="4.55811" x="5.49695" stroke-width="1.44"/>
         <circle fill="none" cy="6.76063" stroke="black" id="connector0pin" r="2.27905" cx="7.776" stroke-width="1.44"/>
         <circle fill="none" cy="16.6819" stroke="black" id="connector1pin" r="2.27905" cx="7.776" stroke-width="1.44"/>
        </g>
        <g>
         <g id="copper0">
          <rect fill="none" stroke="black" id="square" width="4.55811" y="4.48158" height="4.55811" x="5.49695" stroke-width="1.44"/>
          <circle fill="none" cy="6.76063" stroke="black" id="connector0pin" r="2.27905" cx="7.776" stroke-width="1.44"/>
          <circle fill="none" cy="16.6819" stroke="black" id="connector1pin" r="2.27905" cx="7.776" stroke-width="1.44"/>
         </g>
        </g>
       </g>
      </g>
     </g>
    </g>
   </g>
  </g>
 </g>
 <g partID="351162">
  <g transform="translate(113.639,19.2154)">
   <g transform="matrix(0,-1,1,0,0,0)">
    <g  id="copper1">
     <g  id="copper0">
      <rect fill="none"  stroke="black" id="square" width="4.55811" y="4.48158" height="4.55811" x="5.49695" stroke-width="1.44"/>
      <circle fill="none"  cy="6.76063" stroke="black" id="connector0pin" r="2.27905" cx="7.776" stroke-width="1.44"/>
      <circle fill="none"  cy="16.6819" stroke="black" id="connector1pin" r="2.27905" cx="7.776" stroke-width="1.44"/>
     </g>
    </g>
   </g>
  </g>
 </g>
 <g partID="300712">
  <g transform="translate(119.239,238.095)">
   <g transform="matrix(5.55112e-17,-1,1,5.55112e-17,0,0)">
    <g id="copper1" flipped="1">
     <g transform="matrix(-1, 0, 0, 1, 18.432, 0)">
      <g>
       <g>
        <g>
         <rect fill="none" stroke="black" id="square" width="4.32" y="4.60063" height="4.32" x="5.616" stroke-width="1.44"/>
         <circle fill="none" cy="6.76063" stroke="black" id="connector0pin" r="2.16" cx="7.776" stroke-width="1.44"/>
         <circle fill="none" cy="16.6819" stroke="black" id="connector1pin" r="2.16" cx="7.776" stroke-width="1.44"/>
        </g>
        <g>
         <g id="copper0">
          <rect fill="none" stroke="black" id="square" width="4.32" y="4.60063" height="4.32" x="5.616" stroke-width="1.44"/>
          <circle fill="none" cy="6.76063" stroke="black" id="connector0pin" r="2.16" cx="7.776" stroke-width="1.44"/>
          <circle fill="none" cy="16.6819" stroke="black" id="connector1pin" r="2.16" cx="7.776" stroke-width="1.44"/>
         </g>
        </g>
       </g>
      </g>
     </g>
    </g>
   </g>
  </g>
 </g>
 <g partID="270212">
  <g transform="translate(180.663,35.6439)">
   <g transform="matrix(0.864517,-0.502604,0.502604,0.864517,0,0)">
    <g  id="copper1">
     <circle fill="none"  cy="9.06746" stroke="black" id="connector0pad" r="2.052" connectorname="1" cx="6.45336" stroke-width="1.224"/>
     <circle fill="none"  cy="16.7715" stroke="black" id="connector1pad" r="2.052" connectorname="2" cx="6.45336" stroke-width="1.224"/>
     <circle fill="none"  cy="24.4755" stroke="black" id="connector2pad" r="2.052" connectorname="3" cx="6.45336" stroke-width="1.224"/>
     <g  id="copper0">
      <circle fill="none"  cy="9.06746" stroke="black" id="connector0pad" r="2.052" connectorname="1" cx="6.45336" stroke-width="1.224"/>
      <circle fill="none"  cy="16.7715" stroke="black" id="connector1pad" r="2.052" connectorname="2" cx="6.45336" stroke-width="1.224"/>
      <circle fill="none"  cy="24.4755" stroke="black" id="connector2pad" r="2.052" connectorname="3" cx="6.45336" stroke-width="1.224"/>
     </g>
    </g>
   </g>
  </g>
 </g>
 <g partID="305112">
  <g transform="translate(228.959,135.999)">
   <g id="copper1" flipped="1">
    <g transform="matrix(-1, 0, 0, 1, 10.08, 0)">
     <g>
      <g>
       <g>
        <circle fill="none" cy="5.04" stroke="black" id="connector0pin" r="2.088" cx="5.04" stroke-width="1.44"/>
        <circle fill="none" cy="12.24" stroke="black" id="connector1pin" r="2.088" cx="5.04" stroke-width="1.44"/>
        <circle fill="none" cy="19.44" stroke="black" id="connector2pin" r="2.088" cx="5.04" stroke-width="1.44"/>
        <circle fill="none" cy="26.64" stroke="black" id="connector3pin" r="2.088" cx="5.04" stroke-width="1.44"/>
       </g>
       <g>
        <g id="copper0">
         <circle fill="none" cy="5.04" stroke="black" id="connector0pin" r="2.088" cx="5.04" stroke-width="1.44"/>
         <circle fill="none" cy="12.24" stroke="black" id="connector1pin" r="2.088" cx="5.04" stroke-width="1.44"/>
         <circle fill="none" cy="19.44" stroke="black" id="connector2pin" r="2.088" cx="5.04" stroke-width="1.44"/>
         <circle fill="none" cy="26.64" stroke="black" id="connector3pin" r="2.088" cx="5.04" stroke-width="1.44"/>
        </g>
       </g>
      </g>
     </g>
    </g>
   </g>
  </g>
 </g>
 <g partID="306282">
  <g transform="translate(41.7592,85.5994)">
   <g transform="matrix(1,0,0,1,0,0)">
    <g id="copper1" flipped="1">
     <g transform="matrix(-1, 0, 0, 1, 10.08, 0)">
      <g>
       <g>
        <g>
         <circle fill="none" cy="5.04" stroke="black" id="connector0pin" r="2.088" cx="5.04" stroke-width="1.44"/>
         <circle fill="none" cy="12.24" stroke="black" id="connector1pin" r="2.088" cx="5.04" stroke-width="1.44"/>
         <circle fill="none" cy="19.44" stroke="black" id="connector2pin" r="2.088" cx="5.04" stroke-width="1.44"/>
        </g>
        <g>
         <g id="copper0">
          <circle fill="none" cy="5.04" stroke="black" id="connector0pin" r="2.088" cx="5.04" stroke-width="1.44"/>
          <circle fill="none" cy="12.24" stroke="black" id="connector1pin" r="2.088" cx="5.04" stroke-width="1.44"/>
          <circle fill="none" cy="19.44" stroke="black" id="connector2pin" r="2.088" cx="5.04" stroke-width="1.44"/>
         </g>
        </g>
       </g>
      </g>
     </g>
    </g>
   </g>
  </g>
 </g>
 <g partID="308432">
  <g transform="translate(56.1592,128.799)">
   <g  id="copper1">
    <g  id="copper0">
     <circle fill="none"  cy="5.04" stroke="black" id="connector0pin" r="2.088" cx="5.04" stroke-width="1.44"/>
     <circle fill="none"  cy="12.24" stroke="black" id="connector1pin" r="2.088" cx="5.04" stroke-width="1.44"/>
     <circle fill="none"  cy="19.44" stroke="black" id="connector2pin" r="2.088" cx="5.04" stroke-width="1.44"/>
    </g>
   </g>
  </g>
 </g>
 <g partID="351382">
  <g transform="translate(200.159,95.733)">
   <g transform="matrix(1,0,0,1,0,0)">
    <g  id="copper1">
     <g  id="copper0">
      <circle fill="none"  cy="5.04" stroke="black" id="connector0pin" r="2.088" cx="5.04" stroke-width="1.44"/>
      <circle fill="none"  cy="12.24" stroke="black" id="connector1pin" r="2.088" cx="5.04" stroke-width="1.44"/>
     </g>
    </g>
   </g>
  </g>
 </g>
 <g partID="349912">
  <g transform="translate(58.6131,55.1974)">
   <g transform="matrix(0.915468,0.402392,-0.402392,0.915468,0,0)">
    <g  id="copper1">
     <g  id="copper0">
      <circle fill="none"  cy="5.04" stroke="black" id="connector0pin" r="2.088" cx="5.04" stroke-width="1.44"/>
      <circle fill="none"  cy="12.24" stroke="black" id="connector1pin" r="2.088" cx="5.04" stroke-width="1.44"/>
     </g>
    </g>
   </g>
  </g>
 </g>
 <g partID="308652">
  <g transform="translate(63.3592,157.599)">
   <g transform="matrix(1,0,0,1,0,0)">
    <g  id="copper1">
     <g  id="copper0">
      <circle fill="none"  cy="5.04" stroke="black" id="connector0pin" r="2.088" cx="5.04" stroke-width="1.44"/>
      <circle fill="none"  cy="12.24" stroke="black" id="connector1pin" r="2.088" cx="5.04" stroke-width="1.44"/>
      <circle fill="none"  cy="19.44" stroke="black" id="connector2pin" r="2.088" cx="5.04" stroke-width="1.44"/>
     </g>
    </g>
   </g>
  </g>
 </g>
 <g partID="353421">
  <g transform="translate(40.9472,221.587)">
   <g  id="copper1">
    <circle fill="black"  cy="5.85197" stroke="black" id="nonconn0" r="4.25197" cx="5.85197" stroke-width="0"/>
   </g>
  </g>
 </g>
 <g partID="353401">
  <g transform="translate(213.747,63.1874)">
   <g  id="copper1">
    <circle fill="black"  cy="5.85197" stroke="black" id="nonconn0" r="4.25197" cx="5.85197" stroke-width="0"/>
   </g>
  </g>
 </g>
 <g partID="353381">
  <g transform="translate(33.7472,48.7874)">
   <g  id="copper1">
    <circle fill="black"  cy="5.85197" stroke="black" id="nonconn0" r="4.25197" cx="5.85197" stroke-width="0"/>
   </g>
  </g>
 </g>
 <g partID="353361">
  <g transform="translate(192.147,221.587)">
   <g  id="copper1">
    <circle fill="black"  cy="5.85197" stroke="black" id="nonconn0" r="4.25197" cx="5.85197" stroke-width="0"/>
   </g>
  </g>
 </g>
 <g partID="353231">
  <g transform="translate(10.4464,162.287)">
   <g  id="copper1">
    <circle fill="black"  cy="7.55273" stroke="black" id="nonconn0" r="5.95276" cx="7.55273" stroke-width="0"/>
   </g>
  </g>
 </g>
 <g partID="353211">
  <g transform="translate(3.2464,133.487)">
   <g  id="copper1">
    <circle fill="black"  cy="7.55273" stroke="black" id="nonconn0" r="5.95276" cx="7.55273" stroke-width="0"/>
   </g>
  </g>
 </g>
 <g partID="353191">
  <g transform="translate(10.4464,90.2866)">
   <g  id="copper1">
    <circle fill="black"  cy="7.55273" stroke="black" id="nonconn0" r="5.95276" cx="7.55273" stroke-width="0"/>
   </g>
  </g>
 </g>
 <g partID="333431">
  <g transform="translate(98.5472,5.58738)">
   <g  id="copper1">
    <circle fill="black"  cy="5.85197" stroke="black" id="nonconn0" r="4.25197" cx="5.85197" stroke-width="0"/>
   </g>
  </g>
 </g>
 <g partID="337031">
  <g transform="translate(156.147,243.187)">
   <g  id="copper1">
    <circle fill="black"  cy="5.85197" stroke="black" id="nonconn0" r="4.25197" cx="5.85197" stroke-width="0"/>
   </g>
  </g>
 </g>
 <g partID="353271">
  <g transform="translate(213.464,134.904)">
   <g  id="copper1">
    <circle fill="black"  cy="6.13543" stroke="black" id="nonconn0" r="4.53543" cx="6.13543" stroke-width="0"/>
   </g>
  </g>
 </g>
 <g partID="353251">
  <g transform="translate(213.464,156.504)">
   <g  id="copper1">
    <circle fill="black"  cy="6.13543" stroke="black" id="nonconn0" r="4.53543" cx="6.13543" stroke-width="0"/>
   </g>
  </g>
 </g>
 <g partID="353151">
  <g transform="translate(191.864,106.104)">
   <g  id="copper1">
    <circle fill="black"  cy="6.13543" stroke="black" id="nonconn0" r="4.53543" cx="6.13543" stroke-width="0"/>
   </g>
  </g>
 </g>
 <g partID="351601">
  <g transform="translate(191.864,91.7042)">
   <g  id="copper1">
    <circle fill="black"  cy="6.13543" stroke="black" id="nonconn0" r="4.53543" cx="6.13543" stroke-width="0"/>
   </g>
  </g>
 </g>
 <g partID="333361">
  <g transform="translate(141.747,5.58738)">
   <g  id="copper1">
    <circle fill="black"  cy="5.85197" stroke="black" id="nonconn0" r="4.25197" cx="5.85197" stroke-width="0"/>
   </g>
  </g>
 </g>
 <g partID="351362">
  <g transform="translate(211.823,91.0786)">
   <g  id="copper1">
    <g  id="copper0">
     <rect fill="none"  stroke="black" id="square" width="4.55811" y="4.48158" height="4.55811" x="5.49695" stroke-width="1.44"/>
     <circle fill="none"  cy="6.76063" stroke="black" id="connector0pin" r="2.27905" cx="7.776" stroke-width="1.44"/>
     <circle fill="none"  cy="16.6819" stroke="black" id="connector1pin" r="2.27905" cx="7.776" stroke-width="1.44"/>
    </g>
   </g>
  </g>
 </g>
 <g partID="354040">
  <path stroke-linecap="round" fill="none" stroke="black" d="M58.3016,68.4307C27.2086,39.3384, -11.1702,197.125 93.0955,198.618" stroke-width="1.728"/>
 </g>
 <g partID="351420">
  <line stroke-linecap="round" stroke="black" y2="100.5" y1="98.1506" x1="218.072" x2="206.54" stroke-width="1.728"/>
 </g>
 <g partID="351490">
  <line stroke-linecap="round" stroke="black" y2="107.953" y1="107.784" x1="218.04" x2="206.567" stroke-width="1.728"/>
 </g>
 <g partID="351820">
  <path stroke-linecap="round" fill="none" stroke="black" d="M61.1992,25.8394C61.1992,25.8394, 28.5462,46.819 61.1994,61.8394" stroke-width="1.728"/>
 </g>
 <g partID="270250">
  <path stroke-linecap="round" fill="none" stroke="black" d="M190.799,40.2394C167.515,-1.97806, 135.381,48.0795 130.321,11.4393" stroke-width="1.728"/>
 </g>
 <g partID="265810">
  <path stroke-linecap="round" fill="none" stroke="black" d="M165.199,220.249C180.314,228.018, 159.08,153.018 176.399,155.439" stroke-width="1.728"/>
 </g>
 <g partID="289100">
  <path stroke-linecap="round" fill="none" stroke="black" d="M61.1992,25.8394C92.3801,2.36106, 95.3009,44.5841 120.4,11.4394" stroke-width="1.728"/>
 </g>
 <g partID="279040">
  <path stroke-linecap="round" fill="none" stroke="black" d="M125.999,105.039C141.344,117.189, 194.671,46.8996 183.599,61.8394" stroke-width="1.728"/>
 </g>
 <g partID="278970">
  <line stroke-linecap="round" stroke="black" y2="105.039" y1="99.0893" x1="128.646" x2="126" stroke-width="1.728"/>
 </g>
 <g partID="278900">
  <path stroke-linecap="round" fill="none" stroke="black" d="M136.404,97.8394C135.49,18.819, 24.756,73.4195 61.1987,25.8394" stroke-width="1.728"/>
 </g>
 <g partID="279180">
  <path stroke-linecap="round" fill="none" stroke="black" d="M121.999,97.8394C117.175,129.247, 165.204,133.715 165.2,133.725" stroke-width="1.728"/>
 </g>
 <g partID="284200">
  <path stroke-linecap="round" fill="none" stroke="black" d="M114.799,97.8402C114.799,97.8402, 97.5332,140.271 165.2,155.356" stroke-width="1.728"/>
 </g>
 <g partID="290680">
  <path stroke-linecap="round" fill="none" stroke="black" d="M176.399,133.839C223.815,157.877, 185.397,290.966 140.399,249.039" stroke-width="1.728"/>
 </g>
 <g partID="291450">
  <path stroke-linecap="round" fill="none" stroke="black" d="M140.399,234.639C111.719,206.358, 99.7922,192.52 93.0958,191.408" stroke-width="1.728"/>
 </g>
 <g partID="291170">
  <path stroke-linecap="round" fill="none" stroke="black" d="M140.399,241.839C140.399,241.839, 128.211,220.868 93.0958,205.829" stroke-width="1.728"/>
 </g>
 <g partID="290960">
  <path stroke-linecap="round" fill="none" stroke="black" d="M176.399,141.039C197.422,147.132, 195.389,288.599 140.399,241.839" stroke-width="1.728"/>
 </g>
 <g partID="291240">
  <path stroke-linecap="round" fill="none" stroke="black" d="M176.399,162.639C189.264,157.018, 182.559,288.64 140.399,234.639" stroke-width="1.728"/>
 </g>
 <g partID="349570">
  <path stroke-linecap="round" fill="none" stroke="black" d="M147.599,227.439C132.445,217.769, 114.554,179.99 93.0958,184.198" stroke-width="1.728"/>
 </g>
 <g partID="291520">
  <path stroke-linecap="round" fill="none" stroke="black" d="M176.399,169.839C176.399,169.839, 182.473,271.978 147.599,227.439" stroke-width="1.728"/>
 </g>
 <g partID="330310">
  <path stroke-linecap="round" fill="none" stroke="black" d="M140.399,249.039C140.399,249.039, 128.211,228.06 93.0958,213.039" stroke-width="1.728"/>
 </g>
 <g partID="349630">
  <line stroke-linecap="round" stroke="black" y2="148.239" y1="148.239" x1="169.199" x2="175.031" stroke-width="1.728"/>
 </g>
 <g partID="329040">
  <path stroke-linecap="round" fill="none" stroke="black" d="M183.599,61.8394C219.779,74.2475, 179.294,87.2808 169.199,148.239" stroke-width="1.728"/>
 </g>
 <g partID="328920">
  <line stroke-linecap="round" stroke="black" y2="48.0565" y1="61.8394" x1="183.599" x2="193.814" stroke-width="1.728"/>
 </g>
</svg>
