<?xml version='1.0' encoding='UTF-8' standalone='no'?>
<!-- Created with Fritzing (https://fritzing.org/) -->
<svg xmlns="http://www.w3.org/2000/svg" viewBox="0 0 246.278 267.691"  baseProfile="tiny" version="1.2" xmlns:svg="http://www.w3.org/2000/svg" width="3.42053in" y="0in" x="0in" height="3.71794in">
 <g transform="matrix(-1, 0, 0, 1, 246.278, 0)">
  <g partID="334800">
   <g  id="board">
    <ellipse fill="none"  stroke="black" cy="133.846" ry="133.558" id="boardoutline" fill-opacity="0.5" cx="123.139" rx="122.851" stroke-width="0.5"/>
   </g>
  </g>
  <g partID="255060">
   <g transform="translate(88.7171,256.865)">
    <g transform="matrix(0,-1,1,0,0,0)">
     <g gorn="0.3.1.0"  id="copper0">
      <g gorn="0.3.1.0.0" fill="none"  stroke="black" id="0" style="stroke-linecap:butt;stroke-linejoin:miter;stroke-miterlimit:4;stroke-dasharray:none;" d="m29.4053,74.5175c1.08514,0,1.96483,0.879686,1.96483,1.96482,0,1.08514,-0.879683,1.96482,-1.96483,1.96482,-1.08514,0,-1.96483,-0.879679,-1.96483,-1.96482,0,-1.08514,0.879684,-1.96482,1.96483,-1.96482z" stroke-opacity="1" stroke-width="1.40602"/>
      <g gorn="0.3.1.0.1" fill="none"  stroke="black" id="1" style="stroke-linecap:butt;stroke-linejoin:miter;stroke-miterlimit:4;stroke-dasharray:none;" d="m36.6156,74.5175c1.08514,0,1.96483,0.879686,1.96483,1.96482,0,1.08514,-0.879683,1.96482,-1.96483,1.96482,-1.08514,0,-1.96483,-0.879679,-1.96483,-1.96482,0,-1.08514,0.879684,-1.96482,1.96483,-1.96482z" stroke-opacity="1" stroke-width="1.40602"/>
      <g gorn="0.3.1.0.2" fill="none"  stroke="black" id="2" style="stroke-linecap:butt;stroke-linejoin:miter;stroke-miterlimit:4;stroke-dasharray:none;" d="m43.826,74.5175c1.08514,0,1.96483,0.879686,1.96483,1.96482,0,1.08514,-0.879682,1.96482,-1.96483,1.96482,-1.08514,0,-1.96483,-0.879679,-1.96483,-1.96482,0,-1.08514,0.879683,-1.96482,1.96483,-1.96482z" stroke-opacity="1" stroke-width="1.40602"/>
      <g gorn="0.3.1.0.3" fill="none"  stroke="black" id="3" style="stroke-linecap:butt;stroke-linejoin:miter;stroke-miterlimit:4;stroke-dasharray:none;" d="m51.0363,74.5175c1.08514,0,1.96483,0.879686,1.96483,1.96482,0,1.08514,-0.879683,1.96482,-1.96483,1.96482,-1.08514,0,-1.96483,-0.879679,-1.96483,-1.96482,0,-1.08514,0.879683,-1.96482,1.96483,-1.96482z" stroke-opacity="1" stroke-width="1.40602"/>
      <g gorn="0.3.1.0.4" fill="none"  stroke="black" id="4" style="stroke-linecap:butt;stroke-linejoin:miter;stroke-miterlimit:4;stroke-dasharray:none;" d="m58.2467,74.5175c1.08514,0,1.96483,0.879686,1.96483,1.96482,0,1.08514,-0.879683,1.96482,-1.96483,1.96482,-1.08514,0,-1.96483,-0.879679,-1.96483,-1.96482,0,-1.08514,0.879684,-1.96482,1.96483,-1.96482z" stroke-opacity="1" stroke-width="1.40602"/>
      <g gorn="0.3.1.0.5" fill="none"  stroke="black" id="5" style="stroke-linecap:butt;stroke-linejoin:miter;stroke-miterlimit:4;stroke-dasharray:none;" d="m65.4571,74.5175c1.08514,0,1.96483,0.879686,1.96483,1.96482,0,1.08514,-0.879683,1.96482,-1.96483,1.96482,-1.08514,0,-1.96483,-0.879679,-1.96483,-1.96482,0,-1.08514,0.879684,-1.96482,1.96483,-1.96482z" stroke-opacity="1" stroke-width="1.40602"/>
      <g gorn="0.3.1.0.6" fill="none"  stroke="black" id="6" style="stroke-linecap:butt;stroke-linejoin:miter;stroke-miterlimit:4;stroke-dasharray:none;" d="m72.6674,74.5175c1.08514,0,1.96483,0.879686,1.96483,1.96482,0,1.08514,-0.879683,1.96482,-1.96483,1.96482,-1.08514,0,-1.96483,-0.879679,-1.96483,-1.96482,0,-1.08514,0.879684,-1.96482,1.96483,-1.96482z" stroke-opacity="1" stroke-width="1.40602"/>
      <g gorn="0.3.1.0.7" fill="none"  stroke="black" id="7" style="stroke-linecap:butt;stroke-linejoin:miter;stroke-miterlimit:4;stroke-dasharray:none;" d="m79.8778,74.5175c1.08514,0,1.96483,0.879686,1.96483,1.96482,0,1.08514,-0.879688,1.96482,-1.96483,1.96482,-1.08514,0,-1.96483,-0.879679,-1.96483,-1.96482,0,-1.08514,0.879686,-1.96482,1.96483,-1.96482z" stroke-opacity="1" stroke-width="1.40602"/>
      <g gorn="0.3.1.0.8" fill="none"  stroke="black" id="8" style="stroke-linecap:butt;stroke-linejoin:miter;stroke-miterlimit:4;stroke-dasharray:none;" d="m87.0882,74.5175c1.08514,0,1.96482,0.879686,1.96482,1.96482,0,1.08514,-0.87968,1.96482,-1.96482,1.96482,-1.08514,0,-1.96483,-0.879679,-1.96483,-1.96482,0,-1.08514,0.879688,-1.96482,1.96483,-1.96482z" stroke-opacity="1" stroke-width="1.40602"/>
      <g gorn="0.3.1.0.9" fill="none"  stroke="black" id="9" style="stroke-linecap:butt;stroke-linejoin:miter;stroke-miterlimit:4;stroke-dasharray:none;" d="m94.2985,74.5175c1.08515,0,1.96482,0.879686,1.96482,1.96482,0,1.08514,-0.879672,1.96482,-1.96482,1.96482,-1.08514,0,-1.96482,-0.879679,-1.96482,-1.96482,0,-1.08514,0.87968,-1.96482,1.96482,-1.96482z" stroke-opacity="1" stroke-width="1.40602"/>
      <g gorn="0.3.1.0.10" fill="none"  stroke="black" id="10" style="stroke-linecap:butt;stroke-linejoin:miter;stroke-miterlimit:4;stroke-dasharray:none;" d="m101.509,74.5175c1.08514,0,1.96482,0.879686,1.96482,1.96482,0,1.08514,-0.87968,1.96482,-1.96482,1.96482,-1.08514,0,-1.96483,-0.879679,-1.96483,-1.96482,0,-1.08514,0.879688,-1.96482,1.96483,-1.96482z" stroke-opacity="1" stroke-width="1.40602"/>
      <g gorn="0.3.1.0.11" fill="none"  stroke="black" id="11" style="stroke-linecap:butt;stroke-linejoin:miter;stroke-miterlimit:4;stroke-dasharray:none;" d="m108.719,74.5175c1.08514,0,1.96482,0.879686,1.96482,1.96482,0,1.08514,-0.87968,1.96482,-1.96482,1.96482,-1.08514,0,-1.96483,-0.879679,-1.96483,-1.96482,0,-1.08514,0.879688,-1.96482,1.96483,-1.96482z" stroke-opacity="1" stroke-width="1.40602"/>
      <g gorn="0.3.1.0.12" fill="none"  stroke="black" id="12" style="stroke-linecap:butt;stroke-linejoin:miter;stroke-miterlimit:4;stroke-dasharray:none;" d="m115.93,74.5175c1.08514,0,1.96482,0.879686,1.96482,1.96482,0,1.08514,-0.87968,1.96482,-1.96482,1.96482,-1.08514,0,-1.96483,-0.879679,-1.96483,-1.96482,0,-1.08514,0.879688,-1.96482,1.96483,-1.96482z" stroke-opacity="1" stroke-width="1.40602"/>
      <g gorn="0.3.1.0.13" fill="none"  stroke="black" id="13" style="stroke-linecap:butt;stroke-linejoin:miter;stroke-miterlimit:4;stroke-dasharray:none;" d="m123.14,74.5175c1.08514,0,1.96482,0.879686,1.96482,1.96482,0,1.08514,-0.87968,1.96482,-1.96482,1.96482,-1.08514,0,-1.96483,-0.879679,-1.96483,-1.96482,0,-1.08514,0.879688,-1.96482,1.96483,-1.96482z" stroke-opacity="1" stroke-width="1.40602"/>
      <g gorn="0.3.1.0.14" fill="none"  stroke="black" id="14" style="stroke-linecap:butt;stroke-linejoin:miter;stroke-miterlimit:4;stroke-dasharray:none;" d="m130.35,74.5175c1.08514,0,1.96482,0.879686,1.96482,1.96482,0,1.08514,-0.87968,1.96482,-1.96482,1.96482,-1.08514,0,-1.96483,-0.879679,-1.96483,-1.96482,0,-1.08514,0.879688,-1.96482,1.96483,-1.96482z" stroke-opacity="1" stroke-width="1.40602"/>
      <g gorn="0.3.1.0.15" fill="none"  stroke="black" id="15" style="stroke-linecap:butt;stroke-linejoin:miter;stroke-miterlimit:4;stroke-dasharray:none;" d="m29.4053,2.41392c1.08514,0,1.96483,0.879687,1.96483,1.96482,0,1.08514,-0.879683,1.96482,-1.96483,1.96482,-1.08514,0,-1.96483,-0.879679,-1.96483,-1.96482,0,-1.08514,0.879684,-1.96482,1.96483,-1.96482z" stroke-opacity="1" stroke-width="1.40602"/>
      <g gorn="0.3.1.0.16" fill="none"  stroke="black" id="16" style="stroke-linecap:butt;stroke-linejoin:miter;stroke-miterlimit:4;stroke-dasharray:none;" d="m36.6156,2.41392c1.08514,0,1.96483,0.879687,1.96483,1.96482,0,1.08514,-0.879683,1.96482,-1.96483,1.96482,-1.08514,0,-1.96483,-0.879679,-1.96483,-1.96482,0,-1.08514,0.879684,-1.96482,1.96483,-1.96482z" stroke-opacity="1" stroke-width="1.40602"/>
      <g gorn="0.3.1.0.17" fill="none"  stroke="black" id="17" style="stroke-linecap:butt;stroke-linejoin:miter;stroke-miterlimit:4;stroke-dasharray:none;" d="m43.826,2.41392c1.08514,0,1.96483,0.879687,1.96483,1.96482,0,1.08514,-0.879682,1.96482,-1.96483,1.96482,-1.08514,0,-1.96483,-0.879679,-1.96483,-1.96482,0,-1.08514,0.879683,-1.96482,1.96483,-1.96482z" stroke-opacity="1" stroke-width="1.40602"/>
      <g gorn="0.3.1.0.18" fill="none"  stroke="black" id="18" style="stroke-linecap:butt;stroke-linejoin:miter;stroke-miterlimit:4;stroke-dasharray:none;" d="m51.0363,2.41392c1.08514,0,1.96483,0.879687,1.96483,1.96482,0,1.08514,-0.879683,1.96482,-1.96483,1.96482,-1.08514,0,-1.96483,-0.879679,-1.96483,-1.96482,0,-1.08514,0.879683,-1.96482,1.96483,-1.96482z" stroke-opacity="1" stroke-width="1.40602"/>
      <g gorn="0.3.1.0.19" fill="none"  stroke="black" id="19" style="stroke-linecap:butt;stroke-linejoin:miter;stroke-miterlimit:4;stroke-dasharray:none;" d="m58.2467,2.41392c1.08514,0,1.96483,0.879687,1.96483,1.96482,0,1.08514,-0.879683,1.96482,-1.96483,1.96482,-1.08514,0,-1.96483,-0.879679,-1.96483,-1.96482,0,-1.08514,0.879684,-1.96482,1.96483,-1.96482z" stroke-opacity="1" stroke-width="1.40602"/>
      <g gorn="0.3.1.0.20" fill="none"  stroke="black" id="20" style="stroke-linecap:butt;stroke-linejoin:miter;stroke-miterlimit:4;stroke-dasharray:none;" d="m65.4571,2.41392c1.08514,0,1.96483,0.879687,1.96483,1.96482,0,1.08514,-0.879683,1.96482,-1.96483,1.96482,-1.08514,0,-1.96483,-0.879679,-1.96483,-1.96482,0,-1.08514,0.879684,-1.96482,1.96483,-1.96482z" stroke-opacity="1" stroke-width="1.40602"/>
      <g gorn="0.3.1.0.21" fill="none"  stroke="black" id="21" style="stroke-linecap:butt;stroke-linejoin:miter;stroke-miterlimit:4;stroke-dasharray:none;" d="m72.6674,2.41392c1.08514,0,1.96483,0.879687,1.96483,1.96482,0,1.08514,-0.879683,1.96482,-1.96483,1.96482,-1.08514,0,-1.96483,-0.879679,-1.96483,-1.96482,0,-1.08514,0.879684,-1.96482,1.96483,-1.96482z" stroke-opacity="1" stroke-width="1.40602"/>
      <g gorn="0.3.1.0.22" fill="none"  stroke="black" id="22" style="stroke-linecap:butt;stroke-linejoin:miter;stroke-miterlimit:4;stroke-dasharray:none;" d="m79.8778,2.41392c1.08514,0,1.96483,0.879687,1.96483,1.96482,0,1.08514,-0.879688,1.96482,-1.96483,1.96482,-1.08514,0,-1.96483,-0.879679,-1.96483,-1.96482,0,-1.08514,0.879686,-1.96482,1.96483,-1.96482z" stroke-opacity="1" stroke-width="1.40602"/>
      <g gorn="0.3.1.0.23" fill="none"  stroke="black" id="23" style="stroke-linecap:butt;stroke-linejoin:miter;stroke-miterlimit:4;stroke-dasharray:none;" d="m87.0882,2.41392c1.08514,0,1.96482,0.879687,1.96482,1.96482,0,1.08514,-0.87968,1.96482,-1.96482,1.96482,-1.08514,0,-1.96483,-0.879679,-1.96483,-1.96482,0,-1.08514,0.879688,-1.96482,1.96483,-1.96482z" stroke-opacity="1" stroke-width="1.40602"/>
      <g gorn="0.3.1.0.24" fill="none"  stroke="black" id="24" style="stroke-linecap:butt;stroke-linejoin:miter;stroke-miterlimit:4;stroke-dasharray:none;" d="m94.2985,2.41392c1.08515,0,1.96482,0.879687,1.96482,1.96482,0,1.08514,-0.879672,1.96482,-1.96482,1.96482,-1.08514,0,-1.96482,-0.879679,-1.96482,-1.96482,0,-1.08514,0.87968,-1.96482,1.96482,-1.96482z" stroke-opacity="1" stroke-width="1.40602"/>
      <g gorn="0.3.1.0.25" fill="none"  stroke="black" id="25" style="stroke-linecap:butt;stroke-linejoin:miter;stroke-miterlimit:4;stroke-dasharray:none;" d="m101.509,2.41392c1.08514,0,1.96482,0.879687,1.96482,1.96482,0,1.08514,-0.87968,1.96482,-1.96482,1.96482,-1.08514,0,-1.96483,-0.879679,-1.96483,-1.96482,0,-1.08514,0.879688,-1.96482,1.96483,-1.96482z" stroke-opacity="1" stroke-width="1.40602"/>
      <g gorn="0.3.1.0.26" fill="none"  stroke="black" id="26" style="stroke-linecap:butt;stroke-linejoin:miter;stroke-miterlimit:4;stroke-dasharray:none;" d="m108.719,2.41392c1.08514,0,1.96482,0.879687,1.96482,1.96482,0,1.08514,-0.87968,1.96482,-1.96482,1.96482,-1.08514,0,-1.96483,-0.879679,-1.96483,-1.96482,0,-1.08514,0.879688,-1.96482,1.96483,-1.96482z" stroke-opacity="1" stroke-width="1.40602"/>
      <g gorn="0.3.1.0.27" fill="none"  stroke="black" id="27" style="stroke-linecap:butt;stroke-linejoin:miter;stroke-miterlimit:4;stroke-dasharray:none;" d="m115.93,2.41392c1.08514,0,1.96482,0.879687,1.96482,1.96482,0,1.08514,-0.87968,1.96482,-1.96482,1.96482,-1.08514,0,-1.96483,-0.879679,-1.96483,-1.96482,0,-1.08514,0.879688,-1.96482,1.96483,-1.96482z" stroke-opacity="1" stroke-width="1.40602"/>
      <g gorn="0.3.1.0.28" fill="none"  stroke="black" id="28" style="stroke-linecap:butt;stroke-linejoin:miter;stroke-miterlimit:4;stroke-dasharray:none;" d="m123.14,2.41392c1.08514,0,1.96482,0.879687,1.96482,1.96482,0,1.08514,-0.87968,1.96482,-1.96482,1.96482,-1.08514,0,-1.96483,-0.879679,-1.96483,-1.96482,0,-1.08514,0.879688,-1.96482,1.96483,-1.96482z" stroke-opacity="1" stroke-width="1.40602"/>
      <g gorn="0.3.1.0.29" fill="none"  stroke="black" id="29" style="stroke-linecap:butt;stroke-linejoin:miter;stroke-miterlimit:4;stroke-dasharray:none;" d="m130.35,2.41392c1.08514,0,1.96482,0.879687,1.96482,1.96482,0,1.08514,-0.87968,1.96482,-1.96482,1.96482,-1.08514,0,-1.96483,-0.879679,-1.96483,-1.96482,0,-1.08514,0.879688,-1.96482,1.96483,-1.96482z" stroke-opacity="1" stroke-width="1.40602"/>
     </g>
    </g>
   </g>
  </g>
  <g partID="255100">
   <g transform="translate(164.187,103.869)">
    <g transform="matrix(-1,0,0,-1,0,0)">
     <g  id="copper0">
      <g fill="none" gorn="0.4.0.0"  stroke="black" id="30" width="4.175" y="3.94302" x="25.696" height="4.172" stroke-width="1.44"/>
      <g fill="none" gorn="0.4.0.4"  stroke="black" cy="6.03007" id="31" r="2.088" cx="27.783" stroke-width="1.44"/>
      <g fill="none" gorn="0.4.0.3"  stroke="black" cy="6.03007" id="32" r="2.088" cx="34.986" stroke-width="1.44"/>
      <g fill="none" gorn="0.4.0.2"  stroke="black" cy="6.03007" id="33" r="2.088" cx="42.188" stroke-width="1.44"/>
      <g fill="none" gorn="0.4.0.1"  stroke="black" cy="6.02901" id="34" r="2.088" cx="49.388" stroke-width="1.44"/>
     </g>
    </g>
   </g>
  </g>
  <g partID="257840">
   <g transform="translate(171.359,128.799)">
    <g  id="copper0">
     <g fill="none"  cy="5.04" stroke="black" id="35" r="2.088" cx="5.04" stroke-width="1.44"/>
     <g fill="none"  cy="12.24" stroke="black" id="36" r="2.088" cx="5.04" stroke-width="1.44"/>
     <g fill="none"  cy="19.44" stroke="black" id="37" r="2.088" cx="5.04" stroke-width="1.44"/>
     <g fill="none"  cy="26.64" stroke="black" id="38" r="2.088" cx="5.04" stroke-width="1.44"/>
     <g fill="none"  cy="33.84" stroke="black" id="39" r="2.088" cx="5.04" stroke-width="1.44"/>
     <g fill="none"  cy="41.04" stroke="black" id="40" r="2.088" cx="5.04" stroke-width="1.44"/>
    </g>
   </g>
  </g>
  <g partID="354330">
   <g transform="translate(112.039,79.6954)">
    <g transform="matrix(0,-1,1,0,0,0)">
     <g id="copper0" flipped="1">
      <g transform="matrix(-1, 0, 0, 1, 18.432, 0)">
       <g>
        <g>
         <g>
          <g id="copper0">
           <g fill="none" stroke="black" id="41" width="4.55811" y="4.48158" height="4.55811" x="5.49695" stroke-width="1.44"/>
           <g fill="none" cy="6.76063" stroke="black" id="42" r="2.27905" cx="7.776" stroke-width="1.44"/>
           <g fill="none" cy="16.6819" stroke="black" id="43" r="2.27905" cx="7.776" stroke-width="1.44"/>
          </g>
         </g>
         <g>
          <g fill="none" stroke="black" id="44" width="4.55811" y="4.48158" height="4.55811" x="5.49695" stroke-width="1.44"/>
          <g fill="none" cy="6.76063" stroke="black" id="45" r="2.27905" cx="7.776" stroke-width="1.44"/>
          <g fill="none" cy="16.6819" stroke="black" id="46" r="2.27905" cx="7.776" stroke-width="1.44"/>
         </g>
        </g>
       </g>
      </g>
     </g>
    </g>
   </g>
  </g>
  <g partID="351160">
   <g transform="translate(113.639,19.2154)">
    <g transform="matrix(0,-1,1,0,0,0)">
     <g  id="copper0">
      <g fill="none"  stroke="black" id="47" width="4.55811" y="4.48158" height="4.55811" x="5.49695" stroke-width="1.44"/>
      <g fill="none"  cy="6.76063" stroke="black" id="48" r="2.27905" cx="7.776" stroke-width="1.44"/>
      <g fill="none"  cy="16.6819" stroke="black" id="49" r="2.27905" cx="7.776" stroke-width="1.44"/>
     </g>
    </g>
   </g>
  </g>
  <g partID="300710">
   <g transform="translate(119.239,238.095)">
    <g transform="matrix(5.55112e-17,-1,1,5.55112e-17,0,0)">
     <g id="copper0" flipped="1">
      <g transform="matrix(-1, 0, 0, 1, 18.432, 0)">
       <g>
        <g>
         <g>
          <g id="copper0">
           <g fill="none" stroke="black" id="50" width="4.32" y="4.60063" height="4.32" x="5.616" stroke-width="1.44"/>
           <g fill="none" cy="6.76063" stroke="black" id="51" r="2.16" cx="7.776" stroke-width="1.44"/>
           <g fill="none" cy="16.6819" stroke="black" id="52" r="2.16" cx="7.776" stroke-width="1.44"/>
          </g>
         </g>
         <g>
          <g fill="none" stroke="black" id="53" width="4.32" y="4.60063" height="4.32" x="5.616" stroke-width="1.44"/>
          <g fill="none" cy="6.76063" stroke="black" id="54" r="2.16" cx="7.776" stroke-width="1.44"/>
          <g fill="none" cy="16.6819" stroke="black" id="55" r="2.16" cx="7.776" stroke-width="1.44"/>
         </g>
        </g>
       </g>
      </g>
     </g>
    </g>
   </g>
  </g>
  <g partID="270210">
   <g transform="translate(180.663,35.6439)">
    <g transform="matrix(0.864517,-0.502604,0.502604,0.864517,0,0)">
     <g  id="copper0">
      <g fill="none"  cy="9.06746" stroke="black" id="56" r="2.052" connectorname="1" cx="6.45336" stroke-width="1.224"/>
      <g fill="none"  cy="16.7715" stroke="black" id="57" r="2.052" connectorname="2" cx="6.45336" stroke-width="1.224"/>
      <g fill="none"  cy="24.4755" stroke="black" id="58" r="2.052" connectorname="3" cx="6.45336" stroke-width="1.224"/>
     </g>
    </g>
   </g>
  </g>
  <g partID="299450">
   <g transform="translate(71.1768,178.099)">
    <g id="copper0" flipped="1">
     <g transform="matrix(-1, 0, 0, 1, 14.4567, 0)">
      <g>
       <g>
        <g>
         <rect fill="black" stroke="none" id="59" fill-opacity="1" width="4.53543" y="0.566929" height="5.38583" x="0.566929" stroke-width="0"/>
         <rect fill="black" stroke="none" id="60" fill-opacity="1" width="4.53543" y="0.566929" height="5.38583" x="9.35433" stroke-width="0"/>
        </g>
       </g>
      </g>
     </g>
    </g>
   </g>
  </g>
  <g partID="299730">
   <g transform="translate(71.1768,144.979)">
    <g id="copper0" flipped="1">
     <g transform="matrix(-1, 0, 0, 1, 14.4567, 0)">
      <g>
       <g>
        <g>
         <rect fill="black" stroke="none" id="61" fill-opacity="1" width="4.53543" y="0.566929" height="5.38583" x="0.566929" stroke-width="0"/>
         <rect fill="black" stroke="none" id="62" fill-opacity="1" width="4.53543" y="0.566929" height="5.38583" x="9.35433" stroke-width="0"/>
        </g>
       </g>
      </g>
     </g>
    </g>
   </g>
  </g>
  <g partID="299750">
   <g transform="translate(71.1768,137.779)">
    <g id="copper0" flipped="1">
     <g transform="matrix(-1, 0, 0, 1, 14.4567, 0)">
      <g>
       <g>
        <g>
         <rect fill="black" stroke="none" id="63" fill-opacity="1" width="4.53543" y="0.566929" height="5.38583" x="0.566929" stroke-width="0"/>
         <rect fill="black" stroke="none" id="64" fill-opacity="1" width="4.53543" y="0.566929" height="5.38583" x="9.35433" stroke-width="0"/>
        </g>
       </g>
      </g>
     </g>
    </g>
   </g>
  </g>
  <g partID="299850">
   <g transform="translate(99.9768,216.979)">
    <g transform="matrix(1,5.55112e-17,-5.55112e-17,1,0,0)">
     <g id="copper0" flipped="1">
      <g transform="matrix(-1, 0, 0, 1, 14.4567, 0)">
       <g>
        <g>
         <g>
          <rect fill="black" stroke="none" id="65" fill-opacity="1" width="4.53543" y="0.566929" height="5.38583" x="0.566929" stroke-width="0"/>
          <rect fill="black" stroke="none" id="66" fill-opacity="1" width="4.53543" y="0.566929" height="5.38583" x="9.35433" stroke-width="0"/>
         </g>
        </g>
       </g>
      </g>
     </g>
    </g>
   </g>
  </g>
  <g partID="301090">
   <g transform="translate(71.1768,169.459)">
    <g id="copper0" flipped="1">
     <g transform="matrix(-1, 0, 0, 1, 14.4567, 0)">
      <g>
       <g>
        <g>
         <rect fill="black" stroke="none" id="67" fill-opacity="1" width="4.53543" y="0.566929" height="5.38583" x="0.566929" stroke-width="0"/>
         <rect fill="black" stroke="none" id="68" fill-opacity="1" width="4.53543" y="0.566929" height="5.38583" x="9.35433" stroke-width="0"/>
        </g>
       </g>
      </g>
     </g>
    </g>
   </g>
  </g>
  <g partID="305110">
   <g transform="translate(228.959,135.999)">
    <g id="copper0" flipped="1">
     <g transform="matrix(-1, 0, 0, 1, 10.08, 0)">
      <g>
       <g>
        <g>
         <g id="copper0">
          <g fill="none" cy="5.04" stroke="black" id="69" r="2.088" cx="5.04" stroke-width="1.44"/>
          <g fill="none" cy="12.24" stroke="black" id="70" r="2.088" cx="5.04" stroke-width="1.44"/>
          <g fill="none" cy="19.44" stroke="black" id="71" r="2.088" cx="5.04" stroke-width="1.44"/>
          <g fill="none" cy="26.64" stroke="black" id="72" r="2.088" cx="5.04" stroke-width="1.44"/>
         </g>
        </g>
        <g>
         <g fill="none" cy="5.04" stroke="black" id="73" r="2.088" cx="5.04" stroke-width="1.44"/>
         <g fill="none" cy="12.24" stroke="black" id="74" r="2.088" cx="5.04" stroke-width="1.44"/>
         <g fill="none" cy="19.44" stroke="black" id="75" r="2.088" cx="5.04" stroke-width="1.44"/>
         <g fill="none" cy="26.64" stroke="black" id="76" r="2.088" cx="5.04" stroke-width="1.44"/>
        </g>
       </g>
      </g>
     </g>
    </g>
   </g>
  </g>
  <g partID="306280">
   <g transform="translate(41.7592,85.5994)">
    <g transform="matrix(1,0,0,1,0,0)">
     <g id="copper0" flipped="1">
      <g transform="matrix(-1, 0, 0, 1, 10.08, 0)">
       <g>
        <g>
         <g>
          <g id="copper0">
           <g fill="none" cy="5.04" stroke="black" id="77" r="2.088" cx="5.04" stroke-width="1.44"/>
           <g fill="none" cy="12.24" stroke="black" id="78" r="2.088" cx="5.04" stroke-width="1.44"/>
           <g fill="none" cy="19.44" stroke="black" id="79" r="2.088" cx="5.04" stroke-width="1.44"/>
          </g>
         </g>
         <g>
          <g fill="none" cy="5.04" stroke="black" id="80" r="2.088" cx="5.04" stroke-width="1.44"/>
          <g fill="none" cy="12.24" stroke="black" id="81" r="2.088" cx="5.04" stroke-width="1.44"/>
          <g fill="none" cy="19.44" stroke="black" id="82" r="2.088" cx="5.04" stroke-width="1.44"/>
         </g>
        </g>
       </g>
      </g>
     </g>
    </g>
   </g>
  </g>
  <g partID="308430">
   <g transform="translate(56.1592,128.799)">
    <g  id="copper0">
     <g fill="none"  cy="5.04" stroke="black" id="83" r="2.088" cx="5.04" stroke-width="1.44"/>
     <g fill="none"  cy="12.24" stroke="black" id="84" r="2.088" cx="5.04" stroke-width="1.44"/>
     <g fill="none"  cy="19.44" stroke="black" id="85" r="2.088" cx="5.04" stroke-width="1.44"/>
    </g>
   </g>
  </g>
  <g partID="351380">
   <g transform="translate(200.159,95.733)">
    <g transform="matrix(1,0,0,1,0,0)">
     <g  id="copper0">
      <g fill="none"  cy="5.04" stroke="black" id="86" r="2.088" cx="5.04" stroke-width="1.44"/>
      <g fill="none"  cy="12.24" stroke="black" id="87" r="2.088" cx="5.04" stroke-width="1.44"/>
     </g>
    </g>
   </g>
  </g>
  <g partID="349910">
   <g transform="translate(58.6131,55.1974)">
    <g transform="matrix(0.915468,0.402392,-0.402392,0.915468,0,0)">
     <g  id="copper0">
      <g fill="none"  cy="5.04" stroke="black" id="88" r="2.088" cx="5.04" stroke-width="1.44"/>
      <g fill="none"  cy="12.24" stroke="black" id="89" r="2.088" cx="5.04" stroke-width="1.44"/>
     </g>
    </g>
   </g>
  </g>
  <g partID="308650">
   <g transform="translate(63.3592,157.599)">
    <g transform="matrix(1,0,0,1,0,0)">
     <g  id="copper0">
      <g fill="none"  cy="5.04" stroke="black" id="90" r="2.088" cx="5.04" stroke-width="1.44"/>
      <g fill="none"  cy="12.24" stroke="black" id="91" r="2.088" cx="5.04" stroke-width="1.44"/>
      <g fill="none"  cy="19.44" stroke="black" id="92" r="2.088" cx="5.04" stroke-width="1.44"/>
     </g>
    </g>
   </g>
  </g>
  <g partID="312610">
   <g transform="translate(71.1768,116.179)">
    <g id="copper0" flipped="1">
     <g transform="matrix(-1, 0, 0, 1, 14.4567, 0)">
      <g>
       <g>
        <g>
         <rect fill="black" stroke="none" id="93" fill-opacity="1" width="4.53543" y="0.566929" height="5.38583" x="0.566929" stroke-width="0"/>
         <rect fill="black" stroke="none" id="94" fill-opacity="1" width="4.53543" y="0.566929" height="5.38583" x="9.35433" stroke-width="0"/>
        </g>
       </g>
      </g>
     </g>
    </g>
   </g>
  </g>
  <g partID="313470">
   <g transform="translate(71.1768,108.979)">
    <g id="copper0" flipped="1">
     <g transform="matrix(-1, 0, 0, 1, 14.4567, 0)">
      <g>
       <g>
        <g>
         <rect fill="black" stroke="none" id="95" fill-opacity="1" width="4.53543" y="0.566929" height="5.38583" x="0.566929" stroke-width="0"/>
         <rect fill="black" stroke="none" id="96" fill-opacity="1" width="4.53543" y="0.566929" height="5.38583" x="9.35433" stroke-width="0"/>
        </g>
       </g>
      </g>
     </g>
    </g>
   </g>
  </g>
  <g partID="351360">
   <g transform="translate(211.823,91.0786)">
    <g  id="copper0">
     <g fill="none"  stroke="black" id="97" width="4.55811" y="4.48158" height="4.55811" x="5.49695" stroke-width="1.44"/>
     <g fill="none"  cy="6.76063" stroke="black" id="98" r="2.27905" cx="7.776" stroke-width="1.44"/>
     <g fill="none"  cy="16.6819" stroke="black" id="99" r="2.27905" cx="7.776" stroke-width="1.44"/>
    </g>
   </g>
  </g>
 </g>
</svg>
