G04 MADE WITH FRITZING*
G04 WWW.FRITZING.ORG*
G04 DOUBLE SIDED*
G04 HOLES PLATED*
G04 CONTOUR ON CENTER OF CONTOUR VECTOR*
%ASAXBY*%
%FSLAX23Y23*%
%MOIN*%
%OFA0B0*%
%SFA1.0B1.0*%
%ADD10C,0.008*%
%LNCONTOUR*%
G90*
G70*
G54D10*
X1671Y3718D02*
X1672Y3718D01*
X1673Y3718D01*
X1674Y3718D01*
X1675Y3718D01*
X1676Y3718D01*
X1677Y3718D01*
X1678Y3718D01*
X1679Y3718D01*
X1680Y3718D01*
X1681Y3718D01*
X1682Y3718D01*
X1683Y3718D01*
X1684Y3718D01*
X1685Y3718D01*
X1686Y3718D01*
X1687Y3718D01*
X1688Y3718D01*
X1689Y3718D01*
X1690Y3718D01*
X1691Y3718D01*
X1692Y3718D01*
X1693Y3718D01*
X1694Y3718D01*
X1695Y3718D01*
X1696Y3718D01*
X1697Y3718D01*
X1698Y3718D01*
X1699Y3718D01*
X1700Y3718D01*
X1701Y3718D01*
X1702Y3718D01*
X1703Y3718D01*
X1704Y3718D01*
X1705Y3718D01*
X1706Y3718D01*
X1707Y3718D01*
X1708Y3718D01*
X1709Y3718D01*
X1710Y3718D01*
X1711Y3718D01*
X1712Y3718D01*
X1713Y3718D01*
X1714Y3718D01*
X1715Y3718D01*
X1716Y3718D01*
X1717Y3718D01*
X1718Y3718D01*
X1719Y3718D01*
X1720Y3718D01*
X1721Y3718D01*
X1722Y3718D01*
X1723Y3718D01*
X1724Y3718D01*
X1725Y3718D01*
X1726Y3718D01*
X1727Y3718D01*
X1728Y3718D01*
X1729Y3718D01*
X1730Y3718D01*
X1731Y3718D01*
X1732Y3718D01*
X1733Y3718D01*
X1734Y3718D01*
X1735Y3718D01*
X1736Y3718D01*
X1737Y3718D01*
X1738Y3718D01*
X1739Y3718D01*
X1740Y3718D01*
X1741Y3718D01*
X1742Y3718D01*
X1743Y3718D01*
X1744Y3718D01*
X1745Y3718D01*
X1746Y3718D01*
X1747Y3718D01*
X1748Y3718D01*
X1749Y3717D01*
X1750Y3717D01*
X1751Y3717D01*
X1752Y3717D01*
X1753Y3717D01*
X1754Y3717D01*
X1755Y3717D01*
X1756Y3717D01*
X1757Y3717D01*
X1758Y3717D01*
X1759Y3717D01*
X1760Y3717D01*
X1761Y3717D01*
X1762Y3717D01*
X1763Y3717D01*
X1764Y3717D01*
X1765Y3717D01*
X1766Y3717D01*
X1767Y3717D01*
X1768Y3717D01*
X1769Y3717D01*
X1770Y3717D01*
X1771Y3717D01*
X1772Y3717D01*
X1773Y3717D01*
X1774Y3717D01*
X1775Y3717D01*
X1776Y3717D01*
X1777Y3717D01*
X1778Y3717D01*
X1779Y3716D01*
X1780Y3716D01*
X1781Y3716D01*
X1782Y3716D01*
X1783Y3716D01*
X1784Y3716D01*
X1785Y3716D01*
X1786Y3716D01*
X1787Y3716D01*
X1788Y3716D01*
X1789Y3716D01*
X1790Y3716D01*
X1791Y3716D01*
X1792Y3716D01*
X1793Y3716D01*
X1794Y3716D01*
X1795Y3716D01*
X1796Y3716D01*
X1797Y3716D01*
X1798Y3716D01*
X1799Y3715D01*
X1800Y3715D01*
X1801Y3715D01*
X1802Y3715D01*
X1803Y3715D01*
X1804Y3715D01*
X1805Y3715D01*
X1806Y3715D01*
X1807Y3715D01*
X1808Y3715D01*
X1809Y3715D01*
X1810Y3715D01*
X1811Y3715D01*
X1812Y3715D01*
X1813Y3715D01*
X1814Y3715D01*
X1815Y3714D01*
X1816Y3714D01*
X1817Y3714D01*
X1818Y3714D01*
X1819Y3714D01*
X1820Y3714D01*
X1821Y3714D01*
X1822Y3714D01*
X1823Y3714D01*
X1824Y3714D01*
X1825Y3714D01*
X1826Y3714D01*
X1827Y3714D01*
X1828Y3714D01*
X1829Y3713D01*
X1830Y3713D01*
X1831Y3713D01*
X1832Y3713D01*
X1833Y3713D01*
X1834Y3713D01*
X1835Y3713D01*
X1836Y3713D01*
X1837Y3713D01*
X1838Y3713D01*
X1839Y3713D01*
X1840Y3713D01*
X1841Y3713D01*
X1842Y3712D01*
X1843Y3712D01*
X1844Y3712D01*
X1845Y3712D01*
X1846Y3712D01*
X1847Y3712D01*
X1848Y3712D01*
X1849Y3712D01*
X1850Y3712D01*
X1851Y3712D01*
X1852Y3712D01*
X1853Y3712D01*
X1854Y3711D01*
X1855Y3711D01*
X1856Y3711D01*
X1857Y3711D01*
X1858Y3711D01*
X1859Y3711D01*
X1860Y3711D01*
X1861Y3711D01*
X1862Y3711D01*
X1863Y3711D01*
X1864Y3710D01*
X1865Y3710D01*
X1866Y3710D01*
X1867Y3710D01*
X1868Y3710D01*
X1869Y3710D01*
X1870Y3710D01*
X1871Y3710D01*
X1872Y3710D01*
X1873Y3710D01*
X1874Y3709D01*
X1875Y3709D01*
X1876Y3709D01*
X1877Y3709D01*
X1878Y3709D01*
X1879Y3709D01*
X1880Y3709D01*
X1881Y3709D01*
X1882Y3709D01*
X1883Y3709D01*
X1884Y3708D01*
X1885Y3708D01*
X1886Y3708D01*
X1887Y3708D01*
X1888Y3708D01*
X1889Y3708D01*
X1890Y3708D01*
X1891Y3708D01*
X1892Y3707D01*
X1893Y3707D01*
X1894Y3707D01*
X1895Y3707D01*
X1896Y3707D01*
X1897Y3707D01*
X1898Y3707D01*
X1899Y3707D01*
X1900Y3707D01*
X1901Y3706D01*
X1902Y3706D01*
X1903Y3706D01*
X1904Y3706D01*
X1905Y3706D01*
X1906Y3706D01*
X1907Y3706D01*
X1908Y3706D01*
X1909Y3705D01*
X1910Y3705D01*
X1911Y3705D01*
X1912Y3705D01*
X1913Y3705D01*
X1914Y3705D01*
X1915Y3705D01*
X1916Y3705D01*
X1917Y3704D01*
X1918Y3704D01*
X1919Y3704D01*
X1920Y3704D01*
X1921Y3704D01*
X1922Y3704D01*
X1923Y3704D01*
X1924Y3703D01*
X1925Y3703D01*
X1926Y3703D01*
X1927Y3703D01*
X1928Y3703D01*
X1929Y3703D01*
X1930Y3703D01*
X1931Y3703D01*
X1932Y3702D01*
X1933Y3702D01*
X1934Y3702D01*
X1935Y3702D01*
X1936Y3702D01*
X1937Y3702D01*
X1938Y3701D01*
X1939Y3701D01*
X1940Y3701D01*
X1941Y3701D01*
X1942Y3701D01*
X1943Y3701D01*
X1944Y3701D01*
X1945Y3700D01*
X1946Y3700D01*
X1947Y3700D01*
X1948Y3700D01*
X1949Y3700D01*
X1950Y3700D01*
X1951Y3700D01*
X1952Y3699D01*
X1953Y3699D01*
X1954Y3699D01*
X1955Y3699D01*
X1956Y3699D01*
X1957Y3699D01*
X1958Y3698D01*
X1959Y3698D01*
X1960Y3698D01*
X1961Y3698D01*
X1962Y3698D01*
X1963Y3698D01*
X1964Y3698D01*
X1965Y3697D01*
X1966Y3697D01*
X1967Y3697D01*
X1968Y3697D01*
X1969Y3697D01*
X1970Y3697D01*
X1971Y3696D01*
X1972Y3696D01*
X1973Y3696D01*
X1974Y3696D01*
X1975Y3696D01*
X1976Y3696D01*
X1977Y3695D01*
X1978Y3695D01*
X1979Y3695D01*
X1980Y3695D01*
X1981Y3695D01*
X1982Y3694D01*
X1983Y3694D01*
X1984Y3694D01*
X1985Y3694D01*
X1986Y3694D01*
X1987Y3694D01*
X1988Y3693D01*
X1989Y3693D01*
X1990Y3693D01*
X1991Y3693D01*
X1992Y3693D01*
X1993Y3693D01*
X1994Y3692D01*
X1995Y3692D01*
X1996Y3692D01*
X1997Y3692D01*
X1998Y3692D01*
X1999Y3691D01*
X2000Y3691D01*
X2001Y3691D01*
X2002Y3691D01*
X2003Y3691D01*
X2004Y3690D01*
X2005Y3690D01*
X2006Y3690D01*
X2007Y3690D01*
X2008Y3690D01*
X2009Y3690D01*
X2010Y3689D01*
X2011Y3689D01*
X2012Y3689D01*
X2013Y3689D01*
X2014Y3689D01*
X2015Y3688D01*
X2016Y3688D01*
X2017Y3688D01*
X2018Y3688D01*
X2019Y3688D01*
X2020Y3687D01*
X2021Y3687D01*
X2022Y3687D01*
X2023Y3687D01*
X2024Y3687D01*
X2025Y3686D01*
X2026Y3686D01*
X2027Y3686D01*
X2028Y3686D01*
X2029Y3686D01*
X2030Y3685D01*
X2031Y3685D01*
X2032Y3685D01*
X2033Y3685D01*
X2034Y3685D01*
X2035Y3684D01*
X2036Y3684D01*
X2037Y3684D01*
X2038Y3684D01*
X2039Y3683D01*
X2040Y3683D01*
X2041Y3683D01*
X2042Y3683D01*
X2043Y3683D01*
X2044Y3682D01*
X2045Y3682D01*
X2046Y3682D01*
X2047Y3682D01*
X2048Y3682D01*
X2049Y3681D01*
X2050Y3681D01*
X2051Y3681D01*
X2052Y3681D01*
X2053Y3680D01*
X2054Y3680D01*
X2055Y3680D01*
X2056Y3680D01*
X2057Y3680D01*
X2058Y3679D01*
X2059Y3679D01*
X2060Y3679D01*
X2061Y3679D01*
X2062Y3678D01*
X2063Y3678D01*
X2064Y3678D01*
X2065Y3678D01*
X2066Y3677D01*
X2067Y3677D01*
X2068Y3677D01*
X2069Y3677D01*
X2070Y3677D01*
X2071Y3676D01*
X2072Y3676D01*
X2073Y3676D01*
X2074Y3676D01*
X2075Y3675D01*
X2076Y3675D01*
X2077Y3675D01*
X2078Y3675D01*
X2079Y3674D01*
X2080Y3674D01*
X2081Y3674D01*
X2082Y3674D01*
X2083Y3673D01*
X2084Y3673D01*
X2085Y3673D01*
X2086Y3673D01*
X2087Y3672D01*
X2088Y3672D01*
X2089Y3672D01*
X2090Y3672D01*
X2091Y3672D01*
X2092Y3671D01*
X2093Y3671D01*
X2094Y3671D01*
X2095Y3671D01*
X2096Y3670D01*
X2097Y3670D01*
X2098Y3670D01*
X2099Y3670D01*
X2100Y3669D01*
X2101Y3669D01*
X2102Y3669D01*
X2103Y3668D01*
X2104Y3668D01*
X2105Y3668D01*
X2106Y3668D01*
X2107Y3667D01*
X2108Y3667D01*
X2109Y3667D01*
X2110Y3667D01*
X2111Y3666D01*
X2112Y3666D01*
X2113Y3666D01*
X2114Y3666D01*
X2115Y3665D01*
X2116Y3665D01*
X2117Y3665D01*
X2118Y3665D01*
X2119Y3664D01*
X2120Y3664D01*
X2121Y3664D01*
X2122Y3663D01*
X2123Y3663D01*
X2124Y3663D01*
X2125Y3663D01*
X2126Y3662D01*
X2127Y3662D01*
X2128Y3662D01*
X2129Y3662D01*
X2130Y3661D01*
X2131Y3661D01*
X2132Y3661D01*
X2133Y3660D01*
X2134Y3660D01*
X2135Y3660D01*
X2136Y3660D01*
X2137Y3659D01*
X2138Y3659D01*
X2139Y3659D01*
X2140Y3659D01*
X2141Y3658D01*
X2142Y3658D01*
X2143Y3658D01*
X2144Y3657D01*
X2145Y3657D01*
X2146Y3657D01*
X2147Y3657D01*
X2148Y3656D01*
X2149Y3656D01*
X2150Y3656D01*
X2151Y3655D01*
X2152Y3655D01*
X2153Y3655D01*
X2154Y3655D01*
X2155Y3654D01*
X2156Y3654D01*
X2157Y3654D01*
X2158Y3653D01*
X2159Y3653D01*
X2160Y3653D01*
X2161Y3652D01*
X2162Y3652D01*
X2163Y3652D01*
X2164Y3652D01*
X2165Y3651D01*
X2166Y3651D01*
X2167Y3651D01*
X2168Y3650D01*
X2169Y3650D01*
X2170Y3650D01*
X2171Y3649D01*
X2172Y3649D01*
X2173Y3649D01*
X2174Y3649D01*
X2175Y3648D01*
X2176Y3648D01*
X2177Y3648D01*
X2178Y3647D01*
X2179Y3647D01*
X2180Y3647D01*
X2181Y3646D01*
X2182Y3646D01*
X2183Y3646D01*
X2184Y3645D01*
X2185Y3645D01*
X2186Y3645D01*
X2187Y3644D01*
X2188Y3644D01*
X2189Y3644D01*
X2190Y3644D01*
X2191Y3643D01*
X2192Y3643D01*
X2193Y3643D01*
X2194Y3642D01*
X2195Y3642D01*
X2196Y3642D01*
X2197Y3641D01*
X2198Y3641D01*
X2199Y3641D01*
X2200Y3640D01*
X2201Y3640D01*
X2202Y3640D01*
X2203Y3639D01*
X2204Y3639D01*
X2205Y3639D01*
X2206Y3638D01*
X2207Y3638D01*
X2208Y3638D01*
X2209Y3637D01*
X2210Y3637D01*
X2211Y3637D01*
X2212Y3636D01*
X2213Y3636D01*
X2214Y3636D01*
X2215Y3635D01*
X2216Y3635D01*
X2217Y3635D01*
X2218Y3634D01*
X2219Y3634D01*
X2220Y3634D01*
X2221Y3633D01*
X2222Y3633D01*
X2223Y3633D01*
X2224Y3632D01*
X2225Y3632D01*
X2226Y3632D01*
X2227Y3631D01*
X2228Y3631D01*
X2229Y3631D01*
X2230Y3630D01*
X2231Y3630D01*
X2232Y3630D01*
X2233Y3629D01*
X2234Y3629D01*
X2235Y3628D01*
X2236Y3628D01*
X2237Y3628D01*
X2238Y3627D01*
X2239Y3627D01*
X2240Y3627D01*
X2241Y3626D01*
X2242Y3626D01*
X2243Y3626D01*
X2244Y3625D01*
X2245Y3625D01*
X2246Y3625D01*
X2247Y3624D01*
X2248Y3624D01*
X2249Y3624D01*
X2250Y3623D01*
X2251Y3623D01*
X2252Y3622D01*
X2253Y3622D01*
X2254Y3622D01*
X2255Y3621D01*
X2256Y3621D01*
X2257Y3621D01*
X2258Y3620D01*
X2259Y3620D01*
X2260Y3620D01*
X2261Y3619D01*
X2262Y3619D01*
X2263Y3618D01*
X2264Y3618D01*
X2265Y3618D01*
X2266Y3617D01*
X2267Y3617D01*
X2268Y3617D01*
X2269Y3616D01*
X2270Y3616D01*
X2271Y3615D01*
X2272Y3615D01*
X2273Y3615D01*
X2274Y3614D01*
X2275Y3614D01*
X2276Y3613D01*
X2277Y3613D01*
X2278Y3613D01*
X2279Y3612D01*
X2280Y3612D01*
X2281Y3612D01*
X2282Y3611D01*
X2283Y3611D01*
X2284Y3610D01*
X2285Y3610D01*
X2286Y3610D01*
X2287Y3609D01*
X2288Y3609D01*
X2289Y3608D01*
X2290Y3608D01*
X2291Y3608D01*
X2292Y3607D01*
X2293Y3607D01*
X2294Y3606D01*
X2295Y3606D01*
X2296Y3606D01*
X2297Y3605D01*
X2298Y3605D01*
X2299Y3605D01*
X2300Y3604D01*
X2301Y3604D01*
X2302Y3603D01*
X2303Y3603D01*
X2304Y3602D01*
X2305Y3602D01*
X2306Y3602D01*
X2307Y3601D01*
X2308Y3601D01*
X2309Y3600D01*
X2310Y3600D01*
X2311Y3600D01*
X2312Y3599D01*
X2313Y3599D01*
X2314Y3598D01*
X2315Y3598D01*
X2316Y3598D01*
X2317Y3597D01*
X2318Y3597D01*
X2319Y3596D01*
X2320Y3596D01*
X2321Y3596D01*
X2322Y3595D01*
X2323Y3595D01*
X2324Y3594D01*
X2325Y3594D01*
X2326Y3593D01*
X2327Y3593D01*
X2328Y3593D01*
X2329Y3592D01*
X2330Y3592D01*
X2331Y3591D01*
X2332Y3591D01*
X2333Y3590D01*
X2334Y3590D01*
X2335Y3590D01*
X2336Y3589D01*
X2337Y3589D01*
X2338Y3588D01*
X2339Y3588D01*
X2340Y3587D01*
X2341Y3587D01*
X2342Y3587D01*
X2343Y3586D01*
X2344Y3586D01*
X2345Y3585D01*
X2346Y3585D01*
X2347Y3584D01*
X2348Y3584D01*
X2349Y3584D01*
X2350Y3583D01*
X2351Y3583D01*
X2352Y3582D01*
X2353Y3582D01*
X2354Y3581D01*
X2355Y3581D01*
X2356Y3581D01*
X2357Y3580D01*
X2358Y3580D01*
X2359Y3579D01*
X2360Y3579D01*
X2361Y3578D01*
X2362Y3578D01*
X2363Y3577D01*
X2364Y3577D01*
X2365Y3576D01*
X2366Y3576D01*
X2367Y3576D01*
X2368Y3575D01*
X2369Y3575D01*
X2370Y3574D01*
X2371Y3574D01*
X2372Y3573D01*
X2373Y3573D01*
X2374Y3572D01*
X2375Y3572D01*
X2376Y3571D01*
X2377Y3571D01*
X2378Y3571D01*
X2379Y3570D01*
X2380Y3570D01*
X2381Y3569D01*
X2382Y3569D01*
X2383Y3568D01*
X2384Y3568D01*
X2385Y3567D01*
X2386Y3567D01*
X2387Y3566D01*
X2388Y3566D01*
X2389Y3565D01*
X2390Y3565D01*
X2391Y3564D01*
X2392Y3564D01*
X2393Y3564D01*
X2394Y3563D01*
X2395Y3563D01*
X2396Y3562D01*
X2397Y3562D01*
X2398Y3561D01*
X2399Y3561D01*
X2400Y3560D01*
X2401Y3560D01*
X2402Y3559D01*
X2403Y3559D01*
X2404Y3558D01*
X2405Y3558D01*
X2406Y3557D01*
X2407Y3557D01*
X2408Y3556D01*
X2409Y3556D01*
X2410Y3555D01*
X2411Y3555D01*
X2412Y3554D01*
X2413Y3554D01*
X2414Y3553D01*
X2415Y3553D01*
X2416Y3552D01*
X2417Y3552D01*
X2418Y3551D01*
X2419Y3551D01*
X2420Y3550D01*
X2421Y3550D01*
X2422Y3549D01*
X2423Y3549D01*
X2424Y3548D01*
X2425Y3548D01*
X2426Y3547D01*
X2427Y3547D01*
X2428Y3546D01*
X2429Y3546D01*
X2430Y3545D01*
X2431Y3545D01*
X2432Y3544D01*
X2433Y3544D01*
X2434Y3543D01*
X2435Y3543D01*
X2436Y3542D01*
X2437Y3542D01*
X2438Y3541D01*
X2439Y3541D01*
X2440Y3540D01*
X2441Y3540D01*
X2442Y3539D01*
X2443Y3539D01*
X2444Y3538D01*
X2445Y3538D01*
X2446Y3537D01*
X2447Y3537D01*
X2448Y3536D01*
X2449Y3536D01*
X2450Y3535D01*
X2451Y3535D01*
X2452Y3534D01*
X2453Y3534D01*
X2454Y3533D01*
X2455Y3532D01*
X2456Y3532D01*
X2457Y3531D01*
X2458Y3531D01*
X2459Y3530D01*
X2460Y3530D01*
X2461Y3529D01*
X2462Y3529D01*
X2463Y3528D01*
X2464Y3528D01*
X2465Y3527D01*
X2466Y3527D01*
X2467Y3526D01*
X2468Y3526D01*
X2469Y3525D01*
X2470Y3524D01*
X2471Y3524D01*
X2472Y3523D01*
X2473Y3523D01*
X2474Y3522D01*
X2475Y3522D01*
X2476Y3521D01*
X2477Y3521D01*
X2478Y3520D01*
X2479Y3520D01*
X2480Y3519D01*
X2481Y3518D01*
X2482Y3518D01*
X2483Y3517D01*
X2484Y3517D01*
X2485Y3516D01*
X2486Y3516D01*
X2487Y3515D01*
X2488Y3515D01*
X2489Y3514D01*
X2490Y3513D01*
X2491Y3513D01*
X2492Y3512D01*
X2493Y3512D01*
X2494Y3511D01*
X2495Y3511D01*
X2496Y3510D01*
X2497Y3510D01*
X2498Y3509D01*
X2499Y3508D01*
X2500Y3508D01*
X2501Y3507D01*
X2502Y3507D01*
X2503Y3506D01*
X2504Y3506D01*
X2505Y3505D01*
X2506Y3504D01*
X2507Y3504D01*
X2508Y3503D01*
X2509Y3503D01*
X2510Y3502D01*
X2511Y3502D01*
X2512Y3501D01*
X2513Y3500D01*
X2514Y3500D01*
X2515Y3499D01*
X2516Y3499D01*
X2517Y3498D01*
X2518Y3497D01*
X2519Y3497D01*
X2520Y3496D01*
X2521Y3496D01*
X2522Y3495D01*
X2523Y3495D01*
X2524Y3494D01*
X2525Y3493D01*
X2526Y3493D01*
X2527Y3492D01*
X2528Y3492D01*
X2529Y3491D01*
X2530Y3490D01*
X2531Y3490D01*
X2532Y3489D01*
X2533Y3489D01*
X2534Y3488D01*
X2535Y3487D01*
X2536Y3487D01*
X2537Y3486D01*
X2538Y3486D01*
X2539Y3485D01*
X2540Y3484D01*
X2541Y3484D01*
X2542Y3483D01*
X2543Y3483D01*
X2544Y3482D01*
X2545Y3481D01*
X2546Y3481D01*
X2547Y3480D01*
X2548Y3480D01*
X2549Y3479D01*
X2550Y3478D01*
X2551Y3478D01*
X2552Y3477D01*
X2553Y3476D01*
X2554Y3476D01*
X2555Y3475D01*
X2556Y3475D01*
X2557Y3474D01*
X2558Y3473D01*
X2559Y3473D01*
X2560Y3472D01*
X2561Y3471D01*
X2562Y3471D01*
X2563Y3470D01*
X2564Y3470D01*
X2565Y3469D01*
X2566Y3468D01*
X2567Y3468D01*
X2568Y3467D01*
X2569Y3466D01*
X2570Y3466D01*
X2571Y3465D01*
X2572Y3465D01*
X2573Y3464D01*
X2574Y3463D01*
X2575Y3463D01*
X2576Y3462D01*
X2577Y3461D01*
X2578Y3461D01*
X2579Y3460D01*
X2580Y3459D01*
X2581Y3459D01*
X2582Y3458D01*
X2583Y3457D01*
X2584Y3457D01*
X2585Y3456D01*
X2586Y3456D01*
X2587Y3455D01*
X2588Y3454D01*
X2589Y3454D01*
X2590Y3453D01*
X2591Y3452D01*
X2592Y3452D01*
X2593Y3451D01*
X2594Y3450D01*
X2595Y3450D01*
X2596Y3449D01*
X2597Y3448D01*
X2598Y3448D01*
X2599Y3447D01*
X2600Y3446D01*
X2601Y3446D01*
X2602Y3445D01*
X2603Y3444D01*
X2604Y3444D01*
X2605Y3443D01*
X2606Y3442D01*
X2607Y3442D01*
X2608Y3441D01*
X2609Y3440D01*
X2610Y3440D01*
X2611Y3439D01*
X2612Y3438D01*
X2613Y3438D01*
X2614Y3437D01*
X2615Y3436D01*
X2616Y3436D01*
X2617Y3435D01*
X2618Y3434D01*
X2619Y3434D01*
X2620Y3433D01*
X2621Y3432D01*
X2622Y3431D01*
X2623Y3431D01*
X2624Y3430D01*
X2625Y3429D01*
X2626Y3429D01*
X2627Y3428D01*
X2628Y3427D01*
X2629Y3427D01*
X2630Y3426D01*
X2631Y3425D01*
X2632Y3425D01*
X2633Y3424D01*
X2634Y3423D01*
X2635Y3422D01*
X2636Y3422D01*
X2637Y3421D01*
X2638Y3420D01*
X2639Y3420D01*
X2640Y3419D01*
X2641Y3418D01*
X2642Y3418D01*
X2643Y3417D01*
X2644Y3416D01*
X2645Y3415D01*
X2646Y3415D01*
X2647Y3414D01*
X2648Y3413D01*
X2649Y3413D01*
X2650Y3412D01*
X2651Y3411D01*
X2652Y3410D01*
X2653Y3410D01*
X2654Y3409D01*
X2655Y3408D01*
X2656Y3407D01*
X2657Y3407D01*
X2658Y3406D01*
X2659Y3405D01*
X2660Y3405D01*
X2661Y3404D01*
X2662Y3403D01*
X2663Y3402D01*
X2664Y3402D01*
X2665Y3401D01*
X2666Y3400D01*
X2667Y3399D01*
X2668Y3399D01*
X2669Y3398D01*
X2670Y3397D01*
X2671Y3396D01*
X2672Y3396D01*
X2673Y3395D01*
X2674Y3394D01*
X2675Y3393D01*
X2676Y3393D01*
X2677Y3392D01*
X2678Y3391D01*
X2679Y3390D01*
X2680Y3390D01*
X2681Y3389D01*
X2682Y3388D01*
X2683Y3387D01*
X2684Y3387D01*
X2685Y3386D01*
X2686Y3385D01*
X2687Y3384D01*
X2688Y3384D01*
X2689Y3383D01*
X2690Y3382D01*
X2691Y3381D01*
X2692Y3381D01*
X2693Y3380D01*
X2694Y3379D01*
X2695Y3378D01*
X2696Y3378D01*
X2697Y3377D01*
X2698Y3376D01*
X2699Y3375D01*
X2700Y3375D01*
X2701Y3374D01*
X2702Y3373D01*
X2703Y3372D01*
X2704Y3371D01*
X2705Y3371D01*
X2706Y3370D01*
X2707Y3369D01*
X2708Y3368D01*
X2709Y3367D01*
X2710Y3367D01*
X2711Y3366D01*
X2712Y3365D01*
X2713Y3364D01*
X2714Y3364D01*
X2715Y3363D01*
X2716Y3362D01*
X2717Y3361D01*
X2718Y3360D01*
X2719Y3360D01*
X2720Y3359D01*
X2721Y3358D01*
X2722Y3357D01*
X2723Y3356D01*
X2724Y3356D01*
X2725Y3355D01*
X2726Y3354D01*
X2727Y3353D01*
X2728Y3352D01*
X2729Y3352D01*
X2730Y3351D01*
X2731Y3350D01*
X2732Y3349D01*
X2733Y3348D01*
X2734Y3348D01*
X2735Y3347D01*
X2736Y3346D01*
X2737Y3345D01*
X2738Y3344D01*
X2739Y3343D01*
X2740Y3343D01*
X2741Y3342D01*
X2742Y3341D01*
X2743Y3340D01*
X2744Y3339D01*
X2745Y3338D01*
X2746Y3338D01*
X2747Y3337D01*
X2748Y3336D01*
X2749Y3335D01*
X2750Y3334D01*
X2751Y3333D01*
X2752Y3333D01*
X2753Y3332D01*
X2754Y3331D01*
X2755Y3330D01*
X2756Y3329D01*
X2757Y3328D01*
X2758Y3328D01*
X2759Y3327D01*
X2760Y3326D01*
X2761Y3325D01*
X2762Y3324D01*
X2763Y3323D01*
X2764Y3323D01*
X2765Y3322D01*
X2766Y3321D01*
X2767Y3320D01*
X2768Y3319D01*
X2769Y3318D01*
X2770Y3317D01*
X2771Y3317D01*
X2772Y3316D01*
X2773Y3315D01*
X2774Y3314D01*
X2775Y3313D01*
X2776Y3312D01*
X2777Y3311D01*
X2778Y3310D01*
X2779Y3310D01*
X2780Y3309D01*
X2781Y3308D01*
X2782Y3307D01*
X2783Y3306D01*
X2784Y3305D01*
X2785Y3304D01*
X2786Y3303D01*
X2787Y3303D01*
X2788Y3302D01*
X2789Y3301D01*
X2790Y3300D01*
X2791Y3299D01*
X2792Y3298D01*
X2793Y3297D01*
X2794Y3296D01*
X2795Y3296D01*
X2796Y3295D01*
X2797Y3294D01*
X2798Y3293D01*
X2799Y3292D01*
X2800Y3291D01*
X2801Y3290D01*
X2802Y3289D01*
X2803Y3288D01*
X2804Y3287D01*
X2805Y3286D01*
X2806Y3286D01*
X2807Y3285D01*
X2808Y3284D01*
X2809Y3283D01*
X2810Y3282D01*
X2811Y3281D01*
X2812Y3280D01*
X2813Y3279D01*
X2814Y3278D01*
X2815Y3277D01*
X2816Y3276D01*
X2817Y3275D01*
X2818Y3275D01*
X2819Y3274D01*
X2820Y3273D01*
X2821Y3272D01*
X2822Y3271D01*
X2823Y3270D01*
X2824Y3269D01*
X2825Y3268D01*
X2826Y3267D01*
X2827Y3266D01*
X2828Y3265D01*
X2829Y3264D01*
X2830Y3263D01*
X2831Y3262D01*
X2832Y3261D01*
X2833Y3261D01*
X2834Y3260D01*
X2835Y3259D01*
X2836Y3258D01*
X2837Y3257D01*
X2838Y3256D01*
X2839Y3255D01*
X2840Y3254D01*
X2841Y3253D01*
X2842Y3252D01*
X2843Y3251D01*
X2844Y3250D01*
X2845Y3249D01*
X2846Y3248D01*
X2847Y3247D01*
X2848Y3246D01*
X2849Y3245D01*
X2850Y3244D01*
X2851Y3243D01*
X2852Y3242D01*
X2853Y3241D01*
X2854Y3240D01*
X2855Y3239D01*
X2856Y3238D01*
X2857Y3237D01*
X2858Y3236D01*
X2859Y3235D01*
X2860Y3234D01*
X2861Y3233D01*
X2862Y3232D01*
X2863Y3231D01*
X2864Y3230D01*
X2865Y3229D01*
X2866Y3228D01*
X2867Y3227D01*
X2868Y3226D01*
X2869Y3225D01*
X2870Y3224D01*
X2871Y3223D01*
X2872Y3222D01*
X2873Y3221D01*
X2874Y3220D01*
X2875Y3219D01*
X2876Y3218D01*
X2877Y3217D01*
X2878Y3216D01*
X2879Y3215D01*
X2880Y3214D01*
X2881Y3213D01*
X2882Y3212D01*
X2883Y3211D01*
X2884Y3210D01*
X2885Y3209D01*
X2886Y3208D01*
X2887Y3207D01*
X2888Y3206D01*
X2889Y3205D01*
X2890Y3204D01*
X2891Y3203D01*
X2892Y3202D01*
X2893Y3201D01*
X2894Y3200D01*
X2895Y3199D01*
X2896Y3198D01*
X2897Y3197D01*
X2898Y3196D01*
X2899Y3195D01*
X2899Y3194D01*
X2900Y3193D01*
X2901Y3192D01*
X2902Y3191D01*
X2903Y3190D01*
X2904Y3189D01*
X2905Y3188D01*
X2906Y3187D01*
X2907Y3186D01*
X2908Y3185D01*
X2909Y3184D01*
X2910Y3183D01*
X2911Y3182D01*
X2912Y3181D01*
X2913Y3180D01*
X2914Y3179D01*
X2915Y3178D01*
X2915Y3177D01*
X2916Y3176D01*
X2917Y3175D01*
X2918Y3174D01*
X2919Y3173D01*
X2920Y3172D01*
X2921Y3171D01*
X2922Y3170D01*
X2923Y3169D01*
X2924Y3168D01*
X2925Y3167D01*
X2925Y3166D01*
X2926Y3165D01*
X2927Y3164D01*
X2928Y3163D01*
X2929Y3162D01*
X2930Y3161D01*
X2931Y3160D01*
X2932Y3159D01*
X2933Y3158D01*
X2934Y3157D01*
X2934Y3156D01*
X2935Y3155D01*
X2936Y3154D01*
X2937Y3153D01*
X2938Y3152D01*
X2939Y3151D01*
X2940Y3150D01*
X2941Y3149D01*
X2942Y3148D01*
X2943Y3147D01*
X2943Y3146D01*
X2944Y3145D01*
X2945Y3144D01*
X2946Y3143D01*
X2947Y3142D01*
X2948Y3141D01*
X2949Y3140D01*
X2950Y3139D01*
X2950Y3138D01*
X2951Y3137D01*
X2952Y3136D01*
X2953Y3135D01*
X2954Y3134D01*
X2955Y3133D01*
X2956Y3132D01*
X2956Y3131D01*
X2957Y3130D01*
X2958Y3129D01*
X2959Y3128D01*
X2960Y3127D01*
X2961Y3126D01*
X2962Y3125D01*
X2962Y3124D01*
X2963Y3123D01*
X2964Y3122D01*
X2965Y3121D01*
X2966Y3120D01*
X2967Y3119D01*
X2968Y3118D01*
X2968Y3117D01*
X2969Y3116D01*
X2970Y3115D01*
X2971Y3114D01*
X2972Y3113D01*
X2973Y3112D01*
X2974Y3111D01*
X2974Y3110D01*
X2975Y3109D01*
X2976Y3108D01*
X2977Y3107D01*
X2978Y3106D01*
X2979Y3105D01*
X2979Y3104D01*
X2980Y3103D01*
X2981Y3102D01*
X2982Y3101D01*
X2983Y3100D01*
X2983Y3099D01*
X2984Y3098D01*
X2985Y3097D01*
X2986Y3096D01*
X2987Y3095D01*
X2988Y3094D01*
X2988Y3093D01*
X2989Y3092D01*
X2990Y3091D01*
X2991Y3090D01*
X2992Y3089D01*
X2992Y3088D01*
X2993Y3087D01*
X2994Y3086D01*
X2995Y3085D01*
X2996Y3084D01*
X2997Y3083D01*
X2997Y3082D01*
X2998Y3081D01*
X2999Y3080D01*
X3000Y3079D01*
X3001Y3078D01*
X3001Y3077D01*
X3002Y3076D01*
X3003Y3075D01*
X3004Y3074D01*
X3005Y3073D01*
X3005Y3072D01*
X3006Y3071D01*
X3007Y3070D01*
X3008Y3069D01*
X3008Y3068D01*
X3009Y3067D01*
X3010Y3066D01*
X3011Y3065D01*
X3012Y3064D01*
X3012Y3063D01*
X3013Y3062D01*
X3014Y3061D01*
X3015Y3060D01*
X3015Y3059D01*
X3016Y3058D01*
X3017Y3057D01*
X3018Y3056D01*
X3019Y3055D01*
X3019Y3054D01*
X3020Y3053D01*
X3021Y3052D01*
X3022Y3051D01*
X3022Y3050D01*
X3023Y3049D01*
X3024Y3048D01*
X3025Y3047D01*
X3026Y3046D01*
X3026Y3045D01*
X3027Y3044D01*
X3028Y3043D01*
X3029Y3042D01*
X3029Y3041D01*
X3030Y3040D01*
X3031Y3039D01*
X3032Y3038D01*
X3032Y3037D01*
X3033Y3036D01*
X3034Y3035D01*
X3035Y3034D01*
X3035Y3033D01*
X3036Y3032D01*
X3037Y3031D01*
X3038Y3030D01*
X3038Y3029D01*
X3039Y3028D01*
X3040Y3027D01*
X3040Y3026D01*
X3041Y3025D01*
X3042Y3024D01*
X3043Y3023D01*
X3043Y3022D01*
X3044Y3021D01*
X3045Y3020D01*
X3046Y3019D01*
X3046Y3018D01*
X3047Y3017D01*
X3048Y3016D01*
X3049Y3015D01*
X3049Y3014D01*
X3050Y3013D01*
X3051Y3012D01*
X3052Y3011D01*
X3052Y3010D01*
X3053Y3009D01*
X3054Y3008D01*
X3055Y3007D01*
X3055Y3006D01*
X3056Y3005D01*
X3057Y3004D01*
X3057Y3003D01*
X3058Y3002D01*
X3059Y3001D01*
X3059Y3000D01*
X3060Y2999D01*
X3061Y2998D01*
X3062Y2997D01*
X3062Y2996D01*
X3063Y2995D01*
X3064Y2994D01*
X3064Y2993D01*
X3065Y2992D01*
X3066Y2991D01*
X3067Y2990D01*
X3067Y2989D01*
X3068Y2988D01*
X3069Y2987D01*
X3069Y2986D01*
X3070Y2985D01*
X3071Y2984D01*
X3071Y2983D01*
X3072Y2982D01*
X3073Y2981D01*
X3074Y2980D01*
X3074Y2979D01*
X3075Y2978D01*
X3076Y2977D01*
X3076Y2976D01*
X3077Y2975D01*
X3078Y2974D01*
X3079Y2973D01*
X3079Y2972D01*
X3080Y2971D01*
X3081Y2970D01*
X3081Y2969D01*
X3082Y2968D01*
X3083Y2967D01*
X3083Y2966D01*
X3084Y2965D01*
X3085Y2964D01*
X3085Y2963D01*
X3086Y2962D01*
X3087Y2961D01*
X3087Y2960D01*
X3088Y2959D01*
X3089Y2958D01*
X3089Y2957D01*
X3090Y2956D01*
X3091Y2955D01*
X3091Y2954D01*
X3092Y2953D01*
X3093Y2952D01*
X3093Y2951D01*
X3094Y2950D01*
X3095Y2949D01*
X3095Y2948D01*
X3096Y2947D01*
X3097Y2946D01*
X3097Y2945D01*
X3098Y2944D01*
X3099Y2943D01*
X3099Y2942D01*
X3100Y2941D01*
X3101Y2940D01*
X3101Y2939D01*
X3102Y2938D01*
X3103Y2937D01*
X3103Y2936D01*
X3104Y2935D01*
X3105Y2934D01*
X3105Y2933D01*
X3106Y2932D01*
X3107Y2931D01*
X3107Y2930D01*
X3108Y2929D01*
X3109Y2928D01*
X3109Y2927D01*
X3110Y2926D01*
X3110Y2925D01*
X3111Y2924D01*
X3112Y2923D01*
X3112Y2922D01*
X3113Y2921D01*
X3114Y2920D01*
X3114Y2919D01*
X3115Y2918D01*
X3116Y2917D01*
X3116Y2916D01*
X3117Y2915D01*
X3117Y2914D01*
X3118Y2913D01*
X3119Y2912D01*
X3119Y2911D01*
X3120Y2910D01*
X3121Y2909D01*
X3121Y2908D01*
X3122Y2907D01*
X3123Y2906D01*
X3123Y2905D01*
X3124Y2904D01*
X3124Y2903D01*
X3125Y2902D01*
X3126Y2901D01*
X3126Y2900D01*
X3127Y2899D01*
X3128Y2898D01*
X3128Y2897D01*
X3129Y2896D01*
X3129Y2895D01*
X3130Y2894D01*
X3131Y2893D01*
X3131Y2892D01*
X3132Y2891D01*
X3132Y2890D01*
X3133Y2889D01*
X3134Y2888D01*
X3134Y2887D01*
X3135Y2886D01*
X3135Y2885D01*
X3136Y2884D01*
X3137Y2883D01*
X3137Y2882D01*
X3138Y2881D01*
X3139Y2880D01*
X3139Y2879D01*
X3140Y2878D01*
X3140Y2877D01*
X3141Y2876D01*
X3142Y2875D01*
X3142Y2874D01*
X3143Y2873D01*
X3143Y2872D01*
X3144Y2871D01*
X3145Y2870D01*
X3145Y2869D01*
X3146Y2868D01*
X3146Y2867D01*
X3147Y2866D01*
X3148Y2865D01*
X3148Y2864D01*
X3149Y2863D01*
X3149Y2862D01*
X3150Y2861D01*
X3151Y2860D01*
X3151Y2859D01*
X3152Y2858D01*
X3152Y2857D01*
X3153Y2856D01*
X3153Y2855D01*
X3154Y2854D01*
X3155Y2853D01*
X3155Y2852D01*
X3156Y2851D01*
X3156Y2850D01*
X3157Y2849D01*
X3157Y2848D01*
X3158Y2847D01*
X3159Y2846D01*
X3159Y2845D01*
X3160Y2844D01*
X3160Y2843D01*
X3161Y2842D01*
X3161Y2841D01*
X3162Y2840D01*
X3163Y2839D01*
X3163Y2838D01*
X3164Y2837D01*
X3164Y2836D01*
X3165Y2835D01*
X3165Y2834D01*
X3166Y2833D01*
X3167Y2832D01*
X3167Y2831D01*
X3168Y2830D01*
X3168Y2829D01*
X3169Y2828D01*
X3169Y2827D01*
X3170Y2826D01*
X3171Y2825D01*
X3171Y2824D01*
X3172Y2823D01*
X3172Y2822D01*
X3173Y2821D01*
X3173Y2820D01*
X3174Y2819D01*
X3174Y2818D01*
X3175Y2817D01*
X3176Y2816D01*
X3176Y2815D01*
X3177Y2814D01*
X3177Y2813D01*
X3178Y2812D01*
X3178Y2811D01*
X3179Y2810D01*
X3179Y2809D01*
X3180Y2808D01*
X3180Y2807D01*
X3181Y2806D01*
X3182Y2805D01*
X3182Y2804D01*
X3183Y2803D01*
X3183Y2802D01*
X3184Y2801D01*
X3184Y2800D01*
X3185Y2799D01*
X3185Y2798D01*
X3186Y2797D01*
X3186Y2796D01*
X3187Y2795D01*
X3188Y2794D01*
X3188Y2793D01*
X3189Y2792D01*
X3189Y2791D01*
X3190Y2790D01*
X3190Y2789D01*
X3191Y2788D01*
X3191Y2787D01*
X3192Y2786D01*
X3192Y2785D01*
X3193Y2784D01*
X3193Y2783D01*
X3194Y2782D01*
X3195Y2781D01*
X3195Y2780D01*
X3196Y2779D01*
X3196Y2778D01*
X3197Y2777D01*
X3197Y2776D01*
X3198Y2775D01*
X3198Y2774D01*
X3199Y2773D01*
X3199Y2772D01*
X3200Y2771D01*
X3200Y2770D01*
X3201Y2769D01*
X3201Y2768D01*
X3202Y2767D01*
X3202Y2766D01*
X3203Y2765D01*
X3203Y2764D01*
X3204Y2763D01*
X3204Y2762D01*
X3205Y2761D01*
X3205Y2760D01*
X3206Y2759D01*
X3206Y2758D01*
X3207Y2757D01*
X3207Y2756D01*
X3208Y2755D01*
X3208Y2754D01*
X3209Y2753D01*
X3209Y2752D01*
X3210Y2751D01*
X3210Y2750D01*
X3211Y2749D01*
X3211Y2748D01*
X3212Y2747D01*
X3212Y2746D01*
X3213Y2745D01*
X3213Y2744D01*
X3214Y2743D01*
X3214Y2742D01*
X3215Y2741D01*
X3215Y2740D01*
X3216Y2739D01*
X3216Y2738D01*
X3217Y2737D01*
X3217Y2736D01*
X3218Y2735D01*
X3218Y2734D01*
X3219Y2733D01*
X3219Y2732D01*
X3220Y2731D01*
X3220Y2730D01*
X3221Y2729D01*
X3221Y2728D01*
X3222Y2727D01*
X3222Y2726D01*
X3223Y2725D01*
X3223Y2724D01*
X3224Y2723D01*
X3224Y2722D01*
X3225Y2721D01*
X3225Y2720D01*
X3226Y2719D01*
X3226Y2718D01*
X3227Y2717D01*
X3227Y2716D01*
X3228Y2715D01*
X3228Y2714D01*
X3229Y2713D01*
X3229Y2712D01*
X3230Y2711D01*
X3230Y2709D01*
X3231Y2708D01*
X3231Y2707D01*
X3232Y2706D01*
X3232Y2705D01*
X3233Y2704D01*
X3233Y2703D01*
X3234Y2702D01*
X3234Y2701D01*
X3235Y2700D01*
X3235Y2699D01*
X3236Y2698D01*
X3236Y2697D01*
X3237Y2696D01*
X3237Y2694D01*
X3238Y2693D01*
X3238Y2692D01*
X3239Y2691D01*
X3239Y2690D01*
X3240Y2689D01*
X3240Y2688D01*
X3241Y2687D01*
X3241Y2686D01*
X3242Y2685D01*
X3242Y2684D01*
X3243Y2683D01*
X3243Y2681D01*
X3244Y2680D01*
X3244Y2679D01*
X3245Y2678D01*
X3245Y2677D01*
X3246Y2676D01*
X3246Y2675D01*
X3247Y2674D01*
X3247Y2672D01*
X3248Y2671D01*
X3248Y2670D01*
X3249Y2669D01*
X3249Y2668D01*
X3250Y2667D01*
X3250Y2666D01*
X3251Y2665D01*
X3251Y2664D01*
X3252Y2663D01*
X3252Y2661D01*
X3253Y2660D01*
X3253Y2659D01*
X3254Y2658D01*
X3254Y2657D01*
X3255Y2656D01*
X3255Y2654D01*
X3256Y2653D01*
X3256Y2652D01*
X3257Y2651D01*
X3257Y2650D01*
X3258Y2649D01*
X3258Y2647D01*
X3259Y2646D01*
X3259Y2645D01*
X3260Y2644D01*
X3260Y2643D01*
X3261Y2642D01*
X3261Y2640D01*
X3262Y2639D01*
X3262Y2638D01*
X3263Y2637D01*
X3263Y2636D01*
X3264Y2635D01*
X3264Y2633D01*
X3265Y2632D01*
X3265Y2631D01*
X3266Y2630D01*
X3266Y2629D01*
X3267Y2628D01*
X3267Y2626D01*
X3268Y2625D01*
X3268Y2624D01*
X3269Y2623D01*
X3269Y2621D01*
X3270Y2620D01*
X3270Y2619D01*
X3271Y2618D01*
X3271Y2617D01*
X3272Y2616D01*
X3272Y2614D01*
X3273Y2613D01*
X3273Y2612D01*
X3274Y2611D01*
X3274Y2609D01*
X3275Y2608D01*
X3275Y2607D01*
X3276Y2606D01*
X3276Y2604D01*
X3277Y2603D01*
X3277Y2602D01*
X3278Y2601D01*
X3278Y2599D01*
X3279Y2598D01*
X3279Y2597D01*
X3280Y2596D01*
X3280Y2594D01*
X3281Y2593D01*
X3281Y2592D01*
X3282Y2591D01*
X3282Y2589D01*
X3283Y2588D01*
X3283Y2587D01*
X3284Y2586D01*
X3284Y2584D01*
X3285Y2583D01*
X3285Y2581D01*
X3286Y2580D01*
X3286Y2579D01*
X3287Y2578D01*
X3287Y2576D01*
X3288Y2575D01*
X3288Y2574D01*
X3289Y2573D01*
X3289Y2571D01*
X3290Y2570D01*
X3290Y2568D01*
X3291Y2567D01*
X3291Y2566D01*
X3292Y2565D01*
X3292Y2563D01*
X3293Y2562D01*
X3293Y2560D01*
X3294Y2559D01*
X3294Y2558D01*
X3295Y2557D01*
X3295Y2555D01*
X3296Y2554D01*
X3296Y2552D01*
X3297Y2551D01*
X3297Y2550D01*
X3298Y2549D01*
X3298Y2547D01*
X3299Y2546D01*
X3299Y2544D01*
X3300Y2543D01*
X3300Y2541D01*
X3301Y2540D01*
X3301Y2539D01*
X3302Y2538D01*
X3302Y2536D01*
X3303Y2535D01*
X3303Y2533D01*
X3304Y2532D01*
X3304Y2530D01*
X3305Y2529D01*
X3305Y2527D01*
X3306Y2526D01*
X3306Y2525D01*
X3307Y2524D01*
X3307Y2522D01*
X3308Y2521D01*
X3308Y2519D01*
X3309Y2518D01*
X3309Y2516D01*
X3310Y2515D01*
X3310Y2513D01*
X3311Y2512D01*
X3311Y2510D01*
X3312Y2509D01*
X3312Y2507D01*
X3313Y2506D01*
X3313Y2504D01*
X3314Y2503D01*
X3314Y2501D01*
X3315Y2500D01*
X3315Y2499D01*
X3316Y2498D01*
X3316Y2496D01*
X3317Y2495D01*
X3317Y2493D01*
X3318Y2492D01*
X3318Y2489D01*
X3319Y2488D01*
X3319Y2486D01*
X3320Y2485D01*
X3320Y2483D01*
X3321Y2482D01*
X3321Y2480D01*
X3322Y2479D01*
X3322Y2477D01*
X3323Y2476D01*
X3323Y2474D01*
X3324Y2473D01*
X3324Y2471D01*
X3325Y2470D01*
X3325Y2468D01*
X3326Y2467D01*
X3326Y2465D01*
X3327Y2464D01*
X3327Y2462D01*
X3328Y2461D01*
X3328Y2458D01*
X3329Y2457D01*
X3329Y2455D01*
X3330Y2454D01*
X3330Y2452D01*
X3331Y2451D01*
X3331Y2449D01*
X3332Y2448D01*
X3332Y2445D01*
X3333Y2444D01*
X3333Y2442D01*
X3334Y2441D01*
X3334Y2439D01*
X3335Y2438D01*
X3335Y2436D01*
X3336Y2435D01*
X3336Y2432D01*
X3337Y2431D01*
X3337Y2429D01*
X3338Y2428D01*
X3338Y2425D01*
X3339Y2424D01*
X3339Y2422D01*
X3340Y2421D01*
X3340Y2419D01*
X3341Y2418D01*
X3341Y2415D01*
X3342Y2414D01*
X3342Y2412D01*
X3343Y2411D01*
X3343Y2408D01*
X3344Y2407D01*
X3344Y2404D01*
X3345Y2403D01*
X3345Y2401D01*
X3346Y2400D01*
X3346Y2397D01*
X3347Y2396D01*
X3347Y2394D01*
X3348Y2393D01*
X3348Y2390D01*
X3349Y2389D01*
X3349Y2386D01*
X3350Y2385D01*
X3350Y2383D01*
X3351Y2382D01*
X3351Y2379D01*
X3352Y2378D01*
X3352Y2375D01*
X3353Y2374D01*
X3353Y2371D01*
X3354Y2370D01*
X3354Y2368D01*
X3355Y2367D01*
X3355Y2364D01*
X3356Y2363D01*
X3356Y2360D01*
X3357Y2359D01*
X3357Y2356D01*
X3358Y2355D01*
X3358Y2352D01*
X3359Y2351D01*
X3359Y2348D01*
X3360Y2347D01*
X3360Y2344D01*
X3361Y2343D01*
X3361Y2340D01*
X3362Y2339D01*
X3362Y2336D01*
X3363Y2335D01*
X3363Y2332D01*
X3364Y2331D01*
X3364Y2328D01*
X3365Y2327D01*
X3365Y2323D01*
X3366Y2322D01*
X3366Y2319D01*
X3367Y2318D01*
X3367Y2315D01*
X3368Y2314D01*
X3368Y2310D01*
X3369Y2309D01*
X3369Y2306D01*
X3370Y2305D01*
X3370Y2302D01*
X3371Y2301D01*
X3371Y2297D01*
X3372Y2296D01*
X3372Y2292D01*
X3373Y2291D01*
X3373Y2288D01*
X3374Y2287D01*
X3374Y2283D01*
X3375Y2282D01*
X3375Y2279D01*
X3376Y2278D01*
X3376Y2274D01*
X3377Y2273D01*
X3377Y2269D01*
X3378Y2268D01*
X3378Y2264D01*
X3379Y2263D01*
X3379Y2259D01*
X3380Y2258D01*
X3380Y2254D01*
X3381Y2253D01*
X3381Y2249D01*
X3382Y2248D01*
X3382Y2244D01*
X3383Y2243D01*
X3383Y2239D01*
X3384Y2238D01*
X3384Y2234D01*
X3385Y2233D01*
X3385Y2228D01*
X3386Y2227D01*
X3386Y2223D01*
X3387Y2222D01*
X3387Y2217D01*
X3388Y2216D01*
X3388Y2212D01*
X3389Y2211D01*
X3389Y2206D01*
X3390Y2205D01*
X3390Y2200D01*
X3391Y2199D01*
X3391Y2194D01*
X3392Y2193D01*
X3392Y2188D01*
X3393Y2187D01*
X3393Y2182D01*
X3394Y2181D01*
X3394Y2175D01*
X3395Y2174D01*
X3395Y2169D01*
X3396Y2168D01*
X3396Y2163D01*
X3397Y2162D01*
X3397Y2156D01*
X3398Y2155D01*
X3398Y2149D01*
X3399Y2148D01*
X3399Y2142D01*
X3400Y2141D01*
X3400Y2134D01*
X3401Y2133D01*
X3401Y2127D01*
X3402Y2126D01*
X3402Y2120D01*
X3403Y2119D01*
X3403Y2111D01*
X3404Y2110D01*
X3404Y2103D01*
X3405Y2102D01*
X3405Y2095D01*
X3406Y2094D01*
X3406Y2086D01*
X3407Y2085D01*
X3407Y2077D01*
X3408Y2076D01*
X3408Y2067D01*
X3409Y2066D01*
X3409Y2057D01*
X3410Y2056D01*
X3410Y2047D01*
X3411Y2046D01*
X3411Y2035D01*
X3412Y2034D01*
X3412Y2023D01*
X3413Y2022D01*
X3413Y2010D01*
X3414Y2009D01*
X3414Y1996D01*
X3415Y1995D01*
X3415Y1980D01*
X3416Y1979D01*
X3416Y1961D01*
X3417Y1960D01*
X3417Y1938D01*
X3418Y1937D01*
X3418Y1906D01*
X3419Y1905D01*
X3419Y1815D01*
X3418Y1814D01*
X3418Y1783D01*
X3417Y1782D01*
X3417Y1760D01*
X3416Y1759D01*
X3416Y1741D01*
X3415Y1740D01*
X3415Y1725D01*
X3414Y1724D01*
X3414Y1711D01*
X3413Y1710D01*
X3413Y1698D01*
X3412Y1697D01*
X3412Y1686D01*
X3411Y1685D01*
X3411Y1674D01*
X3410Y1673D01*
X3410Y1664D01*
X3409Y1663D01*
X3409Y1654D01*
X3408Y1653D01*
X3408Y1644D01*
X3407Y1643D01*
X3407Y1635D01*
X3406Y1634D01*
X3406Y1626D01*
X3405Y1625D01*
X3405Y1618D01*
X3404Y1617D01*
X3404Y1610D01*
X3403Y1609D01*
X3403Y1601D01*
X3402Y1600D01*
X3402Y1594D01*
X3401Y1593D01*
X3401Y1587D01*
X3400Y1586D01*
X3400Y1579D01*
X3399Y1578D01*
X3399Y1572D01*
X3398Y1571D01*
X3398Y1565D01*
X3397Y1564D01*
X3397Y1558D01*
X3396Y1557D01*
X3396Y1552D01*
X3395Y1551D01*
X3395Y1546D01*
X3394Y1545D01*
X3394Y1539D01*
X3393Y1538D01*
X3393Y1533D01*
X3392Y1532D01*
X3392Y1527D01*
X3391Y1526D01*
X3391Y1521D01*
X3390Y1520D01*
X3390Y1515D01*
X3389Y1514D01*
X3389Y1509D01*
X3388Y1508D01*
X3388Y1504D01*
X3387Y1503D01*
X3387Y1498D01*
X3386Y1497D01*
X3386Y1493D01*
X3385Y1492D01*
X3385Y1487D01*
X3384Y1486D01*
X3384Y1482D01*
X3383Y1481D01*
X3383Y1477D01*
X3382Y1476D01*
X3382Y1472D01*
X3381Y1471D01*
X3381Y1467D01*
X3380Y1466D01*
X3380Y1462D01*
X3379Y1461D01*
X3379Y1457D01*
X3378Y1456D01*
X3378Y1452D01*
X3377Y1451D01*
X3377Y1447D01*
X3376Y1446D01*
X3376Y1442D01*
X3375Y1441D01*
X3375Y1438D01*
X3374Y1437D01*
X3374Y1433D01*
X3373Y1432D01*
X3373Y1429D01*
X3372Y1428D01*
X3372Y1424D01*
X3371Y1423D01*
X3371Y1419D01*
X3370Y1418D01*
X3370Y1415D01*
X3369Y1414D01*
X3369Y1411D01*
X3368Y1410D01*
X3368Y1406D01*
X3367Y1405D01*
X3367Y1402D01*
X3366Y1401D01*
X3366Y1398D01*
X3365Y1397D01*
X3365Y1393D01*
X3364Y1392D01*
X3364Y1389D01*
X3363Y1388D01*
X3363Y1385D01*
X3362Y1384D01*
X3362Y1381D01*
X3361Y1380D01*
X3361Y1377D01*
X3360Y1376D01*
X3360Y1373D01*
X3359Y1372D01*
X3359Y1369D01*
X3358Y1368D01*
X3358Y1365D01*
X3357Y1364D01*
X3357Y1361D01*
X3356Y1360D01*
X3356Y1357D01*
X3355Y1356D01*
X3355Y1353D01*
X3354Y1352D01*
X3354Y1350D01*
X3353Y1349D01*
X3353Y1346D01*
X3352Y1345D01*
X3352Y1342D01*
X3351Y1341D01*
X3351Y1338D01*
X3350Y1337D01*
X3350Y1335D01*
X3349Y1334D01*
X3349Y1331D01*
X3348Y1330D01*
X3348Y1327D01*
X3347Y1326D01*
X3347Y1324D01*
X3346Y1323D01*
X3346Y1320D01*
X3345Y1319D01*
X3345Y1317D01*
X3344Y1316D01*
X3344Y1313D01*
X3343Y1312D01*
X3343Y1309D01*
X3342Y1308D01*
X3342Y1306D01*
X3341Y1305D01*
X3341Y1302D01*
X3340Y1301D01*
X3340Y1299D01*
X3339Y1298D01*
X3339Y1296D01*
X3338Y1295D01*
X3338Y1292D01*
X3337Y1291D01*
X3337Y1289D01*
X3336Y1288D01*
X3336Y1285D01*
X3335Y1284D01*
X3335Y1282D01*
X3334Y1281D01*
X3334Y1279D01*
X3333Y1278D01*
X3333Y1276D01*
X3332Y1275D01*
X3332Y1272D01*
X3331Y1271D01*
X3331Y1269D01*
X3330Y1268D01*
X3330Y1266D01*
X3329Y1265D01*
X3329Y1263D01*
X3328Y1262D01*
X3328Y1259D01*
X3327Y1258D01*
X3327Y1256D01*
X3326Y1255D01*
X3326Y1253D01*
X3325Y1252D01*
X3325Y1250D01*
X3324Y1249D01*
X3324Y1247D01*
X3323Y1246D01*
X3323Y1244D01*
X3322Y1243D01*
X3322Y1241D01*
X3321Y1240D01*
X3321Y1238D01*
X3320Y1237D01*
X3320Y1235D01*
X3319Y1234D01*
X3319Y1232D01*
X3318Y1231D01*
X3318Y1228D01*
X3317Y1227D01*
X3317Y1225D01*
X3316Y1224D01*
X3316Y1222D01*
X3315Y1221D01*
X3315Y1220D01*
X3314Y1219D01*
X3314Y1217D01*
X3313Y1216D01*
X3313Y1214D01*
X3312Y1213D01*
X3312Y1211D01*
X3311Y1210D01*
X3311Y1208D01*
X3310Y1207D01*
X3310Y1205D01*
X3309Y1204D01*
X3309Y1202D01*
X3308Y1201D01*
X3308Y1199D01*
X3307Y1198D01*
X3307Y1196D01*
X3306Y1195D01*
X3306Y1194D01*
X3305Y1193D01*
X3305Y1191D01*
X3304Y1190D01*
X3304Y1188D01*
X3303Y1187D01*
X3303Y1185D01*
X3302Y1184D01*
X3302Y1182D01*
X3301Y1181D01*
X3301Y1180D01*
X3300Y1179D01*
X3300Y1177D01*
X3299Y1176D01*
X3299Y1174D01*
X3298Y1173D01*
X3298Y1171D01*
X3297Y1170D01*
X3297Y1169D01*
X3296Y1168D01*
X3296Y1166D01*
X3295Y1165D01*
X3295Y1163D01*
X3294Y1162D01*
X3294Y1161D01*
X3293Y1160D01*
X3293Y1158D01*
X3292Y1157D01*
X3292Y1155D01*
X3291Y1154D01*
X3291Y1153D01*
X3290Y1152D01*
X3290Y1150D01*
X3289Y1149D01*
X3289Y1147D01*
X3288Y1146D01*
X3288Y1145D01*
X3287Y1144D01*
X3287Y1142D01*
X3286Y1141D01*
X3286Y1140D01*
X3285Y1139D01*
X3285Y1137D01*
X3284Y1136D01*
X3284Y1134D01*
X3283Y1133D01*
X3283Y1132D01*
X3282Y1131D01*
X3282Y1129D01*
X3281Y1128D01*
X3281Y1127D01*
X3280Y1126D01*
X3280Y1124D01*
X3279Y1123D01*
X3279Y1122D01*
X3278Y1121D01*
X3278Y1119D01*
X3277Y1118D01*
X3277Y1117D01*
X3276Y1116D01*
X3276Y1114D01*
X3275Y1113D01*
X3275Y1112D01*
X3274Y1111D01*
X3274Y1109D01*
X3273Y1108D01*
X3273Y1107D01*
X3272Y1106D01*
X3272Y1104D01*
X3271Y1103D01*
X3271Y1102D01*
X3270Y1101D01*
X3270Y1100D01*
X3269Y1099D01*
X3269Y1097D01*
X3268Y1096D01*
X3268Y1095D01*
X3267Y1094D01*
X3267Y1092D01*
X3266Y1091D01*
X3266Y1090D01*
X3265Y1089D01*
X3265Y1088D01*
X3264Y1087D01*
X3264Y1085D01*
X3263Y1084D01*
X3263Y1083D01*
X3262Y1082D01*
X3262Y1081D01*
X3261Y1080D01*
X3261Y1078D01*
X3260Y1077D01*
X3260Y1076D01*
X3259Y1075D01*
X3259Y1074D01*
X3258Y1073D01*
X3258Y1071D01*
X3257Y1070D01*
X3257Y1069D01*
X3256Y1068D01*
X3256Y1067D01*
X3255Y1066D01*
X3255Y1064D01*
X3254Y1063D01*
X3254Y1062D01*
X3253Y1061D01*
X3253Y1060D01*
X3252Y1059D01*
X3252Y1057D01*
X3251Y1056D01*
X3251Y1055D01*
X3250Y1054D01*
X3250Y1053D01*
X3249Y1052D01*
X3249Y1051D01*
X3248Y1050D01*
X3248Y1049D01*
X3247Y1048D01*
X3247Y1046D01*
X3246Y1045D01*
X3246Y1044D01*
X3245Y1043D01*
X3245Y1042D01*
X3244Y1041D01*
X3244Y1040D01*
X3243Y1039D01*
X3243Y1037D01*
X3242Y1036D01*
X3242Y1035D01*
X3241Y1034D01*
X3241Y1033D01*
X3240Y1032D01*
X3240Y1031D01*
X3239Y1030D01*
X3239Y1029D01*
X3238Y1028D01*
X3238Y1027D01*
X3237Y1026D01*
X3237Y1024D01*
X3236Y1023D01*
X3236Y1022D01*
X3235Y1021D01*
X3235Y1020D01*
X3234Y1019D01*
X3234Y1018D01*
X3233Y1017D01*
X3233Y1016D01*
X3232Y1015D01*
X3232Y1014D01*
X3231Y1013D01*
X3231Y1012D01*
X3230Y1011D01*
X3230Y1009D01*
X3229Y1008D01*
X3229Y1007D01*
X3228Y1006D01*
X3228Y1005D01*
X3227Y1004D01*
X3227Y1003D01*
X3226Y1002D01*
X3226Y1001D01*
X3225Y1000D01*
X3225Y999D01*
X3224Y998D01*
X3224Y997D01*
X3223Y996D01*
X3223Y995D01*
X3222Y994D01*
X3222Y993D01*
X3221Y992D01*
X3221Y991D01*
X3220Y990D01*
X3220Y989D01*
X3219Y988D01*
X3219Y987D01*
X3218Y986D01*
X3218Y985D01*
X3217Y984D01*
X3217Y983D01*
X3216Y982D01*
X3216Y981D01*
X3215Y980D01*
X3215Y979D01*
X3214Y978D01*
X3214Y977D01*
X3213Y976D01*
X3213Y975D01*
X3212Y974D01*
X3212Y973D01*
X3211Y972D01*
X3211Y971D01*
X3210Y970D01*
X3210Y969D01*
X3209Y968D01*
X3209Y967D01*
X3208Y966D01*
X3208Y965D01*
X3207Y964D01*
X3207Y963D01*
X3206Y962D01*
X3206Y961D01*
X3205Y960D01*
X3205Y959D01*
X3204Y958D01*
X3204Y957D01*
X3203Y956D01*
X3203Y955D01*
X3202Y954D01*
X3202Y953D01*
X3201Y952D01*
X3201Y951D01*
X3200Y950D01*
X3200Y949D01*
X3199Y948D01*
X3199Y947D01*
X3198Y946D01*
X3198Y945D01*
X3197Y944D01*
X3197Y943D01*
X3196Y942D01*
X3196Y941D01*
X3195Y940D01*
X3195Y939D01*
X3194Y938D01*
X3193Y937D01*
X3193Y936D01*
X3192Y935D01*
X3192Y934D01*
X3191Y933D01*
X3191Y932D01*
X3190Y931D01*
X3190Y930D01*
X3189Y929D01*
X3189Y928D01*
X3188Y927D01*
X3188Y926D01*
X3187Y925D01*
X3186Y924D01*
X3186Y923D01*
X3185Y922D01*
X3185Y921D01*
X3184Y920D01*
X3184Y919D01*
X3183Y918D01*
X3183Y917D01*
X3182Y916D01*
X3182Y915D01*
X3181Y914D01*
X3180Y913D01*
X3180Y912D01*
X3179Y911D01*
X3179Y910D01*
X3178Y909D01*
X3178Y908D01*
X3177Y907D01*
X3177Y906D01*
X3176Y905D01*
X3176Y904D01*
X3175Y903D01*
X3174Y902D01*
X3174Y901D01*
X3173Y900D01*
X3173Y899D01*
X3172Y898D01*
X3172Y897D01*
X3171Y896D01*
X3171Y895D01*
X3170Y894D01*
X3169Y893D01*
X3169Y892D01*
X3168Y891D01*
X3168Y890D01*
X3167Y889D01*
X3167Y888D01*
X3166Y887D01*
X3165Y886D01*
X3165Y885D01*
X3164Y884D01*
X3164Y883D01*
X3163Y882D01*
X3163Y881D01*
X3162Y880D01*
X3161Y879D01*
X3161Y878D01*
X3160Y877D01*
X3160Y876D01*
X3159Y875D01*
X3159Y874D01*
X3158Y873D01*
X3157Y872D01*
X3157Y871D01*
X3156Y870D01*
X3156Y869D01*
X3155Y868D01*
X3155Y867D01*
X3154Y866D01*
X3153Y865D01*
X3153Y864D01*
X3152Y863D01*
X3152Y862D01*
X3151Y861D01*
X3151Y860D01*
X3150Y859D01*
X3149Y858D01*
X3149Y857D01*
X3148Y856D01*
X3148Y855D01*
X3147Y854D01*
X3146Y853D01*
X3146Y852D01*
X3145Y851D01*
X3145Y850D01*
X3144Y849D01*
X3143Y848D01*
X3143Y847D01*
X3142Y846D01*
X3142Y845D01*
X3141Y844D01*
X3140Y843D01*
X3140Y842D01*
X3139Y841D01*
X3139Y840D01*
X3138Y839D01*
X3137Y838D01*
X3137Y837D01*
X3136Y836D01*
X3135Y835D01*
X3135Y834D01*
X3134Y833D01*
X3134Y832D01*
X3133Y831D01*
X3132Y830D01*
X3132Y829D01*
X3131Y828D01*
X3131Y827D01*
X3130Y826D01*
X3129Y825D01*
X3129Y824D01*
X3128Y823D01*
X3128Y822D01*
X3127Y821D01*
X3126Y820D01*
X3126Y819D01*
X3125Y818D01*
X3124Y817D01*
X3124Y816D01*
X3123Y815D01*
X3123Y814D01*
X3122Y813D01*
X3121Y812D01*
X3121Y811D01*
X3120Y810D01*
X3119Y809D01*
X3119Y808D01*
X3118Y807D01*
X3117Y806D01*
X3117Y805D01*
X3116Y804D01*
X3116Y803D01*
X3115Y802D01*
X3114Y801D01*
X3114Y800D01*
X3113Y799D01*
X3112Y798D01*
X3112Y797D01*
X3111Y796D01*
X3110Y795D01*
X3110Y794D01*
X3109Y793D01*
X3109Y792D01*
X3108Y791D01*
X3107Y790D01*
X3107Y789D01*
X3106Y788D01*
X3105Y787D01*
X3105Y786D01*
X3104Y785D01*
X3103Y784D01*
X3103Y783D01*
X3102Y782D01*
X3101Y781D01*
X3101Y780D01*
X3100Y779D01*
X3099Y778D01*
X3099Y777D01*
X3098Y776D01*
X3097Y775D01*
X3097Y774D01*
X3096Y773D01*
X3095Y772D01*
X3095Y771D01*
X3094Y770D01*
X3093Y769D01*
X3093Y768D01*
X3092Y767D01*
X3091Y766D01*
X3091Y765D01*
X3090Y764D01*
X3089Y763D01*
X3089Y762D01*
X3088Y761D01*
X3087Y760D01*
X3087Y759D01*
X3086Y758D01*
X3085Y757D01*
X3085Y756D01*
X3084Y755D01*
X3083Y754D01*
X3083Y753D01*
X3082Y752D01*
X3081Y751D01*
X3081Y750D01*
X3080Y749D01*
X3079Y748D01*
X3079Y747D01*
X3078Y746D01*
X3077Y745D01*
X3076Y744D01*
X3076Y743D01*
X3075Y742D01*
X3074Y741D01*
X3074Y740D01*
X3073Y739D01*
X3072Y738D01*
X3071Y737D01*
X3071Y736D01*
X3070Y735D01*
X3069Y734D01*
X3069Y733D01*
X3068Y732D01*
X3067Y731D01*
X3067Y730D01*
X3066Y729D01*
X3065Y728D01*
X3064Y727D01*
X3064Y726D01*
X3063Y725D01*
X3062Y724D01*
X3062Y723D01*
X3061Y722D01*
X3060Y721D01*
X3059Y720D01*
X3059Y719D01*
X3058Y718D01*
X3057Y717D01*
X3057Y716D01*
X3056Y715D01*
X3055Y714D01*
X3055Y713D01*
X3054Y712D01*
X3053Y711D01*
X3052Y710D01*
X3052Y709D01*
X3051Y708D01*
X3050Y707D01*
X3049Y706D01*
X3049Y705D01*
X3048Y704D01*
X3047Y703D01*
X3046Y702D01*
X3046Y701D01*
X3045Y700D01*
X3044Y699D01*
X3043Y698D01*
X3043Y697D01*
X3042Y696D01*
X3041Y695D01*
X3040Y694D01*
X3040Y693D01*
X3039Y692D01*
X3038Y691D01*
X3038Y690D01*
X3037Y689D01*
X3036Y688D01*
X3035Y687D01*
X3035Y686D01*
X3034Y685D01*
X3033Y684D01*
X3032Y683D01*
X3032Y682D01*
X3031Y681D01*
X3030Y680D01*
X3029Y679D01*
X3029Y678D01*
X3028Y677D01*
X3027Y676D01*
X3026Y675D01*
X3026Y674D01*
X3025Y673D01*
X3024Y672D01*
X3023Y671D01*
X3022Y670D01*
X3022Y669D01*
X3021Y668D01*
X3020Y667D01*
X3019Y666D01*
X3019Y665D01*
X3018Y664D01*
X3017Y663D01*
X3016Y662D01*
X3015Y661D01*
X3015Y660D01*
X3014Y659D01*
X3013Y658D01*
X3012Y657D01*
X3012Y656D01*
X3011Y655D01*
X3010Y654D01*
X3009Y653D01*
X3008Y652D01*
X3008Y651D01*
X3007Y650D01*
X3006Y649D01*
X3005Y648D01*
X3005Y647D01*
X3004Y646D01*
X3003Y645D01*
X3002Y644D01*
X3001Y643D01*
X3001Y642D01*
X3000Y641D01*
X2999Y640D01*
X2998Y639D01*
X2997Y638D01*
X2997Y637D01*
X2996Y636D01*
X2995Y635D01*
X2994Y634D01*
X2993Y633D01*
X2992Y632D01*
X2992Y631D01*
X2991Y630D01*
X2990Y629D01*
X2989Y628D01*
X2988Y627D01*
X2988Y626D01*
X2987Y625D01*
X2986Y624D01*
X2985Y623D01*
X2984Y622D01*
X2983Y621D01*
X2983Y620D01*
X2982Y619D01*
X2981Y618D01*
X2980Y617D01*
X2979Y616D01*
X2979Y615D01*
X2978Y614D01*
X2977Y613D01*
X2976Y612D01*
X2975Y611D01*
X2974Y610D01*
X2974Y609D01*
X2973Y608D01*
X2972Y607D01*
X2971Y606D01*
X2970Y605D01*
X2969Y604D01*
X2968Y603D01*
X2968Y602D01*
X2967Y601D01*
X2966Y600D01*
X2965Y599D01*
X2964Y598D01*
X2963Y597D01*
X2962Y596D01*
X2962Y595D01*
X2961Y594D01*
X2960Y593D01*
X2959Y592D01*
X2958Y591D01*
X2957Y590D01*
X2956Y589D01*
X2956Y588D01*
X2955Y587D01*
X2954Y586D01*
X2953Y585D01*
X2952Y584D01*
X2951Y583D01*
X2950Y582D01*
X2950Y581D01*
X2949Y580D01*
X2948Y579D01*
X2947Y578D01*
X2946Y577D01*
X2945Y576D01*
X2944Y575D01*
X2943Y574D01*
X2943Y573D01*
X2942Y572D01*
X2941Y571D01*
X2940Y570D01*
X2939Y569D01*
X2938Y568D01*
X2937Y567D01*
X2936Y566D01*
X2935Y565D01*
X2934Y564D01*
X2934Y563D01*
X2933Y562D01*
X2932Y561D01*
X2931Y560D01*
X2930Y559D01*
X2929Y558D01*
X2928Y557D01*
X2927Y556D01*
X2926Y555D01*
X2925Y554D01*
X2925Y553D01*
X2924Y552D01*
X2923Y551D01*
X2922Y550D01*
X2921Y549D01*
X2920Y548D01*
X2919Y547D01*
X2918Y546D01*
X2917Y545D01*
X2916Y544D01*
X2915Y543D01*
X2915Y542D01*
X2914Y541D01*
X2913Y540D01*
X2912Y539D01*
X2911Y538D01*
X2910Y537D01*
X2909Y536D01*
X2908Y535D01*
X2907Y534D01*
X2906Y533D01*
X2905Y532D01*
X2904Y531D01*
X2903Y530D01*
X2902Y529D01*
X2901Y528D01*
X2900Y527D01*
X2899Y526D01*
X2899Y525D01*
X2898Y524D01*
X2897Y523D01*
X2896Y522D01*
X2895Y521D01*
X2894Y520D01*
X2893Y519D01*
X2892Y518D01*
X2891Y517D01*
X2890Y516D01*
X2889Y515D01*
X2888Y514D01*
X2887Y513D01*
X2886Y512D01*
X2885Y511D01*
X2884Y510D01*
X2883Y509D01*
X2882Y508D01*
X2881Y507D01*
X2880Y506D01*
X2879Y505D01*
X2878Y504D01*
X2877Y503D01*
X2876Y502D01*
X2875Y501D01*
X2874Y500D01*
X2873Y499D01*
X2872Y498D01*
X2871Y497D01*
X2870Y496D01*
X2869Y495D01*
X2868Y494D01*
X2867Y493D01*
X2866Y492D01*
X2865Y491D01*
X2864Y490D01*
X2863Y489D01*
X2862Y488D01*
X2861Y487D01*
X2860Y486D01*
X2859Y485D01*
X2858Y484D01*
X2857Y483D01*
X2856Y482D01*
X2855Y481D01*
X2854Y480D01*
X2853Y479D01*
X2852Y478D01*
X2851Y477D01*
X2850Y476D01*
X2849Y475D01*
X2848Y474D01*
X2847Y473D01*
X2846Y472D01*
X2845Y471D01*
X2844Y470D01*
X2843Y469D01*
X2842Y468D01*
X2841Y467D01*
X2840Y466D01*
X2839Y465D01*
X2838Y464D01*
X2837Y463D01*
X2836Y462D01*
X2835Y461D01*
X2834Y460D01*
X2833Y459D01*
X2832Y459D01*
X2831Y458D01*
X2830Y457D01*
X2829Y456D01*
X2828Y455D01*
X2827Y454D01*
X2826Y453D01*
X2825Y452D01*
X2824Y451D01*
X2823Y450D01*
X2822Y449D01*
X2821Y448D01*
X2820Y447D01*
X2819Y446D01*
X2818Y445D01*
X2817Y445D01*
X2816Y444D01*
X2815Y443D01*
X2814Y442D01*
X2813Y441D01*
X2812Y440D01*
X2811Y439D01*
X2810Y438D01*
X2809Y437D01*
X2808Y436D01*
X2807Y435D01*
X2806Y434D01*
X2805Y434D01*
X2804Y433D01*
X2803Y432D01*
X2802Y431D01*
X2801Y430D01*
X2800Y429D01*
X2799Y428D01*
X2798Y427D01*
X2797Y426D01*
X2796Y425D01*
X2795Y424D01*
X2794Y424D01*
X2793Y423D01*
X2792Y422D01*
X2791Y421D01*
X2790Y420D01*
X2789Y419D01*
X2788Y418D01*
X2787Y417D01*
X2786Y417D01*
X2785Y416D01*
X2784Y415D01*
X2783Y414D01*
X2782Y413D01*
X2781Y412D01*
X2780Y411D01*
X2779Y410D01*
X2778Y410D01*
X2777Y409D01*
X2776Y408D01*
X2775Y407D01*
X2774Y406D01*
X2773Y405D01*
X2772Y404D01*
X2771Y403D01*
X2770Y403D01*
X2769Y402D01*
X2768Y401D01*
X2767Y400D01*
X2766Y399D01*
X2765Y398D01*
X2764Y397D01*
X2763Y397D01*
X2762Y396D01*
X2761Y395D01*
X2760Y394D01*
X2759Y393D01*
X2758Y392D01*
X2757Y392D01*
X2756Y391D01*
X2755Y390D01*
X2754Y389D01*
X2753Y388D01*
X2752Y387D01*
X2751Y387D01*
X2750Y386D01*
X2749Y385D01*
X2748Y384D01*
X2747Y383D01*
X2746Y382D01*
X2745Y382D01*
X2744Y381D01*
X2743Y380D01*
X2742Y379D01*
X2741Y378D01*
X2740Y377D01*
X2739Y377D01*
X2738Y376D01*
X2737Y375D01*
X2736Y374D01*
X2735Y373D01*
X2734Y372D01*
X2733Y372D01*
X2732Y371D01*
X2731Y370D01*
X2730Y369D01*
X2729Y368D01*
X2728Y368D01*
X2727Y367D01*
X2726Y366D01*
X2725Y365D01*
X2724Y364D01*
X2723Y364D01*
X2722Y363D01*
X2721Y362D01*
X2720Y361D01*
X2719Y360D01*
X2718Y360D01*
X2717Y359D01*
X2716Y358D01*
X2715Y357D01*
X2714Y356D01*
X2713Y356D01*
X2712Y355D01*
X2711Y354D01*
X2710Y353D01*
X2709Y353D01*
X2708Y352D01*
X2707Y351D01*
X2706Y350D01*
X2705Y349D01*
X2704Y349D01*
X2703Y348D01*
X2702Y347D01*
X2701Y346D01*
X2700Y345D01*
X2699Y345D01*
X2698Y344D01*
X2697Y343D01*
X2696Y342D01*
X2695Y342D01*
X2694Y341D01*
X2693Y340D01*
X2692Y339D01*
X2691Y339D01*
X2690Y338D01*
X2689Y337D01*
X2688Y336D01*
X2687Y336D01*
X2686Y335D01*
X2685Y334D01*
X2684Y333D01*
X2683Y333D01*
X2682Y332D01*
X2681Y331D01*
X2680Y330D01*
X2679Y330D01*
X2678Y329D01*
X2677Y328D01*
X2676Y327D01*
X2675Y327D01*
X2674Y326D01*
X2673Y325D01*
X2672Y324D01*
X2671Y324D01*
X2670Y323D01*
X2669Y322D01*
X2668Y321D01*
X2667Y321D01*
X2666Y320D01*
X2665Y319D01*
X2664Y318D01*
X2663Y318D01*
X2662Y317D01*
X2661Y316D01*
X2660Y315D01*
X2659Y315D01*
X2658Y314D01*
X2657Y313D01*
X2656Y313D01*
X2655Y312D01*
X2654Y311D01*
X2653Y310D01*
X2652Y310D01*
X2651Y309D01*
X2650Y308D01*
X2649Y307D01*
X2648Y307D01*
X2647Y306D01*
X2646Y305D01*
X2645Y305D01*
X2644Y304D01*
X2643Y303D01*
X2642Y302D01*
X2641Y302D01*
X2640Y301D01*
X2639Y300D01*
X2638Y300D01*
X2637Y299D01*
X2636Y298D01*
X2635Y298D01*
X2634Y297D01*
X2633Y296D01*
X2632Y295D01*
X2631Y295D01*
X2630Y294D01*
X2629Y293D01*
X2628Y293D01*
X2627Y292D01*
X2626Y291D01*
X2625Y291D01*
X2624Y290D01*
X2623Y289D01*
X2622Y289D01*
X2621Y288D01*
X2620Y287D01*
X2619Y286D01*
X2618Y286D01*
X2617Y285D01*
X2616Y284D01*
X2615Y284D01*
X2614Y283D01*
X2613Y282D01*
X2612Y282D01*
X2611Y281D01*
X2610Y280D01*
X2609Y280D01*
X2608Y279D01*
X2607Y278D01*
X2606Y278D01*
X2605Y277D01*
X2604Y276D01*
X2603Y276D01*
X2602Y275D01*
X2601Y274D01*
X2600Y274D01*
X2599Y273D01*
X2598Y272D01*
X2597Y272D01*
X2596Y271D01*
X2595Y270D01*
X2594Y270D01*
X2593Y269D01*
X2592Y268D01*
X2591Y268D01*
X2590Y267D01*
X2589Y266D01*
X2588Y266D01*
X2587Y265D01*
X2586Y264D01*
X2585Y264D01*
X2584Y263D01*
X2583Y263D01*
X2582Y262D01*
X2581Y261D01*
X2580Y261D01*
X2579Y260D01*
X2578Y259D01*
X2577Y259D01*
X2576Y258D01*
X2575Y257D01*
X2574Y257D01*
X2573Y256D01*
X2572Y255D01*
X2571Y255D01*
X2570Y254D01*
X2569Y254D01*
X2568Y253D01*
X2567Y252D01*
X2566Y252D01*
X2565Y251D01*
X2564Y250D01*
X2563Y250D01*
X2562Y249D01*
X2561Y249D01*
X2560Y248D01*
X2559Y247D01*
X2558Y247D01*
X2557Y246D01*
X2556Y245D01*
X2555Y245D01*
X2554Y244D01*
X2553Y244D01*
X2552Y243D01*
X2551Y242D01*
X2550Y242D01*
X2549Y241D01*
X2548Y240D01*
X2547Y240D01*
X2546Y239D01*
X2545Y239D01*
X2544Y238D01*
X2543Y237D01*
X2542Y237D01*
X2541Y236D01*
X2540Y236D01*
X2539Y235D01*
X2538Y234D01*
X2537Y234D01*
X2536Y233D01*
X2535Y233D01*
X2534Y232D01*
X2533Y231D01*
X2532Y231D01*
X2531Y230D01*
X2530Y230D01*
X2529Y229D01*
X2528Y228D01*
X2527Y228D01*
X2526Y227D01*
X2525Y227D01*
X2524Y226D01*
X2523Y225D01*
X2522Y225D01*
X2521Y224D01*
X2520Y224D01*
X2519Y223D01*
X2518Y223D01*
X2517Y222D01*
X2516Y221D01*
X2515Y221D01*
X2514Y220D01*
X2513Y220D01*
X2512Y219D01*
X2511Y218D01*
X2510Y218D01*
X2509Y217D01*
X2508Y217D01*
X2507Y216D01*
X2506Y216D01*
X2505Y215D01*
X2504Y214D01*
X2503Y214D01*
X2502Y213D01*
X2501Y213D01*
X2500Y212D01*
X2499Y212D01*
X2498Y211D01*
X2497Y210D01*
X2496Y210D01*
X2495Y209D01*
X2494Y209D01*
X2493Y208D01*
X2492Y208D01*
X2491Y207D01*
X2490Y207D01*
X2489Y206D01*
X2488Y205D01*
X2487Y205D01*
X2486Y204D01*
X2485Y204D01*
X2484Y203D01*
X2483Y203D01*
X2482Y202D01*
X2481Y202D01*
X2480Y201D01*
X2479Y200D01*
X2478Y200D01*
X2477Y199D01*
X2476Y199D01*
X2475Y198D01*
X2474Y198D01*
X2473Y197D01*
X2472Y197D01*
X2471Y196D01*
X2470Y196D01*
X2469Y195D01*
X2468Y194D01*
X2467Y194D01*
X2466Y193D01*
X2465Y193D01*
X2464Y192D01*
X2463Y192D01*
X2462Y191D01*
X2461Y191D01*
X2460Y190D01*
X2459Y190D01*
X2458Y189D01*
X2457Y189D01*
X2456Y188D01*
X2455Y188D01*
X2454Y187D01*
X2453Y186D01*
X2452Y186D01*
X2451Y185D01*
X2450Y185D01*
X2449Y184D01*
X2448Y184D01*
X2447Y183D01*
X2446Y183D01*
X2445Y182D01*
X2444Y182D01*
X2443Y181D01*
X2442Y181D01*
X2441Y180D01*
X2440Y180D01*
X2439Y179D01*
X2438Y179D01*
X2437Y178D01*
X2436Y178D01*
X2435Y177D01*
X2434Y177D01*
X2433Y176D01*
X2432Y176D01*
X2431Y175D01*
X2430Y175D01*
X2429Y174D01*
X2428Y174D01*
X2427Y173D01*
X2426Y173D01*
X2425Y172D01*
X2424Y172D01*
X2423Y171D01*
X2422Y171D01*
X2421Y170D01*
X2420Y170D01*
X2419Y169D01*
X2418Y169D01*
X2417Y168D01*
X2416Y168D01*
X2415Y167D01*
X2414Y167D01*
X2413Y166D01*
X2412Y166D01*
X2411Y165D01*
X2410Y165D01*
X2409Y164D01*
X2408Y164D01*
X2407Y163D01*
X2406Y163D01*
X2405Y162D01*
X2404Y162D01*
X2403Y161D01*
X2402Y161D01*
X2401Y160D01*
X2400Y160D01*
X2399Y159D01*
X2398Y159D01*
X2397Y158D01*
X2396Y158D01*
X2395Y157D01*
X2394Y157D01*
X2393Y156D01*
X2392Y156D01*
X2391Y156D01*
X2390Y155D01*
X2389Y155D01*
X2388Y154D01*
X2387Y154D01*
X2386Y153D01*
X2385Y153D01*
X2384Y152D01*
X2383Y152D01*
X2382Y151D01*
X2381Y151D01*
X2380Y150D01*
X2379Y150D01*
X2378Y149D01*
X2377Y149D01*
X2376Y149D01*
X2375Y148D01*
X2374Y148D01*
X2373Y147D01*
X2372Y147D01*
X2371Y146D01*
X2370Y146D01*
X2369Y145D01*
X2368Y145D01*
X2367Y144D01*
X2366Y144D01*
X2365Y144D01*
X2364Y143D01*
X2363Y143D01*
X2362Y142D01*
X2361Y142D01*
X2360Y141D01*
X2359Y141D01*
X2358Y140D01*
X2357Y140D01*
X2356Y139D01*
X2355Y139D01*
X2354Y139D01*
X2353Y138D01*
X2352Y138D01*
X2351Y137D01*
X2350Y137D01*
X2349Y136D01*
X2348Y136D01*
X2347Y136D01*
X2346Y135D01*
X2345Y135D01*
X2344Y134D01*
X2343Y134D01*
X2342Y133D01*
X2341Y133D01*
X2340Y133D01*
X2339Y132D01*
X2338Y132D01*
X2337Y131D01*
X2336Y131D01*
X2335Y130D01*
X2334Y130D01*
X2333Y130D01*
X2332Y129D01*
X2331Y129D01*
X2330Y128D01*
X2329Y128D01*
X2328Y127D01*
X2327Y127D01*
X2326Y127D01*
X2325Y126D01*
X2324Y126D01*
X2323Y125D01*
X2322Y125D01*
X2321Y124D01*
X2320Y124D01*
X2319Y124D01*
X2318Y123D01*
X2317Y123D01*
X2316Y122D01*
X2315Y122D01*
X2314Y122D01*
X2313Y121D01*
X2312Y121D01*
X2311Y120D01*
X2310Y120D01*
X2309Y120D01*
X2308Y119D01*
X2307Y119D01*
X2306Y118D01*
X2305Y118D01*
X2304Y118D01*
X2303Y117D01*
X2302Y117D01*
X2301Y116D01*
X2300Y116D01*
X2299Y115D01*
X2298Y115D01*
X2297Y115D01*
X2296Y114D01*
X2295Y114D01*
X2294Y114D01*
X2293Y113D01*
X2292Y113D01*
X2291Y112D01*
X2290Y112D01*
X2289Y112D01*
X2288Y111D01*
X2287Y111D01*
X2286Y110D01*
X2285Y110D01*
X2284Y110D01*
X2283Y109D01*
X2282Y109D01*
X2281Y108D01*
X2280Y108D01*
X2279Y108D01*
X2278Y107D01*
X2277Y107D01*
X2276Y107D01*
X2275Y106D01*
X2274Y106D01*
X2273Y105D01*
X2272Y105D01*
X2271Y105D01*
X2270Y104D01*
X2269Y104D01*
X2268Y104D01*
X2267Y103D01*
X2266Y103D01*
X2265Y102D01*
X2264Y102D01*
X2263Y102D01*
X2262Y101D01*
X2261Y101D01*
X2260Y100D01*
X2259Y100D01*
X2258Y100D01*
X2257Y99D01*
X2256Y99D01*
X2255Y99D01*
X2254Y98D01*
X2253Y98D01*
X2252Y98D01*
X2251Y97D01*
X2250Y97D01*
X2249Y97D01*
X2248Y96D01*
X2247Y96D01*
X2246Y95D01*
X2245Y95D01*
X2244Y95D01*
X2243Y94D01*
X2242Y94D01*
X2241Y94D01*
X2240Y93D01*
X2239Y93D01*
X2238Y93D01*
X2237Y92D01*
X2236Y92D01*
X2235Y92D01*
X2234Y91D01*
X2233Y91D01*
X2232Y90D01*
X2231Y90D01*
X2230Y90D01*
X2229Y89D01*
X2228Y89D01*
X2227Y89D01*
X2226Y88D01*
X2225Y88D01*
X2224Y88D01*
X2223Y87D01*
X2222Y87D01*
X2221Y87D01*
X2220Y86D01*
X2219Y86D01*
X2218Y86D01*
X2217Y85D01*
X2216Y85D01*
X2215Y85D01*
X2214Y84D01*
X2213Y84D01*
X2212Y84D01*
X2211Y83D01*
X2210Y83D01*
X2209Y83D01*
X2208Y82D01*
X2207Y82D01*
X2206Y82D01*
X2205Y81D01*
X2204Y81D01*
X2203Y81D01*
X2202Y80D01*
X2201Y80D01*
X2200Y80D01*
X2199Y79D01*
X2198Y79D01*
X2197Y79D01*
X2196Y78D01*
X2195Y78D01*
X2194Y78D01*
X2193Y77D01*
X2192Y77D01*
X2191Y77D01*
X2190Y76D01*
X2189Y76D01*
X2188Y76D01*
X2187Y76D01*
X2186Y75D01*
X2185Y75D01*
X2184Y75D01*
X2183Y74D01*
X2182Y74D01*
X2181Y74D01*
X2180Y73D01*
X2179Y73D01*
X2178Y73D01*
X2177Y72D01*
X2176Y72D01*
X2175Y72D01*
X2174Y71D01*
X2173Y71D01*
X2172Y71D01*
X2171Y71D01*
X2170Y70D01*
X2169Y70D01*
X2168Y70D01*
X2167Y69D01*
X2166Y69D01*
X2165Y69D01*
X2164Y68D01*
X2163Y68D01*
X2162Y68D01*
X2161Y68D01*
X2160Y67D01*
X2159Y67D01*
X2158Y67D01*
X2157Y66D01*
X2156Y66D01*
X2155Y66D01*
X2154Y65D01*
X2153Y65D01*
X2152Y65D01*
X2151Y65D01*
X2150Y64D01*
X2149Y64D01*
X2148Y64D01*
X2147Y63D01*
X2146Y63D01*
X2145Y63D01*
X2144Y63D01*
X2143Y62D01*
X2142Y62D01*
X2141Y62D01*
X2140Y61D01*
X2139Y61D01*
X2138Y61D01*
X2137Y61D01*
X2136Y60D01*
X2135Y60D01*
X2134Y60D01*
X2133Y60D01*
X2132Y59D01*
X2131Y59D01*
X2130Y59D01*
X2129Y58D01*
X2128Y58D01*
X2127Y58D01*
X2126Y58D01*
X2125Y57D01*
X2124Y57D01*
X2123Y57D01*
X2122Y57D01*
X2121Y56D01*
X2120Y56D01*
X2119Y56D01*
X2118Y55D01*
X2117Y55D01*
X2116Y55D01*
X2115Y55D01*
X2114Y54D01*
X2113Y54D01*
X2112Y54D01*
X2111Y54D01*
X2110Y53D01*
X2109Y53D01*
X2108Y53D01*
X2107Y53D01*
X2106Y52D01*
X2105Y52D01*
X2104Y52D01*
X2103Y52D01*
X2102Y51D01*
X2101Y51D01*
X2100Y51D01*
X2099Y50D01*
X2098Y50D01*
X2097Y50D01*
X2096Y50D01*
X2095Y49D01*
X2094Y49D01*
X2093Y49D01*
X2092Y49D01*
X2091Y48D01*
X2090Y48D01*
X2089Y48D01*
X2088Y48D01*
X2087Y48D01*
X2086Y47D01*
X2085Y47D01*
X2084Y47D01*
X2083Y47D01*
X2082Y46D01*
X2081Y46D01*
X2080Y46D01*
X2079Y46D01*
X2078Y45D01*
X2077Y45D01*
X2076Y45D01*
X2075Y45D01*
X2074Y44D01*
X2073Y44D01*
X2072Y44D01*
X2071Y44D01*
X2070Y43D01*
X2069Y43D01*
X2068Y43D01*
X2067Y43D01*
X2066Y43D01*
X2065Y42D01*
X2064Y42D01*
X2063Y42D01*
X2062Y42D01*
X2061Y41D01*
X2060Y41D01*
X2059Y41D01*
X2058Y41D01*
X2057Y40D01*
X2056Y40D01*
X2055Y40D01*
X2054Y40D01*
X2053Y40D01*
X2052Y39D01*
X2051Y39D01*
X2050Y39D01*
X2049Y39D01*
X2048Y38D01*
X2047Y38D01*
X2046Y38D01*
X2045Y38D01*
X2044Y38D01*
X2043Y37D01*
X2042Y37D01*
X2041Y37D01*
X2040Y37D01*
X2039Y37D01*
X2038Y36D01*
X2037Y36D01*
X2036Y36D01*
X2035Y36D01*
X2034Y35D01*
X2033Y35D01*
X2032Y35D01*
X2031Y35D01*
X2030Y35D01*
X2029Y34D01*
X2028Y34D01*
X2027Y34D01*
X2026Y34D01*
X2025Y34D01*
X2024Y33D01*
X2023Y33D01*
X2022Y33D01*
X2021Y33D01*
X2020Y33D01*
X2019Y32D01*
X2018Y32D01*
X2017Y32D01*
X2016Y32D01*
X2015Y32D01*
X2014Y31D01*
X2013Y31D01*
X2012Y31D01*
X2011Y31D01*
X2010Y31D01*
X2009Y30D01*
X2008Y30D01*
X2007Y30D01*
X2006Y30D01*
X2005Y30D01*
X2004Y30D01*
X2003Y29D01*
X2002Y29D01*
X2001Y29D01*
X2000Y29D01*
X1999Y29D01*
X1998Y28D01*
X1997Y28D01*
X1996Y28D01*
X1995Y28D01*
X1994Y28D01*
X1993Y27D01*
X1992Y27D01*
X1991Y27D01*
X1990Y27D01*
X1989Y27D01*
X1988Y27D01*
X1987Y26D01*
X1986Y26D01*
X1985Y26D01*
X1984Y26D01*
X1983Y26D01*
X1982Y26D01*
X1981Y25D01*
X1980Y25D01*
X1979Y25D01*
X1978Y25D01*
X1977Y25D01*
X1976Y24D01*
X1975Y24D01*
X1974Y24D01*
X1973Y24D01*
X1972Y24D01*
X1971Y24D01*
X1970Y23D01*
X1969Y23D01*
X1968Y23D01*
X1967Y23D01*
X1966Y23D01*
X1965Y23D01*
X1964Y22D01*
X1963Y22D01*
X1962Y22D01*
X1961Y22D01*
X1960Y22D01*
X1959Y22D01*
X1958Y22D01*
X1957Y21D01*
X1956Y21D01*
X1955Y21D01*
X1954Y21D01*
X1953Y21D01*
X1952Y21D01*
X1951Y20D01*
X1950Y20D01*
X1949Y20D01*
X1948Y20D01*
X1947Y20D01*
X1946Y20D01*
X1945Y20D01*
X1944Y19D01*
X1943Y19D01*
X1942Y19D01*
X1941Y19D01*
X1940Y19D01*
X1939Y19D01*
X1938Y19D01*
X1937Y18D01*
X1936Y18D01*
X1935Y18D01*
X1934Y18D01*
X1933Y18D01*
X1932Y18D01*
X1931Y17D01*
X1930Y17D01*
X1929Y17D01*
X1928Y17D01*
X1927Y17D01*
X1926Y17D01*
X1925Y17D01*
X1924Y17D01*
X1923Y16D01*
X1922Y16D01*
X1921Y16D01*
X1920Y16D01*
X1919Y16D01*
X1918Y16D01*
X1917Y16D01*
X1916Y15D01*
X1915Y15D01*
X1914Y15D01*
X1913Y15D01*
X1912Y15D01*
X1911Y15D01*
X1910Y15D01*
X1909Y15D01*
X1908Y14D01*
X1907Y14D01*
X1906Y14D01*
X1905Y14D01*
X1904Y14D01*
X1903Y14D01*
X1902Y14D01*
X1901Y14D01*
X1900Y13D01*
X1899Y13D01*
X1898Y13D01*
X1897Y13D01*
X1896Y13D01*
X1895Y13D01*
X1894Y13D01*
X1893Y13D01*
X1892Y13D01*
X1891Y12D01*
X1890Y12D01*
X1889Y12D01*
X1888Y12D01*
X1887Y12D01*
X1886Y12D01*
X1885Y12D01*
X1884Y12D01*
X1883Y11D01*
X1882Y11D01*
X1881Y11D01*
X1880Y11D01*
X1879Y11D01*
X1878Y11D01*
X1877Y11D01*
X1876Y11D01*
X1875Y11D01*
X1874Y11D01*
X1873Y10D01*
X1872Y10D01*
X1871Y10D01*
X1870Y10D01*
X1869Y10D01*
X1868Y10D01*
X1867Y10D01*
X1866Y10D01*
X1865Y10D01*
X1864Y10D01*
X1863Y9D01*
X1862Y9D01*
X1861Y9D01*
X1860Y9D01*
X1859Y9D01*
X1858Y9D01*
X1857Y9D01*
X1856Y9D01*
X1855Y9D01*
X1854Y9D01*
X1853Y8D01*
X1852Y8D01*
X1851Y8D01*
X1850Y8D01*
X1849Y8D01*
X1848Y8D01*
X1847Y8D01*
X1846Y8D01*
X1845Y8D01*
X1844Y8D01*
X1843Y8D01*
X1842Y8D01*
X1841Y7D01*
X1840Y7D01*
X1839Y7D01*
X1838Y7D01*
X1837Y7D01*
X1836Y7D01*
X1835Y7D01*
X1834Y7D01*
X1833Y7D01*
X1832Y7D01*
X1831Y7D01*
X1830Y7D01*
X1829Y7D01*
X1828Y6D01*
X1827Y6D01*
X1826Y6D01*
X1825Y6D01*
X1824Y6D01*
X1823Y6D01*
X1822Y6D01*
X1821Y6D01*
X1820Y6D01*
X1819Y6D01*
X1818Y6D01*
X1817Y6D01*
X1816Y6D01*
X1815Y6D01*
X1814Y5D01*
X1813Y5D01*
X1812Y5D01*
X1811Y5D01*
X1810Y5D01*
X1809Y5D01*
X1808Y5D01*
X1807Y5D01*
X1806Y5D01*
X1805Y5D01*
X1804Y5D01*
X1803Y5D01*
X1802Y5D01*
X1801Y5D01*
X1800Y5D01*
X1799Y5D01*
X1798Y4D01*
X1797Y4D01*
X1796Y4D01*
X1795Y4D01*
X1794Y4D01*
X1793Y4D01*
X1792Y4D01*
X1791Y4D01*
X1790Y4D01*
X1789Y4D01*
X1788Y4D01*
X1787Y4D01*
X1786Y4D01*
X1785Y4D01*
X1784Y4D01*
X1783Y4D01*
X1782Y4D01*
X1781Y4D01*
X1780Y4D01*
X1779Y4D01*
X1778Y3D01*
X1777Y3D01*
X1776Y3D01*
X1775Y3D01*
X1774Y3D01*
X1773Y3D01*
X1772Y3D01*
X1771Y3D01*
X1770Y3D01*
X1769Y3D01*
X1768Y3D01*
X1767Y3D01*
X1766Y3D01*
X1765Y3D01*
X1764Y3D01*
X1763Y3D01*
X1762Y3D01*
X1761Y3D01*
X1760Y3D01*
X1759Y3D01*
X1758Y3D01*
X1757Y3D01*
X1756Y3D01*
X1755Y3D01*
X1754Y3D01*
X1753Y3D01*
X1752Y3D01*
X1751Y3D01*
X1750Y3D01*
X1749Y3D01*
X1748Y2D01*
X1747Y2D01*
X1746Y2D01*
X1745Y2D01*
X1744Y2D01*
X1743Y2D01*
X1742Y2D01*
X1741Y2D01*
X1740Y2D01*
X1739Y2D01*
X1738Y2D01*
X1737Y2D01*
X1736Y2D01*
X1735Y2D01*
X1734Y2D01*
X1733Y2D01*
X1732Y2D01*
X1731Y2D01*
X1730Y2D01*
X1729Y2D01*
X1728Y2D01*
X1727Y2D01*
X1726Y2D01*
X1725Y2D01*
X1724Y2D01*
X1723Y2D01*
X1722Y2D01*
X1721Y2D01*
X1720Y2D01*
X1719Y2D01*
X1718Y2D01*
X1717Y2D01*
X1716Y2D01*
X1715Y2D01*
X1714Y2D01*
X1713Y2D01*
X1712Y2D01*
X1711Y2D01*
X1710Y2D01*
X1709Y2D01*
X1708Y2D01*
X1707Y2D01*
X1706Y2D01*
X1705Y2D01*
X1704Y2D01*
X1703Y2D01*
X1702Y2D01*
X1701Y2D01*
X1700Y2D01*
X1699Y2D01*
X1698Y2D01*
X1697Y2D01*
X1696Y2D01*
X1695Y2D01*
X1694Y2D01*
X1693Y2D01*
X1692Y2D01*
X1691Y2D01*
X1690Y2D01*
X1689Y2D01*
X1688Y2D01*
X1687Y2D01*
X1686Y2D01*
X1685Y2D01*
X1684Y2D01*
X1683Y2D01*
X1682Y2D01*
X1681Y2D01*
X1680Y2D01*
X1679Y2D01*
X1678Y2D01*
X1677Y2D01*
X1676Y2D01*
X1675Y2D01*
X1674Y2D01*
X1673Y2D01*
X1672Y2D01*
X1671Y2D01*
X1670Y3D01*
X1669Y3D01*
X1668Y3D01*
X1667Y3D01*
X1666Y3D01*
X1665Y3D01*
X1664Y3D01*
X1663Y3D01*
X1662Y3D01*
X1661Y3D01*
X1660Y3D01*
X1659Y3D01*
X1658Y3D01*
X1657Y3D01*
X1656Y3D01*
X1655Y3D01*
X1654Y3D01*
X1653Y3D01*
X1652Y3D01*
X1651Y3D01*
X1650Y3D01*
X1649Y3D01*
X1648Y3D01*
X1647Y3D01*
X1646Y3D01*
X1645Y3D01*
X1644Y3D01*
X1643Y3D01*
X1642Y3D01*
X1641Y3D01*
X1640Y4D01*
X1639Y4D01*
X1638Y4D01*
X1637Y4D01*
X1636Y4D01*
X1635Y4D01*
X1634Y4D01*
X1633Y4D01*
X1632Y4D01*
X1631Y4D01*
X1630Y4D01*
X1629Y4D01*
X1628Y4D01*
X1627Y4D01*
X1626Y4D01*
X1625Y4D01*
X1624Y4D01*
X1623Y4D01*
X1622Y4D01*
X1621Y4D01*
X1620Y5D01*
X1619Y5D01*
X1618Y5D01*
X1617Y5D01*
X1616Y5D01*
X1615Y5D01*
X1614Y5D01*
X1613Y5D01*
X1612Y5D01*
X1611Y5D01*
X1610Y5D01*
X1609Y5D01*
X1608Y5D01*
X1607Y5D01*
X1606Y5D01*
X1605Y5D01*
X1604Y6D01*
X1603Y6D01*
X1602Y6D01*
X1601Y6D01*
X1600Y6D01*
X1599Y6D01*
X1598Y6D01*
X1597Y6D01*
X1596Y6D01*
X1595Y6D01*
X1594Y6D01*
X1593Y6D01*
X1592Y6D01*
X1591Y6D01*
X1590Y7D01*
X1589Y7D01*
X1588Y7D01*
X1587Y7D01*
X1586Y7D01*
X1585Y7D01*
X1584Y7D01*
X1583Y7D01*
X1582Y7D01*
X1581Y7D01*
X1580Y7D01*
X1579Y7D01*
X1578Y7D01*
X1577Y8D01*
X1576Y8D01*
X1575Y8D01*
X1574Y8D01*
X1573Y8D01*
X1572Y8D01*
X1571Y8D01*
X1570Y8D01*
X1569Y8D01*
X1568Y8D01*
X1567Y8D01*
X1566Y8D01*
X1565Y9D01*
X1564Y9D01*
X1563Y9D01*
X1562Y9D01*
X1561Y9D01*
X1560Y9D01*
X1559Y9D01*
X1558Y9D01*
X1557Y9D01*
X1556Y9D01*
X1555Y10D01*
X1554Y10D01*
X1553Y10D01*
X1552Y10D01*
X1551Y10D01*
X1550Y10D01*
X1549Y10D01*
X1548Y10D01*
X1547Y10D01*
X1546Y10D01*
X1545Y11D01*
X1544Y11D01*
X1543Y11D01*
X1542Y11D01*
X1541Y11D01*
X1540Y11D01*
X1539Y11D01*
X1538Y11D01*
X1537Y11D01*
X1536Y11D01*
X1535Y12D01*
X1534Y12D01*
X1533Y12D01*
X1532Y12D01*
X1531Y12D01*
X1530Y12D01*
X1529Y12D01*
X1528Y12D01*
X1527Y13D01*
X1526Y13D01*
X1525Y13D01*
X1524Y13D01*
X1523Y13D01*
X1522Y13D01*
X1521Y13D01*
X1520Y13D01*
X1519Y13D01*
X1518Y14D01*
X1517Y14D01*
X1516Y14D01*
X1515Y14D01*
X1514Y14D01*
X1513Y14D01*
X1512Y14D01*
X1511Y14D01*
X1510Y15D01*
X1509Y15D01*
X1508Y15D01*
X1507Y15D01*
X1506Y15D01*
X1505Y15D01*
X1504Y15D01*
X1503Y15D01*
X1502Y16D01*
X1501Y16D01*
X1500Y16D01*
X1499Y16D01*
X1498Y16D01*
X1497Y16D01*
X1496Y16D01*
X1495Y17D01*
X1494Y17D01*
X1493Y17D01*
X1492Y17D01*
X1491Y17D01*
X1490Y17D01*
X1489Y17D01*
X1488Y17D01*
X1487Y18D01*
X1486Y18D01*
X1485Y18D01*
X1484Y18D01*
X1483Y18D01*
X1482Y18D01*
X1481Y19D01*
X1480Y19D01*
X1479Y19D01*
X1478Y19D01*
X1477Y19D01*
X1476Y19D01*
X1475Y19D01*
X1474Y20D01*
X1473Y20D01*
X1472Y20D01*
X1471Y20D01*
X1470Y20D01*
X1469Y20D01*
X1468Y20D01*
X1467Y21D01*
X1466Y21D01*
X1465Y21D01*
X1464Y21D01*
X1463Y21D01*
X1462Y21D01*
X1461Y22D01*
X1460Y22D01*
X1459Y22D01*
X1458Y22D01*
X1457Y22D01*
X1456Y22D01*
X1455Y22D01*
X1454Y23D01*
X1453Y23D01*
X1452Y23D01*
X1451Y23D01*
X1450Y23D01*
X1449Y23D01*
X1448Y24D01*
X1447Y24D01*
X1446Y24D01*
X1445Y24D01*
X1444Y24D01*
X1443Y24D01*
X1442Y25D01*
X1441Y25D01*
X1440Y25D01*
X1439Y25D01*
X1438Y25D01*
X1437Y26D01*
X1436Y26D01*
X1435Y26D01*
X1434Y26D01*
X1433Y26D01*
X1432Y26D01*
X1431Y27D01*
X1430Y27D01*
X1429Y27D01*
X1428Y27D01*
X1427Y27D01*
X1426Y27D01*
X1425Y28D01*
X1424Y28D01*
X1423Y28D01*
X1422Y28D01*
X1421Y28D01*
X1420Y29D01*
X1419Y29D01*
X1418Y29D01*
X1417Y29D01*
X1416Y29D01*
X1415Y30D01*
X1414Y30D01*
X1413Y30D01*
X1412Y30D01*
X1411Y30D01*
X1410Y30D01*
X1409Y31D01*
X1408Y31D01*
X1407Y31D01*
X1406Y31D01*
X1405Y31D01*
X1404Y32D01*
X1403Y32D01*
X1402Y32D01*
X1401Y32D01*
X1400Y32D01*
X1399Y33D01*
X1398Y33D01*
X1397Y33D01*
X1396Y33D01*
X1395Y33D01*
X1394Y34D01*
X1393Y34D01*
X1392Y34D01*
X1391Y34D01*
X1390Y34D01*
X1389Y35D01*
X1388Y35D01*
X1387Y35D01*
X1386Y35D01*
X1385Y35D01*
X1384Y36D01*
X1383Y36D01*
X1382Y36D01*
X1381Y36D01*
X1380Y37D01*
X1379Y37D01*
X1378Y37D01*
X1377Y37D01*
X1376Y37D01*
X1375Y38D01*
X1374Y38D01*
X1373Y38D01*
X1372Y38D01*
X1371Y38D01*
X1370Y39D01*
X1369Y39D01*
X1368Y39D01*
X1367Y39D01*
X1366Y40D01*
X1365Y40D01*
X1364Y40D01*
X1363Y40D01*
X1362Y40D01*
X1361Y41D01*
X1360Y41D01*
X1359Y41D01*
X1358Y41D01*
X1357Y42D01*
X1356Y42D01*
X1355Y42D01*
X1354Y42D01*
X1353Y43D01*
X1352Y43D01*
X1351Y43D01*
X1350Y43D01*
X1349Y43D01*
X1348Y44D01*
X1347Y44D01*
X1346Y44D01*
X1345Y44D01*
X1344Y45D01*
X1343Y45D01*
X1342Y45D01*
X1341Y45D01*
X1340Y46D01*
X1339Y46D01*
X1338Y46D01*
X1337Y46D01*
X1336Y47D01*
X1335Y47D01*
X1334Y47D01*
X1333Y47D01*
X1332Y48D01*
X1331Y48D01*
X1330Y48D01*
X1329Y48D01*
X1328Y49D01*
X1327Y49D01*
X1326Y49D01*
X1325Y49D01*
X1324Y49D01*
X1323Y50D01*
X1322Y50D01*
X1321Y50D01*
X1320Y51D01*
X1319Y51D01*
X1318Y51D01*
X1317Y51D01*
X1316Y52D01*
X1315Y52D01*
X1314Y52D01*
X1313Y52D01*
X1312Y53D01*
X1311Y53D01*
X1310Y53D01*
X1309Y53D01*
X1308Y54D01*
X1307Y54D01*
X1306Y54D01*
X1305Y54D01*
X1304Y55D01*
X1303Y55D01*
X1302Y55D01*
X1301Y55D01*
X1300Y56D01*
X1299Y56D01*
X1298Y56D01*
X1297Y57D01*
X1296Y57D01*
X1295Y57D01*
X1294Y57D01*
X1293Y58D01*
X1292Y58D01*
X1291Y58D01*
X1290Y58D01*
X1289Y59D01*
X1288Y59D01*
X1287Y59D01*
X1286Y60D01*
X1285Y60D01*
X1284Y60D01*
X1283Y60D01*
X1282Y61D01*
X1281Y61D01*
X1280Y61D01*
X1279Y61D01*
X1278Y62D01*
X1277Y62D01*
X1276Y62D01*
X1275Y63D01*
X1274Y63D01*
X1273Y63D01*
X1272Y63D01*
X1271Y64D01*
X1270Y64D01*
X1269Y64D01*
X1268Y65D01*
X1267Y65D01*
X1266Y65D01*
X1265Y65D01*
X1264Y66D01*
X1263Y66D01*
X1262Y66D01*
X1261Y67D01*
X1260Y67D01*
X1259Y67D01*
X1258Y68D01*
X1257Y68D01*
X1256Y68D01*
X1255Y68D01*
X1254Y69D01*
X1253Y69D01*
X1252Y69D01*
X1251Y70D01*
X1250Y70D01*
X1249Y70D01*
X1248Y71D01*
X1247Y71D01*
X1246Y71D01*
X1245Y71D01*
X1244Y72D01*
X1243Y72D01*
X1242Y72D01*
X1241Y73D01*
X1240Y73D01*
X1239Y73D01*
X1238Y74D01*
X1237Y74D01*
X1236Y74D01*
X1235Y75D01*
X1234Y75D01*
X1233Y75D01*
X1232Y76D01*
X1231Y76D01*
X1230Y76D01*
X1229Y76D01*
X1228Y77D01*
X1227Y77D01*
X1226Y77D01*
X1225Y78D01*
X1224Y78D01*
X1223Y78D01*
X1222Y79D01*
X1221Y79D01*
X1220Y79D01*
X1219Y80D01*
X1218Y80D01*
X1217Y80D01*
X1216Y81D01*
X1215Y81D01*
X1214Y81D01*
X1213Y82D01*
X1212Y82D01*
X1211Y82D01*
X1210Y83D01*
X1209Y83D01*
X1208Y83D01*
X1207Y84D01*
X1206Y84D01*
X1205Y84D01*
X1204Y85D01*
X1203Y85D01*
X1202Y85D01*
X1201Y86D01*
X1200Y86D01*
X1199Y86D01*
X1198Y87D01*
X1197Y87D01*
X1196Y87D01*
X1195Y88D01*
X1194Y88D01*
X1193Y88D01*
X1192Y89D01*
X1191Y89D01*
X1190Y89D01*
X1189Y90D01*
X1188Y90D01*
X1187Y90D01*
X1186Y91D01*
X1185Y91D01*
X1184Y92D01*
X1183Y92D01*
X1182Y92D01*
X1181Y93D01*
X1180Y93D01*
X1179Y93D01*
X1178Y94D01*
X1177Y94D01*
X1176Y94D01*
X1175Y95D01*
X1174Y95D01*
X1173Y95D01*
X1172Y96D01*
X1171Y96D01*
X1170Y97D01*
X1169Y97D01*
X1168Y97D01*
X1167Y98D01*
X1166Y98D01*
X1165Y98D01*
X1164Y99D01*
X1163Y99D01*
X1162Y99D01*
X1161Y100D01*
X1160Y100D01*
X1159Y100D01*
X1158Y101D01*
X1157Y101D01*
X1156Y102D01*
X1155Y102D01*
X1154Y102D01*
X1153Y103D01*
X1152Y103D01*
X1151Y104D01*
X1150Y104D01*
X1149Y104D01*
X1148Y105D01*
X1147Y105D01*
X1146Y105D01*
X1145Y106D01*
X1144Y106D01*
X1143Y107D01*
X1142Y107D01*
X1141Y107D01*
X1140Y108D01*
X1139Y108D01*
X1138Y108D01*
X1137Y109D01*
X1136Y109D01*
X1135Y110D01*
X1134Y110D01*
X1133Y110D01*
X1132Y111D01*
X1131Y111D01*
X1130Y112D01*
X1129Y112D01*
X1128Y112D01*
X1127Y113D01*
X1126Y113D01*
X1125Y114D01*
X1124Y114D01*
X1123Y114D01*
X1122Y115D01*
X1121Y115D01*
X1120Y115D01*
X1119Y116D01*
X1118Y116D01*
X1117Y117D01*
X1116Y117D01*
X1115Y118D01*
X1114Y118D01*
X1113Y118D01*
X1112Y119D01*
X1111Y119D01*
X1110Y120D01*
X1109Y120D01*
X1108Y120D01*
X1107Y121D01*
X1106Y121D01*
X1105Y122D01*
X1104Y122D01*
X1103Y122D01*
X1102Y123D01*
X1101Y123D01*
X1100Y124D01*
X1099Y124D01*
X1098Y124D01*
X1097Y125D01*
X1096Y125D01*
X1095Y126D01*
X1094Y126D01*
X1093Y127D01*
X1092Y127D01*
X1091Y127D01*
X1090Y128D01*
X1089Y128D01*
X1088Y129D01*
X1087Y129D01*
X1086Y130D01*
X1085Y130D01*
X1084Y130D01*
X1083Y131D01*
X1082Y131D01*
X1081Y132D01*
X1080Y132D01*
X1079Y133D01*
X1078Y133D01*
X1077Y133D01*
X1076Y134D01*
X1075Y134D01*
X1074Y135D01*
X1073Y135D01*
X1072Y136D01*
X1071Y136D01*
X1070Y136D01*
X1069Y137D01*
X1068Y137D01*
X1067Y138D01*
X1066Y138D01*
X1065Y139D01*
X1064Y139D01*
X1063Y140D01*
X1062Y140D01*
X1061Y140D01*
X1060Y141D01*
X1059Y141D01*
X1058Y142D01*
X1057Y142D01*
X1056Y143D01*
X1055Y143D01*
X1054Y144D01*
X1053Y144D01*
X1052Y144D01*
X1051Y145D01*
X1050Y145D01*
X1049Y146D01*
X1048Y146D01*
X1047Y147D01*
X1046Y147D01*
X1045Y148D01*
X1044Y148D01*
X1043Y149D01*
X1042Y149D01*
X1041Y149D01*
X1040Y150D01*
X1039Y150D01*
X1038Y151D01*
X1037Y151D01*
X1036Y152D01*
X1035Y152D01*
X1034Y153D01*
X1033Y153D01*
X1032Y154D01*
X1031Y154D01*
X1030Y155D01*
X1029Y155D01*
X1028Y156D01*
X1027Y156D01*
X1026Y157D01*
X1025Y157D01*
X1024Y157D01*
X1023Y158D01*
X1022Y158D01*
X1021Y159D01*
X1020Y159D01*
X1019Y160D01*
X1018Y160D01*
X1017Y161D01*
X1016Y161D01*
X1015Y162D01*
X1014Y162D01*
X1013Y163D01*
X1012Y163D01*
X1011Y164D01*
X1010Y164D01*
X1009Y165D01*
X1008Y165D01*
X1007Y166D01*
X1006Y166D01*
X1005Y167D01*
X1004Y167D01*
X1003Y168D01*
X1002Y168D01*
X1001Y169D01*
X1000Y169D01*
X999Y170D01*
X998Y170D01*
X997Y171D01*
X996Y171D01*
X995Y172D01*
X994Y172D01*
X993Y173D01*
X992Y173D01*
X991Y174D01*
X990Y174D01*
X989Y175D01*
X988Y175D01*
X987Y176D01*
X986Y176D01*
X985Y177D01*
X984Y177D01*
X983Y178D01*
X982Y178D01*
X981Y179D01*
X980Y179D01*
X979Y180D01*
X978Y180D01*
X977Y181D01*
X976Y181D01*
X975Y182D01*
X974Y182D01*
X973Y183D01*
X972Y183D01*
X971Y184D01*
X970Y184D01*
X969Y185D01*
X968Y185D01*
X967Y186D01*
X966Y186D01*
X965Y187D01*
X964Y188D01*
X963Y188D01*
X962Y189D01*
X961Y189D01*
X960Y190D01*
X959Y190D01*
X958Y191D01*
X957Y191D01*
X956Y192D01*
X955Y192D01*
X954Y193D01*
X953Y193D01*
X952Y194D01*
X951Y194D01*
X950Y195D01*
X949Y196D01*
X948Y196D01*
X947Y197D01*
X946Y197D01*
X945Y198D01*
X944Y198D01*
X943Y199D01*
X942Y199D01*
X941Y200D01*
X940Y200D01*
X939Y201D01*
X938Y202D01*
X937Y202D01*
X936Y203D01*
X935Y203D01*
X934Y204D01*
X933Y204D01*
X932Y205D01*
X931Y205D01*
X930Y206D01*
X929Y207D01*
X928Y207D01*
X927Y208D01*
X926Y208D01*
X925Y209D01*
X924Y209D01*
X923Y210D01*
X922Y210D01*
X921Y211D01*
X920Y212D01*
X919Y212D01*
X918Y213D01*
X917Y213D01*
X916Y214D01*
X915Y214D01*
X914Y215D01*
X913Y216D01*
X912Y216D01*
X911Y217D01*
X910Y217D01*
X909Y218D01*
X908Y218D01*
X907Y219D01*
X906Y220D01*
X905Y220D01*
X904Y221D01*
X903Y221D01*
X902Y222D01*
X901Y223D01*
X900Y223D01*
X899Y224D01*
X898Y224D01*
X897Y225D01*
X896Y225D01*
X895Y226D01*
X894Y227D01*
X893Y227D01*
X892Y228D01*
X891Y228D01*
X890Y229D01*
X889Y230D01*
X888Y230D01*
X887Y231D01*
X886Y231D01*
X885Y232D01*
X884Y233D01*
X883Y233D01*
X882Y234D01*
X881Y234D01*
X880Y235D01*
X879Y236D01*
X878Y236D01*
X877Y237D01*
X876Y237D01*
X875Y238D01*
X874Y239D01*
X873Y239D01*
X872Y240D01*
X871Y241D01*
X870Y241D01*
X869Y242D01*
X868Y242D01*
X867Y243D01*
X866Y244D01*
X865Y244D01*
X864Y245D01*
X863Y245D01*
X862Y246D01*
X861Y247D01*
X860Y247D01*
X859Y248D01*
X858Y249D01*
X857Y249D01*
X856Y250D01*
X855Y250D01*
X854Y251D01*
X853Y252D01*
X852Y252D01*
X851Y253D01*
X850Y254D01*
X849Y254D01*
X848Y255D01*
X847Y255D01*
X846Y256D01*
X845Y257D01*
X844Y257D01*
X843Y258D01*
X842Y259D01*
X841Y259D01*
X840Y260D01*
X839Y261D01*
X838Y261D01*
X837Y262D01*
X836Y263D01*
X835Y263D01*
X834Y264D01*
X833Y264D01*
X832Y265D01*
X831Y266D01*
X830Y266D01*
X829Y267D01*
X828Y268D01*
X827Y268D01*
X826Y269D01*
X825Y270D01*
X824Y270D01*
X823Y271D01*
X822Y272D01*
X821Y272D01*
X820Y273D01*
X819Y274D01*
X818Y274D01*
X817Y275D01*
X816Y276D01*
X815Y276D01*
X814Y277D01*
X813Y278D01*
X812Y278D01*
X811Y279D01*
X810Y280D01*
X809Y280D01*
X808Y281D01*
X807Y282D01*
X806Y282D01*
X805Y283D01*
X804Y284D01*
X803Y284D01*
X802Y285D01*
X801Y286D01*
X800Y286D01*
X799Y287D01*
X798Y288D01*
X797Y289D01*
X796Y289D01*
X795Y290D01*
X794Y291D01*
X793Y291D01*
X792Y292D01*
X791Y293D01*
X790Y293D01*
X789Y294D01*
X788Y295D01*
X787Y295D01*
X786Y296D01*
X785Y297D01*
X784Y298D01*
X783Y298D01*
X782Y299D01*
X781Y300D01*
X780Y300D01*
X779Y301D01*
X778Y302D01*
X777Y302D01*
X776Y303D01*
X775Y304D01*
X774Y305D01*
X773Y305D01*
X772Y306D01*
X771Y307D01*
X770Y307D01*
X769Y308D01*
X768Y309D01*
X767Y310D01*
X766Y310D01*
X765Y311D01*
X764Y312D01*
X763Y313D01*
X762Y313D01*
X761Y314D01*
X760Y315D01*
X759Y315D01*
X758Y316D01*
X757Y317D01*
X756Y318D01*
X755Y318D01*
X754Y319D01*
X753Y320D01*
X752Y321D01*
X751Y321D01*
X750Y322D01*
X749Y323D01*
X748Y324D01*
X747Y324D01*
X746Y325D01*
X745Y326D01*
X744Y327D01*
X743Y327D01*
X742Y328D01*
X741Y329D01*
X740Y330D01*
X739Y330D01*
X738Y331D01*
X737Y332D01*
X736Y333D01*
X735Y333D01*
X734Y334D01*
X733Y335D01*
X732Y336D01*
X731Y336D01*
X730Y337D01*
X729Y338D01*
X728Y339D01*
X727Y339D01*
X726Y340D01*
X725Y341D01*
X724Y342D01*
X723Y342D01*
X722Y343D01*
X721Y344D01*
X720Y345D01*
X719Y345D01*
X718Y346D01*
X717Y347D01*
X716Y348D01*
X715Y349D01*
X714Y349D01*
X713Y350D01*
X712Y351D01*
X711Y352D01*
X710Y353D01*
X709Y353D01*
X708Y354D01*
X707Y355D01*
X706Y356D01*
X705Y357D01*
X704Y357D01*
X703Y358D01*
X702Y359D01*
X701Y360D01*
X700Y360D01*
X699Y361D01*
X698Y362D01*
X697Y363D01*
X696Y364D01*
X695Y364D01*
X694Y365D01*
X693Y366D01*
X692Y367D01*
X691Y368D01*
X690Y368D01*
X689Y369D01*
X688Y370D01*
X687Y371D01*
X686Y372D01*
X685Y372D01*
X684Y373D01*
X683Y374D01*
X682Y375D01*
X681Y376D01*
X680Y377D01*
X679Y377D01*
X678Y378D01*
X677Y379D01*
X676Y380D01*
X675Y381D01*
X674Y382D01*
X673Y382D01*
X672Y383D01*
X671Y384D01*
X670Y385D01*
X669Y386D01*
X668Y387D01*
X667Y387D01*
X666Y388D01*
X665Y389D01*
X664Y390D01*
X663Y391D01*
X662Y392D01*
X661Y392D01*
X660Y393D01*
X659Y394D01*
X658Y395D01*
X657Y396D01*
X656Y397D01*
X655Y397D01*
X654Y398D01*
X653Y399D01*
X652Y400D01*
X651Y401D01*
X650Y402D01*
X649Y403D01*
X648Y403D01*
X647Y404D01*
X646Y405D01*
X645Y406D01*
X644Y407D01*
X643Y408D01*
X642Y409D01*
X641Y410D01*
X640Y410D01*
X639Y411D01*
X638Y412D01*
X637Y413D01*
X636Y414D01*
X635Y415D01*
X634Y416D01*
X633Y417D01*
X632Y417D01*
X631Y418D01*
X630Y419D01*
X629Y420D01*
X628Y421D01*
X627Y422D01*
X626Y423D01*
X625Y424D01*
X624Y424D01*
X623Y425D01*
X622Y426D01*
X621Y427D01*
X620Y428D01*
X619Y429D01*
X618Y430D01*
X617Y431D01*
X616Y432D01*
X615Y433D01*
X614Y434D01*
X613Y434D01*
X612Y435D01*
X611Y436D01*
X610Y437D01*
X609Y438D01*
X608Y439D01*
X607Y440D01*
X606Y441D01*
X605Y442D01*
X604Y443D01*
X603Y444D01*
X602Y445D01*
X601Y446D01*
X600Y446D01*
X599Y447D01*
X598Y448D01*
X597Y449D01*
X596Y450D01*
X595Y451D01*
X594Y452D01*
X593Y453D01*
X592Y454D01*
X591Y455D01*
X590Y456D01*
X589Y457D01*
X588Y458D01*
X587Y459D01*
X586Y459D01*
X585Y460D01*
X584Y461D01*
X583Y462D01*
X582Y463D01*
X581Y464D01*
X580Y465D01*
X579Y466D01*
X578Y467D01*
X577Y468D01*
X576Y469D01*
X575Y470D01*
X574Y471D01*
X573Y472D01*
X572Y473D01*
X571Y474D01*
X570Y475D01*
X569Y476D01*
X568Y477D01*
X567Y478D01*
X566Y479D01*
X565Y480D01*
X564Y481D01*
X563Y482D01*
X562Y483D01*
X561Y484D01*
X560Y485D01*
X559Y486D01*
X558Y487D01*
X557Y488D01*
X556Y489D01*
X555Y490D01*
X554Y491D01*
X553Y492D01*
X552Y493D01*
X551Y494D01*
X550Y495D01*
X549Y496D01*
X548Y497D01*
X547Y498D01*
X546Y499D01*
X545Y500D01*
X544Y501D01*
X543Y502D01*
X542Y503D01*
X541Y504D01*
X540Y505D01*
X539Y506D01*
X538Y507D01*
X537Y508D01*
X536Y509D01*
X535Y510D01*
X534Y511D01*
X533Y512D01*
X532Y513D01*
X531Y514D01*
X530Y515D01*
X529Y516D01*
X528Y517D01*
X527Y518D01*
X526Y519D01*
X525Y520D01*
X524Y521D01*
X523Y522D01*
X522Y523D01*
X521Y524D01*
X520Y525D01*
X520Y526D01*
X519Y527D01*
X518Y528D01*
X517Y529D01*
X516Y530D01*
X515Y531D01*
X514Y532D01*
X513Y533D01*
X512Y534D01*
X511Y535D01*
X510Y536D01*
X509Y537D01*
X508Y538D01*
X507Y539D01*
X506Y540D01*
X505Y541D01*
X504Y542D01*
X504Y543D01*
X503Y544D01*
X502Y545D01*
X501Y546D01*
X500Y547D01*
X499Y548D01*
X498Y549D01*
X497Y550D01*
X496Y551D01*
X495Y552D01*
X494Y553D01*
X494Y554D01*
X493Y555D01*
X492Y556D01*
X491Y557D01*
X490Y558D01*
X489Y559D01*
X488Y560D01*
X487Y561D01*
X486Y562D01*
X485Y563D01*
X485Y564D01*
X484Y565D01*
X483Y566D01*
X482Y567D01*
X481Y568D01*
X480Y569D01*
X479Y570D01*
X478Y571D01*
X477Y572D01*
X476Y573D01*
X476Y574D01*
X475Y575D01*
X474Y576D01*
X473Y577D01*
X472Y578D01*
X471Y579D01*
X470Y580D01*
X469Y581D01*
X469Y582D01*
X468Y583D01*
X467Y584D01*
X466Y585D01*
X465Y586D01*
X464Y587D01*
X463Y588D01*
X463Y589D01*
X462Y590D01*
X461Y591D01*
X460Y592D01*
X459Y593D01*
X458Y594D01*
X457Y595D01*
X457Y596D01*
X456Y597D01*
X455Y598D01*
X454Y599D01*
X453Y600D01*
X452Y601D01*
X451Y602D01*
X451Y603D01*
X450Y604D01*
X449Y605D01*
X448Y606D01*
X447Y607D01*
X446Y608D01*
X445Y609D01*
X445Y610D01*
X444Y611D01*
X443Y612D01*
X442Y613D01*
X441Y614D01*
X440Y615D01*
X440Y616D01*
X439Y617D01*
X438Y618D01*
X437Y619D01*
X436Y620D01*
X436Y621D01*
X435Y622D01*
X434Y623D01*
X433Y624D01*
X432Y625D01*
X431Y626D01*
X431Y627D01*
X430Y628D01*
X429Y629D01*
X428Y630D01*
X427Y631D01*
X427Y632D01*
X426Y633D01*
X425Y634D01*
X424Y635D01*
X423Y636D01*
X423Y637D01*
X422Y638D01*
X421Y639D01*
X420Y640D01*
X419Y641D01*
X418Y642D01*
X418Y643D01*
X417Y644D01*
X416Y645D01*
X415Y646D01*
X414Y647D01*
X414Y648D01*
X413Y649D01*
X412Y650D01*
X411Y651D01*
X411Y652D01*
X410Y653D01*
X409Y654D01*
X408Y655D01*
X407Y656D01*
X407Y657D01*
X406Y658D01*
X405Y659D01*
X404Y660D01*
X404Y661D01*
X403Y662D01*
X402Y663D01*
X401Y664D01*
X400Y665D01*
X400Y666D01*
X399Y667D01*
X398Y668D01*
X397Y669D01*
X397Y670D01*
X396Y671D01*
X395Y672D01*
X394Y673D01*
X393Y674D01*
X393Y675D01*
X392Y676D01*
X391Y677D01*
X390Y678D01*
X390Y679D01*
X389Y680D01*
X388Y681D01*
X387Y682D01*
X387Y683D01*
X386Y684D01*
X385Y685D01*
X384Y686D01*
X384Y687D01*
X383Y688D01*
X382Y689D01*
X381Y690D01*
X381Y691D01*
X380Y692D01*
X379Y693D01*
X379Y694D01*
X378Y695D01*
X377Y696D01*
X376Y697D01*
X376Y698D01*
X375Y699D01*
X374Y700D01*
X373Y701D01*
X373Y702D01*
X372Y703D01*
X371Y704D01*
X370Y705D01*
X370Y706D01*
X369Y707D01*
X368Y708D01*
X367Y709D01*
X367Y710D01*
X366Y711D01*
X365Y712D01*
X364Y713D01*
X364Y714D01*
X363Y715D01*
X362Y716D01*
X362Y717D01*
X361Y718D01*
X360Y719D01*
X360Y720D01*
X359Y721D01*
X358Y722D01*
X357Y723D01*
X357Y724D01*
X356Y725D01*
X355Y726D01*
X355Y727D01*
X354Y728D01*
X353Y729D01*
X352Y730D01*
X352Y731D01*
X351Y732D01*
X350Y733D01*
X350Y734D01*
X349Y735D01*
X348Y736D01*
X348Y737D01*
X347Y738D01*
X346Y739D01*
X345Y740D01*
X345Y741D01*
X344Y742D01*
X343Y743D01*
X343Y744D01*
X342Y745D01*
X341Y746D01*
X340Y747D01*
X340Y748D01*
X339Y749D01*
X338Y750D01*
X338Y751D01*
X337Y752D01*
X336Y753D01*
X336Y754D01*
X335Y755D01*
X334Y756D01*
X334Y757D01*
X333Y758D01*
X332Y759D01*
X332Y760D01*
X331Y761D01*
X330Y762D01*
X330Y763D01*
X329Y764D01*
X328Y765D01*
X328Y766D01*
X327Y767D01*
X326Y768D01*
X326Y769D01*
X325Y770D01*
X324Y771D01*
X324Y772D01*
X323Y773D01*
X322Y774D01*
X322Y775D01*
X321Y776D01*
X320Y777D01*
X320Y778D01*
X319Y779D01*
X318Y780D01*
X318Y781D01*
X317Y782D01*
X316Y783D01*
X316Y784D01*
X315Y785D01*
X314Y786D01*
X314Y787D01*
X313Y788D01*
X312Y789D01*
X312Y790D01*
X311Y791D01*
X311Y792D01*
X310Y793D01*
X309Y794D01*
X309Y795D01*
X308Y796D01*
X307Y797D01*
X307Y798D01*
X306Y799D01*
X305Y800D01*
X305Y801D01*
X304Y802D01*
X303Y803D01*
X303Y804D01*
X302Y805D01*
X302Y806D01*
X301Y807D01*
X300Y808D01*
X300Y809D01*
X299Y810D01*
X298Y811D01*
X298Y812D01*
X297Y813D01*
X296Y814D01*
X296Y815D01*
X295Y816D01*
X295Y817D01*
X294Y818D01*
X293Y819D01*
X293Y820D01*
X292Y821D01*
X291Y822D01*
X291Y823D01*
X290Y824D01*
X290Y825D01*
X289Y826D01*
X288Y827D01*
X288Y828D01*
X287Y829D01*
X287Y830D01*
X286Y831D01*
X285Y832D01*
X285Y833D01*
X284Y834D01*
X284Y835D01*
X283Y836D01*
X282Y837D01*
X282Y838D01*
X281Y839D01*
X281Y840D01*
X280Y841D01*
X279Y842D01*
X279Y843D01*
X278Y844D01*
X277Y845D01*
X277Y846D01*
X276Y847D01*
X276Y848D01*
X275Y849D01*
X274Y850D01*
X274Y851D01*
X273Y852D01*
X273Y853D01*
X272Y854D01*
X271Y855D01*
X271Y856D01*
X270Y857D01*
X270Y858D01*
X269Y859D01*
X268Y860D01*
X268Y861D01*
X267Y862D01*
X267Y863D01*
X266Y864D01*
X266Y865D01*
X265Y866D01*
X264Y867D01*
X264Y868D01*
X263Y869D01*
X263Y870D01*
X262Y871D01*
X262Y872D01*
X261Y873D01*
X260Y874D01*
X260Y875D01*
X259Y876D01*
X259Y877D01*
X258Y878D01*
X258Y879D01*
X257Y880D01*
X256Y881D01*
X256Y882D01*
X255Y883D01*
X255Y884D01*
X254Y885D01*
X254Y886D01*
X253Y887D01*
X252Y888D01*
X252Y889D01*
X251Y890D01*
X251Y891D01*
X250Y892D01*
X250Y893D01*
X249Y894D01*
X248Y895D01*
X248Y896D01*
X247Y897D01*
X247Y898D01*
X246Y899D01*
X246Y900D01*
X245Y901D01*
X245Y902D01*
X244Y903D01*
X243Y904D01*
X243Y905D01*
X242Y906D01*
X242Y907D01*
X241Y908D01*
X241Y909D01*
X240Y910D01*
X240Y911D01*
X239Y912D01*
X239Y913D01*
X238Y914D01*
X237Y915D01*
X237Y916D01*
X236Y917D01*
X236Y918D01*
X235Y919D01*
X235Y920D01*
X234Y921D01*
X234Y922D01*
X233Y923D01*
X233Y924D01*
X232Y925D01*
X231Y926D01*
X231Y927D01*
X230Y928D01*
X230Y929D01*
X229Y930D01*
X229Y931D01*
X228Y932D01*
X228Y933D01*
X227Y934D01*
X227Y935D01*
X226Y936D01*
X226Y937D01*
X225Y938D01*
X224Y939D01*
X224Y940D01*
X223Y941D01*
X223Y942D01*
X222Y943D01*
X222Y944D01*
X221Y945D01*
X221Y946D01*
X220Y947D01*
X220Y948D01*
X219Y949D01*
X219Y950D01*
X218Y951D01*
X218Y952D01*
X217Y953D01*
X217Y954D01*
X216Y955D01*
X216Y956D01*
X215Y957D01*
X215Y958D01*
X214Y959D01*
X214Y960D01*
X213Y961D01*
X213Y962D01*
X212Y963D01*
X212Y964D01*
X211Y965D01*
X211Y966D01*
X210Y967D01*
X210Y968D01*
X209Y969D01*
X209Y970D01*
X208Y971D01*
X208Y972D01*
X207Y973D01*
X207Y974D01*
X206Y975D01*
X206Y976D01*
X205Y977D01*
X205Y978D01*
X204Y979D01*
X204Y980D01*
X203Y981D01*
X203Y982D01*
X202Y983D01*
X202Y984D01*
X201Y985D01*
X201Y986D01*
X200Y987D01*
X200Y988D01*
X199Y989D01*
X199Y990D01*
X198Y991D01*
X198Y992D01*
X197Y993D01*
X197Y994D01*
X196Y995D01*
X196Y996D01*
X195Y997D01*
X195Y998D01*
X194Y999D01*
X194Y1000D01*
X193Y1001D01*
X193Y1002D01*
X192Y1003D01*
X192Y1004D01*
X191Y1005D01*
X191Y1006D01*
X190Y1007D01*
X190Y1008D01*
X189Y1009D01*
X189Y1011D01*
X188Y1012D01*
X188Y1013D01*
X187Y1014D01*
X187Y1015D01*
X186Y1016D01*
X186Y1017D01*
X185Y1018D01*
X185Y1019D01*
X184Y1020D01*
X184Y1021D01*
X183Y1022D01*
X183Y1023D01*
X182Y1024D01*
X182Y1026D01*
X181Y1027D01*
X181Y1028D01*
X180Y1029D01*
X180Y1030D01*
X179Y1031D01*
X179Y1032D01*
X178Y1033D01*
X178Y1034D01*
X177Y1035D01*
X177Y1036D01*
X176Y1037D01*
X176Y1039D01*
X175Y1040D01*
X175Y1041D01*
X174Y1042D01*
X174Y1043D01*
X173Y1044D01*
X173Y1045D01*
X172Y1046D01*
X172Y1048D01*
X171Y1049D01*
X171Y1050D01*
X170Y1051D01*
X170Y1052D01*
X169Y1053D01*
X169Y1054D01*
X168Y1055D01*
X168Y1056D01*
X167Y1057D01*
X167Y1059D01*
X166Y1060D01*
X166Y1061D01*
X165Y1062D01*
X165Y1063D01*
X164Y1064D01*
X164Y1066D01*
X163Y1067D01*
X163Y1068D01*
X162Y1069D01*
X162Y1070D01*
X161Y1071D01*
X161Y1073D01*
X160Y1074D01*
X160Y1075D01*
X159Y1076D01*
X159Y1077D01*
X158Y1078D01*
X158Y1080D01*
X157Y1081D01*
X157Y1082D01*
X156Y1083D01*
X156Y1084D01*
X155Y1085D01*
X155Y1087D01*
X154Y1088D01*
X154Y1089D01*
X153Y1090D01*
X153Y1091D01*
X152Y1092D01*
X152Y1094D01*
X151Y1095D01*
X151Y1096D01*
X150Y1097D01*
X150Y1099D01*
X149Y1100D01*
X149Y1101D01*
X148Y1102D01*
X148Y1104D01*
X147Y1105D01*
X147Y1106D01*
X146Y1107D01*
X146Y1108D01*
X145Y1109D01*
X145Y1111D01*
X144Y1112D01*
X144Y1113D01*
X143Y1114D01*
X143Y1116D01*
X142Y1117D01*
X142Y1118D01*
X141Y1119D01*
X141Y1121D01*
X140Y1122D01*
X140Y1123D01*
X139Y1124D01*
X139Y1126D01*
X138Y1127D01*
X138Y1128D01*
X137Y1129D01*
X137Y1131D01*
X136Y1132D01*
X136Y1133D01*
X135Y1134D01*
X135Y1136D01*
X134Y1137D01*
X134Y1139D01*
X133Y1140D01*
X133Y1141D01*
X132Y1142D01*
X132Y1144D01*
X131Y1145D01*
X131Y1146D01*
X130Y1147D01*
X130Y1149D01*
X129Y1150D01*
X129Y1152D01*
X128Y1153D01*
X128Y1154D01*
X127Y1155D01*
X127Y1157D01*
X126Y1158D01*
X126Y1160D01*
X125Y1161D01*
X125Y1162D01*
X124Y1163D01*
X124Y1165D01*
X123Y1166D01*
X123Y1168D01*
X122Y1169D01*
X122Y1170D01*
X121Y1171D01*
X121Y1173D01*
X120Y1174D01*
X120Y1176D01*
X119Y1177D01*
X119Y1179D01*
X118Y1180D01*
X118Y1181D01*
X117Y1182D01*
X117Y1184D01*
X116Y1185D01*
X116Y1187D01*
X115Y1188D01*
X115Y1190D01*
X114Y1191D01*
X114Y1193D01*
X113Y1194D01*
X113Y1195D01*
X112Y1196D01*
X112Y1198D01*
X111Y1199D01*
X111Y1201D01*
X110Y1202D01*
X110Y1204D01*
X109Y1205D01*
X109Y1207D01*
X108Y1208D01*
X108Y1210D01*
X107Y1211D01*
X107Y1213D01*
X106Y1214D01*
X106Y1216D01*
X105Y1217D01*
X105Y1219D01*
X104Y1220D01*
X104Y1221D01*
X103Y1222D01*
X103Y1225D01*
X102Y1226D01*
X102Y1228D01*
X101Y1229D01*
X101Y1231D01*
X100Y1232D01*
X100Y1234D01*
X99Y1235D01*
X99Y1237D01*
X98Y1238D01*
X98Y1240D01*
X97Y1241D01*
X97Y1243D01*
X96Y1244D01*
X96Y1246D01*
X95Y1247D01*
X95Y1249D01*
X94Y1250D01*
X94Y1252D01*
X93Y1253D01*
X93Y1255D01*
X92Y1256D01*
X92Y1258D01*
X91Y1259D01*
X91Y1262D01*
X90Y1263D01*
X90Y1265D01*
X89Y1266D01*
X89Y1268D01*
X88Y1269D01*
X88Y1271D01*
X87Y1272D01*
X87Y1275D01*
X86Y1276D01*
X86Y1278D01*
X85Y1279D01*
X85Y1281D01*
X84Y1282D01*
X84Y1284D01*
X83Y1285D01*
X83Y1288D01*
X82Y1289D01*
X82Y1291D01*
X81Y1292D01*
X81Y1295D01*
X80Y1296D01*
X80Y1298D01*
X79Y1299D01*
X79Y1301D01*
X78Y1302D01*
X78Y1305D01*
X77Y1306D01*
X77Y1308D01*
X76Y1309D01*
X76Y1312D01*
X75Y1313D01*
X75Y1316D01*
X74Y1317D01*
X74Y1319D01*
X73Y1320D01*
X73Y1323D01*
X72Y1324D01*
X72Y1326D01*
X71Y1327D01*
X71Y1330D01*
X70Y1331D01*
X70Y1334D01*
X69Y1335D01*
X69Y1337D01*
X68Y1338D01*
X68Y1341D01*
X67Y1342D01*
X67Y1345D01*
X66Y1346D01*
X66Y1349D01*
X65Y1350D01*
X65Y1352D01*
X64Y1353D01*
X64Y1356D01*
X63Y1357D01*
X63Y1360D01*
X62Y1361D01*
X62Y1364D01*
X61Y1365D01*
X61Y1368D01*
X60Y1369D01*
X60Y1372D01*
X59Y1373D01*
X59Y1376D01*
X58Y1377D01*
X58Y1380D01*
X57Y1381D01*
X57Y1384D01*
X56Y1385D01*
X56Y1388D01*
X55Y1389D01*
X55Y1392D01*
X54Y1393D01*
X54Y1397D01*
X53Y1398D01*
X53Y1401D01*
X52Y1402D01*
X52Y1405D01*
X51Y1406D01*
X51Y1410D01*
X50Y1411D01*
X50Y1414D01*
X49Y1415D01*
X49Y1418D01*
X48Y1419D01*
X48Y1423D01*
X47Y1424D01*
X47Y1428D01*
X46Y1429D01*
X46Y1432D01*
X45Y1433D01*
X45Y1437D01*
X44Y1438D01*
X44Y1441D01*
X43Y1442D01*
X43Y1446D01*
X42Y1447D01*
X42Y1451D01*
X41Y1452D01*
X41Y1456D01*
X40Y1457D01*
X40Y1461D01*
X39Y1462D01*
X39Y1466D01*
X38Y1467D01*
X38Y1471D01*
X37Y1472D01*
X37Y1476D01*
X36Y1477D01*
X36Y1481D01*
X35Y1482D01*
X35Y1486D01*
X34Y1487D01*
X34Y1492D01*
X33Y1493D01*
X33Y1497D01*
X32Y1498D01*
X32Y1503D01*
X31Y1504D01*
X31Y1508D01*
X30Y1509D01*
X30Y1514D01*
X29Y1515D01*
X29Y1520D01*
X28Y1521D01*
X28Y1526D01*
X27Y1527D01*
X27Y1532D01*
X26Y1533D01*
X26Y1538D01*
X25Y1539D01*
X25Y1545D01*
X24Y1546D01*
X24Y1551D01*
X23Y1552D01*
X23Y1558D01*
X22Y1559D01*
X22Y1564D01*
X21Y1565D01*
X21Y1571D01*
X20Y1572D01*
X20Y1578D01*
X19Y1579D01*
X19Y1586D01*
X18Y1587D01*
X18Y1593D01*
X17Y1594D01*
X17Y1600D01*
X16Y1601D01*
X16Y1609D01*
X15Y1610D01*
X15Y1617D01*
X14Y1618D01*
X14Y1625D01*
X13Y1626D01*
X13Y1634D01*
X12Y1635D01*
X12Y1643D01*
X11Y1644D01*
X11Y1653D01*
X10Y1654D01*
X10Y1663D01*
X9Y1664D01*
X9Y1673D01*
X8Y1674D01*
X8Y1685D01*
X7Y1686D01*
X7Y1697D01*
X6Y1698D01*
X6Y1710D01*
X5Y1711D01*
X5Y1724D01*
X4Y1725D01*
X4Y1740D01*
X3Y1741D01*
X3Y1758D01*
X2Y1759D01*
X2Y1781D01*
X1Y1782D01*
X1Y1815D01*
X0Y1816D01*
X0Y1904D01*
X1Y1905D01*
X1Y1938D01*
X2Y1939D01*
X2Y1961D01*
X3Y1962D01*
X3Y1979D01*
X4Y1980D01*
X4Y1995D01*
X5Y1996D01*
X5Y2009D01*
X6Y2010D01*
X6Y2022D01*
X7Y2023D01*
X7Y2034D01*
X8Y2035D01*
X8Y2046D01*
X9Y2047D01*
X9Y2056D01*
X10Y2057D01*
X10Y2066D01*
X11Y2067D01*
X11Y2076D01*
X12Y2077D01*
X12Y2085D01*
X13Y2086D01*
X13Y2094D01*
X14Y2095D01*
X14Y2102D01*
X15Y2103D01*
X15Y2110D01*
X16Y2111D01*
X16Y2119D01*
X17Y2120D01*
X17Y2126D01*
X18Y2127D01*
X18Y2133D01*
X19Y2134D01*
X19Y2141D01*
X20Y2142D01*
X20Y2148D01*
X21Y2149D01*
X21Y2155D01*
X22Y2156D01*
X22Y2161D01*
X23Y2162D01*
X23Y2168D01*
X24Y2169D01*
X24Y2174D01*
X25Y2175D01*
X25Y2181D01*
X26Y2182D01*
X26Y2187D01*
X27Y2188D01*
X27Y2193D01*
X28Y2194D01*
X28Y2199D01*
X29Y2200D01*
X29Y2205D01*
X30Y2206D01*
X30Y2211D01*
X31Y2212D01*
X31Y2216D01*
X32Y2217D01*
X32Y2222D01*
X33Y2223D01*
X33Y2227D01*
X34Y2228D01*
X34Y2233D01*
X35Y2234D01*
X35Y2238D01*
X36Y2239D01*
X36Y2243D01*
X37Y2244D01*
X37Y2248D01*
X38Y2249D01*
X38Y2253D01*
X39Y2254D01*
X39Y2258D01*
X40Y2259D01*
X40Y2263D01*
X41Y2264D01*
X41Y2268D01*
X42Y2269D01*
X42Y2273D01*
X43Y2274D01*
X43Y2278D01*
X44Y2279D01*
X44Y2282D01*
X45Y2283D01*
X45Y2287D01*
X46Y2288D01*
X46Y2291D01*
X47Y2292D01*
X47Y2296D01*
X48Y2297D01*
X48Y2301D01*
X49Y2302D01*
X49Y2305D01*
X50Y2306D01*
X50Y2309D01*
X51Y2310D01*
X51Y2314D01*
X52Y2315D01*
X52Y2318D01*
X53Y2319D01*
X53Y2322D01*
X54Y2323D01*
X54Y2327D01*
X55Y2328D01*
X55Y2331D01*
X56Y2332D01*
X56Y2335D01*
X57Y2336D01*
X57Y2339D01*
X58Y2340D01*
X58Y2343D01*
X59Y2344D01*
X59Y2347D01*
X60Y2348D01*
X60Y2351D01*
X61Y2352D01*
X61Y2355D01*
X62Y2356D01*
X62Y2359D01*
X63Y2360D01*
X63Y2363D01*
X64Y2364D01*
X64Y2367D01*
X65Y2368D01*
X65Y2370D01*
X66Y2371D01*
X66Y2374D01*
X67Y2375D01*
X67Y2378D01*
X68Y2379D01*
X68Y2382D01*
X69Y2383D01*
X69Y2385D01*
X70Y2386D01*
X70Y2389D01*
X71Y2390D01*
X71Y2393D01*
X72Y2394D01*
X72Y2396D01*
X73Y2397D01*
X73Y2400D01*
X74Y2401D01*
X74Y2403D01*
X75Y2404D01*
X75Y2407D01*
X76Y2408D01*
X76Y2411D01*
X77Y2412D01*
X77Y2414D01*
X78Y2415D01*
X78Y2418D01*
X79Y2419D01*
X79Y2421D01*
X80Y2422D01*
X80Y2424D01*
X81Y2425D01*
X81Y2428D01*
X82Y2429D01*
X82Y2431D01*
X83Y2432D01*
X83Y2435D01*
X84Y2436D01*
X84Y2438D01*
X85Y2439D01*
X85Y2441D01*
X86Y2442D01*
X86Y2444D01*
X87Y2445D01*
X87Y2448D01*
X88Y2449D01*
X88Y2451D01*
X89Y2452D01*
X89Y2454D01*
X90Y2455D01*
X90Y2457D01*
X91Y2458D01*
X91Y2461D01*
X92Y2462D01*
X92Y2464D01*
X93Y2465D01*
X93Y2467D01*
X94Y2468D01*
X94Y2470D01*
X95Y2471D01*
X95Y2473D01*
X96Y2474D01*
X96Y2476D01*
X97Y2477D01*
X97Y2479D01*
X98Y2480D01*
X98Y2482D01*
X99Y2483D01*
X99Y2485D01*
X100Y2486D01*
X100Y2488D01*
X101Y2489D01*
X101Y2491D01*
X102Y2492D01*
X102Y2494D01*
X103Y2495D01*
X103Y2498D01*
X104Y2499D01*
X104Y2500D01*
X105Y2501D01*
X105Y2503D01*
X106Y2504D01*
X106Y2506D01*
X107Y2507D01*
X107Y2509D01*
X108Y2510D01*
X108Y2512D01*
X109Y2513D01*
X109Y2515D01*
X110Y2516D01*
X110Y2518D01*
X111Y2519D01*
X111Y2521D01*
X112Y2522D01*
X112Y2524D01*
X113Y2525D01*
X113Y2526D01*
X114Y2527D01*
X114Y2529D01*
X115Y2530D01*
X115Y2532D01*
X116Y2533D01*
X116Y2535D01*
X117Y2536D01*
X117Y2538D01*
X118Y2539D01*
X118Y2540D01*
X119Y2541D01*
X119Y2543D01*
X120Y2544D01*
X120Y2546D01*
X121Y2547D01*
X121Y2549D01*
X122Y2550D01*
X122Y2551D01*
X123Y2552D01*
X123Y2554D01*
X124Y2555D01*
X124Y2557D01*
X125Y2558D01*
X125Y2559D01*
X126Y2560D01*
X126Y2562D01*
X127Y2563D01*
X127Y2565D01*
X128Y2566D01*
X128Y2567D01*
X129Y2568D01*
X129Y2570D01*
X130Y2571D01*
X130Y2573D01*
X131Y2574D01*
X131Y2575D01*
X132Y2576D01*
X132Y2578D01*
X133Y2579D01*
X133Y2580D01*
X134Y2581D01*
X134Y2583D01*
X135Y2584D01*
X135Y2586D01*
X136Y2587D01*
X136Y2588D01*
X137Y2589D01*
X137Y2591D01*
X138Y2592D01*
X138Y2593D01*
X139Y2594D01*
X139Y2596D01*
X140Y2597D01*
X140Y2598D01*
X141Y2599D01*
X141Y2601D01*
X142Y2602D01*
X142Y2603D01*
X143Y2604D01*
X143Y2606D01*
X144Y2607D01*
X144Y2608D01*
X145Y2609D01*
X145Y2611D01*
X146Y2612D01*
X146Y2613D01*
X147Y2614D01*
X147Y2615D01*
X148Y2616D01*
X148Y2618D01*
X149Y2619D01*
X149Y2620D01*
X150Y2621D01*
X150Y2623D01*
X151Y2624D01*
X151Y2625D01*
X152Y2626D01*
X152Y2628D01*
X153Y2629D01*
X153Y2630D01*
X154Y2631D01*
X154Y2632D01*
X155Y2633D01*
X155Y2635D01*
X156Y2636D01*
X156Y2637D01*
X157Y2638D01*
X157Y2639D01*
X158Y2640D01*
X158Y2642D01*
X159Y2643D01*
X159Y2644D01*
X160Y2645D01*
X160Y2646D01*
X161Y2647D01*
X161Y2649D01*
X162Y2650D01*
X162Y2651D01*
X163Y2652D01*
X163Y2653D01*
X164Y2654D01*
X164Y2656D01*
X165Y2657D01*
X165Y2658D01*
X166Y2659D01*
X166Y2660D01*
X167Y2661D01*
X167Y2663D01*
X168Y2664D01*
X168Y2665D01*
X169Y2666D01*
X169Y2667D01*
X170Y2668D01*
X170Y2669D01*
X171Y2670D01*
X171Y2671D01*
X172Y2672D01*
X172Y2674D01*
X173Y2675D01*
X173Y2676D01*
X174Y2677D01*
X174Y2678D01*
X175Y2679D01*
X175Y2680D01*
X176Y2681D01*
X176Y2683D01*
X177Y2684D01*
X177Y2685D01*
X178Y2686D01*
X178Y2687D01*
X179Y2688D01*
X179Y2689D01*
X180Y2690D01*
X180Y2691D01*
X181Y2692D01*
X181Y2693D01*
X182Y2694D01*
X182Y2696D01*
X183Y2697D01*
X183Y2698D01*
X184Y2699D01*
X184Y2700D01*
X185Y2701D01*
X185Y2702D01*
X186Y2703D01*
X186Y2704D01*
X187Y2705D01*
X187Y2706D01*
X188Y2707D01*
X188Y2708D01*
X189Y2709D01*
X189Y2711D01*
X190Y2712D01*
X190Y2713D01*
X191Y2714D01*
X191Y2715D01*
X192Y2716D01*
X192Y2717D01*
X193Y2718D01*
X193Y2719D01*
X194Y2720D01*
X194Y2721D01*
X195Y2722D01*
X195Y2723D01*
X196Y2724D01*
X196Y2725D01*
X197Y2726D01*
X197Y2727D01*
X198Y2728D01*
X198Y2729D01*
X199Y2730D01*
X199Y2731D01*
X200Y2732D01*
X200Y2733D01*
X201Y2734D01*
X201Y2735D01*
X202Y2736D01*
X202Y2737D01*
X203Y2738D01*
X203Y2739D01*
X204Y2740D01*
X204Y2741D01*
X205Y2742D01*
X205Y2743D01*
X206Y2744D01*
X206Y2745D01*
X207Y2746D01*
X207Y2747D01*
X208Y2748D01*
X208Y2749D01*
X209Y2750D01*
X209Y2751D01*
X210Y2752D01*
X210Y2753D01*
X211Y2754D01*
X211Y2755D01*
X212Y2756D01*
X212Y2757D01*
X213Y2758D01*
X213Y2759D01*
X214Y2760D01*
X214Y2761D01*
X215Y2762D01*
X215Y2763D01*
X216Y2764D01*
X216Y2765D01*
X217Y2766D01*
X217Y2767D01*
X218Y2768D01*
X218Y2769D01*
X219Y2770D01*
X219Y2771D01*
X220Y2772D01*
X220Y2773D01*
X221Y2774D01*
X221Y2775D01*
X222Y2776D01*
X222Y2777D01*
X223Y2778D01*
X223Y2779D01*
X224Y2780D01*
X224Y2781D01*
X225Y2782D01*
X226Y2783D01*
X226Y2784D01*
X227Y2785D01*
X227Y2786D01*
X228Y2787D01*
X228Y2788D01*
X229Y2789D01*
X229Y2790D01*
X230Y2791D01*
X230Y2792D01*
X231Y2793D01*
X231Y2794D01*
X232Y2795D01*
X233Y2796D01*
X233Y2797D01*
X234Y2798D01*
X234Y2799D01*
X235Y2800D01*
X235Y2801D01*
X236Y2802D01*
X236Y2803D01*
X237Y2804D01*
X237Y2805D01*
X238Y2806D01*
X239Y2807D01*
X239Y2808D01*
X240Y2809D01*
X240Y2810D01*
X241Y2811D01*
X241Y2812D01*
X242Y2813D01*
X242Y2814D01*
X243Y2815D01*
X243Y2816D01*
X244Y2817D01*
X245Y2818D01*
X245Y2819D01*
X246Y2820D01*
X246Y2821D01*
X247Y2822D01*
X247Y2823D01*
X248Y2824D01*
X248Y2825D01*
X249Y2826D01*
X250Y2827D01*
X250Y2828D01*
X251Y2829D01*
X251Y2830D01*
X252Y2831D01*
X252Y2832D01*
X253Y2833D01*
X254Y2834D01*
X254Y2835D01*
X255Y2836D01*
X255Y2837D01*
X256Y2838D01*
X256Y2839D01*
X257Y2840D01*
X258Y2841D01*
X258Y2842D01*
X259Y2843D01*
X259Y2844D01*
X260Y2845D01*
X260Y2846D01*
X261Y2847D01*
X262Y2848D01*
X262Y2849D01*
X263Y2850D01*
X263Y2851D01*
X264Y2852D01*
X264Y2853D01*
X265Y2854D01*
X266Y2855D01*
X266Y2856D01*
X267Y2857D01*
X267Y2858D01*
X268Y2859D01*
X268Y2860D01*
X269Y2861D01*
X270Y2862D01*
X270Y2863D01*
X271Y2864D01*
X271Y2865D01*
X272Y2866D01*
X273Y2867D01*
X273Y2868D01*
X274Y2869D01*
X274Y2870D01*
X275Y2871D01*
X276Y2872D01*
X276Y2873D01*
X277Y2874D01*
X277Y2875D01*
X278Y2876D01*
X279Y2877D01*
X279Y2878D01*
X280Y2879D01*
X281Y2880D01*
X281Y2881D01*
X282Y2882D01*
X282Y2883D01*
X283Y2884D01*
X284Y2885D01*
X284Y2886D01*
X285Y2887D01*
X285Y2888D01*
X286Y2889D01*
X287Y2890D01*
X287Y2891D01*
X288Y2892D01*
X288Y2893D01*
X289Y2894D01*
X290Y2895D01*
X290Y2896D01*
X291Y2897D01*
X291Y2898D01*
X292Y2899D01*
X293Y2900D01*
X293Y2901D01*
X294Y2902D01*
X295Y2903D01*
X295Y2904D01*
X296Y2905D01*
X296Y2906D01*
X297Y2907D01*
X298Y2908D01*
X298Y2909D01*
X299Y2910D01*
X300Y2911D01*
X300Y2912D01*
X301Y2913D01*
X302Y2914D01*
X302Y2915D01*
X303Y2916D01*
X303Y2917D01*
X304Y2918D01*
X305Y2919D01*
X305Y2920D01*
X306Y2921D01*
X307Y2922D01*
X307Y2923D01*
X308Y2924D01*
X309Y2925D01*
X309Y2926D01*
X310Y2927D01*
X311Y2928D01*
X311Y2929D01*
X312Y2930D01*
X312Y2931D01*
X313Y2932D01*
X314Y2933D01*
X314Y2934D01*
X315Y2935D01*
X316Y2936D01*
X316Y2937D01*
X317Y2938D01*
X318Y2939D01*
X318Y2940D01*
X319Y2941D01*
X320Y2942D01*
X320Y2943D01*
X321Y2944D01*
X322Y2945D01*
X322Y2946D01*
X323Y2947D01*
X324Y2948D01*
X324Y2949D01*
X325Y2950D01*
X326Y2951D01*
X326Y2952D01*
X327Y2953D01*
X328Y2954D01*
X328Y2955D01*
X329Y2956D01*
X330Y2957D01*
X330Y2958D01*
X331Y2959D01*
X332Y2960D01*
X332Y2961D01*
X333Y2962D01*
X334Y2963D01*
X334Y2964D01*
X335Y2965D01*
X336Y2966D01*
X336Y2967D01*
X337Y2968D01*
X338Y2969D01*
X338Y2970D01*
X339Y2971D01*
X340Y2972D01*
X340Y2973D01*
X341Y2974D01*
X342Y2975D01*
X343Y2976D01*
X343Y2977D01*
X344Y2978D01*
X345Y2979D01*
X345Y2980D01*
X346Y2981D01*
X347Y2982D01*
X348Y2983D01*
X348Y2984D01*
X349Y2985D01*
X350Y2986D01*
X350Y2987D01*
X351Y2988D01*
X352Y2989D01*
X352Y2990D01*
X353Y2991D01*
X354Y2992D01*
X355Y2993D01*
X355Y2994D01*
X356Y2995D01*
X357Y2996D01*
X357Y2997D01*
X358Y2998D01*
X359Y2999D01*
X360Y3000D01*
X360Y3001D01*
X361Y3002D01*
X362Y3003D01*
X362Y3004D01*
X363Y3005D01*
X364Y3006D01*
X364Y3007D01*
X365Y3008D01*
X366Y3009D01*
X367Y3010D01*
X367Y3011D01*
X368Y3012D01*
X369Y3013D01*
X370Y3014D01*
X370Y3015D01*
X371Y3016D01*
X372Y3017D01*
X373Y3018D01*
X373Y3019D01*
X374Y3020D01*
X375Y3021D01*
X376Y3022D01*
X376Y3023D01*
X377Y3024D01*
X378Y3025D01*
X379Y3026D01*
X379Y3027D01*
X380Y3028D01*
X381Y3029D01*
X381Y3030D01*
X382Y3031D01*
X383Y3032D01*
X384Y3033D01*
X384Y3034D01*
X385Y3035D01*
X386Y3036D01*
X387Y3037D01*
X387Y3038D01*
X388Y3039D01*
X389Y3040D01*
X390Y3041D01*
X390Y3042D01*
X391Y3043D01*
X392Y3044D01*
X393Y3045D01*
X393Y3046D01*
X394Y3047D01*
X395Y3048D01*
X396Y3049D01*
X397Y3050D01*
X397Y3051D01*
X398Y3052D01*
X399Y3053D01*
X400Y3054D01*
X400Y3055D01*
X401Y3056D01*
X402Y3057D01*
X403Y3058D01*
X404Y3059D01*
X404Y3060D01*
X405Y3061D01*
X406Y3062D01*
X407Y3063D01*
X407Y3064D01*
X408Y3065D01*
X409Y3066D01*
X410Y3067D01*
X411Y3068D01*
X411Y3069D01*
X412Y3070D01*
X413Y3071D01*
X414Y3072D01*
X414Y3073D01*
X415Y3074D01*
X416Y3075D01*
X417Y3076D01*
X418Y3077D01*
X418Y3078D01*
X419Y3079D01*
X420Y3080D01*
X421Y3081D01*
X422Y3082D01*
X423Y3083D01*
X423Y3084D01*
X424Y3085D01*
X425Y3086D01*
X426Y3087D01*
X427Y3088D01*
X427Y3089D01*
X428Y3090D01*
X429Y3091D01*
X430Y3092D01*
X431Y3093D01*
X431Y3094D01*
X432Y3095D01*
X433Y3096D01*
X434Y3097D01*
X435Y3098D01*
X436Y3099D01*
X436Y3100D01*
X437Y3101D01*
X438Y3102D01*
X439Y3103D01*
X440Y3104D01*
X440Y3105D01*
X441Y3106D01*
X442Y3107D01*
X443Y3108D01*
X444Y3109D01*
X445Y3110D01*
X445Y3111D01*
X446Y3112D01*
X447Y3113D01*
X448Y3114D01*
X449Y3115D01*
X450Y3116D01*
X451Y3117D01*
X451Y3118D01*
X452Y3119D01*
X453Y3120D01*
X454Y3121D01*
X455Y3122D01*
X456Y3123D01*
X457Y3124D01*
X457Y3125D01*
X458Y3126D01*
X459Y3127D01*
X460Y3128D01*
X461Y3129D01*
X462Y3130D01*
X463Y3131D01*
X463Y3132D01*
X464Y3133D01*
X465Y3134D01*
X466Y3135D01*
X467Y3136D01*
X468Y3137D01*
X469Y3138D01*
X469Y3139D01*
X470Y3140D01*
X471Y3141D01*
X472Y3142D01*
X473Y3143D01*
X474Y3144D01*
X475Y3145D01*
X476Y3146D01*
X476Y3147D01*
X477Y3148D01*
X478Y3149D01*
X479Y3150D01*
X480Y3151D01*
X481Y3152D01*
X482Y3153D01*
X483Y3154D01*
X484Y3155D01*
X485Y3156D01*
X485Y3157D01*
X486Y3158D01*
X487Y3159D01*
X488Y3160D01*
X489Y3161D01*
X490Y3162D01*
X491Y3163D01*
X492Y3164D01*
X493Y3165D01*
X494Y3166D01*
X494Y3167D01*
X495Y3168D01*
X496Y3169D01*
X497Y3170D01*
X498Y3171D01*
X499Y3172D01*
X500Y3173D01*
X501Y3174D01*
X502Y3175D01*
X503Y3176D01*
X504Y3177D01*
X504Y3178D01*
X505Y3179D01*
X506Y3180D01*
X507Y3181D01*
X508Y3182D01*
X509Y3183D01*
X510Y3184D01*
X511Y3185D01*
X512Y3186D01*
X513Y3187D01*
X514Y3188D01*
X515Y3189D01*
X516Y3190D01*
X517Y3191D01*
X518Y3192D01*
X519Y3193D01*
X520Y3194D01*
X520Y3195D01*
X521Y3196D01*
X522Y3197D01*
X523Y3198D01*
X524Y3199D01*
X525Y3200D01*
X526Y3201D01*
X527Y3202D01*
X528Y3203D01*
X529Y3204D01*
X530Y3205D01*
X531Y3206D01*
X532Y3207D01*
X533Y3208D01*
X534Y3209D01*
X535Y3210D01*
X536Y3211D01*
X537Y3212D01*
X538Y3213D01*
X539Y3214D01*
X540Y3215D01*
X541Y3216D01*
X542Y3217D01*
X543Y3218D01*
X544Y3219D01*
X545Y3220D01*
X546Y3221D01*
X547Y3222D01*
X548Y3223D01*
X549Y3224D01*
X550Y3225D01*
X551Y3226D01*
X552Y3227D01*
X553Y3228D01*
X554Y3229D01*
X555Y3230D01*
X556Y3231D01*
X557Y3232D01*
X558Y3233D01*
X559Y3234D01*
X560Y3235D01*
X561Y3236D01*
X562Y3237D01*
X563Y3238D01*
X564Y3239D01*
X565Y3240D01*
X566Y3241D01*
X567Y3242D01*
X568Y3243D01*
X569Y3244D01*
X570Y3245D01*
X571Y3246D01*
X572Y3247D01*
X573Y3248D01*
X574Y3249D01*
X575Y3250D01*
X576Y3251D01*
X577Y3252D01*
X578Y3253D01*
X579Y3254D01*
X580Y3255D01*
X581Y3256D01*
X582Y3257D01*
X583Y3258D01*
X584Y3259D01*
X585Y3260D01*
X586Y3261D01*
X587Y3261D01*
X588Y3262D01*
X589Y3263D01*
X590Y3264D01*
X591Y3265D01*
X592Y3266D01*
X593Y3267D01*
X594Y3268D01*
X595Y3269D01*
X596Y3270D01*
X597Y3271D01*
X598Y3272D01*
X599Y3273D01*
X600Y3274D01*
X601Y3275D01*
X602Y3275D01*
X603Y3276D01*
X604Y3277D01*
X605Y3278D01*
X606Y3279D01*
X607Y3280D01*
X608Y3281D01*
X609Y3282D01*
X610Y3283D01*
X611Y3284D01*
X612Y3285D01*
X613Y3286D01*
X614Y3286D01*
X615Y3287D01*
X616Y3288D01*
X617Y3289D01*
X618Y3290D01*
X619Y3291D01*
X620Y3292D01*
X621Y3293D01*
X622Y3294D01*
X623Y3295D01*
X624Y3296D01*
X625Y3296D01*
X626Y3297D01*
X627Y3298D01*
X628Y3299D01*
X629Y3300D01*
X630Y3301D01*
X631Y3302D01*
X632Y3303D01*
X633Y3303D01*
X634Y3304D01*
X635Y3305D01*
X636Y3306D01*
X637Y3307D01*
X638Y3308D01*
X639Y3309D01*
X640Y3310D01*
X641Y3310D01*
X642Y3311D01*
X643Y3312D01*
X644Y3313D01*
X645Y3314D01*
X646Y3315D01*
X647Y3316D01*
X648Y3317D01*
X649Y3317D01*
X650Y3318D01*
X651Y3319D01*
X652Y3320D01*
X653Y3321D01*
X654Y3322D01*
X655Y3323D01*
X656Y3323D01*
X657Y3324D01*
X658Y3325D01*
X659Y3326D01*
X660Y3327D01*
X661Y3328D01*
X662Y3328D01*
X663Y3329D01*
X664Y3330D01*
X665Y3331D01*
X666Y3332D01*
X667Y3333D01*
X668Y3333D01*
X669Y3334D01*
X670Y3335D01*
X671Y3336D01*
X672Y3337D01*
X673Y3338D01*
X674Y3338D01*
X675Y3339D01*
X676Y3340D01*
X677Y3341D01*
X678Y3342D01*
X679Y3343D01*
X680Y3343D01*
X681Y3344D01*
X682Y3345D01*
X683Y3346D01*
X684Y3347D01*
X685Y3348D01*
X686Y3348D01*
X687Y3349D01*
X688Y3350D01*
X689Y3351D01*
X690Y3352D01*
X691Y3352D01*
X692Y3353D01*
X693Y3354D01*
X694Y3355D01*
X695Y3356D01*
X696Y3356D01*
X697Y3357D01*
X698Y3358D01*
X699Y3359D01*
X700Y3360D01*
X701Y3360D01*
X702Y3361D01*
X703Y3362D01*
X704Y3363D01*
X705Y3364D01*
X706Y3364D01*
X707Y3365D01*
X708Y3366D01*
X709Y3367D01*
X710Y3367D01*
X711Y3368D01*
X712Y3369D01*
X713Y3370D01*
X714Y3371D01*
X715Y3371D01*
X716Y3372D01*
X717Y3373D01*
X718Y3374D01*
X719Y3375D01*
X720Y3375D01*
X721Y3376D01*
X722Y3377D01*
X723Y3378D01*
X724Y3378D01*
X725Y3379D01*
X726Y3380D01*
X727Y3381D01*
X728Y3381D01*
X729Y3382D01*
X730Y3383D01*
X731Y3384D01*
X732Y3384D01*
X733Y3385D01*
X734Y3386D01*
X735Y3387D01*
X736Y3387D01*
X737Y3388D01*
X738Y3389D01*
X739Y3390D01*
X740Y3390D01*
X741Y3391D01*
X742Y3392D01*
X743Y3393D01*
X744Y3393D01*
X745Y3394D01*
X746Y3395D01*
X747Y3396D01*
X748Y3396D01*
X749Y3397D01*
X750Y3398D01*
X751Y3399D01*
X752Y3399D01*
X753Y3400D01*
X754Y3401D01*
X755Y3402D01*
X756Y3402D01*
X757Y3403D01*
X758Y3404D01*
X759Y3405D01*
X760Y3405D01*
X761Y3406D01*
X762Y3407D01*
X763Y3407D01*
X764Y3408D01*
X765Y3409D01*
X766Y3410D01*
X767Y3410D01*
X768Y3411D01*
X769Y3412D01*
X770Y3413D01*
X771Y3413D01*
X772Y3414D01*
X773Y3415D01*
X774Y3415D01*
X775Y3416D01*
X776Y3417D01*
X777Y3418D01*
X778Y3418D01*
X779Y3419D01*
X780Y3420D01*
X781Y3420D01*
X782Y3421D01*
X783Y3422D01*
X784Y3422D01*
X785Y3423D01*
X786Y3424D01*
X787Y3425D01*
X788Y3425D01*
X789Y3426D01*
X790Y3427D01*
X791Y3427D01*
X792Y3428D01*
X793Y3429D01*
X794Y3429D01*
X795Y3430D01*
X796Y3431D01*
X797Y3431D01*
X798Y3432D01*
X799Y3433D01*
X800Y3434D01*
X801Y3434D01*
X802Y3435D01*
X803Y3436D01*
X804Y3436D01*
X805Y3437D01*
X806Y3438D01*
X807Y3438D01*
X808Y3439D01*
X809Y3440D01*
X810Y3440D01*
X811Y3441D01*
X812Y3442D01*
X813Y3442D01*
X814Y3443D01*
X815Y3444D01*
X816Y3444D01*
X817Y3445D01*
X818Y3446D01*
X819Y3446D01*
X820Y3447D01*
X821Y3448D01*
X822Y3448D01*
X823Y3449D01*
X824Y3450D01*
X825Y3450D01*
X826Y3451D01*
X827Y3452D01*
X828Y3452D01*
X829Y3453D01*
X830Y3454D01*
X831Y3454D01*
X832Y3455D01*
X833Y3456D01*
X834Y3456D01*
X835Y3457D01*
X836Y3457D01*
X837Y3458D01*
X838Y3459D01*
X839Y3459D01*
X840Y3460D01*
X841Y3461D01*
X842Y3461D01*
X843Y3462D01*
X844Y3463D01*
X845Y3463D01*
X846Y3464D01*
X847Y3465D01*
X848Y3465D01*
X849Y3466D01*
X850Y3466D01*
X851Y3467D01*
X852Y3468D01*
X853Y3468D01*
X854Y3469D01*
X855Y3470D01*
X856Y3470D01*
X857Y3471D01*
X858Y3471D01*
X859Y3472D01*
X860Y3473D01*
X861Y3473D01*
X862Y3474D01*
X863Y3475D01*
X864Y3475D01*
X865Y3476D01*
X866Y3476D01*
X867Y3477D01*
X868Y3478D01*
X869Y3478D01*
X870Y3479D01*
X871Y3479D01*
X872Y3480D01*
X873Y3481D01*
X874Y3481D01*
X875Y3482D01*
X876Y3483D01*
X877Y3483D01*
X878Y3484D01*
X879Y3484D01*
X880Y3485D01*
X881Y3486D01*
X882Y3486D01*
X883Y3487D01*
X884Y3487D01*
X885Y3488D01*
X886Y3489D01*
X887Y3489D01*
X888Y3490D01*
X889Y3490D01*
X890Y3491D01*
X891Y3492D01*
X892Y3492D01*
X893Y3493D01*
X894Y3493D01*
X895Y3494D01*
X896Y3495D01*
X897Y3495D01*
X898Y3496D01*
X899Y3496D01*
X900Y3497D01*
X901Y3497D01*
X902Y3498D01*
X903Y3499D01*
X904Y3499D01*
X905Y3500D01*
X906Y3500D01*
X907Y3501D01*
X908Y3502D01*
X909Y3502D01*
X910Y3503D01*
X911Y3503D01*
X912Y3504D01*
X913Y3504D01*
X914Y3505D01*
X915Y3506D01*
X916Y3506D01*
X917Y3507D01*
X918Y3507D01*
X919Y3508D01*
X920Y3508D01*
X921Y3509D01*
X922Y3510D01*
X923Y3510D01*
X924Y3511D01*
X925Y3511D01*
X926Y3512D01*
X927Y3512D01*
X928Y3513D01*
X929Y3513D01*
X930Y3514D01*
X931Y3515D01*
X932Y3515D01*
X933Y3516D01*
X934Y3516D01*
X935Y3517D01*
X936Y3517D01*
X937Y3518D01*
X938Y3518D01*
X939Y3519D01*
X940Y3520D01*
X941Y3520D01*
X942Y3521D01*
X943Y3521D01*
X944Y3522D01*
X945Y3522D01*
X946Y3523D01*
X947Y3523D01*
X948Y3524D01*
X949Y3524D01*
X950Y3525D01*
X951Y3526D01*
X952Y3526D01*
X953Y3527D01*
X954Y3527D01*
X955Y3528D01*
X956Y3528D01*
X957Y3529D01*
X958Y3529D01*
X959Y3530D01*
X960Y3530D01*
X961Y3531D01*
X962Y3531D01*
X963Y3532D01*
X964Y3532D01*
X965Y3533D01*
X966Y3534D01*
X967Y3534D01*
X968Y3535D01*
X969Y3535D01*
X970Y3536D01*
X971Y3536D01*
X972Y3537D01*
X973Y3537D01*
X974Y3538D01*
X975Y3538D01*
X976Y3539D01*
X977Y3539D01*
X978Y3540D01*
X979Y3540D01*
X980Y3541D01*
X981Y3541D01*
X982Y3542D01*
X983Y3542D01*
X984Y3543D01*
X985Y3543D01*
X986Y3544D01*
X987Y3544D01*
X988Y3545D01*
X989Y3545D01*
X990Y3546D01*
X991Y3546D01*
X992Y3547D01*
X993Y3547D01*
X994Y3548D01*
X995Y3548D01*
X996Y3549D01*
X997Y3549D01*
X998Y3550D01*
X999Y3550D01*
X1000Y3551D01*
X1001Y3551D01*
X1002Y3552D01*
X1003Y3552D01*
X1004Y3553D01*
X1005Y3553D01*
X1006Y3554D01*
X1007Y3554D01*
X1008Y3555D01*
X1009Y3555D01*
X1010Y3556D01*
X1011Y3556D01*
X1012Y3557D01*
X1013Y3557D01*
X1014Y3558D01*
X1015Y3558D01*
X1016Y3559D01*
X1017Y3559D01*
X1018Y3560D01*
X1019Y3560D01*
X1020Y3561D01*
X1021Y3561D01*
X1022Y3562D01*
X1023Y3562D01*
X1024Y3563D01*
X1025Y3563D01*
X1026Y3564D01*
X1027Y3564D01*
X1028Y3564D01*
X1029Y3565D01*
X1030Y3565D01*
X1031Y3566D01*
X1032Y3566D01*
X1033Y3567D01*
X1034Y3567D01*
X1035Y3568D01*
X1036Y3568D01*
X1037Y3569D01*
X1038Y3569D01*
X1039Y3570D01*
X1040Y3570D01*
X1041Y3571D01*
X1042Y3571D01*
X1043Y3571D01*
X1044Y3572D01*
X1045Y3572D01*
X1046Y3573D01*
X1047Y3573D01*
X1048Y3574D01*
X1049Y3574D01*
X1050Y3575D01*
X1051Y3575D01*
X1052Y3576D01*
X1053Y3576D01*
X1054Y3576D01*
X1055Y3577D01*
X1056Y3577D01*
X1057Y3578D01*
X1058Y3578D01*
X1059Y3579D01*
X1060Y3579D01*
X1061Y3580D01*
X1062Y3580D01*
X1063Y3581D01*
X1064Y3581D01*
X1065Y3581D01*
X1066Y3582D01*
X1067Y3582D01*
X1068Y3583D01*
X1069Y3583D01*
X1070Y3584D01*
X1071Y3584D01*
X1072Y3584D01*
X1073Y3585D01*
X1074Y3585D01*
X1075Y3586D01*
X1076Y3586D01*
X1077Y3587D01*
X1078Y3587D01*
X1079Y3587D01*
X1080Y3588D01*
X1081Y3588D01*
X1082Y3589D01*
X1083Y3589D01*
X1084Y3590D01*
X1085Y3590D01*
X1086Y3590D01*
X1087Y3591D01*
X1088Y3591D01*
X1089Y3592D01*
X1090Y3592D01*
X1091Y3593D01*
X1092Y3593D01*
X1093Y3593D01*
X1094Y3594D01*
X1095Y3594D01*
X1096Y3595D01*
X1097Y3595D01*
X1098Y3596D01*
X1099Y3596D01*
X1100Y3596D01*
X1101Y3597D01*
X1102Y3597D01*
X1103Y3598D01*
X1104Y3598D01*
X1105Y3598D01*
X1106Y3599D01*
X1107Y3599D01*
X1108Y3600D01*
X1109Y3600D01*
X1110Y3600D01*
X1111Y3601D01*
X1112Y3601D01*
X1113Y3602D01*
X1114Y3602D01*
X1115Y3602D01*
X1116Y3603D01*
X1117Y3603D01*
X1118Y3604D01*
X1119Y3604D01*
X1120Y3605D01*
X1121Y3605D01*
X1122Y3605D01*
X1123Y3606D01*
X1124Y3606D01*
X1125Y3606D01*
X1126Y3607D01*
X1127Y3607D01*
X1128Y3608D01*
X1129Y3608D01*
X1130Y3608D01*
X1131Y3609D01*
X1132Y3609D01*
X1133Y3610D01*
X1134Y3610D01*
X1135Y3610D01*
X1136Y3611D01*
X1137Y3611D01*
X1138Y3612D01*
X1139Y3612D01*
X1140Y3612D01*
X1141Y3613D01*
X1142Y3613D01*
X1143Y3613D01*
X1144Y3614D01*
X1145Y3614D01*
X1146Y3615D01*
X1147Y3615D01*
X1148Y3615D01*
X1149Y3616D01*
X1150Y3616D01*
X1151Y3616D01*
X1152Y3617D01*
X1153Y3617D01*
X1154Y3618D01*
X1155Y3618D01*
X1156Y3618D01*
X1157Y3619D01*
X1158Y3619D01*
X1159Y3620D01*
X1160Y3620D01*
X1161Y3620D01*
X1162Y3621D01*
X1163Y3621D01*
X1164Y3621D01*
X1165Y3622D01*
X1166Y3622D01*
X1167Y3622D01*
X1168Y3623D01*
X1169Y3623D01*
X1170Y3623D01*
X1171Y3624D01*
X1172Y3624D01*
X1173Y3625D01*
X1174Y3625D01*
X1175Y3625D01*
X1176Y3626D01*
X1177Y3626D01*
X1178Y3626D01*
X1179Y3627D01*
X1180Y3627D01*
X1181Y3627D01*
X1182Y3628D01*
X1183Y3628D01*
X1184Y3628D01*
X1185Y3629D01*
X1186Y3629D01*
X1187Y3630D01*
X1188Y3630D01*
X1189Y3630D01*
X1190Y3631D01*
X1191Y3631D01*
X1192Y3631D01*
X1193Y3632D01*
X1194Y3632D01*
X1195Y3632D01*
X1196Y3633D01*
X1197Y3633D01*
X1198Y3633D01*
X1199Y3634D01*
X1200Y3634D01*
X1201Y3634D01*
X1202Y3635D01*
X1203Y3635D01*
X1204Y3635D01*
X1205Y3636D01*
X1206Y3636D01*
X1207Y3636D01*
X1208Y3637D01*
X1209Y3637D01*
X1210Y3637D01*
X1211Y3638D01*
X1212Y3638D01*
X1213Y3638D01*
X1214Y3639D01*
X1215Y3639D01*
X1216Y3639D01*
X1217Y3640D01*
X1218Y3640D01*
X1219Y3640D01*
X1220Y3641D01*
X1221Y3641D01*
X1222Y3641D01*
X1223Y3642D01*
X1224Y3642D01*
X1225Y3642D01*
X1226Y3643D01*
X1227Y3643D01*
X1228Y3643D01*
X1229Y3644D01*
X1230Y3644D01*
X1231Y3644D01*
X1232Y3644D01*
X1233Y3645D01*
X1234Y3645D01*
X1235Y3645D01*
X1236Y3646D01*
X1237Y3646D01*
X1238Y3646D01*
X1239Y3647D01*
X1240Y3647D01*
X1241Y3647D01*
X1242Y3648D01*
X1243Y3648D01*
X1244Y3648D01*
X1245Y3649D01*
X1246Y3649D01*
X1247Y3649D01*
X1248Y3649D01*
X1249Y3650D01*
X1250Y3650D01*
X1251Y3650D01*
X1252Y3651D01*
X1253Y3651D01*
X1254Y3651D01*
X1255Y3652D01*
X1256Y3652D01*
X1257Y3652D01*
X1258Y3652D01*
X1259Y3653D01*
X1260Y3653D01*
X1261Y3653D01*
X1262Y3654D01*
X1263Y3654D01*
X1264Y3654D01*
X1265Y3655D01*
X1266Y3655D01*
X1267Y3655D01*
X1268Y3655D01*
X1269Y3656D01*
X1270Y3656D01*
X1271Y3656D01*
X1272Y3657D01*
X1273Y3657D01*
X1274Y3657D01*
X1275Y3657D01*
X1276Y3658D01*
X1277Y3658D01*
X1278Y3658D01*
X1279Y3659D01*
X1280Y3659D01*
X1281Y3659D01*
X1282Y3659D01*
X1283Y3660D01*
X1284Y3660D01*
X1285Y3660D01*
X1286Y3660D01*
X1287Y3661D01*
X1288Y3661D01*
X1289Y3661D01*
X1290Y3662D01*
X1291Y3662D01*
X1292Y3662D01*
X1293Y3662D01*
X1294Y3663D01*
X1295Y3663D01*
X1296Y3663D01*
X1297Y3663D01*
X1298Y3664D01*
X1299Y3664D01*
X1300Y3664D01*
X1301Y3665D01*
X1302Y3665D01*
X1303Y3665D01*
X1304Y3665D01*
X1305Y3666D01*
X1306Y3666D01*
X1307Y3666D01*
X1308Y3666D01*
X1309Y3667D01*
X1310Y3667D01*
X1311Y3667D01*
X1312Y3667D01*
X1313Y3668D01*
X1314Y3668D01*
X1315Y3668D01*
X1316Y3668D01*
X1317Y3669D01*
X1318Y3669D01*
X1319Y3669D01*
X1320Y3670D01*
X1321Y3670D01*
X1322Y3670D01*
X1323Y3670D01*
X1324Y3671D01*
X1325Y3671D01*
X1326Y3671D01*
X1327Y3671D01*
X1328Y3672D01*
X1329Y3672D01*
X1330Y3672D01*
X1331Y3672D01*
X1332Y3672D01*
X1333Y3673D01*
X1334Y3673D01*
X1335Y3673D01*
X1336Y3673D01*
X1337Y3674D01*
X1338Y3674D01*
X1339Y3674D01*
X1340Y3674D01*
X1341Y3675D01*
X1342Y3675D01*
X1343Y3675D01*
X1344Y3675D01*
X1345Y3676D01*
X1346Y3676D01*
X1347Y3676D01*
X1348Y3676D01*
X1349Y3677D01*
X1350Y3677D01*
X1351Y3677D01*
X1352Y3677D01*
X1353Y3677D01*
X1354Y3678D01*
X1355Y3678D01*
X1356Y3678D01*
X1357Y3678D01*
X1358Y3679D01*
X1359Y3679D01*
X1360Y3679D01*
X1361Y3679D01*
X1362Y3680D01*
X1363Y3680D01*
X1364Y3680D01*
X1365Y3680D01*
X1366Y3680D01*
X1367Y3681D01*
X1368Y3681D01*
X1369Y3681D01*
X1370Y3681D01*
X1371Y3682D01*
X1372Y3682D01*
X1373Y3682D01*
X1374Y3682D01*
X1375Y3682D01*
X1376Y3683D01*
X1377Y3683D01*
X1378Y3683D01*
X1379Y3683D01*
X1380Y3683D01*
X1381Y3684D01*
X1382Y3684D01*
X1383Y3684D01*
X1384Y3684D01*
X1385Y3685D01*
X1386Y3685D01*
X1387Y3685D01*
X1388Y3685D01*
X1389Y3685D01*
X1390Y3686D01*
X1391Y3686D01*
X1392Y3686D01*
X1393Y3686D01*
X1394Y3686D01*
X1395Y3687D01*
X1396Y3687D01*
X1397Y3687D01*
X1398Y3687D01*
X1399Y3687D01*
X1400Y3688D01*
X1401Y3688D01*
X1402Y3688D01*
X1403Y3688D01*
X1404Y3688D01*
X1405Y3689D01*
X1406Y3689D01*
X1407Y3689D01*
X1408Y3689D01*
X1409Y3689D01*
X1410Y3690D01*
X1411Y3690D01*
X1412Y3690D01*
X1413Y3690D01*
X1414Y3690D01*
X1415Y3690D01*
X1416Y3691D01*
X1417Y3691D01*
X1418Y3691D01*
X1419Y3691D01*
X1420Y3691D01*
X1421Y3692D01*
X1422Y3692D01*
X1423Y3692D01*
X1424Y3692D01*
X1425Y3692D01*
X1426Y3693D01*
X1427Y3693D01*
X1428Y3693D01*
X1429Y3693D01*
X1430Y3693D01*
X1431Y3693D01*
X1432Y3694D01*
X1433Y3694D01*
X1434Y3694D01*
X1435Y3694D01*
X1436Y3694D01*
X1437Y3694D01*
X1438Y3695D01*
X1439Y3695D01*
X1440Y3695D01*
X1441Y3695D01*
X1442Y3695D01*
X1443Y3696D01*
X1444Y3696D01*
X1445Y3696D01*
X1446Y3696D01*
X1447Y3696D01*
X1448Y3696D01*
X1449Y3697D01*
X1450Y3697D01*
X1451Y3697D01*
X1452Y3697D01*
X1453Y3697D01*
X1454Y3697D01*
X1455Y3698D01*
X1456Y3698D01*
X1457Y3698D01*
X1458Y3698D01*
X1459Y3698D01*
X1460Y3698D01*
X1461Y3698D01*
X1462Y3699D01*
X1463Y3699D01*
X1464Y3699D01*
X1465Y3699D01*
X1466Y3699D01*
X1467Y3699D01*
X1468Y3700D01*
X1469Y3700D01*
X1470Y3700D01*
X1471Y3700D01*
X1472Y3700D01*
X1473Y3700D01*
X1474Y3700D01*
X1475Y3701D01*
X1476Y3701D01*
X1477Y3701D01*
X1478Y3701D01*
X1479Y3701D01*
X1480Y3701D01*
X1481Y3701D01*
X1482Y3702D01*
X1483Y3702D01*
X1484Y3702D01*
X1485Y3702D01*
X1486Y3702D01*
X1487Y3702D01*
X1488Y3703D01*
X1489Y3703D01*
X1490Y3703D01*
X1491Y3703D01*
X1492Y3703D01*
X1493Y3703D01*
X1494Y3703D01*
X1495Y3703D01*
X1496Y3704D01*
X1497Y3704D01*
X1498Y3704D01*
X1499Y3704D01*
X1500Y3704D01*
X1501Y3704D01*
X1502Y3704D01*
X1503Y3705D01*
X1504Y3705D01*
X1505Y3705D01*
X1506Y3705D01*
X1507Y3705D01*
X1508Y3705D01*
X1509Y3705D01*
X1510Y3705D01*
X1511Y3706D01*
X1512Y3706D01*
X1513Y3706D01*
X1514Y3706D01*
X1515Y3706D01*
X1516Y3706D01*
X1517Y3706D01*
X1518Y3706D01*
X1519Y3707D01*
X1520Y3707D01*
X1521Y3707D01*
X1522Y3707D01*
X1523Y3707D01*
X1524Y3707D01*
X1525Y3707D01*
X1526Y3707D01*
X1527Y3707D01*
X1528Y3708D01*
X1529Y3708D01*
X1530Y3708D01*
X1531Y3708D01*
X1532Y3708D01*
X1533Y3708D01*
X1534Y3708D01*
X1535Y3708D01*
X1536Y3709D01*
X1537Y3709D01*
X1538Y3709D01*
X1539Y3709D01*
X1540Y3709D01*
X1541Y3709D01*
X1542Y3709D01*
X1543Y3709D01*
X1544Y3709D01*
X1545Y3709D01*
X1546Y3710D01*
X1547Y3710D01*
X1548Y3710D01*
X1549Y3710D01*
X1550Y3710D01*
X1551Y3710D01*
X1552Y3710D01*
X1553Y3710D01*
X1554Y3710D01*
X1555Y3710D01*
X1556Y3711D01*
X1557Y3711D01*
X1558Y3711D01*
X1559Y3711D01*
X1560Y3711D01*
X1561Y3711D01*
X1562Y3711D01*
X1563Y3711D01*
X1564Y3711D01*
X1565Y3711D01*
X1566Y3712D01*
X1567Y3712D01*
X1568Y3712D01*
X1569Y3712D01*
X1570Y3712D01*
X1571Y3712D01*
X1572Y3712D01*
X1573Y3712D01*
X1574Y3712D01*
X1575Y3712D01*
X1576Y3712D01*
X1577Y3712D01*
X1578Y3713D01*
X1579Y3713D01*
X1580Y3713D01*
X1581Y3713D01*
X1582Y3713D01*
X1583Y3713D01*
X1584Y3713D01*
X1585Y3713D01*
X1586Y3713D01*
X1587Y3713D01*
X1588Y3713D01*
X1589Y3713D01*
X1590Y3713D01*
X1591Y3714D01*
X1592Y3714D01*
X1593Y3714D01*
X1594Y3714D01*
X1595Y3714D01*
X1596Y3714D01*
X1597Y3714D01*
X1598Y3714D01*
X1599Y3714D01*
X1600Y3714D01*
X1601Y3714D01*
X1602Y3714D01*
X1603Y3714D01*
X1604Y3714D01*
X1605Y3715D01*
X1606Y3715D01*
X1607Y3715D01*
X1608Y3715D01*
X1609Y3715D01*
X1610Y3715D01*
X1611Y3715D01*
X1612Y3715D01*
X1613Y3715D01*
X1614Y3715D01*
X1615Y3715D01*
X1616Y3715D01*
X1617Y3715D01*
X1618Y3715D01*
X1619Y3715D01*
X1620Y3715D01*
X1621Y3716D01*
X1622Y3716D01*
X1623Y3716D01*
X1624Y3716D01*
X1625Y3716D01*
X1626Y3716D01*
X1627Y3716D01*
X1628Y3716D01*
X1629Y3716D01*
X1630Y3716D01*
X1631Y3716D01*
X1632Y3716D01*
X1633Y3716D01*
X1634Y3716D01*
X1635Y3716D01*
X1636Y3716D01*
X1637Y3716D01*
X1638Y3716D01*
X1639Y3716D01*
X1640Y3716D01*
X1641Y3717D01*
X1642Y3717D01*
X1643Y3717D01*
X1644Y3717D01*
X1645Y3717D01*
X1646Y3717D01*
X1647Y3717D01*
X1648Y3717D01*
X1649Y3717D01*
X1650Y3717D01*
X1651Y3717D01*
X1652Y3717D01*
X1653Y3717D01*
X1654Y3717D01*
X1655Y3717D01*
X1656Y3717D01*
X1657Y3717D01*
X1658Y3717D01*
X1659Y3717D01*
X1660Y3717D01*
X1661Y3717D01*
X1662Y3717D01*
X1663Y3717D01*
X1664Y3717D01*
X1665Y3717D01*
X1666Y3717D01*
X1667Y3717D01*
X1668Y3717D01*
X1669Y3717D01*
X1670Y3717D01*
X1671Y3718D01*
D02*
G04 End of contour*
M02*