G04 MADE WITH FRITZING*
G04 WWW.FRITZING.ORG*
G04 DOUBLE SIDED*
G04 HOLES PLATED*
G04 CONTOUR ON CENTER OF CONTOUR VECTOR*
%ASAXBY*%
%FSLAX23Y23*%
%MOIN*%
%OFA0B0*%
%SFA1.0B1.0*%
%ADD10C,0.088000*%
%ADD11C,0.093307*%
%ADD12C,0.090000*%
%ADD13C,0.084000*%
%ADD14C,0.128110*%
%ADD15C,0.175354*%
%ADD16C,0.135984*%
%ADD17R,0.087986X0.087944*%
%ADD18R,0.093307X0.093307*%
%ADD19C,0.030000*%
%ADD20R,0.001000X0.001000*%
%LNMASK1*%
G90*
G70*
G54D10*
X1895Y2359D03*
X1794Y2359D03*
X1694Y2359D03*
X1594Y2359D03*
X2450Y1859D03*
X2450Y1759D03*
X2450Y1659D03*
X2450Y1559D03*
X2450Y1459D03*
X2450Y1359D03*
G54D11*
X1650Y2759D03*
X1788Y2759D03*
X1650Y2759D03*
X1788Y2759D03*
X1672Y3559D03*
X1810Y3559D03*
G54D12*
X1750Y559D03*
X1888Y559D03*
X1750Y559D03*
X1888Y559D03*
G54D13*
X2650Y3159D03*
X2704Y3067D03*
X2758Y2974D03*
X2650Y3159D03*
X2704Y3067D03*
X2758Y2974D03*
G54D10*
X3250Y1759D03*
X3250Y1659D03*
X3250Y1559D03*
X3250Y1459D03*
X3250Y1759D03*
X3250Y1659D03*
X3250Y1559D03*
X3250Y1459D03*
X650Y2459D03*
X650Y2359D03*
X650Y2259D03*
X650Y2459D03*
X650Y2359D03*
X650Y2259D03*
X850Y1859D03*
X850Y1759D03*
X850Y1659D03*
X2850Y2318D03*
X2850Y2218D03*
X850Y2859D03*
X810Y2768D03*
X950Y1459D03*
X950Y1359D03*
X950Y1259D03*
G54D14*
X650Y559D03*
X3050Y2759D03*
X550Y2959D03*
X2750Y559D03*
G54D15*
X250Y1359D03*
X150Y1759D03*
X250Y2359D03*
G54D14*
X1450Y3559D03*
X2250Y259D03*
G54D16*
X3050Y1759D03*
X3050Y1459D03*
X2750Y2159D03*
X2750Y2359D03*
G54D14*
X2050Y3559D03*
G54D11*
X3050Y2359D03*
X3050Y2221D03*
G54D17*
X1895Y2359D03*
G54D18*
X1650Y2759D03*
X1650Y2759D03*
X1672Y3559D03*
X3050Y2359D03*
G54D19*
G36*
X1720Y589D02*
X1780Y589D01*
X1780Y529D01*
X1720Y529D01*
X1720Y589D01*
G37*
D02*
G36*
X1720Y589D02*
X1780Y589D01*
X1780Y529D01*
X1720Y529D01*
X1720Y589D01*
G37*
D02*
G54D20*
X1286Y2002D02*
X1301Y2002D01*
X2287Y2002D02*
X2302Y2002D01*
X1282Y2001D02*
X1305Y2001D01*
X2283Y2001D02*
X2306Y2001D01*
X1279Y2000D02*
X1308Y2000D01*
X2280Y2000D02*
X2309Y2000D01*
X1276Y1999D02*
X1310Y1999D01*
X2278Y1999D02*
X2312Y1999D01*
X1274Y1998D02*
X1312Y1998D01*
X2276Y1998D02*
X2314Y1998D01*
X1273Y1997D02*
X1314Y1997D01*
X2274Y1997D02*
X2315Y1997D01*
X1271Y1996D02*
X1316Y1996D01*
X2272Y1996D02*
X2317Y1996D01*
X1270Y1995D02*
X1317Y1995D01*
X2271Y1995D02*
X2318Y1995D01*
X1268Y1994D02*
X1318Y1994D01*
X2269Y1994D02*
X2320Y1994D01*
X1267Y1993D02*
X1320Y1993D01*
X2268Y1993D02*
X2321Y1993D01*
X1266Y1992D02*
X1321Y1992D01*
X2267Y1992D02*
X2322Y1992D01*
X1265Y1991D02*
X1322Y1991D01*
X2266Y1991D02*
X2323Y1991D01*
X1264Y1990D02*
X1323Y1990D01*
X2265Y1990D02*
X2324Y1990D01*
X1263Y1989D02*
X1324Y1989D01*
X2264Y1989D02*
X2325Y1989D01*
X1262Y1988D02*
X1325Y1988D01*
X2263Y1988D02*
X2326Y1988D01*
X1261Y1987D02*
X1326Y1987D01*
X2262Y1987D02*
X2327Y1987D01*
X1260Y1986D02*
X1326Y1986D01*
X2262Y1986D02*
X2328Y1986D01*
X1260Y1985D02*
X1327Y1985D01*
X2261Y1985D02*
X2328Y1985D01*
X1259Y1984D02*
X1328Y1984D01*
X2260Y1984D02*
X2329Y1984D01*
X1258Y1983D02*
X1328Y1983D01*
X2259Y1983D02*
X2330Y1983D01*
X1258Y1982D02*
X1329Y1982D01*
X2259Y1982D02*
X2330Y1982D01*
X1257Y1981D02*
X1330Y1981D01*
X2258Y1981D02*
X2331Y1981D01*
X1256Y1980D02*
X1330Y1980D01*
X2258Y1980D02*
X2331Y1980D01*
X1256Y1979D02*
X1331Y1979D01*
X2257Y1979D02*
X2332Y1979D01*
X1255Y1978D02*
X1331Y1978D01*
X2257Y1978D02*
X2332Y1978D01*
X1255Y1977D02*
X1332Y1977D01*
X2256Y1977D02*
X2333Y1977D01*
X1255Y1976D02*
X1332Y1976D01*
X2256Y1976D02*
X2333Y1976D01*
X1254Y1975D02*
X1332Y1975D01*
X2256Y1975D02*
X2334Y1975D01*
X1254Y1974D02*
X1333Y1974D01*
X2255Y1974D02*
X2334Y1974D01*
X1254Y1973D02*
X1333Y1973D01*
X2255Y1973D02*
X2334Y1973D01*
X1253Y1972D02*
X1333Y1972D01*
X2255Y1972D02*
X2335Y1972D01*
X1253Y1971D02*
X1333Y1971D01*
X2254Y1971D02*
X2335Y1971D01*
X1253Y1970D02*
X1334Y1970D01*
X2254Y1970D02*
X2335Y1970D01*
X1253Y1969D02*
X1334Y1969D01*
X2254Y1969D02*
X2335Y1969D01*
X1252Y1968D02*
X1334Y1968D01*
X2254Y1968D02*
X2335Y1968D01*
X1252Y1967D02*
X1334Y1967D01*
X2254Y1967D02*
X2336Y1967D01*
X1252Y1966D02*
X1334Y1966D01*
X2253Y1966D02*
X2336Y1966D01*
X1252Y1965D02*
X1335Y1965D01*
X2253Y1965D02*
X2336Y1965D01*
X1252Y1964D02*
X1335Y1964D01*
X2253Y1964D02*
X2336Y1964D01*
X1252Y1963D02*
X1335Y1963D01*
X2253Y1963D02*
X2336Y1963D01*
X1252Y1962D02*
X1335Y1962D01*
X2253Y1962D02*
X2336Y1962D01*
X1252Y1961D02*
X1335Y1961D01*
X2253Y1961D02*
X2336Y1961D01*
X1252Y1960D02*
X1335Y1960D01*
X2253Y1960D02*
X2336Y1960D01*
X1252Y1959D02*
X1335Y1959D01*
X2253Y1959D02*
X2336Y1959D01*
X1252Y1958D02*
X1335Y1958D01*
X2253Y1958D02*
X2336Y1958D01*
X1252Y1957D02*
X1335Y1957D01*
X2253Y1957D02*
X2336Y1957D01*
X1252Y1956D02*
X1334Y1956D01*
X2253Y1956D02*
X2336Y1956D01*
X1252Y1955D02*
X1334Y1955D01*
X2254Y1955D02*
X2336Y1955D01*
X1252Y1954D02*
X1334Y1954D01*
X2254Y1954D02*
X2335Y1954D01*
X1253Y1953D02*
X1334Y1953D01*
X2254Y1953D02*
X2335Y1953D01*
X1253Y1952D02*
X1334Y1952D01*
X2254Y1952D02*
X2335Y1952D01*
X1253Y1951D02*
X1334Y1951D01*
X2254Y1951D02*
X2335Y1951D01*
X1253Y1950D02*
X1333Y1950D01*
X2255Y1950D02*
X2335Y1950D01*
X1254Y1949D02*
X1333Y1949D01*
X2255Y1949D02*
X2334Y1949D01*
X1254Y1948D02*
X1333Y1948D01*
X2255Y1948D02*
X2334Y1948D01*
X1254Y1947D02*
X1332Y1947D01*
X2255Y1947D02*
X2334Y1947D01*
X1254Y1946D02*
X1332Y1946D01*
X2256Y1946D02*
X2333Y1946D01*
X1255Y1945D02*
X1332Y1945D01*
X2256Y1945D02*
X2333Y1945D01*
X1255Y1944D02*
X1331Y1944D01*
X2257Y1944D02*
X2333Y1944D01*
X1256Y1943D02*
X1331Y1943D01*
X2257Y1943D02*
X2332Y1943D01*
X1256Y1942D02*
X1330Y1942D01*
X2258Y1942D02*
X2332Y1942D01*
X1257Y1941D02*
X1330Y1941D01*
X2258Y1941D02*
X2331Y1941D01*
X1257Y1940D02*
X1329Y1940D01*
X2259Y1940D02*
X2331Y1940D01*
X1258Y1939D02*
X1329Y1939D01*
X2259Y1939D02*
X2330Y1939D01*
X1259Y1938D02*
X1328Y1938D01*
X2260Y1938D02*
X2329Y1938D01*
X1259Y1937D02*
X1327Y1937D01*
X2261Y1937D02*
X2329Y1937D01*
X1260Y1936D02*
X1327Y1936D01*
X2261Y1936D02*
X2328Y1936D01*
X1261Y1935D02*
X1326Y1935D01*
X2262Y1935D02*
X2327Y1935D01*
X1261Y1934D02*
X1325Y1934D01*
X2263Y1934D02*
X2326Y1934D01*
X1262Y1933D02*
X1324Y1933D01*
X2264Y1933D02*
X2326Y1933D01*
X1263Y1932D02*
X1323Y1932D01*
X2265Y1932D02*
X2325Y1932D01*
X1264Y1931D02*
X1322Y1931D01*
X2265Y1931D02*
X2324Y1931D01*
X1265Y1930D02*
X1321Y1930D01*
X2267Y1930D02*
X2323Y1930D01*
X1266Y1929D02*
X1320Y1929D01*
X2268Y1929D02*
X2322Y1929D01*
X1268Y1928D02*
X1319Y1928D01*
X2269Y1928D02*
X2320Y1928D01*
X1269Y1927D02*
X1318Y1927D01*
X2270Y1927D02*
X2319Y1927D01*
X1270Y1926D02*
X1316Y1926D01*
X2272Y1926D02*
X2318Y1926D01*
X1272Y1925D02*
X1315Y1925D01*
X2273Y1925D02*
X2316Y1925D01*
X1274Y1924D02*
X1313Y1924D01*
X2275Y1924D02*
X2314Y1924D01*
X1275Y1923D02*
X1311Y1923D01*
X2277Y1923D02*
X2312Y1923D01*
X1278Y1922D02*
X1309Y1922D01*
X2279Y1922D02*
X2310Y1922D01*
X1280Y1921D02*
X1306Y1921D01*
X2282Y1921D02*
X2307Y1921D01*
X1284Y1920D02*
X1303Y1920D01*
X2285Y1920D02*
X2304Y1920D01*
X1290Y1919D02*
X1297Y1919D01*
X2291Y1919D02*
X2298Y1919D01*
X1287Y1902D02*
X1300Y1902D01*
X2288Y1902D02*
X2301Y1902D01*
X1282Y1901D02*
X1304Y1901D01*
X2283Y1901D02*
X2306Y1901D01*
X1279Y1900D02*
X1308Y1900D01*
X2280Y1900D02*
X2309Y1900D01*
X1277Y1899D02*
X1310Y1899D01*
X2278Y1899D02*
X2311Y1899D01*
X1275Y1898D02*
X1312Y1898D01*
X2276Y1898D02*
X2313Y1898D01*
X1273Y1897D02*
X1314Y1897D01*
X2274Y1897D02*
X2315Y1897D01*
X1271Y1896D02*
X1315Y1896D01*
X2272Y1896D02*
X2317Y1896D01*
X1270Y1895D02*
X1317Y1895D01*
X2271Y1895D02*
X2318Y1895D01*
X1268Y1894D02*
X1318Y1894D01*
X2270Y1894D02*
X2320Y1894D01*
X1267Y1893D02*
X1320Y1893D01*
X2268Y1893D02*
X2321Y1893D01*
X1266Y1892D02*
X1321Y1892D01*
X2267Y1892D02*
X2322Y1892D01*
X1265Y1891D02*
X1322Y1891D01*
X2266Y1891D02*
X2323Y1891D01*
X1264Y1890D02*
X1323Y1890D01*
X2265Y1890D02*
X2324Y1890D01*
X1263Y1889D02*
X1324Y1889D01*
X2264Y1889D02*
X2325Y1889D01*
X1262Y1888D02*
X1325Y1888D01*
X2263Y1888D02*
X2326Y1888D01*
X1261Y1887D02*
X1326Y1887D01*
X2262Y1887D02*
X2327Y1887D01*
X1260Y1886D02*
X1326Y1886D01*
X2262Y1886D02*
X2328Y1886D01*
X1260Y1885D02*
X1327Y1885D01*
X2261Y1885D02*
X2328Y1885D01*
X1259Y1884D02*
X1328Y1884D01*
X2260Y1884D02*
X2329Y1884D01*
X1258Y1883D02*
X1328Y1883D01*
X2260Y1883D02*
X2330Y1883D01*
X1258Y1882D02*
X1329Y1882D01*
X2259Y1882D02*
X2330Y1882D01*
X1257Y1881D02*
X1330Y1881D01*
X2258Y1881D02*
X2331Y1881D01*
X1257Y1880D02*
X1330Y1880D01*
X2258Y1880D02*
X2331Y1880D01*
X1256Y1879D02*
X1331Y1879D01*
X2257Y1879D02*
X2332Y1879D01*
X1256Y1878D02*
X1331Y1878D01*
X2257Y1878D02*
X2332Y1878D01*
X1255Y1877D02*
X1332Y1877D01*
X2256Y1877D02*
X2333Y1877D01*
X1255Y1876D02*
X1332Y1876D01*
X2256Y1876D02*
X2333Y1876D01*
X1254Y1875D02*
X1332Y1875D01*
X2256Y1875D02*
X2334Y1875D01*
X1254Y1874D02*
X1333Y1874D01*
X2255Y1874D02*
X2334Y1874D01*
X1254Y1873D02*
X1333Y1873D01*
X2255Y1873D02*
X2334Y1873D01*
X1253Y1872D02*
X1333Y1872D01*
X2255Y1872D02*
X2334Y1872D01*
X1253Y1871D02*
X1333Y1871D01*
X2254Y1871D02*
X2335Y1871D01*
X1253Y1870D02*
X1334Y1870D01*
X2254Y1870D02*
X2335Y1870D01*
X1253Y1869D02*
X1334Y1869D01*
X2254Y1869D02*
X2335Y1869D01*
X1252Y1868D02*
X1334Y1868D01*
X2254Y1868D02*
X2335Y1868D01*
X1252Y1867D02*
X1334Y1867D01*
X2254Y1867D02*
X2336Y1867D01*
X1252Y1866D02*
X1334Y1866D01*
X2253Y1866D02*
X2336Y1866D01*
X1252Y1865D02*
X1335Y1865D01*
X2253Y1865D02*
X2336Y1865D01*
X1252Y1864D02*
X1335Y1864D01*
X2253Y1864D02*
X2336Y1864D01*
X1252Y1863D02*
X1335Y1863D01*
X2253Y1863D02*
X2336Y1863D01*
X1252Y1862D02*
X1335Y1862D01*
X2253Y1862D02*
X2336Y1862D01*
X1252Y1861D02*
X1335Y1861D01*
X2253Y1861D02*
X2336Y1861D01*
X1252Y1860D02*
X1335Y1860D01*
X2253Y1860D02*
X2336Y1860D01*
X1252Y1859D02*
X1335Y1859D01*
X2253Y1859D02*
X2336Y1859D01*
X1252Y1858D02*
X1335Y1858D01*
X2253Y1858D02*
X2336Y1858D01*
X1252Y1857D02*
X1335Y1857D01*
X2253Y1857D02*
X2336Y1857D01*
X1252Y1856D02*
X1335Y1856D01*
X2253Y1856D02*
X2336Y1856D01*
X1252Y1855D02*
X1334Y1855D01*
X2254Y1855D02*
X2336Y1855D01*
X1252Y1854D02*
X1334Y1854D01*
X2254Y1854D02*
X2335Y1854D01*
X1253Y1853D02*
X1334Y1853D01*
X2254Y1853D02*
X2335Y1853D01*
X1253Y1852D02*
X1334Y1852D01*
X2254Y1852D02*
X2335Y1852D01*
X1253Y1851D02*
X1334Y1851D01*
X2254Y1851D02*
X2335Y1851D01*
X1253Y1850D02*
X1333Y1850D01*
X2255Y1850D02*
X2335Y1850D01*
X1253Y1849D02*
X1333Y1849D01*
X2255Y1849D02*
X2334Y1849D01*
X1254Y1848D02*
X1333Y1848D01*
X2255Y1848D02*
X2334Y1848D01*
X1254Y1847D02*
X1332Y1847D01*
X2255Y1847D02*
X2334Y1847D01*
X1254Y1846D02*
X1332Y1846D01*
X2256Y1846D02*
X2333Y1846D01*
X1255Y1845D02*
X1332Y1845D01*
X2256Y1845D02*
X2333Y1845D01*
X1255Y1844D02*
X1331Y1844D01*
X2256Y1844D02*
X2333Y1844D01*
X1256Y1843D02*
X1331Y1843D01*
X2257Y1843D02*
X2332Y1843D01*
X1256Y1842D02*
X1330Y1842D01*
X2257Y1842D02*
X2332Y1842D01*
X1257Y1841D02*
X1330Y1841D01*
X2258Y1841D02*
X2331Y1841D01*
X1257Y1840D02*
X1329Y1840D01*
X2259Y1840D02*
X2331Y1840D01*
X1258Y1839D02*
X1329Y1839D01*
X2259Y1839D02*
X2330Y1839D01*
X1259Y1838D02*
X1328Y1838D01*
X2260Y1838D02*
X2329Y1838D01*
X1259Y1837D02*
X1327Y1837D01*
X2260Y1837D02*
X2329Y1837D01*
X1260Y1836D02*
X1327Y1836D01*
X2261Y1836D02*
X2328Y1836D01*
X1261Y1835D02*
X1326Y1835D01*
X2262Y1835D02*
X2327Y1835D01*
X1261Y1834D02*
X1325Y1834D01*
X2263Y1834D02*
X2327Y1834D01*
X1262Y1833D02*
X1324Y1833D01*
X2264Y1833D02*
X2326Y1833D01*
X1263Y1832D02*
X1323Y1832D01*
X2264Y1832D02*
X2325Y1832D01*
X1264Y1831D02*
X1323Y1831D01*
X2265Y1831D02*
X2324Y1831D01*
X1265Y1830D02*
X1321Y1830D01*
X2266Y1830D02*
X2323Y1830D01*
X1266Y1829D02*
X1320Y1829D01*
X2268Y1829D02*
X2322Y1829D01*
X1267Y1828D02*
X1319Y1828D01*
X2269Y1828D02*
X2320Y1828D01*
X1269Y1827D02*
X1318Y1827D01*
X2270Y1827D02*
X2319Y1827D01*
X1270Y1826D02*
X1316Y1826D01*
X2271Y1826D02*
X2318Y1826D01*
X1272Y1825D02*
X1315Y1825D01*
X2273Y1825D02*
X2316Y1825D01*
X1273Y1824D02*
X1313Y1824D01*
X2275Y1824D02*
X2315Y1824D01*
X1275Y1823D02*
X1311Y1823D01*
X2277Y1823D02*
X2313Y1823D01*
X1277Y1822D02*
X1309Y1822D01*
X2279Y1822D02*
X2311Y1822D01*
X1280Y1821D02*
X1307Y1821D01*
X2281Y1821D02*
X2308Y1821D01*
X1284Y1820D02*
X1303Y1820D01*
X2285Y1820D02*
X2304Y1820D01*
X1289Y1819D02*
X1298Y1819D01*
X2290Y1819D02*
X2299Y1819D01*
X1287Y1802D02*
X1299Y1802D01*
X2289Y1802D02*
X2301Y1802D01*
X1283Y1801D02*
X1304Y1801D01*
X2284Y1801D02*
X2305Y1801D01*
X1279Y1800D02*
X1307Y1800D01*
X2281Y1800D02*
X2308Y1800D01*
X1277Y1799D02*
X1310Y1799D01*
X2278Y1799D02*
X2311Y1799D01*
X1275Y1798D02*
X1312Y1798D01*
X2276Y1798D02*
X2313Y1798D01*
X1273Y1797D02*
X1314Y1797D01*
X2274Y1797D02*
X2315Y1797D01*
X1271Y1796D02*
X1315Y1796D01*
X2273Y1796D02*
X2317Y1796D01*
X1270Y1795D02*
X1317Y1795D01*
X2271Y1795D02*
X2318Y1795D01*
X1268Y1794D02*
X1318Y1794D01*
X2270Y1794D02*
X2319Y1794D01*
X1267Y1793D02*
X1319Y1793D01*
X2268Y1793D02*
X2321Y1793D01*
X1266Y1792D02*
X1321Y1792D01*
X2267Y1792D02*
X2322Y1792D01*
X1265Y1791D02*
X1322Y1791D01*
X2266Y1791D02*
X2323Y1791D01*
X1264Y1790D02*
X1323Y1790D01*
X2265Y1790D02*
X2324Y1790D01*
X1263Y1789D02*
X1324Y1789D01*
X2264Y1789D02*
X2325Y1789D01*
X1262Y1788D02*
X1325Y1788D01*
X2263Y1788D02*
X2326Y1788D01*
X1261Y1787D02*
X1325Y1787D01*
X2262Y1787D02*
X2327Y1787D01*
X1260Y1786D02*
X1326Y1786D01*
X2262Y1786D02*
X2327Y1786D01*
X1260Y1785D02*
X1327Y1785D01*
X2261Y1785D02*
X2328Y1785D01*
X1259Y1784D02*
X1328Y1784D01*
X2260Y1784D02*
X2329Y1784D01*
X1258Y1783D02*
X1328Y1783D01*
X2260Y1783D02*
X2330Y1783D01*
X1258Y1782D02*
X1329Y1782D01*
X2259Y1782D02*
X2330Y1782D01*
X1257Y1781D02*
X1329Y1781D01*
X2258Y1781D02*
X2331Y1781D01*
X1257Y1780D02*
X1330Y1780D01*
X2258Y1780D02*
X2331Y1780D01*
X1256Y1779D02*
X1331Y1779D01*
X2257Y1779D02*
X2332Y1779D01*
X1256Y1778D02*
X1331Y1778D01*
X2257Y1778D02*
X2332Y1778D01*
X1255Y1777D02*
X1331Y1777D01*
X2256Y1777D02*
X2333Y1777D01*
X1255Y1776D02*
X1332Y1776D01*
X2256Y1776D02*
X2333Y1776D01*
X1254Y1775D02*
X1332Y1775D01*
X2256Y1775D02*
X2334Y1775D01*
X1254Y1774D02*
X1333Y1774D01*
X2255Y1774D02*
X2334Y1774D01*
X1254Y1773D02*
X1333Y1773D01*
X2255Y1773D02*
X2334Y1773D01*
X1253Y1772D02*
X1333Y1772D01*
X2255Y1772D02*
X2334Y1772D01*
X1253Y1771D02*
X1333Y1771D01*
X2254Y1771D02*
X2335Y1771D01*
X1253Y1770D02*
X1334Y1770D01*
X2254Y1770D02*
X2335Y1770D01*
X1253Y1769D02*
X1334Y1769D01*
X2254Y1769D02*
X2335Y1769D01*
X1253Y1768D02*
X1334Y1768D01*
X2254Y1768D02*
X2335Y1768D01*
X1252Y1767D02*
X1334Y1767D01*
X2254Y1767D02*
X2336Y1767D01*
X1252Y1766D02*
X1334Y1766D01*
X2253Y1766D02*
X2336Y1766D01*
X1252Y1765D02*
X1335Y1765D01*
X2253Y1765D02*
X2336Y1765D01*
X1252Y1764D02*
X1335Y1764D01*
X2253Y1764D02*
X2336Y1764D01*
X1252Y1763D02*
X1335Y1763D01*
X2253Y1763D02*
X2336Y1763D01*
X1252Y1762D02*
X1335Y1762D01*
X2253Y1762D02*
X2336Y1762D01*
X1252Y1761D02*
X1335Y1761D01*
X2253Y1761D02*
X2336Y1761D01*
X1252Y1760D02*
X1335Y1760D01*
X2253Y1760D02*
X2336Y1760D01*
X1252Y1759D02*
X1335Y1759D01*
X2253Y1759D02*
X2336Y1759D01*
X1252Y1758D02*
X1335Y1758D01*
X2253Y1758D02*
X2336Y1758D01*
X1252Y1757D02*
X1335Y1757D01*
X2253Y1757D02*
X2336Y1757D01*
X1252Y1756D02*
X1335Y1756D01*
X2253Y1756D02*
X2336Y1756D01*
X1252Y1755D02*
X1334Y1755D01*
X2253Y1755D02*
X2336Y1755D01*
X1252Y1754D02*
X1334Y1754D01*
X2254Y1754D02*
X2336Y1754D01*
X1253Y1753D02*
X1334Y1753D01*
X2254Y1753D02*
X2335Y1753D01*
X1253Y1752D02*
X1334Y1752D01*
X2254Y1752D02*
X2335Y1752D01*
X1253Y1751D02*
X1334Y1751D01*
X2254Y1751D02*
X2335Y1751D01*
X1253Y1750D02*
X1333Y1750D01*
X2254Y1750D02*
X2335Y1750D01*
X1253Y1749D02*
X1333Y1749D01*
X2255Y1749D02*
X2334Y1749D01*
X1254Y1748D02*
X1333Y1748D01*
X2255Y1748D02*
X2334Y1748D01*
X1254Y1747D02*
X1333Y1747D01*
X2255Y1747D02*
X2334Y1747D01*
X1254Y1746D02*
X1332Y1746D01*
X2256Y1746D02*
X2333Y1746D01*
X1255Y1745D02*
X1332Y1745D01*
X2256Y1745D02*
X2333Y1745D01*
X1255Y1744D02*
X1331Y1744D01*
X2256Y1744D02*
X2333Y1744D01*
X1256Y1743D02*
X1331Y1743D01*
X2257Y1743D02*
X2332Y1743D01*
X1256Y1742D02*
X1330Y1742D01*
X2257Y1742D02*
X2332Y1742D01*
X1257Y1741D02*
X1330Y1741D01*
X2258Y1741D02*
X2331Y1741D01*
X1257Y1740D02*
X1329Y1740D01*
X2258Y1740D02*
X2331Y1740D01*
X1258Y1739D02*
X1329Y1739D01*
X2259Y1739D02*
X2330Y1739D01*
X1258Y1738D02*
X1328Y1738D01*
X2260Y1738D02*
X2329Y1738D01*
X1259Y1737D02*
X1328Y1737D01*
X2260Y1737D02*
X2329Y1737D01*
X1260Y1736D02*
X1327Y1736D01*
X2261Y1736D02*
X2328Y1736D01*
X1261Y1735D02*
X1326Y1735D01*
X2262Y1735D02*
X2327Y1735D01*
X1261Y1734D02*
X1325Y1734D01*
X2263Y1734D02*
X2327Y1734D01*
X1262Y1733D02*
X1324Y1733D01*
X2263Y1733D02*
X2326Y1733D01*
X1263Y1732D02*
X1324Y1732D01*
X2264Y1732D02*
X2325Y1732D01*
X1264Y1731D02*
X1323Y1731D01*
X2265Y1731D02*
X2324Y1731D01*
X1265Y1730D02*
X1322Y1730D01*
X2266Y1730D02*
X2323Y1730D01*
X1266Y1729D02*
X1320Y1729D01*
X2267Y1729D02*
X2322Y1729D01*
X1267Y1728D02*
X1319Y1728D01*
X2269Y1728D02*
X2321Y1728D01*
X1269Y1727D02*
X1318Y1727D01*
X2270Y1727D02*
X2319Y1727D01*
X1270Y1726D02*
X1317Y1726D01*
X2271Y1726D02*
X2318Y1726D01*
X1272Y1725D02*
X1315Y1725D01*
X2273Y1725D02*
X2316Y1725D01*
X1273Y1724D02*
X1313Y1724D01*
X2274Y1724D02*
X2315Y1724D01*
X1275Y1723D02*
X1312Y1723D01*
X2276Y1723D02*
X2313Y1723D01*
X1277Y1722D02*
X1310Y1722D01*
X2278Y1722D02*
X2311Y1722D01*
X1280Y1721D02*
X1307Y1721D01*
X2281Y1721D02*
X2308Y1721D01*
X1283Y1720D02*
X1304Y1720D01*
X2284Y1720D02*
X2305Y1720D01*
X1288Y1719D02*
X1298Y1719D01*
X2289Y1719D02*
X2300Y1719D01*
X1288Y1702D02*
X1298Y1702D01*
X2289Y1702D02*
X2300Y1702D01*
X1283Y1701D02*
X1303Y1701D01*
X2284Y1701D02*
X2305Y1701D01*
X1280Y1700D02*
X1307Y1700D01*
X2281Y1700D02*
X2308Y1700D01*
X1277Y1699D02*
X1310Y1699D01*
X2278Y1699D02*
X2311Y1699D01*
X1275Y1698D02*
X1312Y1698D01*
X2276Y1698D02*
X2313Y1698D01*
X1273Y1697D02*
X1313Y1697D01*
X2274Y1697D02*
X2315Y1697D01*
X1272Y1696D02*
X1315Y1696D01*
X2273Y1696D02*
X2316Y1696D01*
X1270Y1695D02*
X1317Y1695D01*
X2271Y1695D02*
X2318Y1695D01*
X1269Y1694D02*
X1318Y1694D01*
X2270Y1694D02*
X2319Y1694D01*
X1267Y1693D02*
X1319Y1693D01*
X2269Y1693D02*
X2321Y1693D01*
X1266Y1692D02*
X1320Y1692D01*
X2267Y1692D02*
X2322Y1692D01*
X1265Y1691D02*
X1322Y1691D01*
X2266Y1691D02*
X2323Y1691D01*
X1264Y1690D02*
X1323Y1690D01*
X2265Y1690D02*
X2324Y1690D01*
X1263Y1689D02*
X1324Y1689D01*
X2264Y1689D02*
X2325Y1689D01*
X1262Y1688D02*
X1324Y1688D01*
X2263Y1688D02*
X2326Y1688D01*
X1261Y1687D02*
X1325Y1687D01*
X2263Y1687D02*
X2327Y1687D01*
X1261Y1686D02*
X1326Y1686D01*
X2262Y1686D02*
X2327Y1686D01*
X1260Y1685D02*
X1327Y1685D01*
X2261Y1685D02*
X2328Y1685D01*
X1259Y1684D02*
X1328Y1684D01*
X2260Y1684D02*
X2329Y1684D01*
X1258Y1683D02*
X1328Y1683D01*
X2260Y1683D02*
X2329Y1683D01*
X1258Y1682D02*
X1329Y1682D01*
X2259Y1682D02*
X2330Y1682D01*
X1257Y1681D02*
X1329Y1681D01*
X2258Y1681D02*
X2331Y1681D01*
X1257Y1680D02*
X1330Y1680D01*
X2258Y1680D02*
X2331Y1680D01*
X1256Y1679D02*
X1330Y1679D01*
X2257Y1679D02*
X2332Y1679D01*
X1256Y1678D02*
X1331Y1678D01*
X2257Y1678D02*
X2332Y1678D01*
X1255Y1677D02*
X1331Y1677D01*
X2256Y1677D02*
X2333Y1677D01*
X1255Y1676D02*
X1332Y1676D01*
X2256Y1676D02*
X2333Y1676D01*
X1254Y1675D02*
X1332Y1675D01*
X2256Y1675D02*
X2333Y1675D01*
X1254Y1674D02*
X1333Y1674D01*
X2255Y1674D02*
X2334Y1674D01*
X1254Y1673D02*
X1333Y1673D01*
X2255Y1673D02*
X2334Y1673D01*
X1253Y1672D02*
X1333Y1672D01*
X2255Y1672D02*
X2334Y1672D01*
X1253Y1671D02*
X1333Y1671D01*
X2254Y1671D02*
X2335Y1671D01*
X1253Y1670D02*
X1334Y1670D01*
X2254Y1670D02*
X2335Y1670D01*
X1253Y1669D02*
X1334Y1669D01*
X2254Y1669D02*
X2335Y1669D01*
X1253Y1668D02*
X1334Y1668D01*
X2254Y1668D02*
X2335Y1668D01*
X1252Y1667D02*
X1334Y1667D01*
X2254Y1667D02*
X2336Y1667D01*
X1252Y1666D02*
X1334Y1666D01*
X2253Y1666D02*
X2336Y1666D01*
X1252Y1665D02*
X1335Y1665D01*
X2253Y1665D02*
X2336Y1665D01*
X1252Y1664D02*
X1335Y1664D01*
X2253Y1664D02*
X2336Y1664D01*
X1252Y1663D02*
X1335Y1663D01*
X2253Y1663D02*
X2336Y1663D01*
X1252Y1662D02*
X1335Y1662D01*
X2253Y1662D02*
X2336Y1662D01*
X1252Y1661D02*
X1335Y1661D01*
X2253Y1661D02*
X2336Y1661D01*
X1252Y1660D02*
X1335Y1660D01*
X2253Y1660D02*
X2336Y1660D01*
X1252Y1659D02*
X1335Y1659D01*
X2253Y1659D02*
X2336Y1659D01*
X1252Y1658D02*
X1335Y1658D01*
X2253Y1658D02*
X2336Y1658D01*
X1252Y1657D02*
X1335Y1657D01*
X2253Y1657D02*
X2336Y1657D01*
X1252Y1656D02*
X1335Y1656D01*
X2253Y1656D02*
X2336Y1656D01*
X1252Y1655D02*
X1334Y1655D01*
X2253Y1655D02*
X2336Y1655D01*
X1252Y1654D02*
X1334Y1654D01*
X2254Y1654D02*
X2336Y1654D01*
X1253Y1653D02*
X1334Y1653D01*
X2254Y1653D02*
X2335Y1653D01*
X1253Y1652D02*
X1334Y1652D01*
X2254Y1652D02*
X2335Y1652D01*
X1253Y1651D02*
X1334Y1651D01*
X2254Y1651D02*
X2335Y1651D01*
X1253Y1650D02*
X1333Y1650D01*
X2254Y1650D02*
X2335Y1650D01*
X1253Y1649D02*
X1333Y1649D01*
X2255Y1649D02*
X2334Y1649D01*
X1254Y1648D02*
X1333Y1648D01*
X2255Y1648D02*
X2334Y1648D01*
X1254Y1647D02*
X1333Y1647D01*
X2255Y1647D02*
X2334Y1647D01*
X1254Y1646D02*
X1332Y1646D01*
X2256Y1646D02*
X2334Y1646D01*
X1255Y1645D02*
X1332Y1645D01*
X2256Y1645D02*
X2333Y1645D01*
X1255Y1644D02*
X1331Y1644D01*
X2256Y1644D02*
X2333Y1644D01*
X1256Y1643D02*
X1331Y1643D01*
X2257Y1643D02*
X2332Y1643D01*
X1256Y1642D02*
X1331Y1642D01*
X2257Y1642D02*
X2332Y1642D01*
X1257Y1641D02*
X1330Y1641D01*
X2258Y1641D02*
X2331Y1641D01*
X1257Y1640D02*
X1329Y1640D01*
X2258Y1640D02*
X2331Y1640D01*
X1258Y1639D02*
X1329Y1639D01*
X2259Y1639D02*
X2330Y1639D01*
X1258Y1638D02*
X1328Y1638D01*
X2260Y1638D02*
X2330Y1638D01*
X1259Y1637D02*
X1328Y1637D01*
X2260Y1637D02*
X2329Y1637D01*
X1260Y1636D02*
X1327Y1636D01*
X2261Y1636D02*
X2328Y1636D01*
X1260Y1635D02*
X1326Y1635D01*
X2262Y1635D02*
X2327Y1635D01*
X1261Y1634D02*
X1325Y1634D01*
X2262Y1634D02*
X2327Y1634D01*
X1262Y1633D02*
X1325Y1633D01*
X2263Y1633D02*
X2326Y1633D01*
X1263Y1632D02*
X1324Y1632D01*
X2264Y1632D02*
X2325Y1632D01*
X1264Y1631D02*
X1323Y1631D01*
X2265Y1631D02*
X2324Y1631D01*
X1265Y1630D02*
X1322Y1630D01*
X2266Y1630D02*
X2323Y1630D01*
X1266Y1629D02*
X1321Y1629D01*
X2267Y1629D02*
X2322Y1629D01*
X1267Y1628D02*
X1319Y1628D01*
X2268Y1628D02*
X2321Y1628D01*
X1268Y1627D02*
X1318Y1627D01*
X2270Y1627D02*
X2319Y1627D01*
X1270Y1626D02*
X1317Y1626D01*
X2271Y1626D02*
X2318Y1626D01*
X1271Y1625D02*
X1315Y1625D01*
X2273Y1625D02*
X2317Y1625D01*
X1273Y1624D02*
X1314Y1624D01*
X2274Y1624D02*
X2315Y1624D01*
X1275Y1623D02*
X1312Y1623D01*
X2276Y1623D02*
X2313Y1623D01*
X1277Y1622D02*
X1310Y1622D01*
X2278Y1622D02*
X2311Y1622D01*
X1279Y1621D02*
X1307Y1621D01*
X2281Y1621D02*
X2308Y1621D01*
X1283Y1620D02*
X1304Y1620D01*
X2284Y1620D02*
X2305Y1620D01*
X1287Y1619D02*
X1299Y1619D01*
X2289Y1619D02*
X2301Y1619D01*
X1289Y1602D02*
X1298Y1602D01*
X2290Y1602D02*
X2299Y1602D01*
X1284Y1601D02*
X1303Y1601D01*
X2285Y1601D02*
X2304Y1601D01*
X1280Y1600D02*
X1307Y1600D01*
X2281Y1600D02*
X2308Y1600D01*
X1277Y1599D02*
X1309Y1599D01*
X2279Y1599D02*
X2311Y1599D01*
X1275Y1598D02*
X1311Y1598D01*
X2277Y1598D02*
X2313Y1598D01*
X1273Y1597D02*
X1313Y1597D01*
X2275Y1597D02*
X2315Y1597D01*
X1272Y1596D02*
X1315Y1596D01*
X2273Y1596D02*
X2316Y1596D01*
X1270Y1595D02*
X1316Y1595D01*
X2271Y1595D02*
X2318Y1595D01*
X1269Y1594D02*
X1318Y1594D01*
X2270Y1594D02*
X2319Y1594D01*
X1267Y1593D02*
X1319Y1593D01*
X2269Y1593D02*
X2320Y1593D01*
X1266Y1592D02*
X1320Y1592D01*
X2268Y1592D02*
X2322Y1592D01*
X1265Y1591D02*
X1321Y1591D01*
X2266Y1591D02*
X2323Y1591D01*
X1264Y1590D02*
X1323Y1590D01*
X2265Y1590D02*
X2324Y1590D01*
X1263Y1589D02*
X1323Y1589D01*
X2264Y1589D02*
X2325Y1589D01*
X1262Y1588D02*
X1324Y1588D01*
X2264Y1588D02*
X2326Y1588D01*
X1261Y1587D02*
X1325Y1587D01*
X2263Y1587D02*
X2327Y1587D01*
X1261Y1586D02*
X1326Y1586D01*
X2262Y1586D02*
X2327Y1586D01*
X1260Y1585D02*
X1327Y1585D01*
X2261Y1585D02*
X2328Y1585D01*
X1259Y1584D02*
X1327Y1584D01*
X2260Y1584D02*
X2329Y1584D01*
X1258Y1583D02*
X1328Y1583D01*
X2260Y1583D02*
X2329Y1583D01*
X1258Y1582D02*
X1329Y1582D01*
X2259Y1582D02*
X2330Y1582D01*
X1257Y1581D02*
X1329Y1581D01*
X2259Y1581D02*
X2331Y1581D01*
X1257Y1580D02*
X1330Y1580D01*
X2258Y1580D02*
X2331Y1580D01*
X1256Y1579D02*
X1330Y1579D01*
X2257Y1579D02*
X2332Y1579D01*
X1256Y1578D02*
X1331Y1578D01*
X2257Y1578D02*
X2332Y1578D01*
X1255Y1577D02*
X1331Y1577D01*
X2256Y1577D02*
X2333Y1577D01*
X1255Y1576D02*
X1332Y1576D01*
X2256Y1576D02*
X2333Y1576D01*
X1254Y1575D02*
X1332Y1575D01*
X2256Y1575D02*
X2333Y1575D01*
X1254Y1574D02*
X1332Y1574D01*
X2255Y1574D02*
X2334Y1574D01*
X1254Y1573D02*
X1333Y1573D01*
X2255Y1573D02*
X2334Y1573D01*
X1253Y1572D02*
X1333Y1572D01*
X2255Y1572D02*
X2334Y1572D01*
X1253Y1571D02*
X1333Y1571D01*
X2255Y1571D02*
X2335Y1571D01*
X1253Y1570D02*
X1334Y1570D01*
X2254Y1570D02*
X2335Y1570D01*
X1253Y1569D02*
X1334Y1569D01*
X2254Y1569D02*
X2335Y1569D01*
X1253Y1568D02*
X1334Y1568D01*
X2254Y1568D02*
X2335Y1568D01*
X1252Y1567D02*
X1334Y1567D01*
X2254Y1567D02*
X2335Y1567D01*
X1252Y1566D02*
X1334Y1566D01*
X2254Y1566D02*
X2336Y1566D01*
X1252Y1565D02*
X1335Y1565D01*
X2253Y1565D02*
X2336Y1565D01*
X1252Y1564D02*
X1335Y1564D01*
X2253Y1564D02*
X2336Y1564D01*
X1252Y1563D02*
X1335Y1563D01*
X2253Y1563D02*
X2336Y1563D01*
X1252Y1562D02*
X1335Y1562D01*
X2253Y1562D02*
X2336Y1562D01*
X1252Y1561D02*
X1335Y1561D01*
X2253Y1561D02*
X2336Y1561D01*
X1252Y1560D02*
X1335Y1560D01*
X2253Y1560D02*
X2336Y1560D01*
X1252Y1559D02*
X1335Y1559D01*
X2253Y1559D02*
X2336Y1559D01*
X1252Y1558D02*
X1335Y1558D01*
X2253Y1558D02*
X2336Y1558D01*
X1252Y1557D02*
X1335Y1557D01*
X2253Y1557D02*
X2336Y1557D01*
X1252Y1556D02*
X1335Y1556D01*
X2253Y1556D02*
X2336Y1556D01*
X1252Y1555D02*
X1334Y1555D01*
X2253Y1555D02*
X2336Y1555D01*
X1252Y1554D02*
X1334Y1554D01*
X2254Y1554D02*
X2336Y1554D01*
X1253Y1553D02*
X1334Y1553D01*
X2254Y1553D02*
X2335Y1553D01*
X1253Y1552D02*
X1334Y1552D01*
X2254Y1552D02*
X2335Y1552D01*
X1253Y1551D02*
X1334Y1551D01*
X2254Y1551D02*
X2335Y1551D01*
X1253Y1550D02*
X1333Y1550D01*
X2254Y1550D02*
X2335Y1550D01*
X1253Y1549D02*
X1333Y1549D01*
X2255Y1549D02*
X2334Y1549D01*
X1254Y1548D02*
X1333Y1548D01*
X2255Y1548D02*
X2334Y1548D01*
X1254Y1547D02*
X1333Y1547D01*
X2255Y1547D02*
X2334Y1547D01*
X1254Y1546D02*
X1332Y1546D01*
X2256Y1546D02*
X2334Y1546D01*
X1255Y1545D02*
X1332Y1545D01*
X2256Y1545D02*
X2333Y1545D01*
X1255Y1544D02*
X1332Y1544D01*
X2256Y1544D02*
X2333Y1544D01*
X1256Y1543D02*
X1331Y1543D01*
X2257Y1543D02*
X2332Y1543D01*
X1256Y1542D02*
X1331Y1542D01*
X2257Y1542D02*
X2332Y1542D01*
X1257Y1541D02*
X1330Y1541D01*
X2258Y1541D02*
X2331Y1541D01*
X1257Y1540D02*
X1330Y1540D01*
X2258Y1540D02*
X2331Y1540D01*
X1258Y1539D02*
X1329Y1539D01*
X2259Y1539D02*
X2330Y1539D01*
X1258Y1538D02*
X1328Y1538D01*
X2260Y1538D02*
X2330Y1538D01*
X1259Y1537D02*
X1328Y1537D01*
X2260Y1537D02*
X2329Y1537D01*
X1260Y1536D02*
X1327Y1536D01*
X2261Y1536D02*
X2328Y1536D01*
X1260Y1535D02*
X1326Y1535D01*
X2262Y1535D02*
X2328Y1535D01*
X1261Y1534D02*
X1325Y1534D01*
X2262Y1534D02*
X2327Y1534D01*
X1262Y1533D02*
X1325Y1533D01*
X2263Y1533D02*
X2326Y1533D01*
X1263Y1532D02*
X1324Y1532D01*
X2264Y1532D02*
X2325Y1532D01*
X1264Y1531D02*
X1323Y1531D01*
X2265Y1531D02*
X2324Y1531D01*
X1265Y1530D02*
X1322Y1530D01*
X2266Y1530D02*
X2323Y1530D01*
X1266Y1529D02*
X1321Y1529D01*
X2267Y1529D02*
X2322Y1529D01*
X1267Y1528D02*
X1320Y1528D01*
X2268Y1528D02*
X2321Y1528D01*
X1268Y1527D02*
X1318Y1527D01*
X2270Y1527D02*
X2320Y1527D01*
X1270Y1526D02*
X1317Y1526D01*
X2271Y1526D02*
X2318Y1526D01*
X1271Y1525D02*
X1315Y1525D01*
X2272Y1525D02*
X2317Y1525D01*
X1273Y1524D02*
X1314Y1524D01*
X2274Y1524D02*
X2315Y1524D01*
X1275Y1523D02*
X1312Y1523D01*
X2276Y1523D02*
X2313Y1523D01*
X1277Y1522D02*
X1310Y1522D01*
X2278Y1522D02*
X2311Y1522D01*
X1279Y1521D02*
X1308Y1521D01*
X2280Y1521D02*
X2309Y1521D01*
X1282Y1520D02*
X1304Y1520D01*
X2284Y1520D02*
X2306Y1520D01*
X1287Y1519D02*
X1300Y1519D01*
X2288Y1519D02*
X2301Y1519D01*
X1290Y1502D02*
X1297Y1502D01*
X2291Y1502D02*
X2298Y1502D01*
X1284Y1501D02*
X1303Y1501D01*
X2285Y1501D02*
X2304Y1501D01*
X1280Y1500D02*
X1306Y1500D01*
X2282Y1500D02*
X2307Y1500D01*
X1278Y1499D02*
X1309Y1499D01*
X2279Y1499D02*
X2310Y1499D01*
X1276Y1498D02*
X1311Y1498D01*
X2277Y1498D02*
X2312Y1498D01*
X1274Y1497D02*
X1313Y1497D01*
X2275Y1497D02*
X2314Y1497D01*
X1272Y1496D02*
X1315Y1496D01*
X2273Y1496D02*
X2316Y1496D01*
X1270Y1495D02*
X1316Y1495D01*
X2272Y1495D02*
X2318Y1495D01*
X1269Y1494D02*
X1318Y1494D01*
X2270Y1494D02*
X2319Y1494D01*
X1268Y1493D02*
X1319Y1493D01*
X2269Y1493D02*
X2320Y1493D01*
X1266Y1492D02*
X1320Y1492D01*
X2268Y1492D02*
X2321Y1492D01*
X1265Y1491D02*
X1321Y1491D01*
X2267Y1491D02*
X2323Y1491D01*
X1264Y1490D02*
X1322Y1490D01*
X2265Y1490D02*
X2324Y1490D01*
X1263Y1489D02*
X1323Y1489D01*
X2265Y1489D02*
X2325Y1489D01*
X1262Y1488D02*
X1324Y1488D01*
X2264Y1488D02*
X2326Y1488D01*
X1261Y1487D02*
X1325Y1487D01*
X2263Y1487D02*
X2326Y1487D01*
X1261Y1486D02*
X1326Y1486D01*
X2262Y1486D02*
X2327Y1486D01*
X1260Y1485D02*
X1327Y1485D01*
X2261Y1485D02*
X2328Y1485D01*
X1259Y1484D02*
X1327Y1484D01*
X2261Y1484D02*
X2329Y1484D01*
X1259Y1483D02*
X1328Y1483D01*
X2260Y1483D02*
X2329Y1483D01*
X1258Y1482D02*
X1329Y1482D01*
X2259Y1482D02*
X2330Y1482D01*
X1257Y1481D02*
X1329Y1481D01*
X2259Y1481D02*
X2331Y1481D01*
X1257Y1480D02*
X1330Y1480D01*
X2258Y1480D02*
X2331Y1480D01*
X1256Y1479D02*
X1330Y1479D01*
X2258Y1479D02*
X2332Y1479D01*
X1256Y1478D02*
X1331Y1478D01*
X2257Y1478D02*
X2332Y1478D01*
X1255Y1477D02*
X1331Y1477D01*
X2257Y1477D02*
X2333Y1477D01*
X1255Y1476D02*
X1332Y1476D01*
X2256Y1476D02*
X2333Y1476D01*
X1254Y1475D02*
X1332Y1475D01*
X2256Y1475D02*
X2333Y1475D01*
X1254Y1474D02*
X1332Y1474D01*
X2255Y1474D02*
X2334Y1474D01*
X1254Y1473D02*
X1333Y1473D01*
X2255Y1473D02*
X2334Y1473D01*
X1254Y1472D02*
X1333Y1472D01*
X2255Y1472D02*
X2334Y1472D01*
X1253Y1471D02*
X1333Y1471D01*
X2255Y1471D02*
X2335Y1471D01*
X1253Y1470D02*
X1334Y1470D01*
X2254Y1470D02*
X2335Y1470D01*
X1253Y1469D02*
X1334Y1469D01*
X2254Y1469D02*
X2335Y1469D01*
X1253Y1468D02*
X1334Y1468D01*
X2254Y1468D02*
X2335Y1468D01*
X1252Y1467D02*
X1334Y1467D01*
X2254Y1467D02*
X2335Y1467D01*
X1252Y1466D02*
X1334Y1466D01*
X2254Y1466D02*
X2336Y1466D01*
X1252Y1465D02*
X1334Y1465D01*
X2253Y1465D02*
X2336Y1465D01*
X1252Y1464D02*
X1335Y1464D01*
X2253Y1464D02*
X2336Y1464D01*
X1252Y1463D02*
X1335Y1463D01*
X2253Y1463D02*
X2336Y1463D01*
X1252Y1462D02*
X1335Y1462D01*
X2253Y1462D02*
X2336Y1462D01*
X1252Y1461D02*
X1335Y1461D01*
X2253Y1461D02*
X2336Y1461D01*
X1252Y1460D02*
X1335Y1460D01*
X2253Y1460D02*
X2336Y1460D01*
X1252Y1459D02*
X1335Y1459D01*
X2253Y1459D02*
X2336Y1459D01*
X1252Y1458D02*
X1335Y1458D01*
X2253Y1458D02*
X2336Y1458D01*
X1252Y1457D02*
X1335Y1457D01*
X2253Y1457D02*
X2336Y1457D01*
X1252Y1456D02*
X1335Y1456D01*
X2253Y1456D02*
X2336Y1456D01*
X1252Y1455D02*
X1334Y1455D01*
X2253Y1455D02*
X2336Y1455D01*
X1252Y1454D02*
X1334Y1454D01*
X2254Y1454D02*
X2336Y1454D01*
X1252Y1453D02*
X1334Y1453D01*
X2254Y1453D02*
X2335Y1453D01*
X1253Y1452D02*
X1334Y1452D01*
X2254Y1452D02*
X2335Y1452D01*
X1253Y1451D02*
X1334Y1451D01*
X2254Y1451D02*
X2335Y1451D01*
X1253Y1450D02*
X1333Y1450D01*
X2254Y1450D02*
X2335Y1450D01*
X1253Y1449D02*
X1333Y1449D01*
X2255Y1449D02*
X2335Y1449D01*
X1254Y1448D02*
X1333Y1448D01*
X2255Y1448D02*
X2334Y1448D01*
X1254Y1447D02*
X1333Y1447D01*
X2255Y1447D02*
X2334Y1447D01*
X1254Y1446D02*
X1332Y1446D01*
X2256Y1446D02*
X2334Y1446D01*
X1255Y1445D02*
X1332Y1445D01*
X2256Y1445D02*
X2333Y1445D01*
X1255Y1444D02*
X1332Y1444D01*
X2256Y1444D02*
X2333Y1444D01*
X1255Y1443D02*
X1331Y1443D01*
X2257Y1443D02*
X2332Y1443D01*
X1256Y1442D02*
X1331Y1442D01*
X2257Y1442D02*
X2332Y1442D01*
X1256Y1441D02*
X1330Y1441D01*
X2258Y1441D02*
X2331Y1441D01*
X1257Y1440D02*
X1330Y1440D01*
X2258Y1440D02*
X2331Y1440D01*
X1258Y1439D02*
X1329Y1439D01*
X2259Y1439D02*
X2330Y1439D01*
X1258Y1438D02*
X1328Y1438D01*
X2259Y1438D02*
X2330Y1438D01*
X1259Y1437D02*
X1328Y1437D01*
X2260Y1437D02*
X2329Y1437D01*
X1260Y1436D02*
X1327Y1436D01*
X2261Y1436D02*
X2328Y1436D01*
X1260Y1435D02*
X1326Y1435D01*
X2262Y1435D02*
X2328Y1435D01*
X1261Y1434D02*
X1326Y1434D01*
X2262Y1434D02*
X2327Y1434D01*
X1262Y1433D02*
X1325Y1433D01*
X2263Y1433D02*
X2326Y1433D01*
X1263Y1432D02*
X1324Y1432D01*
X2264Y1432D02*
X2325Y1432D01*
X1264Y1431D02*
X1323Y1431D01*
X2265Y1431D02*
X2324Y1431D01*
X1265Y1430D02*
X1322Y1430D01*
X2266Y1430D02*
X2323Y1430D01*
X1266Y1429D02*
X1321Y1429D01*
X2267Y1429D02*
X2322Y1429D01*
X1267Y1428D02*
X1320Y1428D01*
X2268Y1428D02*
X2321Y1428D01*
X1268Y1427D02*
X1318Y1427D01*
X2269Y1427D02*
X2320Y1427D01*
X1270Y1426D02*
X1317Y1426D01*
X2271Y1426D02*
X2318Y1426D01*
X1271Y1425D02*
X1316Y1425D01*
X2272Y1425D02*
X2317Y1425D01*
X1273Y1424D02*
X1314Y1424D01*
X2274Y1424D02*
X2315Y1424D01*
X1274Y1423D02*
X1312Y1423D01*
X2276Y1423D02*
X2314Y1423D01*
X1276Y1422D02*
X1310Y1422D01*
X2278Y1422D02*
X2312Y1422D01*
X1279Y1421D02*
X1308Y1421D01*
X2280Y1421D02*
X2309Y1421D01*
X1282Y1420D02*
X1305Y1420D01*
X2283Y1420D02*
X2306Y1420D01*
X1286Y1419D02*
X1301Y1419D01*
X2287Y1419D02*
X2302Y1419D01*
X1291Y1402D02*
X1295Y1402D01*
X2293Y1402D02*
X2296Y1402D01*
X1285Y1401D02*
X1302Y1401D01*
X2286Y1401D02*
X2303Y1401D01*
X1281Y1400D02*
X1306Y1400D01*
X2282Y1400D02*
X2307Y1400D01*
X1278Y1399D02*
X1309Y1399D01*
X2279Y1399D02*
X2310Y1399D01*
X1276Y1398D02*
X1311Y1398D01*
X2277Y1398D02*
X2312Y1398D01*
X1274Y1397D02*
X1313Y1397D01*
X2275Y1397D02*
X2314Y1397D01*
X1272Y1396D02*
X1314Y1396D01*
X2273Y1396D02*
X2316Y1396D01*
X1271Y1395D02*
X1316Y1395D01*
X2272Y1395D02*
X2317Y1395D01*
X1269Y1394D02*
X1317Y1394D01*
X2270Y1394D02*
X2319Y1394D01*
X1268Y1393D02*
X1319Y1393D01*
X2269Y1393D02*
X2320Y1393D01*
X1267Y1392D02*
X1320Y1392D01*
X2268Y1392D02*
X2321Y1392D01*
X1265Y1391D02*
X1321Y1391D01*
X2267Y1391D02*
X2322Y1391D01*
X1264Y1390D02*
X1322Y1390D01*
X2266Y1390D02*
X2324Y1390D01*
X1263Y1389D02*
X1323Y1389D01*
X2265Y1389D02*
X2325Y1389D01*
X1262Y1388D02*
X1324Y1388D01*
X2264Y1388D02*
X2325Y1388D01*
X1262Y1387D02*
X1325Y1387D01*
X2263Y1387D02*
X2326Y1387D01*
X1261Y1386D02*
X1326Y1386D01*
X2262Y1386D02*
X2327Y1386D01*
X1260Y1385D02*
X1327Y1385D01*
X2261Y1385D02*
X2328Y1385D01*
X1259Y1384D02*
X1327Y1384D01*
X2261Y1384D02*
X2329Y1384D01*
X1259Y1383D02*
X1328Y1383D01*
X2260Y1383D02*
X2329Y1383D01*
X1258Y1382D02*
X1329Y1382D01*
X2259Y1382D02*
X2330Y1382D01*
X1257Y1381D02*
X1329Y1381D01*
X2259Y1381D02*
X2330Y1381D01*
X1257Y1380D02*
X1330Y1380D01*
X2258Y1380D02*
X2331Y1380D01*
X1256Y1379D02*
X1330Y1379D01*
X2258Y1379D02*
X2332Y1379D01*
X1256Y1378D02*
X1331Y1378D01*
X2257Y1378D02*
X2332Y1378D01*
X1255Y1377D02*
X1331Y1377D01*
X2257Y1377D02*
X2333Y1377D01*
X1255Y1376D02*
X1332Y1376D01*
X2256Y1376D02*
X2333Y1376D01*
X1255Y1375D02*
X1332Y1375D01*
X2256Y1375D02*
X2333Y1375D01*
X1254Y1374D02*
X1332Y1374D01*
X2255Y1374D02*
X2334Y1374D01*
X1254Y1373D02*
X1333Y1373D01*
X2255Y1373D02*
X2334Y1373D01*
X1254Y1372D02*
X1333Y1372D01*
X2255Y1372D02*
X2334Y1372D01*
X1253Y1371D02*
X1333Y1371D01*
X2255Y1371D02*
X2335Y1371D01*
X1253Y1370D02*
X1334Y1370D01*
X2254Y1370D02*
X2335Y1370D01*
X1253Y1369D02*
X1334Y1369D01*
X2254Y1369D02*
X2335Y1369D01*
X1253Y1368D02*
X1334Y1368D01*
X2254Y1368D02*
X2335Y1368D01*
X1252Y1367D02*
X1334Y1367D01*
X2254Y1367D02*
X2335Y1367D01*
X1252Y1366D02*
X1334Y1366D01*
X2254Y1366D02*
X2336Y1366D01*
X1252Y1365D02*
X1334Y1365D01*
X2253Y1365D02*
X2336Y1365D01*
X1252Y1364D02*
X1335Y1364D01*
X2253Y1364D02*
X2336Y1364D01*
X1252Y1363D02*
X1335Y1363D01*
X2253Y1363D02*
X2336Y1363D01*
X1252Y1362D02*
X1335Y1362D01*
X2253Y1362D02*
X2336Y1362D01*
X1252Y1361D02*
X1335Y1361D01*
X2253Y1361D02*
X2336Y1361D01*
X1252Y1360D02*
X1335Y1360D01*
X2253Y1360D02*
X2336Y1360D01*
X1252Y1359D02*
X1335Y1359D01*
X2253Y1359D02*
X2336Y1359D01*
X1252Y1358D02*
X1335Y1358D01*
X2253Y1358D02*
X2336Y1358D01*
X1252Y1357D02*
X1335Y1357D01*
X2253Y1357D02*
X2336Y1357D01*
X1252Y1356D02*
X1335Y1356D01*
X2253Y1356D02*
X2336Y1356D01*
X1252Y1355D02*
X1334Y1355D01*
X2253Y1355D02*
X2336Y1355D01*
X1252Y1354D02*
X1334Y1354D01*
X2254Y1354D02*
X2336Y1354D01*
X1252Y1353D02*
X1334Y1353D01*
X2254Y1353D02*
X2335Y1353D01*
X1253Y1352D02*
X1334Y1352D01*
X2254Y1352D02*
X2335Y1352D01*
X1253Y1351D02*
X1334Y1351D01*
X2254Y1351D02*
X2335Y1351D01*
X1253Y1350D02*
X1333Y1350D01*
X2254Y1350D02*
X2335Y1350D01*
X1253Y1349D02*
X1333Y1349D01*
X2255Y1349D02*
X2335Y1349D01*
X1254Y1348D02*
X1333Y1348D01*
X2255Y1348D02*
X2334Y1348D01*
X1254Y1347D02*
X1333Y1347D01*
X2255Y1347D02*
X2334Y1347D01*
X1254Y1346D02*
X1332Y1346D01*
X2256Y1346D02*
X2334Y1346D01*
X1255Y1345D02*
X1332Y1345D01*
X2256Y1345D02*
X2333Y1345D01*
X1255Y1344D02*
X1332Y1344D01*
X2256Y1344D02*
X2333Y1344D01*
X1255Y1343D02*
X1331Y1343D01*
X2257Y1343D02*
X2332Y1343D01*
X1256Y1342D02*
X1331Y1342D01*
X2257Y1342D02*
X2332Y1342D01*
X1256Y1341D02*
X1330Y1341D01*
X2258Y1341D02*
X2331Y1341D01*
X1257Y1340D02*
X1330Y1340D01*
X2258Y1340D02*
X2331Y1340D01*
X1258Y1339D02*
X1329Y1339D01*
X2259Y1339D02*
X2330Y1339D01*
X1258Y1338D02*
X1328Y1338D01*
X2259Y1338D02*
X2330Y1338D01*
X1259Y1337D02*
X1328Y1337D01*
X2260Y1337D02*
X2329Y1337D01*
X1259Y1336D02*
X1327Y1336D01*
X2261Y1336D02*
X2328Y1336D01*
X1260Y1335D02*
X1326Y1335D01*
X2261Y1335D02*
X2328Y1335D01*
X1261Y1334D02*
X1326Y1334D01*
X2262Y1334D02*
X2327Y1334D01*
X1262Y1333D02*
X1325Y1333D01*
X2263Y1333D02*
X2326Y1333D01*
X1263Y1332D02*
X1324Y1332D01*
X2264Y1332D02*
X2325Y1332D01*
X1263Y1331D02*
X1323Y1331D01*
X2265Y1331D02*
X2324Y1331D01*
X1264Y1330D02*
X1322Y1330D01*
X2266Y1330D02*
X2323Y1330D01*
X1266Y1329D02*
X1321Y1329D01*
X2267Y1329D02*
X2322Y1329D01*
X1267Y1328D02*
X1320Y1328D01*
X2268Y1328D02*
X2321Y1328D01*
X1268Y1327D02*
X1319Y1327D01*
X2269Y1327D02*
X2320Y1327D01*
X1269Y1326D02*
X1317Y1326D01*
X2271Y1326D02*
X2319Y1326D01*
X1271Y1325D02*
X1316Y1325D01*
X2272Y1325D02*
X2317Y1325D01*
X1272Y1324D02*
X1314Y1324D01*
X2274Y1324D02*
X2315Y1324D01*
X1274Y1323D02*
X1313Y1323D01*
X2275Y1323D02*
X2314Y1323D01*
X1276Y1322D02*
X1310Y1322D01*
X2277Y1322D02*
X2312Y1322D01*
X1278Y1321D02*
X1308Y1321D01*
X2280Y1321D02*
X2309Y1321D01*
X1281Y1320D02*
X1305Y1320D01*
X2283Y1320D02*
X2307Y1320D01*
X1285Y1319D02*
X1301Y1319D01*
X2287Y1319D02*
X2303Y1319D01*
X1285Y1301D02*
X1302Y1301D01*
X2286Y1301D02*
X2303Y1301D01*
X1281Y1300D02*
X1306Y1300D01*
X2282Y1300D02*
X2307Y1300D01*
X1278Y1299D02*
X1308Y1299D01*
X2280Y1299D02*
X2310Y1299D01*
X1276Y1298D02*
X1311Y1298D01*
X2277Y1298D02*
X2312Y1298D01*
X1274Y1297D02*
X1313Y1297D01*
X2275Y1297D02*
X2314Y1297D01*
X1272Y1296D02*
X1314Y1296D01*
X2274Y1296D02*
X2316Y1296D01*
X1271Y1295D02*
X1316Y1295D01*
X2272Y1295D02*
X2317Y1295D01*
X1269Y1294D02*
X1317Y1294D01*
X2271Y1294D02*
X2319Y1294D01*
X1268Y1293D02*
X1319Y1293D01*
X2269Y1293D02*
X2320Y1293D01*
X1267Y1292D02*
X1320Y1292D01*
X2268Y1292D02*
X2321Y1292D01*
X1266Y1291D02*
X1321Y1291D01*
X2267Y1291D02*
X2322Y1291D01*
X1264Y1290D02*
X1322Y1290D01*
X2266Y1290D02*
X2323Y1290D01*
X1263Y1289D02*
X1323Y1289D01*
X2265Y1289D02*
X2324Y1289D01*
X1263Y1288D02*
X1324Y1288D01*
X2264Y1288D02*
X2325Y1288D01*
X1262Y1287D02*
X1325Y1287D01*
X2263Y1287D02*
X2326Y1287D01*
X1261Y1286D02*
X1326Y1286D01*
X2262Y1286D02*
X2327Y1286D01*
X1260Y1285D02*
X1326Y1285D01*
X2261Y1285D02*
X2328Y1285D01*
X1259Y1284D02*
X1327Y1284D01*
X2261Y1284D02*
X2328Y1284D01*
X1259Y1283D02*
X1328Y1283D01*
X2260Y1283D02*
X2329Y1283D01*
X1258Y1282D02*
X1328Y1282D01*
X2259Y1282D02*
X2330Y1282D01*
X1257Y1281D02*
X1329Y1281D01*
X2259Y1281D02*
X2330Y1281D01*
X1257Y1280D02*
X1330Y1280D01*
X2258Y1280D02*
X2331Y1280D01*
X1256Y1279D02*
X1330Y1279D01*
X2258Y1279D02*
X2332Y1279D01*
X1256Y1278D02*
X1331Y1278D01*
X2257Y1278D02*
X2332Y1278D01*
X1255Y1277D02*
X1331Y1277D01*
X2257Y1277D02*
X2332Y1277D01*
X1255Y1276D02*
X1332Y1276D01*
X2256Y1276D02*
X2333Y1276D01*
X1255Y1275D02*
X1332Y1275D01*
X2256Y1275D02*
X2333Y1275D01*
X1254Y1274D02*
X1332Y1274D01*
X2256Y1274D02*
X2334Y1274D01*
X1254Y1273D02*
X1333Y1273D01*
X2255Y1273D02*
X2334Y1273D01*
X1254Y1272D02*
X1333Y1272D01*
X2255Y1272D02*
X2334Y1272D01*
X1253Y1271D02*
X1333Y1271D01*
X2255Y1271D02*
X2335Y1271D01*
X1253Y1270D02*
X1334Y1270D01*
X2254Y1270D02*
X2335Y1270D01*
X1253Y1269D02*
X1334Y1269D01*
X2254Y1269D02*
X2335Y1269D01*
X1253Y1268D02*
X1334Y1268D01*
X2254Y1268D02*
X2335Y1268D01*
X1252Y1267D02*
X1334Y1267D01*
X2254Y1267D02*
X2335Y1267D01*
X1252Y1266D02*
X1334Y1266D01*
X2254Y1266D02*
X2336Y1266D01*
X1252Y1265D02*
X1334Y1265D01*
X2253Y1265D02*
X2336Y1265D01*
X1252Y1264D02*
X1335Y1264D01*
X2253Y1264D02*
X2336Y1264D01*
X1252Y1263D02*
X1335Y1263D01*
X2253Y1263D02*
X2336Y1263D01*
X1252Y1262D02*
X1335Y1262D01*
X2253Y1262D02*
X2336Y1262D01*
X1252Y1261D02*
X1335Y1261D01*
X2253Y1261D02*
X2336Y1261D01*
X1252Y1260D02*
X1335Y1260D01*
X2253Y1260D02*
X2336Y1260D01*
X1252Y1259D02*
X1335Y1259D01*
X2253Y1259D02*
X2336Y1259D01*
X1252Y1258D02*
X1335Y1258D01*
X2253Y1258D02*
X2336Y1258D01*
X1252Y1257D02*
X1335Y1257D01*
X2253Y1257D02*
X2336Y1257D01*
X1252Y1256D02*
X1335Y1256D01*
X2253Y1256D02*
X2336Y1256D01*
X1252Y1255D02*
X1334Y1255D01*
X2253Y1255D02*
X2336Y1255D01*
X1252Y1254D02*
X1334Y1254D01*
X2254Y1254D02*
X2336Y1254D01*
X1252Y1253D02*
X1334Y1253D01*
X2254Y1253D02*
X2335Y1253D01*
X1253Y1252D02*
X1334Y1252D01*
X2254Y1252D02*
X2335Y1252D01*
X1253Y1251D02*
X1334Y1251D01*
X2254Y1251D02*
X2335Y1251D01*
X1253Y1250D02*
X1334Y1250D01*
X2254Y1250D02*
X2335Y1250D01*
X1253Y1249D02*
X1333Y1249D01*
X2255Y1249D02*
X2335Y1249D01*
X1254Y1248D02*
X1333Y1248D01*
X2255Y1248D02*
X2334Y1248D01*
X1254Y1247D02*
X1333Y1247D01*
X2255Y1247D02*
X2334Y1247D01*
X1254Y1246D02*
X1332Y1246D01*
X2255Y1246D02*
X2334Y1246D01*
X1255Y1245D02*
X1332Y1245D01*
X2256Y1245D02*
X2333Y1245D01*
X1255Y1244D02*
X1332Y1244D01*
X2256Y1244D02*
X2333Y1244D01*
X1255Y1243D02*
X1331Y1243D01*
X2257Y1243D02*
X2333Y1243D01*
X1256Y1242D02*
X1331Y1242D01*
X2257Y1242D02*
X2332Y1242D01*
X1256Y1241D02*
X1330Y1241D01*
X2258Y1241D02*
X2332Y1241D01*
X1257Y1240D02*
X1330Y1240D01*
X2258Y1240D02*
X2331Y1240D01*
X1257Y1239D02*
X1329Y1239D01*
X2259Y1239D02*
X2330Y1239D01*
X1258Y1238D02*
X1329Y1238D01*
X2259Y1238D02*
X2330Y1238D01*
X1259Y1237D02*
X1328Y1237D01*
X2260Y1237D02*
X2329Y1237D01*
X1259Y1236D02*
X1327Y1236D01*
X2261Y1236D02*
X2329Y1236D01*
X1260Y1235D02*
X1327Y1235D01*
X2261Y1235D02*
X2328Y1235D01*
X1261Y1234D02*
X1326Y1234D01*
X2262Y1234D02*
X2327Y1234D01*
X1262Y1233D02*
X1325Y1233D01*
X2263Y1233D02*
X2326Y1233D01*
X1262Y1232D02*
X1324Y1232D01*
X2264Y1232D02*
X2325Y1232D01*
X1263Y1231D02*
X1323Y1231D01*
X2265Y1231D02*
X2325Y1231D01*
X1264Y1230D02*
X1322Y1230D01*
X2266Y1230D02*
X2324Y1230D01*
X1265Y1229D02*
X1321Y1229D01*
X2267Y1229D02*
X2322Y1229D01*
X1267Y1228D02*
X1320Y1228D01*
X2268Y1228D02*
X2321Y1228D01*
X1268Y1227D02*
X1319Y1227D01*
X2269Y1227D02*
X2320Y1227D01*
X1269Y1226D02*
X1317Y1226D01*
X2270Y1226D02*
X2319Y1226D01*
X1271Y1225D02*
X1316Y1225D01*
X2272Y1225D02*
X2317Y1225D01*
X1272Y1224D02*
X1314Y1224D01*
X2273Y1224D02*
X2316Y1224D01*
X1274Y1223D02*
X1313Y1223D01*
X2275Y1223D02*
X2314Y1223D01*
X1276Y1222D02*
X1311Y1222D01*
X2277Y1222D02*
X2312Y1222D01*
X1278Y1221D02*
X1309Y1221D01*
X2279Y1221D02*
X2310Y1221D01*
X1281Y1220D02*
X1306Y1220D01*
X2282Y1220D02*
X2307Y1220D01*
X1285Y1219D02*
X1302Y1219D01*
X2286Y1219D02*
X2303Y1219D01*
X1292Y1218D02*
X1294Y1218D01*
X2294Y1218D02*
X2295Y1218D01*
X1286Y1201D02*
X1301Y1201D01*
X2287Y1201D02*
X2302Y1201D01*
X1282Y1200D02*
X1305Y1200D01*
X2283Y1200D02*
X2306Y1200D01*
X1279Y1199D02*
X1308Y1199D01*
X2280Y1199D02*
X2309Y1199D01*
X1276Y1198D02*
X1310Y1198D01*
X2278Y1198D02*
X2312Y1198D01*
X1274Y1197D02*
X1312Y1197D01*
X2275Y1197D02*
X2314Y1197D01*
X1273Y1196D02*
X1314Y1196D01*
X2274Y1196D02*
X2315Y1196D01*
X1271Y1195D02*
X1316Y1195D01*
X2272Y1195D02*
X2317Y1195D01*
X1269Y1194D02*
X1317Y1194D01*
X2271Y1194D02*
X2318Y1194D01*
X1268Y1193D02*
X1319Y1193D01*
X2269Y1193D02*
X2320Y1193D01*
X1267Y1192D02*
X1320Y1192D01*
X2268Y1192D02*
X2321Y1192D01*
X1266Y1191D02*
X1321Y1191D01*
X2267Y1191D02*
X2322Y1191D01*
X1265Y1190D02*
X1322Y1190D01*
X2266Y1190D02*
X2323Y1190D01*
X1264Y1189D02*
X1323Y1189D01*
X2265Y1189D02*
X2324Y1189D01*
X1263Y1188D02*
X1324Y1188D01*
X2264Y1188D02*
X2325Y1188D01*
X1262Y1187D02*
X1325Y1187D01*
X2263Y1187D02*
X2326Y1187D01*
X1261Y1186D02*
X1326Y1186D01*
X2262Y1186D02*
X2327Y1186D01*
X1260Y1185D02*
X1326Y1185D01*
X2262Y1185D02*
X2328Y1185D01*
X1259Y1184D02*
X1327Y1184D01*
X2261Y1184D02*
X2328Y1184D01*
X1259Y1183D02*
X1328Y1183D01*
X2260Y1183D02*
X2329Y1183D01*
X1258Y1182D02*
X1328Y1182D01*
X2259Y1182D02*
X2330Y1182D01*
X1258Y1181D02*
X1329Y1181D01*
X2259Y1181D02*
X2330Y1181D01*
X1257Y1180D02*
X1330Y1180D01*
X2258Y1180D02*
X2331Y1180D01*
X1256Y1179D02*
X1330Y1179D01*
X2258Y1179D02*
X2331Y1179D01*
X1256Y1178D02*
X1331Y1178D01*
X2257Y1178D02*
X2332Y1178D01*
X1255Y1177D02*
X1331Y1177D01*
X2257Y1177D02*
X2332Y1177D01*
X1255Y1176D02*
X1332Y1176D01*
X2256Y1176D02*
X2333Y1176D01*
X1255Y1175D02*
X1332Y1175D01*
X2256Y1175D02*
X2333Y1175D01*
X1254Y1174D02*
X1332Y1174D01*
X2256Y1174D02*
X2334Y1174D01*
X1254Y1173D02*
X1333Y1173D01*
X2255Y1173D02*
X2334Y1173D01*
X1254Y1172D02*
X1333Y1172D01*
X2255Y1172D02*
X2334Y1172D01*
X1253Y1171D02*
X1333Y1171D01*
X2255Y1171D02*
X2335Y1171D01*
X1253Y1170D02*
X1333Y1170D01*
X2254Y1170D02*
X2335Y1170D01*
X1253Y1169D02*
X1334Y1169D01*
X2254Y1169D02*
X2335Y1169D01*
X1253Y1168D02*
X1334Y1168D01*
X2254Y1168D02*
X2335Y1168D01*
X1252Y1167D02*
X1334Y1167D01*
X2254Y1167D02*
X2335Y1167D01*
X1252Y1166D02*
X1334Y1166D01*
X2254Y1166D02*
X2336Y1166D01*
X1252Y1165D02*
X1334Y1165D01*
X2253Y1165D02*
X2336Y1165D01*
X1252Y1164D02*
X1335Y1164D01*
X2253Y1164D02*
X2336Y1164D01*
X1252Y1163D02*
X1335Y1163D01*
X2253Y1163D02*
X2336Y1163D01*
X1252Y1162D02*
X1335Y1162D01*
X2253Y1162D02*
X2336Y1162D01*
X1252Y1161D02*
X1335Y1161D01*
X2253Y1161D02*
X2336Y1161D01*
X1252Y1160D02*
X1335Y1160D01*
X2253Y1160D02*
X2336Y1160D01*
X1252Y1159D02*
X1335Y1159D01*
X2253Y1159D02*
X2336Y1159D01*
X1252Y1158D02*
X1335Y1158D01*
X2253Y1158D02*
X2336Y1158D01*
X1252Y1157D02*
X1335Y1157D01*
X2253Y1157D02*
X2336Y1157D01*
X1252Y1156D02*
X1335Y1156D01*
X2253Y1156D02*
X2336Y1156D01*
X1252Y1155D02*
X1334Y1155D01*
X2253Y1155D02*
X2336Y1155D01*
X1252Y1154D02*
X1334Y1154D01*
X2254Y1154D02*
X2336Y1154D01*
X1252Y1153D02*
X1334Y1153D01*
X2254Y1153D02*
X2335Y1153D01*
X1253Y1152D02*
X1334Y1152D01*
X2254Y1152D02*
X2335Y1152D01*
X1253Y1151D02*
X1334Y1151D01*
X2254Y1151D02*
X2335Y1151D01*
X1253Y1150D02*
X1334Y1150D01*
X2254Y1150D02*
X2335Y1150D01*
X1253Y1149D02*
X1333Y1149D01*
X2255Y1149D02*
X2335Y1149D01*
X1254Y1148D02*
X1333Y1148D01*
X2255Y1148D02*
X2334Y1148D01*
X1254Y1147D02*
X1333Y1147D01*
X2255Y1147D02*
X2334Y1147D01*
X1254Y1146D02*
X1332Y1146D01*
X2255Y1146D02*
X2334Y1146D01*
X1255Y1145D02*
X1332Y1145D01*
X2256Y1145D02*
X2333Y1145D01*
X1255Y1144D02*
X1332Y1144D01*
X2256Y1144D02*
X2333Y1144D01*
X1255Y1143D02*
X1331Y1143D01*
X2257Y1143D02*
X2333Y1143D01*
X1256Y1142D02*
X1331Y1142D01*
X2257Y1142D02*
X2332Y1142D01*
X1256Y1141D02*
X1330Y1141D01*
X2258Y1141D02*
X2332Y1141D01*
X1257Y1140D02*
X1330Y1140D01*
X2258Y1140D02*
X2331Y1140D01*
X1257Y1139D02*
X1329Y1139D01*
X2259Y1139D02*
X2331Y1139D01*
X1258Y1138D02*
X1329Y1138D01*
X2259Y1138D02*
X2330Y1138D01*
X1259Y1137D02*
X1328Y1137D01*
X2260Y1137D02*
X2329Y1137D01*
X1259Y1136D02*
X1327Y1136D01*
X2261Y1136D02*
X2329Y1136D01*
X1260Y1135D02*
X1327Y1135D01*
X2261Y1135D02*
X2328Y1135D01*
X1261Y1134D02*
X1326Y1134D01*
X2262Y1134D02*
X2327Y1134D01*
X1261Y1133D02*
X1325Y1133D01*
X2263Y1133D02*
X2326Y1133D01*
X1262Y1132D02*
X1324Y1132D01*
X2264Y1132D02*
X2325Y1132D01*
X1263Y1131D02*
X1323Y1131D01*
X2265Y1131D02*
X2325Y1131D01*
X1264Y1130D02*
X1322Y1130D01*
X2266Y1130D02*
X2324Y1130D01*
X1265Y1129D02*
X1321Y1129D01*
X2267Y1129D02*
X2323Y1129D01*
X1266Y1128D02*
X1320Y1128D01*
X2268Y1128D02*
X2321Y1128D01*
X1268Y1127D02*
X1319Y1127D01*
X2269Y1127D02*
X2320Y1127D01*
X1269Y1126D02*
X1318Y1126D01*
X2270Y1126D02*
X2319Y1126D01*
X1270Y1125D02*
X1316Y1125D01*
X2272Y1125D02*
X2317Y1125D01*
X1272Y1124D02*
X1315Y1124D01*
X2273Y1124D02*
X2316Y1124D01*
X1274Y1123D02*
X1313Y1123D01*
X2275Y1123D02*
X2314Y1123D01*
X1276Y1122D02*
X1311Y1122D01*
X2277Y1122D02*
X2312Y1122D01*
X1278Y1121D02*
X1309Y1121D01*
X2279Y1121D02*
X2310Y1121D01*
X1281Y1120D02*
X1306Y1120D01*
X2282Y1120D02*
X2307Y1120D01*
X1284Y1119D02*
X1302Y1119D01*
X2286Y1119D02*
X2304Y1119D01*
X1290Y1118D02*
X1296Y1118D01*
X2292Y1118D02*
X2297Y1118D01*
X1286Y1101D02*
X1300Y1101D01*
X2288Y1101D02*
X2302Y1101D01*
X1282Y1100D02*
X1305Y1100D01*
X2283Y1100D02*
X2306Y1100D01*
X1279Y1099D02*
X1308Y1099D01*
X2280Y1099D02*
X2309Y1099D01*
X1276Y1098D02*
X1310Y1098D01*
X2278Y1098D02*
X2311Y1098D01*
X1274Y1097D02*
X1312Y1097D01*
X2276Y1097D02*
X2313Y1097D01*
X1273Y1096D02*
X1314Y1096D01*
X2274Y1096D02*
X2315Y1096D01*
X1271Y1095D02*
X1316Y1095D01*
X2272Y1095D02*
X2317Y1095D01*
X1270Y1094D02*
X1317Y1094D01*
X2271Y1094D02*
X2318Y1094D01*
X1268Y1093D02*
X1318Y1093D01*
X2270Y1093D02*
X2320Y1093D01*
X1267Y1092D02*
X1320Y1092D01*
X2268Y1092D02*
X2321Y1092D01*
X1266Y1091D02*
X1321Y1091D01*
X2267Y1091D02*
X2322Y1091D01*
X1265Y1090D02*
X1322Y1090D01*
X2266Y1090D02*
X2323Y1090D01*
X1264Y1089D02*
X1323Y1089D01*
X2265Y1089D02*
X2324Y1089D01*
X1263Y1088D02*
X1324Y1088D01*
X2264Y1088D02*
X2325Y1088D01*
X1262Y1087D02*
X1325Y1087D01*
X2263Y1087D02*
X2326Y1087D01*
X1261Y1086D02*
X1326Y1086D01*
X2262Y1086D02*
X2327Y1086D01*
X1260Y1085D02*
X1326Y1085D01*
X2262Y1085D02*
X2328Y1085D01*
X1260Y1084D02*
X1327Y1084D01*
X2261Y1084D02*
X2328Y1084D01*
X1259Y1083D02*
X1328Y1083D01*
X2260Y1083D02*
X2329Y1083D01*
X1258Y1082D02*
X1328Y1082D01*
X2260Y1082D02*
X2330Y1082D01*
X1258Y1081D02*
X1329Y1081D01*
X2259Y1081D02*
X2330Y1081D01*
X1257Y1080D02*
X1330Y1080D01*
X2258Y1080D02*
X2331Y1080D01*
X1256Y1079D02*
X1330Y1079D01*
X2258Y1079D02*
X2331Y1079D01*
X1256Y1078D02*
X1331Y1078D01*
X2257Y1078D02*
X2332Y1078D01*
X1256Y1077D02*
X1331Y1077D01*
X2257Y1077D02*
X2332Y1077D01*
X1255Y1076D02*
X1332Y1076D01*
X2256Y1076D02*
X2333Y1076D01*
X1255Y1075D02*
X1332Y1075D01*
X2256Y1075D02*
X2333Y1075D01*
X1254Y1074D02*
X1332Y1074D01*
X2256Y1074D02*
X2334Y1074D01*
X1254Y1073D02*
X1333Y1073D01*
X2255Y1073D02*
X2334Y1073D01*
X1254Y1072D02*
X1333Y1072D01*
X2255Y1072D02*
X2334Y1072D01*
X1253Y1071D02*
X1333Y1071D01*
X2255Y1071D02*
X2334Y1071D01*
X1253Y1070D02*
X1333Y1070D01*
X2254Y1070D02*
X2335Y1070D01*
X1253Y1069D02*
X1334Y1069D01*
X2254Y1069D02*
X2335Y1069D01*
X1253Y1068D02*
X1334Y1068D01*
X2254Y1068D02*
X2335Y1068D01*
X1252Y1067D02*
X1334Y1067D01*
X2254Y1067D02*
X2335Y1067D01*
X1252Y1066D02*
X1334Y1066D01*
X2254Y1066D02*
X2336Y1066D01*
X1252Y1065D02*
X1334Y1065D01*
X2253Y1065D02*
X2336Y1065D01*
X1252Y1064D02*
X1335Y1064D01*
X2253Y1064D02*
X2336Y1064D01*
X1252Y1063D02*
X1335Y1063D01*
X2253Y1063D02*
X2336Y1063D01*
X1252Y1062D02*
X1335Y1062D01*
X2253Y1062D02*
X2336Y1062D01*
X1252Y1061D02*
X1335Y1061D01*
X2253Y1061D02*
X2336Y1061D01*
X1252Y1060D02*
X1335Y1060D01*
X2253Y1060D02*
X2336Y1060D01*
X1252Y1059D02*
X1335Y1059D01*
X2253Y1059D02*
X2336Y1059D01*
X1252Y1058D02*
X1335Y1058D01*
X2253Y1058D02*
X2336Y1058D01*
X1252Y1057D02*
X1335Y1057D01*
X2253Y1057D02*
X2336Y1057D01*
X1252Y1056D02*
X1335Y1056D01*
X2253Y1056D02*
X2336Y1056D01*
X1252Y1055D02*
X1335Y1055D01*
X2253Y1055D02*
X2336Y1055D01*
X1252Y1054D02*
X1334Y1054D01*
X2254Y1054D02*
X2336Y1054D01*
X1252Y1053D02*
X1334Y1053D01*
X2254Y1053D02*
X2335Y1053D01*
X1253Y1052D02*
X1334Y1052D01*
X2254Y1052D02*
X2335Y1052D01*
X1253Y1051D02*
X1334Y1051D01*
X2254Y1051D02*
X2335Y1051D01*
X1253Y1050D02*
X1334Y1050D01*
X2254Y1050D02*
X2335Y1050D01*
X1253Y1049D02*
X1333Y1049D01*
X2255Y1049D02*
X2335Y1049D01*
X1254Y1048D02*
X1333Y1048D01*
X2255Y1048D02*
X2334Y1048D01*
X1254Y1047D02*
X1333Y1047D01*
X2255Y1047D02*
X2334Y1047D01*
X1254Y1046D02*
X1332Y1046D01*
X2255Y1046D02*
X2334Y1046D01*
X1254Y1045D02*
X1332Y1045D01*
X2256Y1045D02*
X2333Y1045D01*
X1255Y1044D02*
X1332Y1044D01*
X2256Y1044D02*
X2333Y1044D01*
X1255Y1043D02*
X1331Y1043D01*
X2257Y1043D02*
X2333Y1043D01*
X1256Y1042D02*
X1331Y1042D01*
X2257Y1042D02*
X2332Y1042D01*
X1256Y1041D02*
X1330Y1041D01*
X2258Y1041D02*
X2332Y1041D01*
X1257Y1040D02*
X1330Y1040D01*
X2258Y1040D02*
X2331Y1040D01*
X1257Y1039D02*
X1329Y1039D01*
X2259Y1039D02*
X2331Y1039D01*
X1258Y1038D02*
X1329Y1038D01*
X2259Y1038D02*
X2330Y1038D01*
X1259Y1037D02*
X1328Y1037D01*
X2260Y1037D02*
X2329Y1037D01*
X1259Y1036D02*
X1327Y1036D01*
X2260Y1036D02*
X2329Y1036D01*
X1260Y1035D02*
X1327Y1035D01*
X2261Y1035D02*
X2328Y1035D01*
X1261Y1034D02*
X1326Y1034D01*
X2262Y1034D02*
X2327Y1034D01*
X1261Y1033D02*
X1325Y1033D01*
X2263Y1033D02*
X2326Y1033D01*
X1262Y1032D02*
X1324Y1032D01*
X2264Y1032D02*
X2326Y1032D01*
X1263Y1031D02*
X1323Y1031D01*
X2264Y1031D02*
X2325Y1031D01*
X1264Y1030D02*
X1323Y1030D01*
X2265Y1030D02*
X2324Y1030D01*
X1265Y1029D02*
X1321Y1029D01*
X2266Y1029D02*
X2323Y1029D01*
X1266Y1028D02*
X1320Y1028D01*
X2268Y1028D02*
X2322Y1028D01*
X1268Y1027D02*
X1319Y1027D01*
X2269Y1027D02*
X2320Y1027D01*
X1269Y1026D02*
X1318Y1026D01*
X2270Y1026D02*
X2319Y1026D01*
X1270Y1025D02*
X1316Y1025D01*
X2272Y1025D02*
X2318Y1025D01*
X1272Y1024D02*
X1315Y1024D01*
X2273Y1024D02*
X2316Y1024D01*
X1273Y1023D02*
X1313Y1023D01*
X2275Y1023D02*
X2314Y1023D01*
X1275Y1022D02*
X1311Y1022D01*
X2277Y1022D02*
X2312Y1022D01*
X1277Y1021D02*
X1309Y1021D01*
X2279Y1021D02*
X2310Y1021D01*
X1280Y1020D02*
X1306Y1020D01*
X2281Y1020D02*
X2308Y1020D01*
X1284Y1019D02*
X1303Y1019D01*
X2285Y1019D02*
X2304Y1019D01*
X1289Y1018D02*
X1297Y1018D01*
X2291Y1018D02*
X2299Y1018D01*
X1287Y1001D02*
X1300Y1001D01*
X2288Y1001D02*
X2301Y1001D01*
X1282Y1000D02*
X1304Y1000D01*
X2284Y1000D02*
X2305Y1000D01*
X1279Y999D02*
X1307Y999D01*
X2281Y999D02*
X2309Y999D01*
X1277Y998D02*
X1310Y998D01*
X2278Y998D02*
X2311Y998D01*
X1275Y997D02*
X1312Y997D01*
X2276Y997D02*
X2313Y997D01*
X1273Y996D02*
X1314Y996D01*
X2274Y996D02*
X2315Y996D01*
X1271Y995D02*
X1315Y995D01*
X2273Y995D02*
X2317Y995D01*
X1270Y994D02*
X1317Y994D01*
X2271Y994D02*
X2318Y994D01*
X1268Y993D02*
X1318Y993D01*
X2270Y993D02*
X2319Y993D01*
X1267Y992D02*
X1320Y992D01*
X2268Y992D02*
X2321Y992D01*
X1266Y991D02*
X1321Y991D01*
X2267Y991D02*
X2322Y991D01*
X1265Y990D02*
X1322Y990D01*
X2266Y990D02*
X2323Y990D01*
X1264Y989D02*
X1323Y989D01*
X2265Y989D02*
X2324Y989D01*
X1263Y988D02*
X1324Y988D01*
X2264Y988D02*
X2325Y988D01*
X1262Y987D02*
X1325Y987D01*
X2263Y987D02*
X2326Y987D01*
X1261Y986D02*
X1325Y986D01*
X2262Y986D02*
X2327Y986D01*
X1260Y985D02*
X1326Y985D01*
X2262Y985D02*
X2327Y985D01*
X1260Y984D02*
X1327Y984D01*
X2261Y984D02*
X2328Y984D01*
X1259Y983D02*
X1328Y983D01*
X2260Y983D02*
X2329Y983D01*
X1258Y982D02*
X1328Y982D01*
X2260Y982D02*
X2330Y982D01*
X1258Y981D02*
X1329Y981D01*
X2259Y981D02*
X2330Y981D01*
X1257Y980D02*
X1329Y980D01*
X2258Y980D02*
X2331Y980D01*
X1257Y979D02*
X1330Y979D01*
X2258Y979D02*
X2331Y979D01*
X1256Y978D02*
X1331Y978D01*
X2257Y978D02*
X2332Y978D01*
X1256Y977D02*
X1331Y977D01*
X2257Y977D02*
X2332Y977D01*
X1255Y976D02*
X1332Y976D01*
X2256Y976D02*
X2333Y976D01*
X1255Y975D02*
X1332Y975D01*
X2256Y975D02*
X2333Y975D01*
X1254Y974D02*
X1332Y974D01*
X2256Y974D02*
X2334Y974D01*
X1254Y973D02*
X1333Y973D01*
X2255Y973D02*
X2334Y973D01*
X1254Y972D02*
X1333Y972D01*
X2255Y972D02*
X2334Y972D01*
X1253Y971D02*
X1333Y971D01*
X2255Y971D02*
X2334Y971D01*
X1253Y970D02*
X1333Y970D01*
X2254Y970D02*
X2335Y970D01*
X1253Y969D02*
X1334Y969D01*
X2254Y969D02*
X2335Y969D01*
X1253Y968D02*
X1334Y968D01*
X2254Y968D02*
X2335Y968D01*
X1253Y967D02*
X1334Y967D01*
X2254Y967D02*
X2335Y967D01*
X1252Y966D02*
X1334Y966D01*
X2254Y966D02*
X2336Y966D01*
X1252Y965D02*
X1334Y965D01*
X2253Y965D02*
X2336Y965D01*
X1252Y964D02*
X1335Y964D01*
X2253Y964D02*
X2336Y964D01*
X1252Y963D02*
X1335Y963D01*
X2253Y963D02*
X2336Y963D01*
X1252Y962D02*
X1335Y962D01*
X2253Y962D02*
X2336Y962D01*
X1252Y961D02*
X1335Y961D01*
X2253Y961D02*
X2336Y961D01*
X1252Y960D02*
X1335Y960D01*
X2253Y960D02*
X2336Y960D01*
X1252Y959D02*
X1335Y959D01*
X2253Y959D02*
X2336Y959D01*
X1252Y958D02*
X1335Y958D01*
X2253Y958D02*
X2336Y958D01*
X1252Y957D02*
X1335Y957D01*
X2253Y957D02*
X2336Y957D01*
X1252Y956D02*
X1335Y956D01*
X2253Y956D02*
X2336Y956D01*
X1252Y955D02*
X1335Y955D01*
X2253Y955D02*
X2336Y955D01*
X1252Y954D02*
X1334Y954D01*
X2254Y954D02*
X2336Y954D01*
X1252Y953D02*
X1334Y953D01*
X2254Y953D02*
X2336Y953D01*
X1253Y952D02*
X1334Y952D01*
X2254Y952D02*
X2335Y952D01*
X1253Y951D02*
X1334Y951D01*
X2254Y951D02*
X2335Y951D01*
X1253Y950D02*
X1334Y950D01*
X2254Y950D02*
X2335Y950D01*
X1253Y949D02*
X1333Y949D01*
X2255Y949D02*
X2335Y949D01*
X1253Y948D02*
X1333Y948D01*
X2255Y948D02*
X2334Y948D01*
X1254Y947D02*
X1333Y947D01*
X2255Y947D02*
X2334Y947D01*
X1254Y946D02*
X1333Y946D01*
X2255Y946D02*
X2334Y946D01*
X1254Y945D02*
X1332Y945D01*
X2256Y945D02*
X2333Y945D01*
X1255Y944D02*
X1332Y944D01*
X2256Y944D02*
X2333Y944D01*
X1255Y943D02*
X1331Y943D01*
X2256Y943D02*
X2333Y943D01*
X1256Y942D02*
X1331Y942D01*
X2257Y942D02*
X2332Y942D01*
X1256Y941D02*
X1330Y941D01*
X2257Y941D02*
X2332Y941D01*
X1257Y940D02*
X1330Y940D01*
X2258Y940D02*
X2331Y940D01*
X1257Y939D02*
X1329Y939D01*
X2259Y939D02*
X2331Y939D01*
X1258Y938D02*
X1329Y938D01*
X2259Y938D02*
X2330Y938D01*
X1258Y937D02*
X1328Y937D01*
X2260Y937D02*
X2329Y937D01*
X1259Y936D02*
X1327Y936D01*
X2260Y936D02*
X2329Y936D01*
X1260Y935D02*
X1327Y935D01*
X2261Y935D02*
X2328Y935D01*
X1261Y934D02*
X1326Y934D01*
X2262Y934D02*
X2327Y934D01*
X1261Y933D02*
X1325Y933D01*
X2263Y933D02*
X2327Y933D01*
X1262Y932D02*
X1324Y932D01*
X2263Y932D02*
X2326Y932D01*
X1263Y931D02*
X1324Y931D01*
X2264Y931D02*
X2325Y931D01*
X1264Y930D02*
X1323Y930D01*
X2265Y930D02*
X2324Y930D01*
X1265Y929D02*
X1322Y929D01*
X2266Y929D02*
X2323Y929D01*
X1266Y928D02*
X1320Y928D01*
X2267Y928D02*
X2322Y928D01*
X1267Y927D02*
X1319Y927D01*
X2269Y927D02*
X2321Y927D01*
X1269Y926D02*
X1318Y926D01*
X2270Y926D02*
X2319Y926D01*
X1270Y925D02*
X1317Y925D01*
X2271Y925D02*
X2318Y925D01*
X1272Y924D02*
X1315Y924D01*
X2273Y924D02*
X2316Y924D01*
X1273Y923D02*
X1313Y923D01*
X2275Y923D02*
X2315Y923D01*
X1275Y922D02*
X1311Y922D01*
X2276Y922D02*
X2313Y922D01*
X1277Y921D02*
X1309Y921D01*
X2278Y921D02*
X2311Y921D01*
X1280Y920D02*
X1307Y920D01*
X2281Y920D02*
X2308Y920D01*
X1283Y919D02*
X1303Y919D01*
X2285Y919D02*
X2305Y919D01*
X1288Y918D02*
X1298Y918D01*
X2290Y918D02*
X2299Y918D01*
X1288Y901D02*
X1299Y901D01*
X2289Y901D02*
X2300Y901D01*
X1283Y900D02*
X1304Y900D01*
X2284Y900D02*
X2305Y900D01*
X1280Y899D02*
X1307Y899D01*
X2281Y899D02*
X2308Y899D01*
X1277Y898D02*
X1310Y898D01*
X2278Y898D02*
X2311Y898D01*
X1275Y897D02*
X1312Y897D01*
X2276Y897D02*
X2313Y897D01*
X1273Y896D02*
X1314Y896D01*
X2274Y896D02*
X2315Y896D01*
X1271Y895D02*
X1315Y895D01*
X2273Y895D02*
X2316Y895D01*
X1270Y894D02*
X1317Y894D01*
X2271Y894D02*
X2318Y894D01*
X1269Y893D02*
X1318Y893D01*
X2270Y893D02*
X2319Y893D01*
X1267Y892D02*
X1319Y892D01*
X2269Y892D02*
X2321Y892D01*
X1266Y891D02*
X1321Y891D01*
X2267Y891D02*
X2322Y891D01*
X1265Y890D02*
X1322Y890D01*
X2266Y890D02*
X2323Y890D01*
X1264Y889D02*
X1323Y889D01*
X2265Y889D02*
X2324Y889D01*
X1263Y888D02*
X1324Y888D01*
X2264Y888D02*
X2325Y888D01*
X1262Y887D02*
X1325Y887D01*
X2263Y887D02*
X2326Y887D01*
X1261Y886D02*
X1325Y886D01*
X2263Y886D02*
X2327Y886D01*
X1260Y885D02*
X1326Y885D01*
X2262Y885D02*
X2327Y885D01*
X1260Y884D02*
X1327Y884D01*
X2261Y884D02*
X2328Y884D01*
X1259Y883D02*
X1328Y883D01*
X2260Y883D02*
X2329Y883D01*
X1258Y882D02*
X1328Y882D01*
X2260Y882D02*
X2329Y882D01*
X1258Y881D02*
X1329Y881D01*
X2259Y881D02*
X2330Y881D01*
X1257Y880D02*
X1329Y880D01*
X2258Y880D02*
X2331Y880D01*
X1257Y879D02*
X1330Y879D01*
X2258Y879D02*
X2331Y879D01*
X1256Y878D02*
X1330Y878D01*
X2257Y878D02*
X2332Y878D01*
X1256Y877D02*
X1331Y877D01*
X2257Y877D02*
X2332Y877D01*
X1255Y876D02*
X1331Y876D01*
X2256Y876D02*
X2333Y876D01*
X1255Y875D02*
X1332Y875D01*
X2256Y875D02*
X2333Y875D01*
X1254Y874D02*
X1332Y874D01*
X2256Y874D02*
X2333Y874D01*
X1254Y873D02*
X1333Y873D01*
X2255Y873D02*
X2334Y873D01*
X1254Y872D02*
X1333Y872D01*
X2255Y872D02*
X2334Y872D01*
X1253Y871D02*
X1333Y871D01*
X2255Y871D02*
X2334Y871D01*
X1253Y870D02*
X1333Y870D01*
X2254Y870D02*
X2335Y870D01*
X1253Y869D02*
X1334Y869D01*
X2254Y869D02*
X2335Y869D01*
X1253Y868D02*
X1334Y868D01*
X2254Y868D02*
X2335Y868D01*
X1253Y867D02*
X1334Y867D01*
X2254Y867D02*
X2335Y867D01*
X1252Y866D02*
X1334Y866D01*
X2254Y866D02*
X2336Y866D01*
X1252Y865D02*
X1334Y865D01*
X2253Y865D02*
X2336Y865D01*
X1252Y864D02*
X1335Y864D01*
X2253Y864D02*
X2336Y864D01*
X1252Y863D02*
X1335Y863D01*
X2253Y863D02*
X2336Y863D01*
X1252Y862D02*
X1335Y862D01*
X2253Y862D02*
X2336Y862D01*
X1252Y861D02*
X1335Y861D01*
X2253Y861D02*
X2336Y861D01*
X1252Y860D02*
X1335Y860D01*
X2253Y860D02*
X2336Y860D01*
X1252Y859D02*
X1335Y859D01*
X2253Y859D02*
X2336Y859D01*
X1252Y858D02*
X1335Y858D01*
X2253Y858D02*
X2336Y858D01*
X1252Y857D02*
X1335Y857D01*
X2253Y857D02*
X2336Y857D01*
X1252Y856D02*
X1335Y856D01*
X2253Y856D02*
X2336Y856D01*
X1252Y855D02*
X1335Y855D01*
X2253Y855D02*
X2336Y855D01*
X1252Y854D02*
X1334Y854D01*
X2253Y854D02*
X2336Y854D01*
X1252Y853D02*
X1334Y853D01*
X2254Y853D02*
X2336Y853D01*
X1253Y852D02*
X1334Y852D01*
X2254Y852D02*
X2335Y852D01*
X1253Y851D02*
X1334Y851D01*
X2254Y851D02*
X2335Y851D01*
X1253Y850D02*
X1334Y850D01*
X2254Y850D02*
X2335Y850D01*
X1253Y849D02*
X1333Y849D01*
X2254Y849D02*
X2335Y849D01*
X1253Y848D02*
X1333Y848D01*
X2255Y848D02*
X2334Y848D01*
X1254Y847D02*
X1333Y847D01*
X2255Y847D02*
X2334Y847D01*
X1254Y846D02*
X1333Y846D01*
X2255Y846D02*
X2334Y846D01*
X1254Y845D02*
X1332Y845D01*
X2256Y845D02*
X2333Y845D01*
X1255Y844D02*
X1332Y844D01*
X2256Y844D02*
X2333Y844D01*
X1255Y843D02*
X1331Y843D01*
X2256Y843D02*
X2333Y843D01*
X1256Y842D02*
X1331Y842D01*
X2257Y842D02*
X2332Y842D01*
X1256Y841D02*
X1330Y841D01*
X2257Y841D02*
X2332Y841D01*
X1257Y840D02*
X1330Y840D01*
X2258Y840D02*
X2331Y840D01*
X1257Y839D02*
X1329Y839D01*
X2258Y839D02*
X2331Y839D01*
X1258Y838D02*
X1329Y838D01*
X2259Y838D02*
X2330Y838D01*
X1258Y837D02*
X1328Y837D01*
X2260Y837D02*
X2329Y837D01*
X1259Y836D02*
X1328Y836D01*
X2260Y836D02*
X2329Y836D01*
X1260Y835D02*
X1327Y835D01*
X2261Y835D02*
X2328Y835D01*
X1260Y834D02*
X1326Y834D01*
X2262Y834D02*
X2327Y834D01*
X1261Y833D02*
X1325Y833D01*
X2263Y833D02*
X2327Y833D01*
X1262Y832D02*
X1325Y832D01*
X2263Y832D02*
X2326Y832D01*
X1263Y831D02*
X1324Y831D01*
X2264Y831D02*
X2325Y831D01*
X1264Y830D02*
X1323Y830D01*
X2265Y830D02*
X2324Y830D01*
X1265Y829D02*
X1322Y829D01*
X2266Y829D02*
X2323Y829D01*
X1266Y828D02*
X1321Y828D01*
X2267Y828D02*
X2322Y828D01*
X1267Y827D02*
X1319Y827D01*
X2268Y827D02*
X2321Y827D01*
X1269Y826D02*
X1318Y826D01*
X2270Y826D02*
X2319Y826D01*
X1270Y825D02*
X1317Y825D01*
X2271Y825D02*
X2318Y825D01*
X1271Y824D02*
X1315Y824D01*
X2273Y824D02*
X2316Y824D01*
X1273Y823D02*
X1314Y823D01*
X2274Y823D02*
X2315Y823D01*
X1275Y822D02*
X1312Y822D01*
X2276Y822D02*
X2313Y822D01*
X1277Y821D02*
X1310Y821D01*
X2278Y821D02*
X2311Y821D01*
X1280Y820D02*
X1307Y820D01*
X2281Y820D02*
X2308Y820D01*
X1283Y819D02*
X1304Y819D01*
X2284Y819D02*
X2305Y819D01*
X1288Y818D02*
X1299Y818D01*
X2289Y818D02*
X2300Y818D01*
X1289Y801D02*
X1298Y801D01*
X2290Y801D02*
X2299Y801D01*
X1283Y800D02*
X1303Y800D01*
X2285Y800D02*
X2304Y800D01*
X1280Y799D02*
X1307Y799D01*
X2281Y799D02*
X2308Y799D01*
X1277Y798D02*
X1309Y798D01*
X2278Y798D02*
X2311Y798D01*
X1275Y797D02*
X1311Y797D01*
X2276Y797D02*
X2313Y797D01*
X1273Y796D02*
X1313Y796D01*
X2275Y796D02*
X2315Y796D01*
X1272Y795D02*
X1315Y795D01*
X2273Y795D02*
X2316Y795D01*
X1270Y794D02*
X1317Y794D01*
X2271Y794D02*
X2318Y794D01*
X1269Y793D02*
X1318Y793D01*
X2270Y793D02*
X2319Y793D01*
X1267Y792D02*
X1319Y792D01*
X2269Y792D02*
X2321Y792D01*
X1266Y791D02*
X1320Y791D01*
X2267Y791D02*
X2322Y791D01*
X1265Y790D02*
X1322Y790D01*
X2266Y790D02*
X2323Y790D01*
X1264Y789D02*
X1323Y789D01*
X2265Y789D02*
X2324Y789D01*
X1263Y788D02*
X1324Y788D01*
X2264Y788D02*
X2325Y788D01*
X1262Y787D02*
X1324Y787D01*
X2263Y787D02*
X2326Y787D01*
X1261Y786D02*
X1325Y786D01*
X2263Y786D02*
X2327Y786D01*
X1261Y785D02*
X1326Y785D01*
X2262Y785D02*
X2327Y785D01*
X1260Y784D02*
X1327Y784D01*
X2261Y784D02*
X2328Y784D01*
X1259Y783D02*
X1327Y783D01*
X2260Y783D02*
X2329Y783D01*
X1258Y782D02*
X1328Y782D01*
X2260Y782D02*
X2329Y782D01*
X1258Y781D02*
X1329Y781D01*
X2259Y781D02*
X2330Y781D01*
X1257Y780D02*
X1329Y780D01*
X2259Y780D02*
X2331Y780D01*
X1257Y779D02*
X1330Y779D01*
X2258Y779D02*
X2331Y779D01*
X1256Y778D02*
X1330Y778D01*
X2257Y778D02*
X2332Y778D01*
X1256Y777D02*
X1331Y777D01*
X2257Y777D02*
X2332Y777D01*
X1255Y776D02*
X1331Y776D01*
X2256Y776D02*
X2333Y776D01*
X1255Y775D02*
X1332Y775D01*
X2256Y775D02*
X2333Y775D01*
X1254Y774D02*
X1332Y774D01*
X2256Y774D02*
X2333Y774D01*
X1254Y773D02*
X1333Y773D01*
X2255Y773D02*
X2334Y773D01*
X1254Y772D02*
X1333Y772D01*
X2255Y772D02*
X2334Y772D01*
X1253Y771D02*
X1333Y771D01*
X2255Y771D02*
X2334Y771D01*
X1253Y770D02*
X1333Y770D01*
X2255Y770D02*
X2335Y770D01*
X1253Y769D02*
X1334Y769D01*
X2254Y769D02*
X2335Y769D01*
X1253Y768D02*
X1334Y768D01*
X2254Y768D02*
X2335Y768D01*
X1253Y767D02*
X1334Y767D01*
X2254Y767D02*
X2335Y767D01*
X1252Y766D02*
X1334Y766D01*
X2254Y766D02*
X2335Y766D01*
X1252Y765D02*
X1334Y765D01*
X2254Y765D02*
X2336Y765D01*
X1252Y764D02*
X1335Y764D01*
X2253Y764D02*
X2336Y764D01*
X1252Y763D02*
X1335Y763D01*
X2253Y763D02*
X2336Y763D01*
X1252Y762D02*
X1335Y762D01*
X2253Y762D02*
X2336Y762D01*
X1252Y761D02*
X1335Y761D01*
X2253Y761D02*
X2336Y761D01*
X1252Y760D02*
X1335Y760D01*
X2253Y760D02*
X2336Y760D01*
X1252Y759D02*
X1335Y759D01*
X2253Y759D02*
X2336Y759D01*
X1252Y758D02*
X1335Y758D01*
X2253Y758D02*
X2336Y758D01*
X1252Y757D02*
X1335Y757D01*
X2253Y757D02*
X2336Y757D01*
X1252Y756D02*
X1335Y756D01*
X2253Y756D02*
X2336Y756D01*
X1252Y755D02*
X1335Y755D01*
X2253Y755D02*
X2336Y755D01*
X1252Y754D02*
X1334Y754D01*
X2253Y754D02*
X2336Y754D01*
X1252Y753D02*
X1334Y753D01*
X2254Y753D02*
X2336Y753D01*
X1253Y752D02*
X1334Y752D01*
X2254Y752D02*
X2335Y752D01*
X1253Y751D02*
X1334Y751D01*
X2254Y751D02*
X2335Y751D01*
X1253Y750D02*
X1334Y750D01*
X2254Y750D02*
X2335Y750D01*
X1253Y749D02*
X1333Y749D01*
X2254Y749D02*
X2335Y749D01*
X1253Y748D02*
X1333Y748D01*
X2255Y748D02*
X2334Y748D01*
X1254Y747D02*
X1333Y747D01*
X2255Y747D02*
X2334Y747D01*
X1254Y746D02*
X1333Y746D01*
X2255Y746D02*
X2334Y746D01*
X1254Y745D02*
X1332Y745D01*
X2256Y745D02*
X2334Y745D01*
X1255Y744D02*
X1332Y744D01*
X2256Y744D02*
X2333Y744D01*
X1255Y743D02*
X1332Y743D01*
X2256Y743D02*
X2333Y743D01*
X1256Y742D02*
X1331Y742D01*
X2257Y742D02*
X2332Y742D01*
X1256Y741D02*
X1331Y741D01*
X2257Y741D02*
X2332Y741D01*
X1257Y740D02*
X1330Y740D01*
X2258Y740D02*
X2331Y740D01*
X1257Y739D02*
X1330Y739D01*
X2258Y739D02*
X2331Y739D01*
X1258Y738D02*
X1329Y738D01*
X2259Y738D02*
X2330Y738D01*
X1258Y737D02*
X1328Y737D01*
X2260Y737D02*
X2330Y737D01*
X1259Y736D02*
X1328Y736D01*
X2260Y736D02*
X2329Y736D01*
X1260Y735D02*
X1327Y735D01*
X2261Y735D02*
X2328Y735D01*
X1260Y734D02*
X1326Y734D01*
X2262Y734D02*
X2327Y734D01*
X1261Y733D02*
X1325Y733D01*
X2262Y733D02*
X2327Y733D01*
X1262Y732D02*
X1325Y732D01*
X2263Y732D02*
X2326Y732D01*
X1263Y731D02*
X1324Y731D01*
X2264Y731D02*
X2325Y731D01*
X1264Y730D02*
X1323Y730D01*
X2265Y730D02*
X2324Y730D01*
X1265Y729D02*
X1322Y729D01*
X2266Y729D02*
X2323Y729D01*
X1266Y728D02*
X1321Y728D01*
X2267Y728D02*
X2322Y728D01*
X1267Y727D02*
X1320Y727D01*
X2268Y727D02*
X2321Y727D01*
X1268Y726D02*
X1318Y726D01*
X2270Y726D02*
X2319Y726D01*
X1270Y725D02*
X1317Y725D01*
X2271Y725D02*
X2318Y725D01*
X1271Y724D02*
X1315Y724D01*
X2273Y724D02*
X2317Y724D01*
X1273Y723D02*
X1314Y723D01*
X2274Y723D02*
X2315Y723D01*
X1275Y722D02*
X1312Y722D01*
X2276Y722D02*
X2313Y722D01*
X1277Y721D02*
X1310Y721D01*
X2278Y721D02*
X2311Y721D01*
X1279Y720D02*
X1307Y720D01*
X2281Y720D02*
X2309Y720D01*
X1282Y719D02*
X1304Y719D01*
X2284Y719D02*
X2305Y719D01*
X1287Y718D02*
X1300Y718D01*
X2288Y718D02*
X2301Y718D01*
X1289Y701D02*
X1297Y701D01*
X2291Y701D02*
X2299Y701D01*
X1284Y700D02*
X1303Y700D01*
X2285Y700D02*
X2304Y700D01*
X1280Y699D02*
X1306Y699D01*
X2282Y699D02*
X2308Y699D01*
X1277Y698D02*
X1309Y698D01*
X2279Y698D02*
X2310Y698D01*
X1275Y697D02*
X1311Y697D01*
X2277Y697D02*
X2312Y697D01*
X1273Y696D02*
X1313Y696D01*
X2275Y696D02*
X2314Y696D01*
X1272Y695D02*
X1315Y695D01*
X2273Y695D02*
X2316Y695D01*
X1270Y694D02*
X1316Y694D01*
X2272Y694D02*
X2318Y694D01*
X1269Y693D02*
X1318Y693D01*
X2270Y693D02*
X2319Y693D01*
X1268Y692D02*
X1319Y692D01*
X2269Y692D02*
X2320Y692D01*
X1266Y691D02*
X1320Y691D01*
X2268Y691D02*
X2322Y691D01*
X1265Y690D02*
X1321Y690D01*
X2266Y690D02*
X2323Y690D01*
X1264Y689D02*
X1322Y689D01*
X2265Y689D02*
X2324Y689D01*
X1263Y688D02*
X1323Y688D01*
X2264Y688D02*
X2325Y688D01*
X1262Y687D02*
X1324Y687D01*
X2264Y687D02*
X2326Y687D01*
X1261Y686D02*
X1325Y686D01*
X2263Y686D02*
X2326Y686D01*
X1261Y685D02*
X1326Y685D01*
X2262Y685D02*
X2327Y685D01*
X1260Y684D02*
X1327Y684D01*
X2261Y684D02*
X2328Y684D01*
X1259Y683D02*
X1327Y683D01*
X2260Y683D02*
X2329Y683D01*
X1259Y682D02*
X1328Y682D01*
X2260Y682D02*
X2329Y682D01*
X1258Y681D02*
X1329Y681D01*
X2259Y681D02*
X2330Y681D01*
X1257Y680D02*
X1329Y680D01*
X2259Y680D02*
X2331Y680D01*
X1257Y679D02*
X1330Y679D01*
X2258Y679D02*
X2331Y679D01*
X1256Y678D02*
X1330Y678D01*
X2258Y678D02*
X2332Y678D01*
X1256Y677D02*
X1331Y677D01*
X2257Y677D02*
X2332Y677D01*
X1255Y676D02*
X1331Y676D01*
X2257Y676D02*
X2333Y676D01*
X1255Y675D02*
X1332Y675D01*
X2256Y675D02*
X2333Y675D01*
X1254Y674D02*
X1332Y674D01*
X2256Y674D02*
X2333Y674D01*
X1254Y673D02*
X1332Y673D01*
X2255Y673D02*
X2334Y673D01*
X1254Y672D02*
X1333Y672D01*
X2255Y672D02*
X2334Y672D01*
X1254Y671D02*
X1333Y671D01*
X2255Y671D02*
X2334Y671D01*
X1253Y670D02*
X1333Y670D01*
X2255Y670D02*
X2335Y670D01*
X1253Y669D02*
X1334Y669D01*
X2254Y669D02*
X2335Y669D01*
X1253Y668D02*
X1334Y668D01*
X2254Y668D02*
X2335Y668D01*
X1253Y667D02*
X1334Y667D01*
X2254Y667D02*
X2335Y667D01*
X1252Y666D02*
X1334Y666D01*
X2254Y666D02*
X2335Y666D01*
X1252Y665D02*
X1334Y665D01*
X2254Y665D02*
X2336Y665D01*
X1252Y664D02*
X1335Y664D01*
X2253Y664D02*
X2336Y664D01*
X1252Y663D02*
X1335Y663D01*
X2253Y663D02*
X2336Y663D01*
X1252Y662D02*
X1335Y662D01*
X2253Y662D02*
X2336Y662D01*
X1252Y661D02*
X1335Y661D01*
X2253Y661D02*
X2336Y661D01*
X1252Y660D02*
X1335Y660D01*
X2253Y660D02*
X2336Y660D01*
X1252Y659D02*
X1335Y659D01*
X2253Y659D02*
X2336Y659D01*
X1252Y658D02*
X1335Y658D01*
X2253Y658D02*
X2336Y658D01*
X1252Y657D02*
X1335Y657D01*
X2253Y657D02*
X2336Y657D01*
X1252Y656D02*
X1335Y656D01*
X2253Y656D02*
X2336Y656D01*
X1252Y655D02*
X1335Y655D01*
X2253Y655D02*
X2336Y655D01*
X1252Y654D02*
X1334Y654D01*
X2253Y654D02*
X2336Y654D01*
X1252Y653D02*
X1334Y653D01*
X2254Y653D02*
X2336Y653D01*
X1252Y652D02*
X1334Y652D01*
X2254Y652D02*
X2335Y652D01*
X1253Y651D02*
X1334Y651D01*
X2254Y651D02*
X2335Y651D01*
X1253Y650D02*
X1334Y650D01*
X2254Y650D02*
X2335Y650D01*
X1253Y649D02*
X1333Y649D01*
X2254Y649D02*
X2335Y649D01*
X1253Y648D02*
X1333Y648D01*
X2255Y648D02*
X2335Y648D01*
X1254Y647D02*
X1333Y647D01*
X2255Y647D02*
X2334Y647D01*
X1254Y646D02*
X1333Y646D01*
X2255Y646D02*
X2334Y646D01*
X1254Y645D02*
X1332Y645D01*
X2256Y645D02*
X2334Y645D01*
X1255Y644D02*
X1332Y644D01*
X2256Y644D02*
X2333Y644D01*
X1255Y643D02*
X1332Y643D01*
X2256Y643D02*
X2333Y643D01*
X1255Y642D02*
X1331Y642D01*
X2257Y642D02*
X2332Y642D01*
X1256Y641D02*
X1331Y641D01*
X2257Y641D02*
X2332Y641D01*
X1256Y640D02*
X1330Y640D01*
X2258Y640D02*
X2331Y640D01*
X1257Y639D02*
X1330Y639D01*
X2258Y639D02*
X2331Y639D01*
X1258Y638D02*
X1329Y638D01*
X2259Y638D02*
X2330Y638D01*
X1258Y637D02*
X1328Y637D01*
X2260Y637D02*
X2330Y637D01*
X1259Y636D02*
X1328Y636D01*
X2260Y636D02*
X2329Y636D01*
X1260Y635D02*
X1327Y635D01*
X2261Y635D02*
X2328Y635D01*
X1260Y634D02*
X1326Y634D01*
X2262Y634D02*
X2328Y634D01*
X1261Y633D02*
X1326Y633D01*
X2262Y633D02*
X2327Y633D01*
X1262Y632D02*
X1325Y632D01*
X2263Y632D02*
X2326Y632D01*
X1263Y631D02*
X1324Y631D01*
X2264Y631D02*
X2325Y631D01*
X1264Y630D02*
X1323Y630D01*
X2265Y630D02*
X2324Y630D01*
X1265Y629D02*
X1322Y629D01*
X2266Y629D02*
X2323Y629D01*
X1266Y628D02*
X1321Y628D01*
X2267Y628D02*
X2322Y628D01*
X1267Y627D02*
X1320Y627D01*
X2268Y627D02*
X2321Y627D01*
X1268Y626D02*
X1318Y626D01*
X2270Y626D02*
X2320Y626D01*
X1270Y625D02*
X1317Y625D01*
X2271Y625D02*
X2318Y625D01*
X1271Y624D02*
X1316Y624D01*
X2272Y624D02*
X2317Y624D01*
X1273Y623D02*
X1314Y623D01*
X2274Y623D02*
X2315Y623D01*
X1274Y622D02*
X1312Y622D01*
X2276Y622D02*
X2313Y622D01*
X1276Y621D02*
X1310Y621D01*
X2278Y621D02*
X2311Y621D01*
X1279Y620D02*
X1308Y620D01*
X2280Y620D02*
X2309Y620D01*
X1282Y619D02*
X1305Y619D01*
X2283Y619D02*
X2306Y619D01*
X1286Y618D02*
X1300Y618D01*
X2287Y618D02*
X2302Y618D01*
X1291Y601D02*
X1296Y601D01*
X2292Y601D02*
X2297Y601D01*
X1284Y600D02*
X1302Y600D01*
X2286Y600D02*
X2304Y600D01*
X1281Y599D02*
X1306Y599D01*
X2282Y599D02*
X2307Y599D01*
X1278Y598D02*
X1309Y598D01*
X2279Y598D02*
X2310Y598D01*
X1276Y597D02*
X1311Y597D01*
X2277Y597D02*
X2312Y597D01*
X1274Y596D02*
X1313Y596D01*
X2275Y596D02*
X2314Y596D01*
X1272Y595D02*
X1315Y595D01*
X2273Y595D02*
X2316Y595D01*
X1270Y594D02*
X1316Y594D01*
X2272Y594D02*
X2317Y594D01*
X1269Y593D02*
X1318Y593D01*
X2270Y593D02*
X2319Y593D01*
X1268Y592D02*
X1319Y592D01*
X2269Y592D02*
X2320Y592D01*
X1266Y591D02*
X1320Y591D01*
X2268Y591D02*
X2321Y591D01*
X1265Y590D02*
X1321Y590D01*
X2267Y590D02*
X2323Y590D01*
X1264Y589D02*
X1322Y589D01*
X2266Y589D02*
X2324Y589D01*
X1263Y588D02*
X1323Y588D01*
X2265Y588D02*
X2325Y588D01*
X1262Y587D02*
X1324Y587D01*
X2264Y587D02*
X2325Y587D01*
X1262Y586D02*
X1325Y586D01*
X2263Y586D02*
X2326Y586D01*
X1261Y585D02*
X1326Y585D01*
X2262Y585D02*
X2327Y585D01*
X1260Y584D02*
X1327Y584D01*
X2261Y584D02*
X2328Y584D01*
X1259Y583D02*
X1327Y583D01*
X2261Y583D02*
X2329Y583D01*
X1259Y582D02*
X1328Y582D01*
X2260Y582D02*
X2329Y582D01*
X1258Y581D02*
X1329Y581D01*
X2259Y581D02*
X2330Y581D01*
X1257Y580D02*
X1329Y580D01*
X2259Y580D02*
X2330Y580D01*
X1257Y579D02*
X1330Y579D01*
X2258Y579D02*
X2331Y579D01*
X1256Y578D02*
X1330Y578D01*
X2258Y578D02*
X2332Y578D01*
X1256Y577D02*
X1331Y577D01*
X2257Y577D02*
X2332Y577D01*
X1255Y576D02*
X1331Y576D01*
X2257Y576D02*
X2333Y576D01*
X1255Y575D02*
X1332Y575D01*
X2256Y575D02*
X2333Y575D01*
X1255Y574D02*
X1332Y574D01*
X2256Y574D02*
X2333Y574D01*
X1254Y573D02*
X1332Y573D01*
X2255Y573D02*
X2334Y573D01*
X1254Y572D02*
X1333Y572D01*
X2255Y572D02*
X2334Y572D01*
X1254Y571D02*
X1333Y571D01*
X2255Y571D02*
X2334Y571D01*
X1253Y570D02*
X1333Y570D01*
X2255Y570D02*
X2335Y570D01*
X1253Y569D02*
X1334Y569D01*
X2254Y569D02*
X2335Y569D01*
X1253Y568D02*
X1334Y568D01*
X2254Y568D02*
X2335Y568D01*
X1253Y567D02*
X1334Y567D01*
X2254Y567D02*
X2335Y567D01*
X1252Y566D02*
X1334Y566D01*
X2254Y566D02*
X2335Y566D01*
X1252Y565D02*
X1334Y565D01*
X2254Y565D02*
X2336Y565D01*
X1252Y564D02*
X1334Y564D01*
X2253Y564D02*
X2336Y564D01*
X1252Y563D02*
X1335Y563D01*
X2253Y563D02*
X2336Y563D01*
X1252Y562D02*
X1335Y562D01*
X2253Y562D02*
X2336Y562D01*
X1252Y561D02*
X1335Y561D01*
X2253Y561D02*
X2336Y561D01*
X1252Y560D02*
X1335Y560D01*
X2253Y560D02*
X2336Y560D01*
X1252Y559D02*
X1335Y559D01*
X2253Y559D02*
X2336Y559D01*
X1252Y558D02*
X1335Y558D01*
X2253Y558D02*
X2336Y558D01*
X1252Y557D02*
X1335Y557D01*
X2253Y557D02*
X2336Y557D01*
X1252Y556D02*
X1335Y556D01*
X2253Y556D02*
X2336Y556D01*
X1252Y555D02*
X1335Y555D01*
X2253Y555D02*
X2336Y555D01*
X1252Y554D02*
X1334Y554D01*
X2253Y554D02*
X2336Y554D01*
X1252Y553D02*
X1334Y553D01*
X2254Y553D02*
X2336Y553D01*
X1252Y552D02*
X1334Y552D01*
X2254Y552D02*
X2335Y552D01*
X1253Y551D02*
X1334Y551D01*
X2254Y551D02*
X2335Y551D01*
X1253Y550D02*
X1334Y550D01*
X2254Y550D02*
X2335Y550D01*
X1253Y549D02*
X1333Y549D01*
X2254Y549D02*
X2335Y549D01*
X1253Y548D02*
X1333Y548D01*
X2255Y548D02*
X2335Y548D01*
X1254Y547D02*
X1333Y547D01*
X2255Y547D02*
X2334Y547D01*
X1254Y546D02*
X1333Y546D01*
X2255Y546D02*
X2334Y546D01*
X1254Y545D02*
X1332Y545D01*
X2256Y545D02*
X2334Y545D01*
X1255Y544D02*
X1332Y544D01*
X2256Y544D02*
X2333Y544D01*
X1255Y543D02*
X1332Y543D01*
X2256Y543D02*
X2333Y543D01*
X1255Y542D02*
X1331Y542D01*
X2257Y542D02*
X2332Y542D01*
X1256Y541D02*
X1331Y541D01*
X2257Y541D02*
X2332Y541D01*
X1256Y540D02*
X1330Y540D01*
X2258Y540D02*
X2331Y540D01*
X1257Y539D02*
X1330Y539D01*
X2258Y539D02*
X2331Y539D01*
X1258Y538D02*
X1329Y538D01*
X2259Y538D02*
X2330Y538D01*
X1258Y537D02*
X1328Y537D01*
X2259Y537D02*
X2330Y537D01*
X1259Y536D02*
X1328Y536D01*
X2260Y536D02*
X2329Y536D01*
X1259Y535D02*
X1327Y535D01*
X2261Y535D02*
X2328Y535D01*
X1260Y534D02*
X1326Y534D01*
X2262Y534D02*
X2328Y534D01*
X1261Y533D02*
X1326Y533D01*
X2262Y533D02*
X2327Y533D01*
X1262Y532D02*
X1325Y532D01*
X2263Y532D02*
X2326Y532D01*
X1263Y531D02*
X1324Y531D01*
X2264Y531D02*
X2325Y531D01*
X1264Y530D02*
X1323Y530D01*
X2265Y530D02*
X2324Y530D01*
X1265Y529D02*
X1322Y529D01*
X2266Y529D02*
X2323Y529D01*
X1266Y528D02*
X1321Y528D01*
X2267Y528D02*
X2322Y528D01*
X1267Y527D02*
X1320Y527D01*
X2268Y527D02*
X2321Y527D01*
X1268Y526D02*
X1319Y526D01*
X2269Y526D02*
X2320Y526D01*
X1269Y525D02*
X1317Y525D01*
X2271Y525D02*
X2318Y525D01*
X1271Y524D02*
X1316Y524D01*
X2272Y524D02*
X2317Y524D01*
X1272Y523D02*
X1314Y523D01*
X2274Y523D02*
X2315Y523D01*
X1274Y522D02*
X1312Y522D01*
X2275Y522D02*
X2314Y522D01*
X1276Y521D02*
X1310Y521D01*
X2277Y521D02*
X2312Y521D01*
X1279Y520D02*
X1308Y520D01*
X2280Y520D02*
X2309Y520D01*
X1281Y519D02*
X1305Y519D01*
X2283Y519D02*
X2306Y519D01*
X1285Y518D02*
X1301Y518D01*
X2287Y518D02*
X2302Y518D01*
D02*
G04 End of Mask1*
M02*