; NON-PLATED HOLES START AT T1
; THROUGH (PLATED) HOLES START AT T100
M48
INCH
T1C0.118110
T2C0.125984
T3C0.165354
T100C0.040000
T101C0.035050
T102C0.043307
T103C0.038000
%
T1
X027499Y005590
X005499Y029590
X006499Y005590
X014499Y035590
X022499Y002590
X020499Y035590
X030499Y027590
T2
X030499Y017590
X027499Y023590
X030499Y014590
X027499Y021590
T3
X002499Y023590
X002499Y013590
X001499Y017590
T100
X027575Y029740
X017499Y005590
X027037Y030665
X026499Y031590
X018877Y005590
T101
X022944Y019607
X022944Y016603
X022944Y018606
X022944Y015602
X022944Y009593
X022944Y007590
X022944Y006589
X022944Y013599
X012930Y018606
X012930Y011596
X012930Y005587
X012930Y010595
X022944Y008592
X012930Y013599
X022944Y010595
X012930Y016603
X022944Y005587
X012930Y019607
X022944Y017605
X022944Y011596
X012930Y014600
X012930Y006589
X012930Y009593
X022944Y014600
X022944Y012597
X012930Y015602
X012930Y012597
X012930Y017605
X012930Y008592
X012930Y007590
T102
X030499Y023590
X030499Y022212
X016722Y035590
X018100Y035590
X016499Y027590
X017877Y027590
T103
X024499Y018590
X015944Y023590
X016944Y023590
X008499Y028590
X009499Y013590
X032499Y016590
X024499Y014590
X008097Y027675
X017944Y023590
X008499Y016590
X024499Y013590
X018945Y023590
X024499Y015590
X032499Y017590
X032499Y014590
X009499Y014590
X006499Y023590
X006499Y024590
X024499Y017590
X008499Y018590
X024499Y016590
X006499Y022590
X008499Y017590
X028499Y023183
X028499Y022183
X032499Y015590
X009499Y012590
T00
M30
